<svg width="600" height="400" viewBox="0 0 600 400" fill="none" xmlns="http://www.w3.org/2000/svg">
<path d="M344.08 210.515L314.082 374.258L315.263 374.474L345.26 210.731M421.561 210.731L451.559 374.474L452.738 374.258L422.741 210.515L421.561 210.731Z" fill="#9FACDE"/>
<path d="M247.096 209.237H519.726V38.1601H247.096V209.237Z" fill="white"/>
<path d="M519.725 209.238V208.638H247.695V38.7607H519.125V209.238H519.725H520.325V38.1607C520.325 38.0031 520.261 37.8479 520.149 37.7367C520.037 37.6247 519.883 37.5607 519.725 37.5607H247.095C246.937 37.5607 246.782 37.6247 246.67 37.7367C246.558 37.8495 246.496 38.0018 246.495 38.1607V209.238C246.495 209.396 246.559 209.551 246.67 209.663C246.783 209.775 246.936 209.837 247.095 209.838H519.725C519.883 209.838 520.037 209.774 520.149 209.663C520.261 209.55 520.325 209.397 520.325 209.238H519.725Z" fill="#9FACDE"/>
<path d="M465.328 213.547H301.491V205.6H465.328V213.547ZM465.328 42.1336H301.491V34.1867H465.328V42.1336Z" fill="#6E7BC6"/>
<path d="M429.137 200.77L424.075 172.673L427.226 172.106L432.287 200.202L429.137 200.77Z" fill="#7F5BB3"/>
<path d="M433.008 203.198L436.073 174.815L439.254 175.159L436.19 203.542L433.008 203.198Z" fill="#F363B8"/>
<path d="M437.584 199.187L446.785 172.162L449.815 173.194L440.614 200.219L437.584 199.187Z" fill="#F46A51"/>
<path d="M446.591 205.601H420.202V192.674H446.591V205.601Z" fill="#FDE1B3"/>
<path d="M420.202 197.071H429.028V196.271H420.202V197.071ZM433.007 197.071H446.591V196.271H433.007V197.071Z" fill="#040606"/>
<path d="M425.187 174.76H382.078C380.138 174.76 378.565 173.188 378.565 171.248V152.771C378.565 150.831 380.138 149.259 382.078 149.259H425.187C427.127 149.259 428.699 150.831 428.699 152.771V171.248C428.699 173.188 427.127 174.76 425.187 174.76ZM428.846 138.288H393.828V79.1683H428.846V138.288ZM502.684 181.611H442.378V87.9721H502.684V181.611Z" fill="#EFFAFE"/>
<path d="M367.241 184.009H264.611V50.2642H367.241V184.009Z" fill="#E6EBF6"/>
<path d="M273.916 70.8712C275.596 69.8297 277.275 68.7873 278.955 67.7449C279.694 67.2785 280.504 66.8681 281.13 66.8785C281.312 66.8785 281.48 66.9073 281.647 66.9713C281.982 67.0953 282.304 67.3937 282.671 67.7801C283.04 68.1577 283.45 68.6185 284.066 68.9145C284.521 69.1305 284.979 69.2329 285.417 69.2321C286.067 69.2321 286.649 69.0129 287.161 68.7145C287.931 68.2641 288.582 67.6329 289.212 67.0985C289.837 66.5585 290.434 66.1337 290.973 66.0098C291.053 65.9906 291.107 65.9858 291.135 65.9858L291.158 65.9874L291.159 65.9865L291.184 65.9042L291.117 65.961L291.159 65.9865L291.184 65.9042L291.117 65.961C291.121 65.961 291.168 66.0401 291.216 66.1897C291.267 66.3377 291.324 66.5417 291.425 66.7681C291.561 67.0737 291.769 67.3361 292.027 67.5265C292.284 67.7177 292.585 67.8353 292.897 67.8897C293.07 67.9209 293.24 67.9329 293.404 67.9329C293.823 67.9321 294.201 67.8569 294.544 67.7929C294.888 67.7273 295.195 67.6721 295.462 67.6737H295.512C299.415 67.7713 305.054 67.7865 308.145 67.7865C309.51 67.7865 310.377 67.7833 310.378 67.7833L310.374 66.5833C310.371 66.5841 309.508 66.5865 308.145 66.5865C305.059 66.5865 299.421 66.5713 295.543 66.4745L295.462 66.4737C295.043 66.4745 294.664 66.5497 294.322 66.6137C293.979 66.6793 293.671 66.7337 293.404 66.7329C293.299 66.7329 293.2 66.7249 293.105 66.7081C292.948 66.6801 292.832 66.6289 292.742 66.5625C292.652 66.4945 292.581 66.4097 292.52 66.2769C292.429 66.0857 292.376 65.8138 292.229 65.4946C292.153 65.3362 292.038 65.1522 291.841 65.0058C291.645 64.8578 291.383 64.7826 291.135 64.7858C290.989 64.7858 290.843 64.8066 290.693 64.8434C290.099 64.9866 289.586 65.2914 289.114 65.6378C288.409 66.1594 287.779 66.7897 287.162 67.2641C286.855 67.5009 286.554 67.6977 286.265 67.8297C285.974 67.9625 285.7 68.0321 285.417 68.0321C285.162 68.0313 284.893 67.9769 284.578 67.8289C284.239 67.6737 283.911 67.3425 283.536 66.9481C283.159 66.5609 282.728 66.1041 282.077 65.8505C281.763 65.7305 281.442 65.6785 281.13 65.6785C280.044 65.6897 279.104 66.249 278.322 66.7257C276.643 67.7673 274.963 68.8097 273.284 69.852L273.916 70.8712ZM273.6 75.9063H298.524V74.7063H273.6V75.9063ZM302.834 75.9063H310.375V74.7063H302.834V75.9063ZM273.6 82.4725H310.375V81.2726H273.6V82.4725ZM273.6 86.9124H310.375V85.7125H273.6V86.9124ZM273.6 94.5162H295.328V93.3163H273.6V94.5162ZM273.6 99.9385H301.364V98.7385H273.6V99.9385Z" fill="white"/>
<path d="M356.919 114.971C356.919 116.161 355.954 117.126 354.764 117.126C353.573 117.126 352.608 116.161 352.608 114.971C352.608 113.781 353.573 112.816 354.764 112.816C355.954 112.816 356.919 113.781 356.919 114.971Z" fill="#FDE5DA"/>
<path d="M311.505 115.571H348.466V114.371H311.505V115.571Z" fill="#B7C1E7"/>
<path d="M356.919 125.826C356.919 127.017 355.954 127.981 354.764 127.981C353.573 127.981 352.608 127.017 352.608 125.826C352.608 124.636 353.573 123.671 354.764 123.671C355.954 123.671 356.919 124.636 356.919 125.826Z" fill="#FDE5DA"/>
<path d="M311.505 126.426H348.466V125.226H311.505V126.426Z" fill="#B7C1E7"/>
<path d="M356.919 158.54C356.919 159.731 355.954 160.695 354.764 160.695C353.573 160.695 352.608 159.731 352.608 158.54C352.608 157.35 353.573 156.385 354.764 156.385C355.954 156.385 356.919 157.35 356.919 158.54Z" fill="#FDE5DA"/>
<path d="M311.505 159.141H348.466V157.941H311.505V159.141Z" fill="#B7C1E7"/>
<path d="M356.919 169.278C356.919 170.469 355.954 171.434 354.764 171.434C353.573 171.434 352.608 170.469 352.608 169.278C352.608 168.088 353.573 167.123 354.764 167.123C355.954 167.123 356.919 168.088 356.919 169.278Z" fill="#FDE5DA"/>
<path d="M311.505 169.879H348.467V168.679H311.505V169.879ZM301.754 170.651V170.051H274.897V111.711H301.154V170.651H301.754H302.354V111.111C302.354 110.953 302.29 110.799 302.178 110.687C302.066 110.575 301.912 110.511 301.754 110.511H274.297C274.138 110.511 273.986 110.574 273.873 110.687C273.761 110.799 273.697 110.952 273.697 111.111V170.651C273.697 170.81 273.761 170.963 273.873 171.075C273.986 171.187 274.138 171.251 274.297 171.251H301.754C301.912 171.251 302.066 171.187 302.178 171.075C302.29 170.964 302.354 170.809 302.354 170.651H301.754Z" fill="#B7C1E7"/>
<path d="M386.161 99.2539H316.487V61.5261H386.161V99.2539Z" fill="white"/>
<path d="M381.865 95.8975H320.783V65.3862H381.865V95.8975Z" fill="#FDE5DA"/>
<path d="M379.047 76.6873L373.549 71.5595L356.736 83.8768L343.095 72.7714L320.783 83.8768V95.7812H381.865V74.9922L379.047 76.6873Z" fill="white"/>
<path d="M359.236 62.1263H385.56V98.6541H333.553V99.8541H386.16C386.318 99.8541 386.473 99.7901 386.584 99.6781C386.696 99.5661 386.76 99.4117 386.76 99.2541V61.5263C386.76 61.3679 386.696 61.2135 386.584 61.1015C386.471 60.9897 386.319 60.9268 386.16 60.9263H359.236V62.1263ZM327.754 98.6877H317.087V62.1263H352.608V60.9263H316.487C316.328 60.9263 316.174 60.9903 316.063 61.1015C315.95 61.2143 315.887 61.367 315.887 61.5263V99.2877C315.887 99.4468 315.95 99.5993 316.063 99.7117C316.175 99.8242 316.328 99.8875 316.487 99.8877H327.754V98.6877Z" fill="#B7C1E7"/>
<path d="M381.982 72.0279V95.181H320.783V96.3809H382.582C382.74 96.3809 382.894 96.3169 383.006 96.2049C383.118 96.092 383.181 95.9398 383.182 95.7809V72.0279H381.982ZM414.677 179.292V178.692H365.627C364.093 178.688 362.852 177.448 362.849 175.914V165.386C362.852 163.853 364.093 162.612 365.627 162.609H414.677C416.21 162.612 417.452 163.853 417.454 165.386V175.914C417.452 177.448 416.21 178.688 414.677 178.692V179.892C416.874 179.891 418.654 178.111 418.654 175.914V165.386C418.654 163.19 416.874 161.41 414.677 161.409H365.627C363.43 161.41 361.649 163.19 361.649 165.386V175.914C361.649 178.111 363.43 179.891 365.627 179.892H414.677V179.292Z" fill="#B7C1E7"/>
<path d="M375.007 174.044H376.207V168.577H375.007V174.044ZM381.264 174.044H382.464V168.577H381.264V174.044ZM386.368 171.25H409.869V170.05H386.368V171.25ZM481.532 69.6322V69.0322H416.129C414.714 69.0298 413.569 67.885 413.567 66.4699V55.5126C413.569 54.0974 414.714 52.9526 416.129 52.9502H481.532C482.947 52.9526 484.092 54.0974 484.095 55.5126V66.4699C484.092 67.885 482.947 69.0298 481.532 69.0322V70.2322C483.61 70.2322 485.294 68.5482 485.295 66.4699V55.5126C485.294 53.4342 483.61 51.7503 481.532 51.7503H416.129C414.051 51.7503 412.367 53.4342 412.367 55.5126V66.4699C412.367 68.5482 414.051 70.2322 416.129 70.2322H481.532V69.6322Z" fill="#B7C1E7"/>
<path d="M420.861 59.1403H426.17V57.9403H420.861V59.1403ZM434.483 59.1403H477.981V57.9403H434.483V59.1403ZM420.861 64.4521H456.849V63.2522H420.861V64.4521ZM463.164 64.4521H477.982V63.2522H463.164V64.4521Z" fill="#B7C1E7"/>
<path d="M131.113 87.722H130.513C130.511 88.8244 129.619 89.7171 128.516 89.7195C127.413 89.7171 126.52 88.8244 126.518 87.722C126.52 86.6188 127.413 85.726 128.516 85.7244C129.619 85.726 130.511 86.6188 130.513 87.722H131.713C131.713 85.9556 130.282 84.5245 128.516 84.5245C126.75 84.5245 125.318 85.9556 125.318 87.722C125.318 89.4875 126.75 90.9187 128.516 90.9195C130.282 90.9187 131.713 89.4875 131.713 87.722H131.113ZM567.293 246.158H566.693C566.691 247.261 565.799 248.153 564.696 248.155C563.593 248.153 562.7 247.261 562.698 246.158C562.7 245.055 563.593 244.162 564.696 244.16C565.799 244.162 566.691 245.055 566.693 246.158H567.893C567.893 244.392 566.461 242.96 564.696 242.96C562.93 242.96 561.498 244.392 561.498 246.158C561.498 247.924 562.93 249.355 564.696 249.355C566.461 249.355 567.893 247.924 567.893 246.158H567.293ZM533.6 71.756H533C532.998 72.8591 532.106 73.752 531.002 73.7535C529.899 73.752 529.007 72.8591 529.005 71.756C529.007 70.6536 529.899 69.7608 531.002 69.7585C532.106 69.7608 532.998 70.6536 533 71.756H534.2C534.2 69.9904 532.769 68.5593 531.002 68.5585C529.236 68.5593 527.806 69.9904 527.805 71.756C527.806 73.5223 529.236 74.9535 531.002 74.9535C532.769 74.9535 534.2 73.5223 534.2 71.756H533.6ZM415.697 231.563H415.097C415.096 232.666 414.203 233.558 413.1 233.561C411.997 233.558 411.105 232.666 411.102 231.563C411.105 230.46 411.997 229.567 413.1 229.566C414.203 229.567 415.096 230.46 415.097 231.563H416.297C416.297 229.797 414.866 228.366 413.1 228.366C411.333 228.366 409.903 229.797 409.902 231.563C409.903 233.329 411.333 234.76 413.1 234.761C414.866 234.76 416.297 233.329 416.297 231.563H415.697ZM174.416 144.6H175.616V139.047H174.416V144.6Z" fill="#9FACDE"/>
<path d="M172.24 142.423H177.793V141.223H172.24V142.423ZM224.856 57.9034H226.056V52.3504H224.856V57.9034Z" fill="#9FACDE"/>
<path d="M222.681 55.7272H228.233V54.5272H222.681V55.7272ZM550.109 135.192H551.309V129.639H550.109V135.192Z" fill="#9FACDE"/>
<path d="M547.932 133.016H553.485V131.816H547.932V133.016ZM370.403 264.553H371.603V259H370.403V264.553Z" fill="#9FACDE"/>
<path d="M368.227 262.376H373.779V261.176H368.227V262.376Z" fill="#9FACDE"/>
<path d="M559.633 235.486H505.744C505.744 220.605 517.808 208.541 532.689 208.541C547.57 208.541 559.633 220.605 559.633 235.486ZM94.0692 73.4408L88.0869 61.2484L99.505 66.5018L94.0692 73.4408Z" fill="#FDE1E2"/>
<path d="M198.574 114.236L186.31 120.29L198.75 135.31L198.574 114.236ZM535.846 105.918L549.008 114.273L556.262 93.261L535.846 105.918Z" fill="#FDE5DA"/>
<path d="M163.754 97.7549H246.495V70.0543H163.754V97.7549ZM247.695 97.7549H253.476V70.0543H247.695V97.7549Z" fill="#FEF1EB"/>
<path d="M246.495 97.7549H247.695V70.0543H246.495V97.7549Z" fill="#D7CBE2"/>
<path d="M158.594 53.5562C158.594 59.8641 153.48 64.9775 147.172 64.9775C140.864 64.9775 135.751 59.8641 135.751 53.5562C135.751 47.2476 140.864 42.1341 147.172 42.1341C153.48 42.1341 158.594 47.2476 158.594 53.5562Z" fill="#FEF4C1"/>
<path d="M505.679 261.775H432.131L428.862 243.93H505.679V261.775ZM430.911 261.775H415.957V243.93H427.642L430.911 261.775Z" fill="#FFF9DD"/>
<path d="M432.131 261.775H430.911L427.643 243.93H428.863L432.131 261.775Z" fill="#D4D3D5"/>
<path d="M380.639 275.921C380.639 284.396 387.509 291.267 395.984 291.267V260.577C387.509 260.577 380.639 267.446 380.639 275.921Z" fill="#FDE0CB"/>
<path d="M255.424 345.063L256.797 362.178H285.277C285.493 362.178 283.306 343.889 283.306 343.889" fill="#F9AF9B"/>
<path d="M285.56 358.354H255.204L252.812 373.888H303.81C304.306 362.753 289.241 364.778 285.56 358.354Z" fill="#F2512D"/>
<path d="M253.261 371.383H303.491V370.583H253.261V371.383Z" fill="#040606"/>
<path d="M254.279 364.631L254.36 364.636C254.778 364.668 256.764 364.865 258.96 365.775C261.161 366.688 263.553 368.298 264.877 371.15L265.603 370.814C264.07 367.514 261.23 365.77 258.807 364.854C256.38 363.938 254.346 363.834 254.32 363.832L254.279 364.631ZM295.871 364.191C295.849 364.199 294.609 364.659 293.102 365.713C291.596 366.766 289.815 368.418 288.75 370.82L289.481 371.144C290.464 368.923 292.131 367.367 293.56 366.369C294.273 365.87 294.926 365.511 295.397 365.278C295.633 365.161 295.824 365.076 295.954 365.02L296.102 364.959L296.149 364.942L295.871 364.191ZM287.264 360.111L282.823 363.617L283.319 364.245L287.76 360.738M289.99 361.623L285.549 365.129L286.045 365.757L290.486 362.25" fill="#040606"/>
<path d="M312.081 345.063L315.617 362.178H344.097C344.314 362.178 339.964 343.889 339.964 343.889" fill="#F9AF9B"/>
<path d="M344.38 358.354H314.025L311.634 373.888H362.631C363.127 362.753 348.062 364.778 344.38 358.354Z" fill="#F2512D"/>
<path d="M312.081 371.383H362.312V370.583H312.081V371.383Z" fill="#040606"/>
<path d="M313.1 364.631L313.18 364.636C313.597 364.668 315.584 364.865 317.78 365.775C319.98 366.688 322.373 368.298 323.698 371.15L324.423 370.814C322.89 367.514 320.05 365.77 317.627 364.854C315.2 363.938 313.166 363.834 313.14 363.832L313.1 364.631ZM354.691 364.191C354.669 364.199 353.429 364.659 351.921 365.713C350.415 366.766 348.635 368.418 347.569 370.82L348.301 371.144C349.284 368.923 350.951 367.367 352.379 366.369C353.094 365.87 353.746 365.511 354.218 365.278C354.453 365.161 354.643 365.076 354.774 365.02L354.922 364.959L354.968 364.942L354.691 364.191ZM346.084 360.111L341.644 363.617L342.139 364.245L346.58 360.738M348.809 361.623L344.368 365.129L344.864 365.757L349.305 362.25" fill="#040606"/>
<path d="M243.702 188.21C243.702 188.21 235.925 210.738 235.98 218.916C236.035 227.094 242.879 269.245 244.296 278.444C245.715 287.645 253.972 354.579 253.972 354.579H290.114L276.661 212.846C276.661 212.846 280.1 173.374 280.132 172.347" fill="#3F312C"/>
<path d="M304.467 188.21L305.553 196.546L344.629 354.579H305.414C305.414 354.579 270.325 227.909 268.262 220.207C266.199 212.505 270.045 182.296 270.045 182.296" fill="#3F312C"/>
<path d="M252.612 345.111H288.799V344.311H252.612V345.111ZM302.681 345.111H342.191V344.311H302.681V345.111Z" fill="#64534E"/>
<path d="M277.894 354.522C277.893 354.521 277.82 354.006 277.682 353.037C276.645 345.769 271.977 313.023 267.559 281.421C265.349 265.621 263.203 250.107 261.603 238.207C260.804 232.258 260.141 227.211 259.676 223.487C259.444 221.624 259.261 220.092 259.135 218.943C259.009 217.798 258.94 217.022 258.937 216.723C258.936 216.601 258.935 216.475 258.935 216.344C258.934 213.364 259.376 208.067 259.82 203.531C260.042 201.262 260.264 199.181 260.43 197.667C260.596 196.153 260.707 195.21 260.707 195.207L259.912 195.115C259.912 195.124 258.136 210.262 258.135 216.344C258.135 216.478 258.136 216.608 258.137 216.735C258.144 217.132 258.223 217.976 258.366 219.267C260.51 238.527 277.101 354.631 277.102 354.635L277.894 354.522ZM333.316 354.774C333.316 354.774 333.178 354.167 332.918 353.03C330.97 344.499 322.204 306.104 313.925 269.763C309.785 251.592 305.768 233.936 302.785 220.783C301.294 214.206 300.061 208.755 299.201 204.93C298.771 203.017 298.435 201.51 298.206 200.473C298.091 199.954 298.003 199.552 297.945 199.277C297.915 199.139 297.893 199.033 297.879 198.961L297.863 198.881L297.861 198.867L297.559 198.911H297.864L297.861 198.867L297.559 198.911H297.864V194.717H297.064V198.911L297.07 198.984C297.084 199.076 297.125 199.27 297.2 199.622C299.516 210.363 332.536 354.95 332.536 354.952L333.316 354.774Z" fill="#64534E"/>
<path d="M282.469 270.228L279.437 213.007L278.639 213.049L281.67 270.271M241.573 194.517H305.237V193.717H241.573V194.517Z" fill="#040606"/>
<path d="M285.513 194.117H286.313V187.657H285.513V194.117ZM301.27 194.059L300.4 188.098L299.609 188.213L300.479 194.175M284.087 191.251C284.087 192.036 283.459 192.673 282.684 192.673C281.909 192.673 281.281 192.036 281.281 191.251C281.281 190.465 281.909 189.828 282.684 189.828C283.459 189.828 284.087 190.465 284.087 191.251ZM273.801 194.168L274.636 187.708L273.842 187.605L273.008 194.066M255.408 194.168L256.243 187.708L255.449 187.605L254.615 194.066M255.141 205.986C259.181 207.093 263.167 208.393 267.083 209.88L267.367 209.133C263.427 207.636 259.418 206.328 255.352 205.214L255.141 205.986ZM254.312 200.947C256.687 202.29 259.228 203.315 261.87 203.994L262.069 203.219C259.495 202.558 257.02 201.56 254.707 200.251L254.312 200.947ZM298.763 204.694C300.256 203.865 301.75 203.035 303.244 202.205L302.855 201.506C301.362 202.336 299.868 203.166 298.374 203.995L298.763 204.694Z" fill="#040606"/>
<path d="M269.515 89.4738L266.217 101.904L258.077 104.974C258.077 104.974 275.13 116.377 281.033 114.842C286.936 113.307 295.244 103.877 295.244 103.877C295.244 103.877 290.666 102.123 290.113 101.465C289.56 100.808 290.113 88.6442 290.113 88.6442M355.033 114.875C358.505 112.267 362.206 109.911 366.254 108.347C368.236 107.581 370.305 107.128 372.41 106.873C373.558 106.733 374.712 106.645 375.865 106.566C376.717 106.509 377.56 106.439 378.408 106.361C379.572 106.253 380.536 107.611 379.24 108.275C376.988 109.43 374.912 109.482 374.864 110.333C377.653 110.858 380.415 109.941 383.176 109.281C384.632 108.933 385.483 108.609 387.335 108.108C389.291 107.578 390.399 107.636 390.644 108.548C390.715 108.808 390.102 109.513 389.911 109.704C390.679 109.7 391.179 109.395 391.947 109.468C392.299 109.501 392.663 109.558 392.957 109.757C393.25 109.956 393.451 110.334 393.342 110.672C393.291 110.828 393.183 110.957 393.077 111.083C392.836 111.368 392.595 111.653 392.354 111.938C392.928 111.767 393.449 112.476 393.345 113.068C393.242 113.66 392.763 114.102 392.313 114.498C391.924 114.839 391.535 115.18 391.147 115.521C391.742 115.252 392.516 115.876 392.385 116.517C392.341 116.732 392.243 116.941 392.094 117.102C389.64 119.752 387.699 121.333 385.111 122.825C382.227 124.486 379.208 125.898 375.984 126.755C370.426 128.231 365.721 129.574 360.301 131.495" fill="#F9AF9B"/>
<path d="M373.537 111.645C372.164 113.027 370.503 114.12 368.693 114.834L368.987 115.578C370.9 114.824 372.653 113.669 374.105 112.209L373.537 111.645ZM391.176 115.184C390.319 115.182 389.628 115.432 388.807 115.788C387.582 116.324 386.159 117.256 385.019 117.657C383.01 118.371 380.78 118.457 378.536 118.608C376.294 118.762 374.029 118.983 371.974 120.053L372.344 120.763C374.217 119.783 376.362 119.556 378.591 119.406C380.816 119.253 383.119 119.177 385.287 118.411C386.568 117.953 387.994 117.009 389.126 116.522C389.931 116.173 390.48 115.984 391.176 115.984V115.184ZM392.163 111.587C388.468 113.59 385.572 114.528 381.355 114.807L381.407 115.605C385.72 115.327 388.794 114.331 392.545 112.289L392.163 111.587ZM389.684 109.374C386.719 111.413 382.635 111.655 378.885 111.796L378.916 112.595C382.67 112.444 386.901 112.241 390.136 110.034L389.684 109.374Z" fill="#040606"/>
<path d="M294.02 103.39C294.02 103.39 300.129 104.494 303.428 105.968C309.666 108.755 312.292 111.737 317.161 115.581C322.029 119.424 328.652 125.826 328.652 125.826L358.351 112.153L367.315 131.797C367.315 131.797 343.258 151.055 336.929 153.659C332.699 155.4 324.433 156.914 312.911 150.729C301.389 144.544 290.113 133.802 290.113 133.802" fill="#F68731"/>
<path d="M311.649 124.758L304.467 188.284H243.701L240.123 121.952L263.358 101.247L283.104 107.825L294.02 103.391L311.649 124.758Z" fill="#F68731"/>
<path d="M311.501 130.31L311.159 130.425L311.52 130.405C311.517 130.393 311.525 130.39 311.501 130.31L311.159 130.425L311.52 130.405L311.357 130.414L311.52 130.41V130.405L311.357 130.414L311.52 130.41V130.408C311.52 130.362 311.533 130.131 311.552 129.797C311.611 128.781 311.729 126.686 311.729 124.126C311.724 119.358 311.335 112.995 309.331 108.869L308.612 109.22C310.51 113.094 310.935 119.411 310.929 124.126C310.929 125.816 310.877 127.303 310.825 128.406C310.799 128.957 310.773 129.413 310.754 129.75C310.735 130.092 310.721 130.299 310.72 130.408L310.722 130.451C310.725 130.473 310.719 130.482 310.743 130.565L311.501 130.31Z" fill="#F9AC4B"/>
<path d="M364.357 130.439C364.357 131.022 363.885 131.495 363.303 131.495C362.72 131.495 362.248 131.022 362.248 130.439C362.248 129.855 362.72 129.381 363.303 129.381C363.885 129.381 364.357 129.855 364.357 130.439ZM328.463 125.474L321.998 128.939L322.376 129.644L328.842 126.179M352.66 114.693L362.251 135.934L362.98 135.604L353.389 114.365" fill="#040606"/>
<path d="M364.595 125.887L352.744 132.06L353.114 132.77L364.965 126.596" fill="#040606"/>
<path d="M232.989 231.681C238.248 231.681 241.057 221.69 242.494 214.264L221.233 218.027C219.087 220.474 216.889 222.964 214.144 224.51C212.848 225.241 211.459 225.743 210.103 226.325C206.948 227.678 201.211 229.061 201.211 231.681H232.989Z" fill="#F9AF9B"/>
<path d="M228.541 227.051L222.752 228.817C222.159 228.999 221.526 229.189 220.939 229.548C220.181 230.016 219.634 230.687 219.124 231.31L219.744 231.815C220.249 231.193 220.75 230.602 221.359 230.23C221.827 229.94 222.393 229.763 222.986 229.583L228.774 227.816L228.541 227.051ZM218.182 226.259C216.24 227.173 214.097 227.656 211.937 228.173C209.779 228.691 207.603 229.243 205.609 230.334C205.132 230.597 204.617 230.914 204.242 231.423L204.888 231.895C205.139 231.549 205.544 231.28 205.993 231.035C207.868 230.007 209.972 229.466 212.124 228.951C214.275 228.435 216.473 227.945 218.522 226.983L218.182 226.259Z" fill="#040606"/>
<path d="M266.653 100.266C266.653 100.266 254.759 103.644 248.624 106.639C242.489 109.634 236.848 112.548 233.251 127.75C229.655 142.951 218.675 219.93 218.675 219.93L244.131 217.991L262.394 125.319" fill="#F68731"/>
<path d="M219.472 214.664L245.171 213.23L245.126 212.431L219.427 213.865" fill="#040606"/>
<path d="M237.064 218.569L239.647 205.446L238.862 205.291L236.279 218.415" fill="#040606"/>
<path d="M239.57 113.199C240.237 113.052 240.905 112.982 241.573 112.982C245.263 112.977 248.957 115.12 251.729 117.833C256.311 122.312 259.265 128.447 259.911 134.832L260.707 134.751C260.04 128.175 257.008 121.876 252.288 117.261C249.416 114.458 245.577 112.188 241.573 112.182C240.85 112.182 240.122 112.257 239.397 112.418L239.57 113.199Z" fill="#F9AC4B"/>
<path d="M240.884 215.433C240.884 216.017 240.412 216.49 239.83 216.49C239.248 216.49 238.776 216.017 238.776 215.433C238.776 214.849 239.248 214.376 239.83 214.376C240.412 214.376 240.884 214.849 240.884 215.433ZM250.388 188.309L262.089 128.928L261.305 128.772L249.603 188.153M309.369 148.489L312.046 126.069L311.252 125.974L308.575 148.394" fill="#040606"/>
<path d="M277.898 188.25L281.545 110.8L280.746 110.762L277.099 188.212M281.681 188.25L285.328 110.8L284.529 110.762L280.882 188.212M292.109 132.415L291.73 134.791H306.142L306.52 132.415H292.109Z" fill="#F9AC4B"/>
<path d="M267.811 95.8975L262.188 101.61L274.757 120.421L283.105 107.825L267.811 95.8975ZM289.884 99.339L283.105 107.825L289.274 118.171L294.02 103.391L289.884 99.339Z" fill="#F68731"/>
<path d="M261.854 101.833L274.758 121.144L283.438 108.046L282.771 107.604L274.756 119.699L262.52 101.388L261.854 101.833Z" fill="#040606"/>
<path d="M282.761 108.029L289.384 119.136L294.401 103.513L293.64 103.268L289.164 117.205L283.448 107.62L282.761 108.029ZM268.643 177.799C275.94 174.833 283.007 171.33 289.786 167.32L289.379 166.632C282.633 170.622 275.602 174.107 268.342 177.058L268.643 177.799ZM280.139 177.184C285.032 175.64 289.924 174.096 294.817 172.551L294.576 171.789C289.684 173.333 284.791 174.877 279.898 176.422L280.139 177.184Z" fill="#040606"/>
<path d="M272.173 62.8911C276.838 60.6408 283.982 59.268 287.739 65.4407C291.496 71.6141 294.583 80.7387 295.523 83.9594C296.462 87.1801 297.669 94.1576 288.41 96.0367C279.151 97.9151 273.65 93.084 270.562 89.4609C267.476 85.8377 256.876 70.2717 272.173 62.8911Z" fill="#F9AF9B"/>
<path d="M268.139 83.1869C270.783 79.8238 270.902 74.7447 270.832 70.6184C273.628 71.512 278.479 70.7833 281.268 69.8681C284.056 68.9521 285.6 67.9553 286.466 65.461C287.961 66.3778 288.889 66.9681 290.702 71.1184C291.5 69.6441 291.731 67.0705 291.434 65.4202C290.957 62.7794 289.676 61.0283 287.872 59.0732C285.94 56.9812 283.715 56.1532 280.909 55.894C279.769 55.7892 276.372 56.0036 273.763 59.0667C268.243 57.85 264.441 60.6563 262.188 62.3931C259.663 64.3394 257.727 67.6274 257.154 70.8473C256.475 74.6624 256.744 79.7438 259.834 83.5309C262.154 86.3741 264.674 87.7596 267.912 89.334" fill="#3F312C"/>
<path d="M271.242 82.0677C270.347 80.1061 266.887 79.6798 265.323 81.0509C261.562 84.3476 266.311 91.3131 270.726 90.3843C271.974 90.1219 273.452 89.0123 273.321 87.59" fill="#F9AF9B"/>
<path d="M266.361 84.838L271.573 86.5964L271.765 86.0284L266.553 84.2693M268.202 80.711C269.294 80.8614 270.342 81.3518 271.157 82.0941L271.561 81.6509C270.654 80.8254 269.498 80.2846 268.284 80.1166L268.202 80.711ZM265.266 88.5108C266.386 89.7347 267.99 90.8779 269.786 90.8843C270.082 90.8843 270.383 90.8523 270.685 90.7827C271.417 90.6147 272.108 90.2347 272.627 89.6915C273.145 89.1491 273.489 88.4316 273.489 87.6172L273.489 87.5716L272.889 87.5796L272.889 87.6172C272.889 88.2604 272.623 88.8244 272.193 89.2772C271.764 89.7283 271.169 90.0563 270.551 90.1979C270.294 90.2571 270.039 90.2843 269.786 90.2843C268.262 90.2907 266.761 89.2643 265.709 88.1068L265.266 88.5108ZM279.524 96.157C279.552 96.1658 281.916 97.0265 285.099 97.0273C286.607 97.0273 288.302 96.833 290.014 96.2546L289.757 95.497C288.147 96.041 286.539 96.2274 285.099 96.2274C283.58 96.2274 282.248 96.0202 281.299 95.813C280.824 95.7098 280.446 95.6066 280.188 95.5298C280.058 95.4914 279.959 95.4594 279.893 95.4378L279.798 95.405L279.524 96.157ZM287.004 76.2607C287.982 78.2742 288.957 80.2894 289.931 82.3037C290.07 82.5869 290.187 82.8461 290.201 83.0773L290.203 83.1381C290.2 83.3437 290.133 83.4685 290.003 83.5837C289.873 83.6965 289.663 83.7821 289.402 83.8125C289.252 83.8301 289.099 83.8421 288.953 83.8421C288.632 83.8429 288.354 83.7821 288.17 83.6405L287.808 84.1197C288.154 84.3781 288.568 84.4413 288.953 84.4421C289.131 84.4421 289.307 84.4277 289.472 84.4085C289.819 84.3669 290.142 84.2533 290.393 84.0405C290.644 83.8301 290.807 83.5053 290.803 83.1381L290.799 83.0341C290.77 82.6485 290.607 82.3269 290.472 82.0429C289.497 80.0278 288.522 78.0126 287.543 75.9991L287.004 76.2607ZM283.696 79.2022C283.925 79.9398 283.701 80.6654 283.196 80.823C282.689 80.9805 282.093 80.511 281.864 79.7734C281.633 79.0358 281.857 78.3102 282.364 78.1526C282.87 77.995 283.466 78.4646 283.696 79.2022ZM292.5 76.7359C292.73 77.4735 292.506 78.199 292 78.3566C291.494 78.5142 290.898 78.0438 290.667 77.3062C290.438 76.5687 290.662 75.8431 291.168 75.6855C291.674 75.5279 292.271 75.9983 292.5 76.7359ZM282.201 75.0847C281.816 74.9511 281.416 74.8903 281.02 74.8903C280.066 74.8911 279.129 75.2359 278.366 75.7839C277.294 76.5575 276.562 77.6694 276.012 78.8014L276.732 79.151C277.249 78.0822 277.921 77.0895 278.833 76.4335C279.471 75.9727 280.264 75.6887 281.02 75.6903C281.335 75.6903 281.644 75.7383 281.938 75.8407L282.201 75.0847ZM289.159 73.6423C289.27 73.4119 289.475 73.228 289.765 73.0936C290.053 72.9616 290.416 72.8904 290.783 72.8912C291.413 72.8856 292.036 73.1104 292.311 73.4247L292.902 72.8856C292.385 72.3304 291.579 72.096 290.783 72.0912C290.316 72.0912 289.848 72.1768 289.432 72.3664C289.018 72.556 288.648 72.86 288.438 73.2944L289.159 73.6423Z" fill="#040606"/>
<path d="M289.885 86.118L284.995 84.966C284.995 84.966 284.438 89.2923 286.598 89.8243C289.453 90.5282 289.885 86.118 289.885 86.118Z" fill="white"/>
<path d="M539.83 346.834L541.922 362.896H513.442C513.225 362.896 511.946 345.731 511.946 345.731" fill="#F78EA0"/>
<path d="M512.737 359.308H543.093L545.484 373.888H494.487C493.991 363.437 509.056 365.337 512.737 359.308Z" fill="#FCD2BF"/>
<path d="M494.806 371.561H545.036V370.761H494.806V371.561Z" fill="#040606"/>
<path d="M502.157 365.517L502.204 365.534C502.452 365.626 503.654 366.098 505.018 367.039C506.383 367.979 507.903 369.385 508.821 371.331L509.544 370.989C508.474 368.727 506.692 367.177 505.187 366.188C503.679 365.199 502.44 364.769 502.42 364.761L502.157 365.517ZM510.547 361.573L514.988 364.864L515.464 364.222L511.023 360.93M507.822 362.991L512.263 366.283L512.739 365.64L508.299 362.349M540.29 365.41H539.89C539.89 366.05 539.615 366.628 539.161 367.055C538.707 367.482 538.075 367.75 537.371 367.75C536.667 367.75 536.035 367.482 535.58 367.055C535.126 366.628 534.852 366.05 534.852 365.41C534.852 364.771 535.126 364.192 535.58 363.764C536.035 363.338 536.667 363.071 537.371 363.071C538.075 363.071 538.707 363.338 539.161 363.764C539.615 364.192 539.89 364.771 539.89 365.41H540.69C540.69 364.537 540.311 363.745 539.708 363.181C539.107 362.616 538.279 362.271 537.371 362.271C536.463 362.271 535.635 362.616 535.033 363.181C534.431 363.745 534.052 364.537 534.052 365.41C534.052 366.283 534.431 367.075 535.033 367.639C535.635 368.204 536.463 368.55 537.371 368.55C538.279 368.55 539.107 368.204 539.708 367.639C540.311 367.075 540.69 366.283 540.69 365.41H540.29Z" fill="#040606"/>
<path d="M525.413 199.995L543.678 355.969H506.81L488.372 203.717" fill="#0E0F14"/>
<path d="M515.1 355.917L495.336 203.665L494.543 203.768L514.306 356.02" fill="#2F2F41"/>
<path d="M505.427 345.111H542.243V344.311H505.427V345.111ZM513.62 279.207C516.615 281.713 519.724 284.083 522.934 286.306L523.39 285.648C520.199 283.439 517.11 281.083 514.134 278.593L513.62 279.207ZM513.323 226.793V227.193H525.732L527.199 236.502L527.594 236.44L527.327 236.142C527.327 236.142 527.282 236.182 527.193 236.258C526.883 236.523 526.065 237.194 525.098 237.791C524.136 238.392 523.01 238.899 522.185 238.891C522.053 238.891 521.929 238.879 521.813 238.855C520.732 238.631 519.014 238.161 517.583 237.695C516.868 237.462 516.222 237.229 515.769 237.032C515.543 236.934 515.365 236.843 515.264 236.778L515.184 236.721L515.071 236.83L515.208 236.755L515.184 236.721L515.071 236.83L515.208 236.755L514.942 236.901H515.244L515.208 236.755L514.942 236.901H515.244H514.88L515.243 236.925L515.244 236.901H514.88L515.243 236.925V236.922L515.244 236.917V236.892C515.243 236.818 515.236 236.751 515.225 236.644C515.139 235.871 514.763 233.406 514.408 231.116C514.053 228.83 513.719 226.73 513.719 226.73L513.323 226.793L512.929 226.856C512.929 226.858 513.023 227.453 513.167 228.356C513.38 229.712 513.701 231.757 513.968 233.516C514.101 234.394 514.222 235.201 514.308 235.813C514.351 236.117 514.386 236.374 514.41 236.565C514.434 236.75 514.446 236.891 514.444 236.892H514.664L514.445 236.882L514.444 236.892H514.664L514.445 236.882L514.844 236.899L514.445 236.874L514.444 236.901C514.452 237.107 514.546 237.206 514.61 237.277C514.741 237.408 514.885 237.489 515.073 237.589C515.72 237.919 516.886 238.325 518.143 238.71C519.398 239.093 520.725 239.446 521.65 239.638C521.826 239.675 522.005 239.691 522.185 239.691C523.463 239.68 524.838 238.925 525.945 238.199C527.045 237.469 527.852 236.746 527.861 236.738L528.023 236.593L526.416 226.393H512.855L512.929 226.856L513.323 226.793Z" fill="#2F2F41"/>
<path d="M513.627 230.341H526.332V229.541H513.627V230.341Z" fill="#2F2F41"/>
<path d="M488.205 346.834L486.832 362.896H458.352C458.135 362.896 460.322 345.731 460.322 345.731" fill="#F78EA0"/>
<path d="M458.069 359.308H488.425L490.816 373.888H439.819C439.323 363.437 454.387 365.337 458.069 359.308Z" fill="#FCD2BF"/>
<path d="M440.138 371.561H490.369V370.761H440.138V371.561Z" fill="#040606"/>
<path d="M447.488 365.517L447.535 365.534C447.784 365.626 448.986 366.098 450.35 367.039C451.715 367.979 453.235 369.385 454.152 371.331L454.876 370.989C453.806 368.727 452.023 367.177 450.519 366.188C449.011 365.199 447.772 364.769 447.751 364.761L447.488 365.517ZM455.879 361.573L460.32 364.864L460.796 364.222L456.355 360.93M453.154 362.991L457.594 366.283L458.071 365.64L453.631 362.349M485.622 365.41H485.222C485.221 366.05 484.947 366.628 484.493 367.055C484.039 367.482 483.407 367.75 482.703 367.75C481.999 367.75 481.367 367.482 480.912 367.055C480.458 366.628 480.184 366.05 480.183 365.41C480.184 364.771 480.458 364.192 480.912 363.764C481.367 363.338 481.999 363.071 482.703 363.071C483.407 363.071 484.039 363.338 484.493 363.764C484.947 364.192 485.221 364.771 485.222 365.41H486.022C486.022 364.537 485.642 363.745 485.04 363.181C484.439 362.616 483.611 362.271 482.703 362.271C481.795 362.271 480.967 362.616 480.365 363.181C479.763 363.745 479.383 364.537 479.383 365.41C479.383 366.283 479.763 367.075 480.365 367.639C480.967 368.204 481.795 368.55 482.703 368.55C483.611 368.55 484.439 368.204 485.04 367.639C485.642 367.075 486.022 366.283 486.022 365.41H485.622Z" fill="#040606"/>
<path d="M463.346 199.995L453.669 355.969H494.432L504.3 203.717" fill="#0E0F14"/>
<path d="M469.865 199.97L460.188 355.944L460.986 355.993L470.663 200.02M474.59 199.97L464.912 355.944L465.711 355.993L475.388 200.02M499.147 290.401L502.51 239.286L505.186 233.341L504.456 233.013L501.721 239.089L498.349 290.349L499.147 290.401ZM485.429 252.748L494.773 242.303L494.177 241.769C491.062 245.251 487.948 248.733 484.833 252.215L485.429 252.748ZM491.455 256.203C492.083 254.059 492.953 251.994 494.049 250.047L493.351 249.654C492.226 251.654 491.332 253.776 490.688 255.978L491.455 256.203Z" fill="#2F2F41"/>
<path d="M454.378 345.111H494.835V344.311H454.378V345.111ZM495.274 226.793V226.393H480.748L479.904 237.421L480.084 237.552C480.092 237.557 481.229 238.381 482.702 239.209C483.439 239.624 484.26 240.04 485.072 240.356C485.886 240.671 486.687 240.892 487.418 240.893C487.614 240.893 487.804 240.876 487.989 240.84C489.258 240.582 490.909 240.022 492.265 239.459C492.943 239.176 493.544 238.895 493.991 238.643C494.215 238.516 494.399 238.398 494.547 238.278C494.621 238.217 494.686 238.156 494.746 238.078C494.802 238.001 494.87 237.9 494.874 237.728V237.709L494.802 237.713L494.874 237.712V237.709L494.802 237.713L494.874 237.712V237.706C494.874 237.648 494.886 237.405 494.908 237.063C494.984 235.858 495.176 233.296 495.348 231.038C495.52 228.78 495.673 226.829 495.674 226.824L495.707 226.393H495.274V226.793L494.876 226.762C494.876 226.762 494.676 229.317 494.476 231.959C494.376 233.281 494.276 234.623 494.201 235.68C494.163 236.209 494.132 236.665 494.11 237.013C494.088 237.364 494.075 237.592 494.074 237.706L494.075 237.74L494.474 237.725H494.074V237.728H494.347L494.096 237.618L494.074 237.728H494.347L494.096 237.618L494.209 237.667L494.111 237.593L494.096 237.618L494.209 237.667L494.111 237.593C494.108 237.6 494.023 237.681 493.891 237.767C493.419 238.085 492.375 238.573 491.227 239.013C490.076 239.454 488.801 239.86 487.831 240.056C487.707 240.08 487.569 240.093 487.418 240.093C486.855 240.095 486.122 239.908 485.362 239.61C484.22 239.166 483.01 238.488 482.093 237.921C481.716 237.688 481.344 237.447 480.977 237.198C480.872 237.127 480.767 237.054 480.663 236.981C480.591 236.93 480.554 236.904 480.554 236.904L480.32 237.228L480.718 237.258L481.49 227.193H495.274V226.793Z" fill="#2F2F41"/>
<path d="M480.833 230.599H494.939V229.799H480.833V230.599Z" fill="#2F2F41"/>
<path d="M499.059 94.8314L509.971 103.294L510.052 119.852H484.244L488.01 104.722" fill="#F78EA0"/>
<path d="M478.866 99.7181C479.198 94.5095 481.523 88.8624 483.089 84.9777C484.775 80.7963 487.374 77.8283 491.803 76.43C497.828 74.5284 504.441 77.1963 507.103 81.9274C509.427 86.0585 508.955 91.1792 506.692 95.5023C504.81 99.0982 502.154 102.759 498.238 104.809C494.323 106.86 488.134 109.094 483.838 107.99C479.493 106.873 478.645 103.171 478.866 99.7181Z" fill="#F78EA0"/>
<path d="M493.08 86.445C492.565 83.653 490.897 81.7971 489.005 81.3915L488.881 81.9787C490.463 82.3091 492.007 83.9347 492.49 86.5538L493.08 86.445ZM487.295 86.4378C486.936 87.1722 487.099 87.9905 487.661 88.2657C488.223 88.5409 488.97 88.1689 489.329 87.4346C489.689 86.7002 489.526 85.8818 488.964 85.6066C488.402 85.3306 487.655 85.7034 487.295 86.4378Z" fill="#040606"/>
<path d="M483.258 86.7692C482.01 88.6348 480.01 90.1107 478.395 91.6531C478.018 92.0131 477.633 92.3843 477.411 92.8563C477.05 93.6218 480.018 95.417 480.018 95.417" fill="#F78EA0"/>
<path d="M500.198 93.9362C501.426 95.6729 502.542 99.5336 503.895 101.175C504.496 101.904 505.357 101.731 506.186 101.905C507.535 102.187 508.253 102.955 509.676 102.198C511.882 101.024 513.64 98.5792 514.661 96.3641C515.489 94.5681 516.001 92.6482 516.392 90.7146C516.718 89.0955 517.3 87.2771 517.136 85.6204C516.946 83.7236 515.782 82.0845 514.656 80.5453C514.017 79.6701 513.372 78.7885 512.565 78.0662C512.104 77.6534 511.565 77.2558 511.395 76.6614C511.297 76.3222 511.335 75.9606 511.313 75.6086C511.241 74.4718 510.478 73.4071 509.425 72.9719C508.373 72.5375 507.082 72.7535 506.229 73.5071C505.925 73.7759 505.583 74.1327 505.192 74.0303C504.941 73.9647 504.78 73.7271 504.65 73.5031C503.971 72.3335 503.506 71.0416 502.742 69.9248C501.978 68.8088 500.803 67.8472 499.45 67.8256C497.174 67.788 495.551 70.3072 493.286 70.5336C492.019 70.66 490.815 70.0432 489.642 69.548C488.469 69.0536 487.094 68.676 485.958 69.2504C484.925 69.7728 484.379 70.9927 484.391 72.1511C484.402 73.3095 484.883 74.4127 485.464 75.415C486.803 77.7246 488.692 79.6565 490.561 81.5629C491.926 82.954 493.29 84.346 494.655 85.738C496.518 87.6387 497.641 90.1691 499.135 92.3954C499.483 92.9138 499.838 93.4274 500.198 93.9362Z" fill="#1F2231"/>
<path d="M497.444 93.9975C498.582 92.0103 502.282 91.8959 503.803 93.4975C507.459 97.3494 501.761 104.253 497.183 102.842C495.888 102.443 494.433 101.127 494.71 99.6349" fill="#F78EA0"/>
<path d="M502.195 96.8L496.512 98.1528L496.651 98.7367L502.333 97.3832M500.764 92.2409C499.467 92.3001 498.196 92.7585 497.16 93.5409L497.521 94.0192C498.459 93.3113 499.618 92.8929 500.792 92.8401L500.764 92.2409ZM502.723 100.935C501.584 101.977 500.044 102.867 498.536 102.862C498.15 102.862 497.764 102.805 497.381 102.68C496.772 102.481 496.203 102.106 495.794 101.625C495.385 101.143 495.136 100.561 495.136 99.9271C495.136 99.8415 495.141 99.7535 495.15 99.6655L494.553 99.6007C494.541 99.7103 494.536 99.8199 494.536 99.9271C494.536 100.722 494.851 101.443 495.337 102.013C495.825 102.585 496.481 103.016 497.194 103.25C497.64 103.397 498.091 103.462 498.536 103.462C500.28 103.457 501.919 102.477 503.127 101.377L502.723 100.935ZM480.753 98.2383C481.167 98.7143 481.727 98.9423 482.271 98.9407C483.132 98.9431 483.974 98.3815 484.236 97.4312C484.317 97.1392 484.346 96.844 484.346 96.5536C484.346 96.1728 484.295 95.8 484.238 95.4488L483.646 95.5472C483.702 95.8856 483.746 96.2264 483.746 96.5536C483.746 96.8032 483.721 97.0432 483.658 97.2712C483.469 97.9536 482.878 98.3391 482.271 98.3407C481.889 98.3399 481.508 98.1895 481.206 97.844L480.753 98.2383ZM487.032 108.968C487.038 108.968 487.11 108.972 487.238 108.972C488.115 108.968 491.693 108.812 494.454 106.097L493.893 105.527C491.391 108.005 488.022 108.175 487.238 108.172L487.111 108.17L487.074 108.168L487.032 108.968Z" fill="#040606"/>
<path d="M506.811 115.274H515.641C518.834 115.274 522.78 116.466 527.476 123.042C532.173 129.617 542.334 144.307 547.248 151.77C551.711 158.549 551.578 168.926 546.075 178.651C537.903 193.093 524.093 209.791 525.323 208.04L508.97 190.111L521.465 167.003L508.97 141.266" fill="#87BC83"/>
<path d="M522.996 166.486C526.263 164.16 530.284 162.912 534.297 162.912C535.501 162.912 536.703 163.025 537.885 163.253L538.037 162.467C536.804 162.229 535.55 162.112 534.297 162.112C530.119 162.113 525.943 163.407 522.532 165.834L522.996 166.486Z" fill="#040606"/>
<path d="M465.861 135.3C461.651 163.09 459.009 191.077 457.946 219.115C457.946 219.115 465.633 214.436 467.812 200.269C467.812 200.269 472.39 214.404 486.851 219.115C501.485 223.881 522.119 219.541 528.538 212.815C534.957 206.089 519.538 134.05 519.538 134.05L510.219 112.576L484.585 113.737L465.861 135.3Z" fill="#87BC83"/>
<path d="M468.213 200.284L470.55 138.303L469.751 138.273L467.413 200.254" fill="#558856"/>
<path d="M422.608 145.148C420.036 141.946 414.15 125.907 415.666 118.249C416.179 115.655 417.447 112.5 418.286 111.082C419.935 108.296 421.584 105.51 423.234 102.724C423.349 102.529 423.47 102.329 423.658 102.188C424.254 101.746 425.229 102.159 425.536 102.798C425.844 103.436 425.691 104.169 425.534 104.85C426.281 103.607 427.088 102.306 428.432 101.578C428.681 101.443 428.985 101.329 429.253 101.43C429.606 101.563 429.684 101.976 429.71 102.321C429.795 103.415 429.879 104.51 429.963 105.605C429.919 105.066 430.837 104.845 431.297 105.19C431.757 105.535 431.847 106.13 431.905 106.668C432.017 107.702 432.129 108.736 432.24 109.77C432.076 109.222 433.017 108.856 433.533 109.181C434.049 109.505 434.176 110.137 434.229 110.703C434.47 113.28 434.094 115.882 434.356 118.457C435.147 126.245 440.521 132.294 440.541 140.114" fill="#F78EA0"/>
<path d="M468.396 126.863L427.584 135.19L408.956 82.6798L449.769 74.3528L468.396 126.863Z" fill="#7F5BB3"/>
<path d="M463.579 123.933L431.3 130.52L414.656 83.6007L446.935 77.0145L463.579 123.933Z" fill="#FEEEB3"/>
<path d="M422.061 90.5562L445.873 85.6692L445.712 84.8852L421.899 89.7731M423.507 94.8761L447.319 89.9882L447.158 89.2051L423.346 94.0929M424.952 99.196L448.765 94.3081L448.604 93.525L424.791 98.412M426.399 103.516L450.211 98.628L450.05 97.844L426.238 102.732M427.844 107.836L451.656 102.948L451.495 102.164L427.683 107.052M429.29 112.155L453.103 107.268L452.942 106.484L429.129 111.372M430.736 116.475L454.548 111.587L454.387 110.804L430.575 115.692M432.182 120.795L455.994 115.907L455.833 115.124L432.021 120.011M446.53 122.466L457.44 120.227L457.279 119.443L446.369 121.683M425.511 85.9035L441.023 82.7196L440.862 81.9365L425.35 85.1204" fill="#CEB981"/>
<path d="M429.558 76.5918C428.827 76.7414 428.03 76.2862 427.778 75.5766C427.526 74.8663 427.914 74.1695 428.646 74.0199C429.378 73.8711 430.174 74.3255 430.426 75.0358C430.678 75.7462 430.289 76.443 429.558 76.5918ZM427.964 72.0983C426.141 72.4711 425.171 74.2087 425.8 75.9798C426.428 77.751 428.416 78.8853 430.24 78.5134C432.064 78.1414 433.033 76.4038 432.405 74.6319C431.776 72.8607 429.788 71.7263 427.964 72.0983Z" fill="#7F5BB3"/>
<path d="M443.507 78.8287L418.146 84.0029L416.762 80.103L442.123 74.9288L443.507 78.8287Z" fill="#7F5BB3"/>
<path d="M416.532 120.806C416.532 120.806 419.666 114.964 422.725 112.032C422.872 111.891 423.031 111.747 423.229 111.699C423.79 111.562 424.206 112.233 424.292 112.804C424.757 115.871 421.635 118.752 422.407 121.757C422.754 123.107 423.821 124.129 424.802 125.119C426.827 127.16 428.059 130.138 428.059 137.057" fill="#F78EA0"/>
<path d="M420.465 114.613C418.453 116.826 416.336 119.178 415.499 122.148L416.077 122.31C416.857 119.521 418.894 117.226 420.909 115.017L420.465 114.613ZM422.124 119.621C421.96 120.191 421.683 121.033 421.68 121.801C421.68 122.013 421.702 122.222 421.76 122.421C421.924 122.977 422.321 123.485 422.755 123.953C423.19 124.419 423.67 124.84 424.012 125.162C424.589 125.704 425.185 126.191 425.645 126.763C426.178 127.422 426.551 128.214 426.839 129.04C427.564 131.113 427.759 133.327 427.759 135.565C427.759 136.467 427.728 137.373 427.687 138.275L428.286 138.302C428.327 137.396 428.359 136.482 428.359 135.565C428.359 133.293 428.163 131.01 427.405 128.841C427.104 127.978 426.706 127.122 426.112 126.386C425.598 125.75 424.978 125.248 424.424 124.725C424.069 124.392 423.601 123.981 423.193 123.545C422.784 123.109 422.445 122.643 422.336 122.254C422.299 122.125 422.28 121.972 422.28 121.801C422.278 121.177 422.531 120.365 422.7 119.788L422.124 119.621Z" fill="#040606"/>
<path d="M481.812 118.52L484.935 111.111H511.533L512.732 118.52" fill="#87BC83"/>
<path d="M493.371 115.274H473.412C468.347 115.274 459.582 119.524 455.101 130.169C450.621 140.815 447.31 147.272 447.31 147.272L440.541 135.471L418.857 145.9C418.857 145.9 428.127 164.335 433.187 172.333C437.502 179.153 440.975 184.496 450.13 183.972C459.286 183.449 464.642 173.626 468.329 167.734C472.614 160.885 483.931 136.626 483.931 136.626" fill="#87BC83"/>
<path d="M470.201 115.897C477.256 121.182 480.359 129.963 480.359 138.729C480.359 139.044 480.355 139.358 480.347 139.673L481.147 139.693C481.155 139.372 481.159 139.05 481.159 138.729C481.159 129.786 477.995 120.743 470.68 115.257L470.201 115.897ZM520.43 117.042C522.197 121.427 522.923 125.684 522.925 131.114C522.925 133.806 522.745 136.784 522.422 140.199L523.219 140.274C523.542 136.844 523.725 133.842 523.725 131.114C523.725 125.616 522.981 121.226 521.173 116.743L520.43 117.042Z" fill="#558856"/>
<path d="M446.943 147.113L440.175 162.678L440.908 162.997L447.677 147.432M460.869 178.866C460.889 178.845 466.845 172.928 471.008 163.773C475.144 154.672 482.183 137.209 482.183 137.206L481.442 136.906C481.44 136.91 481.002 137.998 480.278 139.777C478.105 145.113 473.371 156.641 470.279 163.442C468.231 167.948 465.733 171.668 463.749 174.258C462.757 175.553 461.893 176.565 461.279 177.253C460.973 177.597 460.727 177.86 460.56 178.036C460.477 178.124 460.412 178.19 460.369 178.234L460.306 178.298L460.869 178.866ZM483.115 115.831H512.233V115.031H483.115V115.831Z" fill="#040606"/>
<path d="M443.086 139.884L421.792 151.245L422.168 151.95L443.463 140.59" fill="#558856"/>
<path d="M530.763 202.862C530.762 202.789 530.754 202.705 530.741 202.559C530.345 198.206 524.11 146.786 522.241 134.232L521.45 134.35C522.412 140.808 524.54 157.645 526.427 173.014C527.371 180.699 528.255 188.019 528.903 193.494C529.227 196.231 529.492 198.508 529.676 200.137C529.768 200.953 529.84 201.606 529.889 202.073C529.914 202.307 529.932 202.495 529.944 202.631C529.957 202.765 529.963 202.861 529.963 202.866L530.763 202.862Z" fill="#040606"/>
<path d="M479.705 129.966C486.049 129.649 492.407 129.49 498.763 129.49C506.952 129.49 515.14 129.753 523.298 130.278L523.35 129.48C515.165 128.953 506.965 128.69 498.763 128.69C492.393 128.69 486.023 128.849 479.666 129.166L479.705 129.966Z" fill="#558856"/>
<path d="M501.105 129.508L506.411 220.835L507.209 220.789L501.905 129.461M506.412 129.518L513.97 218.638L514.768 218.571L507.209 129.451" fill="#558856"/>
<path d="M493.358 196.874C500.918 190.426 508.037 183.477 514.667 176.077L514.071 175.543C507.464 182.917 500.371 189.84 492.839 196.266L493.358 196.874ZM508.18 203.871C510.031 199.169 511.883 194.467 513.735 189.764L512.991 189.471C511.139 194.174 509.287 198.876 507.435 203.577L508.18 203.871Z" fill="#040606"/>
<path d="M191.224 224.234C190.018 224.234 189.036 223.251 189.036 222.045V219.637C189.036 218.43 190.018 217.448 191.225 217.448H192.528V224.234H191.224ZM192.528 212.36V215.848H191.225C189.135 215.848 187.436 217.548 187.436 219.637V222.045C187.436 224.134 189.135 225.834 191.224 225.834H192.528V226.812C192.528 228.208 193.486 229.371 194.777 229.708V231.668H206.465V229.708C207.756 229.371 208.713 228.208 208.713 226.812V212.36H192.528Z" fill="#FDE1B3"/>
<path d="M194.777 230.072H206.465V229.272H194.777V230.072Z" fill="#D6AC77"/>
<path d="M387.689 189.459H335.22C333.863 189.459 332.649 190.395 332.177 191.805L319.664 229.195H293.476C292.185 229.195 291.138 230.355 291.138 231.786H376.089L389.362 192.126C389.794 190.834 388.932 189.459 387.689 189.459Z" fill="#A8C3E9"/>
<path d="M378.886 231.786H321.594L334.974 191.805C335.446 190.395 336.66 189.459 338.017 189.459H390.486C391.73 189.459 392.592 190.834 392.159 192.126L378.886 231.786Z" fill="#D7E5F6"/>
<path d="M365.963 208.62H365.363C365.363 209.075 365.225 209.511 364.955 209.931C364.55 210.561 363.83 211.143 362.886 211.559C361.943 211.975 360.785 212.227 359.533 212.226C357.864 212.227 356.361 211.779 355.315 211.092C354.791 210.75 354.383 210.351 354.112 209.931C353.841 209.511 353.704 209.075 353.703 208.62C353.704 208.165 353.841 207.73 354.112 207.309C354.516 206.68 355.236 206.097 356.18 205.681C357.123 205.264 358.281 205.014 359.533 205.015C361.203 205.013 362.705 205.462 363.751 206.148C364.275 206.491 364.683 206.89 364.955 207.309C365.225 207.73 365.363 208.165 365.363 208.62H366.563C366.564 207.915 366.342 207.243 365.962 206.657C365.391 205.777 364.479 205.075 363.371 204.584C362.26 204.094 360.944 203.815 359.533 203.815C357.652 203.816 355.939 204.308 354.658 205.144C354.018 205.563 353.485 206.07 353.105 206.657C352.725 207.243 352.502 207.915 352.503 208.62C352.502 209.326 352.725 209.998 353.105 210.583C353.676 211.463 354.587 212.165 355.696 212.656C356.806 213.147 358.122 213.426 359.533 213.426C361.415 213.424 363.127 212.932 364.408 212.096C365.048 211.678 365.582 211.17 365.962 210.583C366.342 209.998 366.564 209.326 366.563 208.62H365.963Z" fill="#A8C3E9"/>
<path d="M103.467 373.771V232.633H403.995V373.771H405.195V232.033C405.195 231.875 405.131 231.721 405.02 231.609C404.907 231.496 404.754 231.433 404.595 231.433H102.867C102.709 231.433 102.555 231.497 102.443 231.609C102.331 231.721 102.267 231.875 102.267 232.033V373.771H103.467Z" fill="#6E7BC6"/>
<path d="M26.6014 257.241C25.3742 254.242 25.1511 250.849 26.1327 247.364C28.151 240.198 35.2325 235.1 42.2964 234.767C52.9892 234.263 64.4748 235.081 72.9821 242.236L73.194 242.416C76.4108 245.145 76.667 247.737 74.4402 251.317C71.4896 256.061 65.7098 260.372 61.1931 263.417C56.4657 266.604 51.0014 268.867 45.4184 268.857C39.9386 268.848 34.6784 266.537 30.6295 262.894C28.8339 261.277 27.4676 259.357 26.6014 257.241Z" fill="#7DD19C"/>
<path d="M75.3294 244.777C61.1615 246.526 47.0802 248.917 33.1289 251.942L33.2983 252.725C47.2259 249.704 61.2834 247.317 75.4275 245.571L75.3294 244.777Z" fill="#C3E9BA"/>
<path d="M61.876 221.298C72.5667 237.524 79.729 256.068 82.7214 275.268L84.3022 275.021C81.2735 255.593 74.0297 236.837 63.2122 220.417L61.876 221.298Z" fill="#588260"/>
<path d="M81.9149 263.182C81.6897 260.975 81.577 258.758 81.5773 256.539C81.5765 242.736 85.902 228.925 93.8794 217.656L92.5731 216.732C84.3997 228.282 79.9788 242.403 79.9775 256.539C79.9775 258.811 80.0918 261.083 80.3238 263.345L81.9149 263.182Z" fill="#588260"/>
<path d="M65.6349 229.915C60.7788 230.165 55.3546 228.09 50.8797 226.358C44.9502 224.062 42.8465 218.684 43.9358 212.611C44.6348 208.716 47.4582 205.316 51.5371 204.826C54.559 204.463 57.6301 205.639 59.9964 207.552C63.2197 210.16 65.4897 213.825 66.8302 217.717C67.5115 219.694 67.9605 221.754 68.1549 223.837C68.2924 225.308 69.0973 227.883 67.8342 229.073C67.238 229.635 66.4687 229.872 65.6349 229.915Z" fill="#7DD19C"/>
<path d="M68.1013 229.296C62.9027 221.927 57.0498 215.239 50.7021 209.416L50.1611 210.005C56.4644 215.788 62.2805 222.433 67.4476 229.757L68.1013 229.296Z" fill="#C3E9BA"/>
<path d="M90.6179 228.353C98.1705 228.715 106.593 225.46 113.542 222.741C122.75 219.139 125.991 210.766 124.264 201.329C123.156 195.275 118.748 190.004 112.402 189.264C107.701 188.716 102.933 190.562 99.2633 193.551C94.2658 197.621 90.7563 203.334 88.6924 209.393C87.6444 212.47 86.9572 215.677 86.666 218.916C86.4604 221.204 85.2228 225.212 87.1932 227.057C88.1236 227.927 89.3211 228.291 90.6179 228.353Z" fill="#7DD19C"/>
<path d="M87.6161 227.991C95.6191 216.561 104.637 206.185 114.419 197.148L113.876 196.561C104.05 205.638 94.9951 216.058 86.9609 227.532L87.6161 227.991Z" fill="#C3E9BA"/>
<path d="M68.2607 161.597C73.8909 172 77.3277 185.209 78.093 197.043L79.6895 196.94C78.9042 184.877 75.4312 171.498 69.6682 160.837L68.2607 161.597Z" fill="#588260"/>
<path d="M83.6906 176.271C80.6371 180.625 79.5266 185.918 78.7961 190.998C77.9681 196.789 77.5526 202.632 77.553 208.482C77.553 213.372 77.8427 218.262 78.423 223.117L80.0115 222.928C79.4393 218.134 79.1526 213.31 79.153 208.482C79.153 202.711 79.5623 196.939 80.3803 191.224C81.0939 186.213 82.1931 181.178 85.0002 177.19L83.6906 176.271ZM65.6533 121.891C69.23 130.719 71.9894 139.877 73.8922 149.209C74.8433 153.874 75.6093 158.588 76.0993 163.315C76.1655 163.955 76.1955 164.68 76.1955 165.46C76.1974 169.525 75.3812 175.024 75.0008 178.572L76.5918 178.742C76.9639 175.243 77.7936 169.715 77.7955 165.46C77.7955 164.639 77.7645 163.863 77.6905 163.15C77.1942 158.361 76.4196 153.597 75.4599 148.889C73.5374 139.462 70.75 130.209 67.1361 121.29L65.6533 121.891Z" fill="#588260"/>
<path d="M80.8529 141.876C78.4012 147.705 76.2434 153.252 75.8125 160.697L77.4099 160.789C77.8287 153.614 79.8836 148.311 82.3281 142.496L80.8529 141.876ZM74.1191 212.385C82.8864 231.606 87.4623 252.642 87.4623 273.709C87.4623 273.858 87.4615 274.007 87.4615 274.155L89.0615 274.16C89.0615 274.01 89.0623 273.859 89.0623 273.709C89.0615 252.41 84.4376 231.152 75.5747 211.721L74.1191 212.385Z" fill="#588260"/>
<path d="M42.9312 169.84C39.8685 169.805 36.7011 170.654 34.424 172.73C30.8928 175.947 30.2072 181.377 30.9463 186.151C32.8515 198.456 42.8972 208.624 54.656 212.134C58.8336 213.381 63.1786 213.879 67.5113 214.104C69.3897 214.201 72.478 214.026 74.3036 213.575C76.7141 212.98 75.9973 209.575 75.6504 207.536C74.8255 202.684 71.989 198.483 69.8443 194.167C66.946 188.333 63.5798 182.201 58.9843 177.546C54.6832 173.189 48.9917 169.91 42.9312 169.84Z" fill="#7DD19C"/>
<path d="M38.6484 180.086C51.0798 190.664 63.3222 201.462 75.37 212.476L75.91 211.885C63.8552 200.866 51.6055 190.061 39.1669 179.477L38.6484 180.086Z" fill="#C3E9BA"/>
<path d="M45.5752 207.915C47.3883 209.343 49.3345 210.436 51.3257 211.283C55.8528 213.21 60.5789 213.874 65.2294 214.526L65.3406 213.734C60.6889 213.082 56.0397 212.422 51.6391 210.547C49.7029 209.723 47.8204 208.665 46.0702 207.287L45.5752 207.915Z" fill="#588260"/>
<path d="M50.6293 161.081C55.827 163.013 61.1699 164.61 66.6111 165.696C68.5392 166.08 70.6441 166.882 71.1831 164.3C72.1788 159.529 70.2754 155.425 68.6998 151.047C67.2655 147.062 65.5264 143.173 63.2787 139.576C59.3029 133.213 53.5667 127.72 46.4875 125.233C43.0602 124.029 39.0655 123.611 35.9397 125.462C34.3666 126.393 33.1407 127.834 32.2304 129.42C28.7642 135.456 29.9483 143.413 33.8919 149.149C37.8356 154.886 44.1038 158.657 50.6293 161.081Z" fill="#7DD19C"/>
<path d="M37.3721 131.774C49.798 141.633 60.9302 153.047 70.4134 165.65L71.0528 165.169C61.5283 152.511 50.3486 141.049 37.8693 131.146L37.3721 131.774Z" fill="#C3E9BA"/>
<path d="M49.931 117.903C50.9429 119.744 52.0612 121.575 53.6566 122.942C55.8937 124.858 58.7723 125.614 61.5607 126.332C62.9757 126.696 64.4084 127.202 65.8343 127.495C71.3214 128.622 69.6324 121.19 68.6655 118.208C67.1924 113.664 64.4632 109.518 60.7976 106.444C59.2951 105.185 57.6093 104.083 55.7121 103.589C53.8149 103.093 51.6766 103.272 50.071 104.397C48.0442 105.817 47.2079 108.508 47.4223 110.973C47.6367 113.44 48.7385 115.735 49.931 117.903Z" fill="#7DD19C"/>
<path d="M53.9521 107.722C59.0402 113.98 63.7897 120.534 68.1708 127.342L68.8434 126.909C64.4463 120.076 59.6795 113.498 54.5728 107.218L53.9521 107.722Z" fill="#C3E9BA"/>
<path d="M83.3433 144.961C89.8935 143.25 96.2198 138.215 101.43 134.032C108.334 128.491 108.863 120.468 104.864 112.866C102.296 107.99 97.119 104.666 91.4991 105.731C87.336 106.521 83.7545 109.374 81.4186 112.909C78.2372 117.724 76.7669 123.545 76.6248 129.274C76.5523 132.185 76.8229 135.108 77.441 137.954C77.8778 139.965 77.8926 143.721 80.0698 144.77C81.097 145.264 82.2185 145.255 83.3433 144.961Z" fill="#7DD19C"/>
<path d="M80.7212 145.467C84.5011 133.562 89.429 122.285 95.3688 111.948L94.6752 111.55C88.7058 121.939 83.7555 133.268 79.959 145.225L80.7212 145.467Z" fill="#C3E9BA"/>
<path d="M124.699 156.007C123.997 152.26 122.259 148.413 118.919 146.576C111.02 142.233 100.789 149.224 94.9983 154.304C88.1177 160.342 82.3971 168.384 81.2147 177.656L81.1811 177.931C80.6667 182.099 82.1795 184.119 86.1146 185.122C91.328 186.45 98.2814 185.511 103.503 184.547C108.968 183.537 114.356 181.361 118.342 177.488C123.918 172.065 126.134 163.651 124.699 156.007Z" fill="#7DD19C"/>
<path d="M81.6656 181.723C92.9165 173.17 104.531 165.128 116.467 157.626L116.042 156.949C104.086 164.463 92.451 172.519 81.1816 181.086L81.6656 181.723Z" fill="#C3E9BA"/>
<path d="M117.137 374.365H55.0498V268.789H117.137V374.365Z" fill="#FDE1B3"/>
<path d="M55.0498 284.55H95.1644V283.75H55.0498V284.55ZM100.053 284.55H117.137V283.75H100.053V284.55ZM55.0498 364.09H117.137V363.29H55.0498V364.09Z" fill="#D8A564"/>
<path d="M202.007 347.06L209.542 362.329C209.542 362.329 236.64 355.139 236.848 355.084C237.056 355.028 228.84 337.851 228.84 337.851" fill="#F89AAE"/>
<path d="M235.301 349.962L206.96 357.482L210.893 373.771L221.141 371.053L220.903 368.142C220.903 368.142 226.877 366.213 227.776 366.05C228.675 365.888 234.397 367.536 237.656 366.671L257.427 361.426C253.471 350.05 241.288 355.541 235.301 349.962Z" fill="#040606"/>
<path d="M227.871 366.438L256.453 359.463L256.263 358.686L227.682 365.661M220.806 367.754L210.077 370.402L210.268 371.179L220.998 368.53" fill="#3F312C"/>
<path d="M127.164 228.174L125.325 244.356C125.325 244.356 126.3 259.336 134.809 267.435C143.318 275.534 173.204 307.931 173.204 307.931L202.007 354.863L233.202 344.247C233.202 344.247 204.483 290.034 200.66 284.679C188.904 268.209 161.783 240.525 161.783 240.525" fill="#15131E"/>
<path d="M182.484 310.093L176.193 326.67C176.193 326.67 200.413 340.914 200.598 341.023C200.784 341.133 207.866 322.683 207.866 322.683" fill="#F89AAE"/>
<path d="M202.924 336.201L177.595 321.304L169.488 335.931L178.647 341.318L180.428 339.038C180.428 339.038 185.998 341.928 186.751 342.456C187.504 342.984 190.495 348.286 193.407 349.998L211.078 360.392C215.872 349.309 203.47 344.542 202.924 336.201Z" fill="#040606"/>
<path d="M180.637 338.697L171.18 332.913L170.763 333.595L180.22 339.379M186.541 342.796L211.678 358.261L212.098 357.579L186.961 342.115" fill="#3F312C"/>
<path d="M140.172 235.373C140.172 235.373 143.378 254.343 145.67 257.762C150.492 264.951 157.099 266.579 169.993 268.209C183.441 269.908 197.101 274.202 197.101 274.202L178.755 319.339L212.772 330.419C212.772 330.419 232.938 276.298 234.257 270.759C236.623 260.835 238.58 248.428 222.889 241.648C212.553 237.183 182.862 229.052 182.862 229.052L180.413 225.166" fill="#201C2B"/>
<path d="M154.4 233.338C154.407 233.357 155.725 237.616 158.669 242.572C161.613 247.526 166.183 253.194 172.738 255.974C185.6 261.424 189.863 263.854 195.94 266.996C199.501 268.835 202.354 269.908 204.26 270.976C205.214 271.509 205.923 272.036 206.381 272.628C206.839 273.222 207.073 273.876 207.076 274.771L207.075 274.829C207.066 275.739 206.781 277.122 206.301 278.778C204.863 283.754 201.704 291.223 199.327 297.182C198.257 299.868 195.664 306.232 193.341 311.923C192.179 314.769 191.083 317.446 190.279 319.412C189.475 321.378 188.962 322.63 188.961 322.633L189.701 322.937C189.701 322.936 197.924 302.861 200.07 297.479C201.652 293.512 203.586 288.867 205.132 284.716C205.905 282.64 206.581 280.688 207.07 279C207.557 277.309 207.861 275.892 207.875 274.839L207.876 274.771C207.879 273.731 207.578 272.859 207.013 272.137C206.165 271.053 204.798 270.294 202.998 269.439C201.197 268.588 198.947 267.649 196.307 266.284C190.247 263.152 185.928 260.694 173.05 255.238C166.737 252.566 162.251 247.041 159.357 242.164C157.909 239.727 156.86 237.456 156.172 235.798C155.829 234.968 155.576 234.292 155.41 233.824C155.327 233.59 155.265 233.408 155.224 233.285C155.204 233.224 155.184 233.163 155.165 233.101L154.4 233.338Z" fill="#5B506F"/>
<path d="M182.159 270.745L210.376 278.18L210.58 277.406L182.363 269.971" fill="#040606"/>
<path d="M163.073 248.188C163.087 248.18 166.309 246.241 169.611 243.228C172.903 240.212 176.314 236.133 176.593 231.716L175.794 231.668C175.566 235.687 172.314 239.685 169.071 242.637C167.453 244.114 165.847 245.333 164.647 246.181C164.047 246.605 163.549 246.937 163.202 247.161C163.028 247.274 162.892 247.36 162.8 247.417C162.708 247.475 162.661 247.503 162.661 247.503L163.073 248.188Z" fill="#5B506F"/>
<path d="M221.915 284.429C225.059 281.211 227.941 277.748 230.534 274.071L229.88 273.611C227.313 277.25 224.455 280.685 221.343 283.87L221.915 284.429ZM223.624 273.273C225.39 272.147 227.155 271.021 228.921 269.895L228.491 269.22C226.725 270.347 224.959 271.473 223.194 272.599L223.624 273.273Z" fill="#040606"/>
<path d="M182.714 228.681L141.447 245.013L141.742 245.757L183.009 229.424" fill="#5B506F"/>
<path d="M179.125 319.49L197.471 274.353L196.73 274.052L178.384 319.189M217.699 315.976L212.397 330.28L213.147 330.559L218.448 316.255" fill="#040606"/>
<path d="M113.153 148.939L112.928 152.327L111.42 161.15H135.579L133.683 147.56" fill="#F89AAE"/>
<path d="M139.727 146.622C139.66 141.717 137.911 136.373 136.736 132.697C135.471 128.74 133.375 125.911 129.651 124.535C124.585 122.663 118.825 125.081 116.354 129.494C114.195 133.349 114.386 138.173 116.138 142.27C117.595 145.68 119.71 149.16 122.969 151.143C126.227 153.127 130.685 153.949 134.4 152.97C138.158 151.979 139.771 149.873 139.727 146.622Z" fill="#F89AAE"/>
<path d="M128.321 135.114C128.295 134.981 128.283 134.85 128.283 134.721C128.28 133.938 128.74 133.179 129.391 132.583C130.037 131.988 130.867 131.574 131.479 131.467L131.374 130.876C130.611 131.015 129.718 131.474 128.986 132.141C128.259 132.807 127.686 133.699 127.683 134.721C127.683 134.888 127.699 135.058 127.732 135.228L128.321 135.114ZM133.33 135.622C133.618 136.258 133.456 136.95 132.97 137.17C132.485 137.39 131.858 137.053 131.571 136.418C131.283 135.782 131.445 135.09 131.931 134.87C132.417 134.65 133.043 134.987 133.33 135.622Z" fill="#040606"/>
<path d="M138.111 143.674L134.575 141.822C134.575 141.822 132.712 145.054 134.369 145.89C136.528 146.979 138.111 143.674 138.111 143.674Z" fill="white"/>
<path d="M117.925 138.639L121.553 150.132L112.928 152.326C112.928 152.326 109.963 148.765 108.615 148.255C107.268 147.744 101.787 141.15 101.159 137.483C100.529 133.818 102.057 127.978 104.482 126.001C106.908 124.024 109.604 117.465 111.85 115.758C114.096 114.052 119.817 116.477 121.898 116.208C123.98 115.938 128.061 112.973 129.704 114.59C131.347 116.208 131.527 119.173 132.874 119.353C134.222 119.533 137.995 122.048 137.636 124.564C137.277 127.08 135.166 129.138 135.166 129.138C135.166 129.138 131.626 125.103 127.982 126.271C124.339 127.439 125.596 136.064 117.925 138.639ZM126.384 153.078C126.408 153.085 129.072 154.144 131.918 154.148C132.804 154.148 133.711 154.044 134.564 153.762L134.312 153.003C133.566 153.25 132.742 153.348 131.918 153.348C130.595 153.348 129.276 153.095 128.295 152.84C127.803 152.712 127.396 152.585 127.114 152.49C126.972 152.442 126.862 152.403 126.788 152.376C126.713 152.348 126.678 152.334 126.677 152.334L126.384 153.078Z" fill="#040606"/>
<path d="M135.58 133.758C136.594 135.38 138.259 136.69 139.594 138.047C139.906 138.364 140.224 138.69 140.401 139.097C140.688 139.76 138.112 141.21 138.112 141.21" fill="#F89AAE"/>
<path d="M135.896 133.862C136.272 135.012 136.899 136.065 137.732 136.943L138.167 136.529C137.399 135.72 136.811 134.737 136.467 133.676L135.896 133.862ZM138.012 141.634C138.343 141.451 138.675 141.268 139.005 141.085L138.715 140.56C138.384 140.743 138.053 140.925 137.722 141.108L138.012 141.634Z" fill="#040606"/>
<path d="M135.491 134.989H135.091C135.09 136.174 134.611 137.242 133.835 138.019C133.058 138.795 131.989 139.274 130.804 139.274C129.619 139.274 128.551 138.795 127.774 138.019C126.998 137.242 126.519 136.174 126.519 134.989C126.519 133.804 126.998 132.735 127.774 131.958C128.551 131.182 129.619 130.703 130.804 130.703C131.989 130.703 133.058 131.182 133.835 131.958C134.611 132.735 135.09 133.804 135.091 134.989H135.89C135.89 132.18 133.614 129.903 130.804 129.903C127.995 129.903 125.719 132.18 125.719 134.989C125.719 137.797 127.995 140.074 130.804 140.074C133.614 140.074 135.89 137.797 135.89 134.989H135.491Z" fill="#FDE1B3"/>
<path d="M117.341 139.017L126.281 135.899L126.018 135.144L117.078 138.261M135.418 134.025L137.134 133.607L136.945 132.83L135.229 133.248" fill="#FDE1B3"/>
<path d="M119.891 139.587C118.967 137.563 115.397 137.123 113.783 138.538C109.903 141.939 114.802 149.125 119.357 148.168C120.646 147.897 122.171 146.753 122.035 145.285" fill="#F89AAE"/>
<path d="M114.857 142.437L120.235 144.252L120.426 143.683L115.049 141.869M116.754 138.178C117.883 138.334 118.966 138.841 119.808 139.609L120.212 139.165C119.278 138.314 118.088 137.757 116.837 137.584L116.754 138.178ZM119.695 148.825C120.469 148.648 121.101 148.172 121.531 147.546C121.962 146.919 122.199 146.141 122.199 145.332V145.266L121.599 145.275V145.332C121.6 146.024 121.395 146.687 121.037 147.205C120.678 147.725 120.175 148.099 119.561 148.24L119.695 148.825Z" fill="#040606"/>
<path d="M116.45 160.527C112.17 160.527 105.283 158.744 99.1396 167.44C92.995 176.136 83.1808 204.001 80.2185 211.116C77.2553 218.231 77.9962 236.609 89.8471 236.609H130.804L124.435 212.894H110.479L117.242 190.167" fill="#91B4E3"/>
<path d="M104.777 178.238L119.339 244.356L180.413 225.166L161.938 175.281L143.603 160.375H115.569L104.777 178.238Z" fill="#91B4E3"/>
<path d="M110.402 212.502L101.33 214.26L101.483 215.046L110.555 213.287" fill="#040606"/>
<path d="M202.462 177.962C206.56 174.408 211.346 171.777 216.263 169.626C218.757 168.535 221.413 167.554 224.127 167.305C226.982 167.042 229.879 167.02 232.696 167.475C233.16 167.549 233.623 167.627 234.085 167.705C234.596 167.791 235.05 168.153 235.091 168.691C235.124 169.125 234.723 169.453 234.347 169.646C231.356 171.191 227.399 169.868 224.683 171.889C225.555 171.768 226.48 171.655 227.285 172.026C228.089 172.398 228.672 173.448 228.254 174.256C229.492 174.778 230.187 176.395 229.736 177.704C230.147 177.563 231.067 178.5 231.201 178.928C231.716 180.56 231.62 181.31 230.752 182.77C229.884 184.231 227.681 185.928 226.046 186.153C225.283 186.257 224.444 186.171 223.857 185.654C223.757 185.566 223.654 185.461 223.523 185.451C223.444 185.444 223.366 185.475 223.293 185.506C220.745 186.579 219.016 189.055 216.735 190.652C214.378 192.302 211.514 192.956 208.703 193.376" fill="#F89AAE"/>
<path d="M225.533 170.98C223.69 171.207 221.581 171.756 220.008 172.584L220.381 173.292C221.821 172.529 223.872 171.988 225.63 171.774L225.533 170.98ZM228.008 173.884C225.749 174.287 223.549 175.037 221.499 176.101L221.868 176.811C223.846 175.784 225.97 175.061 228.148 174.672L228.008 173.884ZM229.983 177.395C227.916 177.757 225.402 178.97 223.527 180.502L224.034 181.12C225.79 179.677 228.241 178.504 230.12 178.183L229.983 177.395ZM223.454 185.988C225.237 184.632 227.2 183.531 229.267 182.726L228.976 181.98C226.839 182.812 224.812 183.95 222.97 185.352L223.454 185.988Z" fill="#040606"/>
<path d="M112.171 160.518C113.393 160.539 141.246 160.376 143.603 160.376C145.96 160.376 155.482 162.332 163.338 172.938C171.195 183.545 177.266 191.84 177.266 191.84L204.137 175.357L214.506 193.588C214.506 193.588 193.308 214.07 187.33 217.454C181.352 220.837 169.889 225.542 162.229 217.881C154.569 210.221 140.172 186.268 140.172 186.268" fill="#91B4E3"/>
<path d="M141.988 188.524C141.988 188.523 141.978 188.472 141.959 188.368C141.828 187.64 141.297 184.437 141.297 180.529C141.295 177.075 141.715 173.07 143.162 169.747C144.618 166.421 147.043 163.791 151.157 162.91L150.991 162.128C146.598 163.056 143.936 165.944 142.429 169.428C140.914 172.915 140.499 177.011 140.497 180.529C140.498 185.078 141.2 188.661 141.203 188.677L141.988 188.524ZM107.557 161.154C105.104 165.634 103.589 170.259 103.59 175.442C103.589 179.641 104.583 184.197 106.845 189.33L107.577 189.008C105.351 183.953 104.39 179.514 104.39 175.442C104.391 170.418 105.851 165.939 108.259 161.538L107.557 161.154Z" fill="#6794D5"/>
<path d="M178.784 220.679C176.775 221.248 174.663 221.614 172.568 221.614C168.987 221.611 165.472 220.555 162.511 217.598C158.73 213.82 153.21 205.918 148.662 198.983C146.386 195.513 144.349 192.282 142.881 189.919C142.147 188.737 141.555 187.773 141.147 187.104C140.739 186.435 140.515 186.063 140.515 186.061L139.829 186.474C139.831 186.477 143.431 192.468 147.993 199.421C152.558 206.378 158.067 214.281 161.945 218.164C165.066 221.288 168.833 222.417 172.568 222.414C174.755 222.414 176.938 222.032 179.002 221.448L178.784 220.679Z" fill="#040606"/>
<path d="M140.171 161.409L136.69 155.46H111.542L110.479 161.409" fill="#91B4E3"/>
<path d="M110.479 160.994H140.568V160.194H110.479V160.994ZM176.952 192.087L179.629 195.479L180.257 194.984L177.58 191.592M198.488 178.775L210.138 197.641L210.818 197.221L199.169 178.355" fill="#040606"/>
<path d="M212.319 189.89L204.396 196.569L204.911 197.181L212.834 190.502" fill="#040606"/>
<path d="M209.952 188.636C209.952 189.32 209.397 189.874 208.714 189.874C208.03 189.874 207.476 189.32 207.476 188.636C207.476 187.952 208.03 187.398 208.714 187.398C209.397 187.398 209.952 187.952 209.952 188.636Z" fill="white"/>
<path d="M118.032 237.135L105.793 180.163L105.011 180.331L117.25 237.303" fill="#040606"/>
<path d="M109.138 274.141L101.4 374.304L102.996 374.427L110.733 274.264M160.622 274.225L163.512 374.388L165.111 374.342L162.221 274.179" fill="#F79189"/>
<path d="M104.25 346.264H163.43V344.664H104.25V346.264Z" fill="#F79189"/>
<path d="M132.421 274.179L129.531 374.342L131.13 374.388L134.021 274.225M183.909 274.264L191.646 374.427L193.242 374.304L185.504 274.141" fill="#F46A51"/>
<path d="M131.031 346.264H190.211V344.664H131.031V346.264ZM176.3 267.324H161.239C157.539 267.324 154.332 264.635 153.519 260.844C151.267 250.354 146.708 229.49 143.258 216.207C138.497 197.872 131.618 186.76 118.657 186.76C113.624 186.76 98.7512 185.371 90.2858 186.76C81.8212 188.148 81.4876 195.644 82.6148 202.039C86.3267 223.098 98.4952 259.721 103.701 270.88C104.648 272.909 106.681 274.202 108.92 274.202H188.575C185.831 269.903 181.228 267.324 176.3 267.324Z" fill="#F46A51"/>
<path d="M176.299 266.481H154.958C151.449 266.482 148.403 264.006 147.628 260.502C145.376 250.311 140.816 230.048 137.363 217.133C134.974 208.203 132.055 201.007 128.064 196.009C124.079 191.01 118.971 188.229 112.375 188.236V189.036C118.742 189.044 123.554 191.66 127.439 196.509C131.317 201.358 134.218 208.462 136.59 217.34C140.036 230.226 144.596 250.49 146.847 260.675C147.699 264.536 151.065 267.281 154.958 267.281H176.299V266.481ZM36.3027 374.966H563.681V373.766H36.3027V374.966Z" fill="#040606"/>
</svg>
