<svg width="480" height="400" viewBox="0 0 480 400" fill="none" xmlns="http://www.w3.org/2000/svg">
<path d="M433.073 345.786C433.684 297.516 427.435 88.0921 364.123 88.0921C304.548 88.0921 296.008 220.144 232.903 220.928C169.797 221.711 164.606 147.168 106.889 147.168C56.7533 147.168 38.7684 304.467 34.9089 345.786H433.073Z" fill="#D1EAE6"/>
<path d="M80.6148 244.427C80.6116 259.411 68.4624 271.556 53.4778 271.553C38.4941 271.55 26.3494 259.401 26.3519 244.416C26.3547 229.432 38.5044 217.288 53.4884 217.29C68.4731 217.293 80.6172 229.443 80.6148 244.427Z" fill="#579293"/>
<path d="M76.3184 244.426C76.3159 257.038 66.0905 267.259 53.4786 267.257C40.8674 267.254 30.6455 257.029 30.6479 244.417C30.6505 231.806 40.8762 221.584 53.4877 221.586C66.099 221.589 76.3209 231.815 76.3184 244.426Z" fill="#D1EAE6"/>
<path d="M39.7331 238.916L53.9 243.265L52.6259 243.541L67.4312 230.13C67.4817 230.084 67.5408 230.049 67.6051 230.026C67.6693 230.003 67.7375 229.992 67.8056 229.996C67.8738 229.999 67.9407 230.016 68.0024 230.045C68.064 230.074 68.1194 230.115 68.1652 230.166C68.349 230.369 68.3411 230.679 68.1552 230.874L54.3408 245.303L54.3312 245.314C53.9956 245.664 53.489 245.753 53.0666 245.578L39.3809 239.894C39.116 239.783 38.99 239.478 39.1004 239.214C39.2038 238.965 39.4803 238.84 39.7331 238.916Z" fill="#579293"/>
<path d="M54.8162 225.079C54.8162 225.815 54.2193 226.411 53.4834 226.411C52.7471 226.411 52.1503 225.815 52.1503 225.079C52.1503 224.343 52.7471 223.746 53.4834 223.746C54.2193 223.746 54.8162 224.343 54.8162 225.079ZM54.8162 263.764C54.8162 264.501 54.2193 265.098 53.4834 265.098C52.7471 265.098 52.1503 264.501 52.1503 263.764C52.1503 263.028 52.7471 262.431 53.4834 262.431C54.2193 262.431 54.8162 263.028 54.8162 263.764ZM44.9664 227.004C45.3345 227.641 45.1161 228.457 44.4786 228.825C43.8411 229.193 43.0258 228.974 42.6574 228.337C42.2896 227.699 42.508 226.884 43.1452 226.516C43.7833 226.147 44.5983 226.367 44.9664 227.004ZM64.3091 260.507C64.6768 261.143 64.4584 261.959 63.8209 262.327C63.1835 262.695 62.3685 262.476 62.0001 261.839C61.6319 261.202 61.8503 260.387 62.4878 260.019C63.1256 259.65 63.9409 259.869 64.3091 260.507ZM37.3985 233.596C38.0363 233.964 38.2544 234.779 37.8866 235.417C37.5185 236.054 36.7035 236.274 36.066 235.905C35.4279 235.537 35.2098 234.722 35.5775 234.084C35.946 233.446 36.7613 233.228 37.3985 233.596ZM70.9007 252.939C71.5385 253.307 71.7566 254.122 71.3889 254.76C71.0207 255.397 70.2058 255.615 69.5676 255.247C68.9301 254.879 68.7121 254.064 69.0799 253.427C69.4483 252.789 70.2635 252.571 70.9007 252.939ZM34.141 243.089C34.877 243.089 35.4739 243.685 35.4739 244.421C35.4739 245.158 34.877 245.754 34.141 245.754C33.4045 245.754 32.8076 245.158 32.8076 244.421C32.8076 243.685 33.4045 243.089 34.141 243.089ZM72.826 243.089C73.5619 243.089 74.1588 243.685 74.1588 244.421C74.1588 245.158 73.5619 245.754 72.826 245.754C72.0895 245.754 71.4926 245.158 71.4926 244.421C71.4926 243.685 72.0895 243.089 72.826 243.089ZM36.066 252.939C36.7035 252.571 37.5185 252.789 37.8866 253.427C38.2544 254.064 38.0363 254.879 37.3985 255.247C36.7613 255.615 35.946 255.397 35.5775 254.76C35.2098 254.122 35.4279 253.307 36.066 252.939ZM69.5676 233.596C70.2058 233.228 71.0207 233.446 71.3889 234.084C71.7566 234.722 71.5385 235.537 70.9007 235.905C70.2635 236.273 69.4483 236.054 69.0799 235.417C68.7121 234.779 68.9301 233.964 69.5676 233.596ZM42.6574 260.507C43.0258 259.869 43.8411 259.65 44.4786 260.018C45.1161 260.387 45.3345 261.202 44.9664 261.839C44.5983 262.476 43.7833 262.695 43.1452 262.327C42.508 261.959 42.2896 261.143 42.6574 260.507ZM62.0001 227.004C62.3685 226.367 63.1835 226.147 63.8209 226.516C64.4584 226.884 64.6768 227.699 64.3091 228.337C63.9409 228.974 63.1256 229.193 62.4878 228.825C61.8503 228.457 61.6319 227.641 62.0001 227.004Z" fill="white"/>
<path d="M438.17 265.53C438.17 281.824 424.96 295.034 408.666 295.034C392.371 295.034 379.162 281.824 379.162 265.53C379.162 249.236 392.371 236.026 408.666 236.026C424.96 236.026 438.17 249.236 438.17 265.53Z" fill="#4072C1"/>
<path d="M408.666 265.53L398.883 293.366C401.945 294.442 405.236 295.034 408.666 295.034C424.616 295.034 437.602 282.375 438.143 266.557L408.666 265.53Z" fill="#F9B524"/>
<path d="M437.962 268.981C438.094 267.848 438.17 266.699 438.17 265.531C438.17 262.868 437.81 260.288 437.149 257.834L408.666 265.531L437.962 268.981Z" fill="#1B314D"/>
<path d="M442.357 264.757C442.105 253.621 436.459 243.823 427.923 237.87L408.666 265.531L442.357 264.757Z" fill="#89D0CA"/>
<path d="M398.907 293.374L408.666 265.531L381.552 277.172C384.797 284.721 391.104 290.64 398.907 293.374Z" fill="#F25064"/>
<path d="M401.303 236.953C388.572 240.223 379.162 251.777 379.162 265.531C379.162 269.752 380.056 273.764 381.653 277.395L408.666 265.531L401.303 236.953ZM223.894 171.272H328.466L339.177 79.4497H234.606L223.894 171.272Z" fill="#1B314D"/>
<path d="M350.067 171.272H245.495L234.784 79.45H339.355L350.067 171.272Z" fill="#F9B524"/>
<path d="M341.346 96.5205H236.776L234.784 79.4498H339.355L341.346 96.5205Z" fill="#4072C1"/>
<path d="M327.224 86.687C329.233 86.531 330.54 83.2879 330.092 79.4552C329.635 75.5265 327.477 72.2074 325.383 72.2074C323.289 72.2074 321.906 75.5265 322.365 79.4552H320.848C320.282 74.6049 322.203 70.8066 325.22 70.8066C328.238 70.8066 331.044 74.6049 331.609 79.4552C332.166 84.2223 330.316 87.9654 327.388 88.0918L327.224 86.687ZM315.81 86.687C317.819 86.531 319.126 83.2879 318.679 79.4552C318.221 75.5265 316.064 72.2074 313.97 72.2074C311.875 72.2074 310.493 75.5265 310.951 79.4552H309.434C308.869 74.6049 310.789 70.8066 313.806 70.8066C316.824 70.8066 319.63 74.6049 320.196 79.4552C320.752 84.2223 318.904 87.9654 315.974 88.0918L315.81 86.687ZM304.397 86.687C306.406 86.531 307.712 83.2879 307.266 79.4552C306.807 75.5265 304.651 72.2074 302.556 72.2074C300.462 72.2074 299.08 75.5265 299.538 79.4552H298.021C297.456 74.6049 299.376 70.8066 302.392 70.8066C305.41 70.8066 308.217 74.6049 308.782 79.4552C309.338 84.2223 307.49 87.9654 304.56 88.0918L304.397 86.687ZM292.983 86.687C294.992 86.531 296.299 83.2879 295.852 79.4552C295.393 75.5265 293.237 72.2074 291.143 72.2074C289.049 72.2074 287.666 75.5265 288.124 79.4552H286.607C286.041 74.6049 287.961 70.8066 290.979 70.8066C293.996 70.8066 296.804 74.6049 297.369 79.4552C297.925 84.2223 296.076 87.9654 293.147 88.0918L292.983 86.687ZM281.57 86.687C283.578 86.531 284.886 83.2879 284.438 79.4552C283.98 75.5265 281.823 72.2074 279.729 72.2074C277.634 72.2074 276.253 75.5265 276.711 79.4552H275.194C274.628 74.6049 276.548 70.8066 279.566 70.8066C282.583 70.8066 285.389 74.6049 285.956 79.4552C286.511 84.2223 284.662 87.9654 281.734 88.0918L281.57 86.687ZM270.156 86.687C272.165 86.531 273.472 83.2879 273.025 79.4552C272.567 75.5265 270.41 72.2074 268.316 72.2074C266.221 72.2074 264.839 75.5265 265.297 79.4552H263.78C263.214 74.6049 265.135 70.8066 268.152 70.8066C271.17 70.8066 273.976 74.6049 274.542 79.4552C275.098 84.2223 273.249 87.9654 270.32 88.0918L270.156 86.687ZM258.742 86.687C260.752 86.531 262.058 83.2879 261.611 79.4552C261.153 75.5265 258.997 72.2074 256.902 72.2074C254.807 72.2074 253.425 75.5265 253.884 79.4552H252.366C251.801 74.6049 253.721 70.8066 256.739 70.8066C259.757 70.8066 262.563 74.6049 263.128 79.4552C263.684 84.2223 261.836 87.9654 258.906 88.0918L258.742 86.687ZM247.329 86.687C249.338 86.531 250.645 83.2879 250.198 79.4552C249.74 75.5265 247.583 72.2074 245.489 72.2074C243.394 72.2074 242.012 75.5265 242.471 79.4552H240.953C240.387 74.6049 242.307 70.8066 245.325 70.8066C248.342 70.8066 251.149 74.6049 251.715 79.4552C252.271 84.2223 250.422 87.9654 247.493 88.0918L247.329 86.687Z" fill="#1B314D"/>
<path d="M296.088 112.852H285.844L284.944 105.131H295.188L296.088 112.852Z" stroke="white" stroke-width="1.87069" stroke-miterlimit="10"/>
<path d="M309.736 112.852H299.492L298.592 105.131H308.835L309.736 112.852Z" fill="#37AA86"/>
<path d="M323.385 112.852H313.141L312.24 105.131H322.484L323.385 112.852Z" stroke="white" stroke-width="1.87069" stroke-miterlimit="10"/>
<path d="M337.033 112.852H326.789L325.889 105.131H336.132L337.033 112.852Z" fill="white"/>
<path d="M256.481 124.319H246.238L245.337 116.597H255.58L256.481 124.319Z" stroke="white" stroke-width="1.87069" stroke-miterlimit="10"/>
<path d="M270.129 124.319H259.885L258.985 116.597H269.228L270.129 124.319ZM283.777 124.319H273.534L272.633 116.597H282.877L283.777 124.319Z" fill="#37AA86"/>
<path d="M297.425 124.319H287.182L286.282 116.597H296.525L297.425 124.319ZM311.074 124.319H300.83L299.929 116.597H310.173L311.074 124.319ZM324.722 124.319H314.478L313.578 116.597H323.821L324.722 124.319Z" stroke="white" stroke-width="1.87069" stroke-miterlimit="10"/>
<path d="M338.371 124.319H328.127L327.226 116.597H337.47L338.371 124.319Z" fill="white"/>
<path d="M257.818 135.786H247.574L246.674 128.065H256.917L257.818 135.786ZM271.467 135.786H261.223L260.323 128.065H270.566L271.467 135.786ZM285.115 135.786H274.871L273.971 128.065H284.214L285.115 135.786ZM298.763 135.786H288.52L287.619 128.065H297.862L298.763 135.786Z" stroke="white" stroke-width="1.87069" stroke-miterlimit="10"/>
<path d="M312.411 135.786H302.168L301.268 128.065H311.511L312.411 135.786Z" fill="#37AA86"/>
<path d="M326.06 135.786H315.816L314.915 128.065H325.159L326.06 135.786Z" stroke="white" stroke-width="1.87069" stroke-miterlimit="10"/>
<path d="M339.707 135.786H329.464L328.564 128.065H338.807L339.707 135.786Z" fill="white"/>
<path d="M259.156 147.253H248.912L248.012 139.532H258.256L259.156 147.253ZM272.804 147.253H262.56L261.66 139.532H271.903L272.804 147.253Z" stroke="white" stroke-width="1.87069" stroke-miterlimit="10"/>
<path d="M286.453 147.253H276.209L275.308 139.532H285.552L286.453 147.253Z" fill="#37AA86"/>
<path d="M300.101 147.253H289.857L288.957 139.532H299.2L300.101 147.253ZM313.749 147.253H303.506L302.605 139.532H312.848L313.749 147.253ZM327.397 147.253H317.154L316.253 139.532H326.497L327.397 147.253Z" stroke="white" stroke-width="1.87069" stroke-miterlimit="10"/>
<path d="M341.045 147.253H330.802L329.901 139.532H340.144L341.045 147.253Z" fill="white"/>
<path d="M260.493 158.72H250.25L249.35 150.998H259.593L260.493 158.72ZM274.142 158.72H263.898L262.997 150.998H273.241L274.142 158.72Z" stroke="white" stroke-width="1.87069" stroke-miterlimit="10"/>
<path d="M287.79 158.72H277.546L276.646 150.998H286.889L287.79 158.72Z" fill="#37AA86"/>
<path d="M301.439 158.72H291.195L290.294 150.998H300.538L301.439 158.72ZM315.086 158.72H304.843L303.942 150.998H314.186L315.086 158.72Z" stroke="white" stroke-width="1.87069" stroke-miterlimit="10"/>
<path d="M328.427 219.064C328.427 226.514 322.365 232.575 314.915 232.575C307.466 232.575 301.404 226.514 301.404 219.064C301.404 211.615 307.466 205.554 314.915 205.554C322.365 205.554 328.427 211.615 328.427 219.064ZM354.395 226.271V211.858H341.862C341.221 209.466 340.279 207.202 339.063 205.107L347.926 196.243L337.737 186.054L328.872 194.917C326.778 193.701 324.513 192.759 322.121 192.119V179.585H307.709V192.119C305.317 192.759 303.053 193.701 300.957 194.917L292.094 186.054L281.905 196.243L290.768 205.107C289.553 207.202 288.609 209.466 287.969 211.858H275.436V226.271H287.969C288.609 228.663 289.553 230.927 290.768 233.023L281.905 241.885L292.094 252.075L300.957 243.212C303.053 244.428 305.317 245.37 307.709 246.01V258.543H322.121V246.01C324.513 245.37 326.778 244.428 328.872 243.212L337.737 252.075L347.926 241.885L339.063 233.023C340.279 230.927 341.221 228.663 341.862 226.271H354.395Z" fill="#89D0CA"/>
<mask id="mask0_32_681" style="mask-type:luminance" maskUnits="userSpaceOnUse" x="206" y="237" width="170" height="109">
<path d="M375.211 345.544H206.89V237.623H375.211V345.544Z" fill="white"/>
</mask>
<g mask="url(#mask0_32_681)">
<path d="M314.234 322.295C314.234 333.992 304.716 343.51 293.017 343.51C281.32 343.51 271.802 333.992 271.802 322.295C271.802 310.597 281.32 301.078 293.017 301.078C304.716 301.078 314.234 310.597 314.234 322.295ZM355.01 333.61V310.979H335.331C334.324 307.222 332.844 303.667 330.936 300.377L344.854 286.459L328.853 270.458L314.935 284.377C311.645 282.468 308.089 280.988 304.333 279.981V260.302H281.703V279.981C277.946 280.988 274.39 282.468 271.1 284.377L257.182 270.458L241.182 286.459L255.1 300.377C253.19 303.667 251.711 307.222 250.705 310.979H231.025V333.61H250.705C251.711 337.366 253.19 340.922 255.1 344.212L241.182 358.13L257.182 374.13L271.1 360.212C274.39 362.121 277.946 363.601 281.703 364.606V384.288H304.333V364.606C308.089 363.601 311.645 362.121 314.935 360.212L328.853 374.13L344.854 358.13L330.936 344.212C332.844 340.922 334.324 337.366 335.331 333.61H355.01Z" fill="#F9B524"/>
</g>
<path d="M288.143 345.786H125.079L101.196 102.245H264.26L288.143 345.786Z" fill="#4072C1"/>
<path d="M276.202 336.657H138.157L116.063 111.373H254.109L276.202 336.657Z" fill="white"/>
<path d="M195.89 110.206H171.128L168.993 88.4445C168.323 81.6063 173.323 76.0632 180.16 76.0632C186.999 76.0632 193.086 81.6063 193.756 88.4445L195.89 110.206Z" fill="#F9B524"/>
<path d="M185.161 89.0311C185.362 91.0902 183.857 92.7598 181.798 92.7598C179.739 92.7598 177.906 91.0902 177.703 89.0311C177.502 86.9719 179.007 85.3024 181.067 85.3024C183.126 85.3024 184.959 86.9719 185.161 89.0311Z" stroke="white" stroke-width="1.87069" stroke-miterlimit="10"/>
<path d="M169.453 93.1342L194.676 97.8245L195.586 107.11H170.824L169.453 93.1342Z" fill="#101E2E"/>
<path d="M205.548 121.04H163.594C157.277 121.04 151.653 115.918 151.034 109.6L150.031 99.3726H214.863L215.865 109.6C216.485 115.918 211.866 121.04 205.548 121.04Z" fill="#F9B524"/>
<path d="M156.754 107.11H209.656M157.205 111.707H210.107" stroke="white" stroke-width="1.87069" stroke-miterlimit="10"/>
<path d="M148.04 160.812H133.845C131.467 160.812 129.35 158.884 129.117 156.504L127.725 142.31C127.491 139.931 129.23 138.003 131.61 138.003H145.804C148.182 138.003 150.299 139.931 150.533 142.31L151.925 156.504C152.159 158.884 150.419 160.812 148.04 160.812Z" fill="#579293"/>
<path d="M187.338 143.54H158.49C157.273 143.54 156.189 142.552 156.07 141.335C155.95 140.117 156.841 139.13 158.058 139.13H186.905C188.122 139.13 189.206 140.117 189.326 141.335C189.445 142.552 188.555 143.54 187.338 143.54ZM208.743 151.612H159.282C158.064 151.612 156.981 150.626 156.861 149.408C156.742 148.191 157.632 147.203 158.85 147.203H208.311C209.528 147.203 210.612 148.191 210.731 149.408C210.851 150.626 209.961 151.612 208.743 151.612ZM222.469 159.686H160.074C158.856 159.686 157.773 158.698 157.653 157.481C157.534 156.263 158.424 155.276 159.642 155.276H222.037C223.254 155.276 224.338 156.263 224.457 157.481C224.577 158.698 223.686 159.686 222.469 159.686Z" stroke="#4072C1" stroke-width="1.25617" stroke-miterlimit="10"/>
<path d="M152.654 207.854H138.459C136.081 207.854 133.963 205.925 133.729 203.546L132.338 189.352C132.105 186.973 133.844 185.045 136.222 185.045H150.417C152.795 185.045 154.913 186.973 155.146 189.352L156.538 203.546C156.771 205.925 155.032 207.854 152.654 207.854Z" fill="#F18459"/>
<path d="M225.499 190.581H163.104C161.886 190.581 160.802 189.594 160.683 188.377C160.563 187.159 161.453 186.172 162.671 186.172H225.066C226.284 186.172 227.368 187.159 227.487 188.377C227.607 189.594 226.717 190.581 225.499 190.581ZM213.357 198.654H163.895C162.677 198.654 161.593 197.667 161.474 196.449C161.355 195.232 162.245 194.244 163.462 194.244H212.924C214.142 194.244 215.226 195.232 215.345 196.449C215.464 197.667 214.574 198.654 213.357 198.654ZM227.082 206.727H164.687C163.469 206.727 162.385 205.74 162.266 204.523C162.146 203.305 163.037 202.318 164.254 202.318H226.649C227.867 202.318 228.951 203.305 229.071 204.523C229.19 205.74 228.3 206.727 227.082 206.727Z" stroke="#4072C1" stroke-width="1.25617" stroke-miterlimit="10"/>
<path d="M157.266 254.896H143.072C140.694 254.896 138.576 252.967 138.344 250.588L136.951 236.394C136.718 234.015 138.457 232.086 140.836 232.086H155.03C157.409 232.086 159.526 234.015 159.759 236.394L161.151 250.588C161.385 252.967 159.646 254.896 157.266 254.896Z" fill="#579293"/>
<path d="M196.564 237.623H167.717C166.499 237.623 165.415 236.636 165.296 235.418C165.177 234.201 166.067 233.214 167.285 233.214H196.131C197.349 233.214 198.433 234.201 198.552 235.418C198.672 236.636 197.781 237.623 196.564 237.623ZM230.904 245.696H168.509C167.291 245.696 166.207 244.708 166.088 243.491C165.969 242.274 166.859 241.286 168.077 241.286H230.472C231.689 241.286 232.773 242.274 232.892 243.491C233.012 244.708 232.121 245.696 230.904 245.696ZM231.696 253.769H169.3C168.083 253.769 166.999 252.781 166.879 251.565C166.76 250.346 167.65 249.36 168.868 249.36H231.263C232.481 249.36 233.565 250.346 233.684 251.565C233.803 252.781 232.913 253.769 231.696 253.769Z" stroke="#4072C1" stroke-width="1.25617" stroke-miterlimit="10"/>
<path d="M161.88 301.937H147.686C145.307 301.937 143.19 300.008 142.956 297.631L141.564 283.436C141.331 281.058 143.07 279.129 145.449 279.129H159.643C162.022 279.129 164.139 281.058 164.373 283.436L165.765 297.631C165.997 300.008 164.259 301.937 161.88 301.937Z" fill="#F18459"/>
<path d="M234.725 284.664H172.33C171.112 284.664 170.029 283.677 169.909 282.46C169.79 281.242 170.68 280.256 171.897 280.256H234.292C235.51 280.256 236.594 281.242 236.713 282.46C236.833 283.677 235.943 284.664 234.725 284.664ZM222.583 292.738H173.122C171.904 292.738 170.821 291.75 170.701 290.533C170.581 289.315 171.472 288.328 172.689 288.328H222.151C223.368 288.328 224.452 289.315 224.572 290.533C224.691 291.75 223.801 292.738 222.583 292.738ZM236.308 300.81H173.913C172.696 300.81 171.612 299.823 171.493 298.606C171.373 297.388 172.264 296.402 173.481 296.402H235.876C237.094 296.402 238.177 297.388 238.297 298.606C238.416 299.823 237.526 300.81 236.308 300.81Z" stroke="#4072C1" stroke-width="1.25617" stroke-miterlimit="10"/>
<path d="M231.387 146.786L239.659 155.084L249.151 143.731M240.614 240.869L248.885 249.168L258.377 237.814M245.227 287.91L253.498 296.209L262.991 284.856" stroke="#37AA86" stroke-width="7.14714" stroke-miterlimit="10" stroke-linecap="round" stroke-linejoin="round"/>
<path d="M238.499 190.275L253.161 202.624M251.95 190.275L239.71 202.624" stroke="#F04152" stroke-width="7.14714" stroke-miterlimit="10" stroke-linecap="round" stroke-linejoin="round"/>
<path d="M366.084 320.81L366.075 332.397C366.074 333.223 366.212 334.039 366.492 334.817C367.194 336.764 368.516 341.141 368.358 346.124L341.656 346.102C341.656 346.102 343.218 342.566 350.29 340.396C351.547 340.01 352.701 339.344 353.701 338.492L356.306 336.275C357.747 335.048 358.428 333.149 358.093 331.288L356.21 320.802L366.084 320.81Z" fill="#F25064"/>
<path d="M367.103 336.705L360.628 339.79L355.854 336.66L353.701 338.492C352.701 339.344 351.547 340.01 350.29 340.395C343.218 342.566 341.656 346.102 341.656 346.102L368.358 346.124C368.476 342.387 367.763 338.99 367.103 336.705Z" fill="#101E2E"/>
<path d="M387.64 320.828L389.958 333.828C390.074 334.477 390.083 335.14 389.987 335.792L388.454 346.14L408.898 346.158C408.898 346.158 408.622 343.098 407.65 342.263C406.677 341.428 403.898 339.338 403.898 339.338L399.725 335.005C398.785 334.029 398.221 332.751 398.134 331.399L397.446 320.837L387.64 320.828Z" fill="#F25064"/>
<path d="M399.883 335.169C395.306 335.399 392.806 338.722 392.806 338.722L389.788 337.137L388.454 346.14L408.898 346.158C408.898 346.158 408.622 343.098 407.65 342.263C406.677 341.428 403.898 339.338 403.898 339.338L399.883 335.169Z" fill="#101E2E"/>
<path d="M355.909 182.805L364.679 173.426L375.318 173.365L381.256 182.827L376.206 214.191L356.405 214.174L355.909 182.805Z" fill="#D9A595"/>
<path d="M362.724 183.82L368.813 178.749L376.038 185.847M368.811 181.147L364.908 211.184" stroke="white" stroke-width="0.837879" stroke-miterlimit="10"/>
<path d="M386.536 230.152L402.938 322.302L384.163 322.286L364.884 239.66L370.603 323.317L351.619 323.302L346.349 226.189L354.997 214.335L382.237 215.054L386.536 230.152Z" fill="#355687"/>
<path d="M386.536 230.151L382.237 215.053L354.997 214.335L346.349 226.188L346.48 228.606C352.39 228.727 371.858 229.618 387.562 235.921L386.536 230.151Z" fill="#1B314D"/>
<path d="M364.884 239.66L362.88 231.715L364.296 216.226M356.805 233.29L374.678 233.306M362.002 216.223L363.025 230.132M352.538 222.196L357.461 323.306M376.2 222.215L394.385 322.295" stroke="#101E2E" stroke-width="0.837879" stroke-miterlimit="10"/>
<path d="M380.594 217.133L354.49 217.111L354.493 212.949L380.598 212.971L380.594 217.133Z" fill="#101E2E"/>
<path d="M368.195 148.342C372.475 149.101 375.816 151.82 377.47 156.278C378.304 158.521 378.458 160.816 380.438 162.226C382.419 163.636 382.73 165.67 382.573 166.817C382.415 167.964 382.832 169.686 384.082 170.625L355.033 170.601C355.033 170.601 356.652 168.151 356.341 166.065C356.03 163.979 355.04 162.57 355.772 160.432C356.505 158.294 357.493 157.333 356.089 155.529C354.057 152.921 357.244 146.404 368.195 148.342Z" fill="#7D1B27"/>
<path d="M367.269 153.088C367.268 153.992 368.029 159.139 372.199 161.159L372.51 164.044L375.318 173.365L368.743 178.192L364.679 173.426L364.683 169.219C361.971 169.459 359.712 167.89 359.54 164.969C359.369 162.048 359.51 159.513 358.676 157.948C358.676 157.948 362.919 157.882 367.269 153.088Z" fill="#F25064"/>
<path d="M369.558 163.68C369.558 164.505 368.888 165.175 368.064 165.175C367.238 165.175 366.568 164.505 366.568 163.68C366.568 162.854 367.238 162.184 368.064 162.184C368.888 162.184 369.558 162.854 369.558 163.68Z" fill="#F04152"/>
<path d="M365.126 169.149C365.126 169.149 368.047 169.126 369.952 166.624" stroke="#3C171B" stroke-width="0.837879" stroke-miterlimit="10"/>
<path d="M375.088 161.883C374.359 163.535 372.736 164.418 371.463 163.855C370.189 163.293 369.747 161.499 370.476 159.848C371.205 158.196 372.829 157.313 374.102 157.876C375.376 158.438 375.818 160.232 375.088 161.883Z" fill="#F25064"/>
<path d="M371.26 161.957C371.26 161.957 371.731 159.455 373.896 158.96M373.112 161.02L372.783 159.47" stroke="#3C171B" stroke-width="0.837879" stroke-miterlimit="10"/>
<path d="M374.901 163.525C374.9 164.082 374.448 164.533 373.891 164.532C373.335 164.532 372.883 164.08 372.884 163.523C372.884 162.967 373.337 162.515 373.893 162.515C374.45 162.516 374.902 162.968 374.901 163.525Z" stroke="white" stroke-width="0.837879" stroke-miterlimit="10"/>
<path d="M361.57 161.702L361.905 161.216C361.738 161.042 361.501 160.939 361.244 160.98C360.827 161.045 360.541 161.438 360.608 161.855C360.674 162.273 361.067 162.557 361.484 162.491C361.901 162.425 362.185 162.033 362.119 161.615C362.114 161.585 362.096 161.56 362.088 161.531L361.57 161.702ZM366.291 160.953L366.627 160.466C366.46 160.292 366.222 160.19 365.965 160.23C365.547 160.296 365.263 160.688 365.33 161.105C365.396 161.522 365.787 161.807 366.204 161.741C366.622 161.674 366.907 161.282 366.84 160.866C366.836 160.834 366.817 160.81 366.809 160.782L366.291 160.953Z" fill="#101E2E"/>
<path d="M363.299 161.551C363.299 161.551 363.315 162.368 363.297 163.046C363.279 163.725 364.078 164.09 364.948 163.517M363.556 164.837C364.321 165.064 366.215 165.169 367.416 163.519M366.848 163.189L367.73 163.728" stroke="#3C171B" stroke-width="0.837879" stroke-miterlimit="10"/>
<path d="M364.517 158.736C364.517 158.736 366.413 158.111 367.734 158.582M360.153 159.653C360.153 159.653 361.371 158.942 362.692 159.377" stroke="#7D1B27" stroke-width="1.75538" stroke-miterlimit="10" stroke-linecap="round" stroke-linejoin="round"/>
<path d="M375.318 173.365L368.924 212.571C368.647 214.266 368.78 216.004 369.31 217.638L371.84 225.442C372.265 226.751 373.787 227.337 374.979 226.649L387.483 219.443L382.066 211.199L389.241 185.9C390.256 182.323 388.4 178.559 384.944 177.187L375.318 173.365Z" fill="#355687"/>
<path d="M379.319 211.578L372.708 217.127M376.261 174.81L376.862 175.734C378.742 178.621 378.872 182.31 377.199 185.321L376.037 187.412L377.334 191.253C377.615 192.085 377.727 192.965 377.664 193.841C377.601 194.716 377.364 195.571 376.966 196.354L369.915 210.25" stroke="#101E2E" stroke-width="0.837879" stroke-miterlimit="10"/>
<path d="M382.066 211.199L373.694 226.92C374.123 226.962 374.57 226.885 374.979 226.649L387.483 219.443L382.066 211.199ZM382.257 191.763L383.133 207.436L386.318 196.207L382.257 191.763Z" fill="#101E2E"/>
<path d="M376.004 226.059L384.542 227.963L379.31 222.218L376.004 226.059Z" fill="#F25064"/>
<path d="M364.679 173.426L359.57 223.696C359.425 225.117 358.227 226.199 356.798 226.197L344.191 226.187C344.191 226.187 349.207 214.074 353.281 207.411L353.18 203.769L347.255 210.009C344.918 212.472 341.108 212.798 338.387 210.769C335.557 208.659 334.848 204.718 336.764 201.754L349.564 181.956C351.012 179.717 353.124 177.986 355.605 177.007L364.679 173.426Z" fill="#355687"/>
<path d="M364 174.207C362.538 176.396 358.624 179.679 361.643 186.514C358.509 192.039 357.877 199.492 360.164 208.623M346.78 206.406L347.93 196.15" stroke="#101E2E" stroke-width="0.837879" stroke-miterlimit="10"/>
<path d="M368.176 205.338L348.325 205.322L338.584 177.305L358.436 177.321L368.176 205.338Z" fill="#F18459"/>
<path d="M381.074 190.997L390.17 207.068L379.31 222.218L386.536 230.151L401.669 216.108C404.98 213.036 405.833 208.13 403.751 204.12L393.64 184.635C391.956 181.389 389.157 178.858 385.758 177.509L382.075 176.047L381.074 190.997Z" fill="#355687"/>
<path d="M390.17 207.068L392.642 203.802" stroke="#101E2E" stroke-width="0.837879" stroke-miterlimit="10"/>
<path d="M339.603 192.727C339.645 192.528 340.986 190.903 342.213 190.043C342.927 189.543 343.738 189.104 344.291 188.825C344.679 188.629 345.15 188.714 345.449 189.03L346.444 190.079C346.592 190.235 346.685 190.435 346.71 190.649C346.734 190.863 346.687 191.079 346.578 191.264L344.27 195.155C344.27 195.155 347.686 193.333 347.921 193.49C348.061 193.583 346.756 195.043 345.672 196.215C344.77 197.193 343.319 197.461 342.146 196.834C340.718 196.071 339.175 194.753 339.603 192.727Z" fill="#F25064"/>
<path d="M341.638 192.337L345.637 189.228M343.07 194.112L346.379 190.092" stroke="#3C171B" stroke-width="0.837879" stroke-miterlimit="10"/>
<path d="M28.1105 345.804L447.672 346.158" stroke="#1B314D" stroke-width="2.52899" stroke-miterlimit="10"/>
<path d="M101.279 140.727C100.733 138.991 98.66 138.097 96.648 138.731C96.0936 138.905 95.6104 139.183 95.2008 139.522C94.1833 138.206 92.4209 137.591 90.7418 138.119C89.8986 138.385 89.2058 138.9 88.7114 139.555C87.669 138.5 86.0891 138.049 84.5771 138.526C83.6403 138.82 82.886 139.422 82.3868 140.183C81.722 139.965 80.9884 139.938 80.2708 140.164C78.4437 140.739 77.4291 142.686 78.0037 144.514C78.3337 145.561 79.1199 146.326 80.07 146.694L82.8116 151.685L95.5192 148.381L97.812 145.187C98.0824 145.156 98.3552 145.103 98.6272 145.018C100.638 144.384 101.826 142.463 101.279 140.727Z" fill="#101E2E"/>
<path d="M141.17 177.727L146.942 170.877C146.942 170.877 147.22 167.088 149.027 165.036C150.836 162.984 152.574 162.116 152.922 162.255C153.27 162.393 150.801 166.392 150.801 166.392C150.801 166.392 153.13 166.114 154.486 165.036C155.842 163.959 158.554 161.073 159.389 161.49C160.224 161.907 160.953 166.496 157.511 170.321C157.511 170.321 158.554 170.35 159.528 169.588C160.501 168.826 161.093 168.131 161.475 168.513C161.857 168.896 160.362 171.121 159.389 171.711C158.415 172.303 157.198 172.72 157.198 172.72C157.198 172.72 155.209 174.945 151.354 175.536L148.089 182.942L141.17 177.727Z" fill="#A85735"/>
<path d="M154.602 167.357C154.602 167.357 157.833 165.01 159.45 162.168M155.956 168.843C155.956 168.843 158.172 166.366 159.606 164.462" stroke="#3C171B" stroke-width="0.837879" stroke-miterlimit="10"/>
<path d="M153.922 166.653C153.922 166.653 155.799 168.452 156.66 170.173M149.123 172.195C149.123 172.195 151.992 169.599 155.59 170.173" stroke="#3C171B" stroke-width="0.837879" stroke-miterlimit="10"/>
<path d="M143.711 174.711L141.17 177.727L148.089 182.942L150.147 178.272L143.711 174.711Z" fill="#1B314D"/>
<path d="M115.411 171.958L130.635 187.775L142.248 175.189L151.914 183.95C151.914 183.95 141.903 199.952 138.774 204.89C135.644 209.827 127.367 211.625 120.9 204.742C114.889 198.343 105.463 187.288 105.463 187.288L102.305 165.981L103.599 166.127C108.096 166.635 112.274 168.698 115.411 171.958Z" fill="#435862"/>
<path d="M110.584 174.238L116.486 199.911L108.242 190.521L110.584 174.238Z" fill="#101E2E"/>
<path d="M89.1914 323.65L88.9666 330.856C88.8922 333.238 90.2322 335.438 92.3825 336.465L98.5463 339.409C100.281 340.238 101.697 341.613 102.577 343.323C103.135 344.409 102.356 345.704 101.133 345.711C94.2944 345.758 76.6456 345.861 76.814 345.693C76.9828 345.524 78.6537 338.442 79.2859 335.746C79.4446 335.066 79.4771 334.364 79.3815 333.673L77.9962 323.65H89.1914ZM140.225 323.65L141.591 330.856C142.043 333.238 143.868 335.438 146.246 336.465L153.059 339.409C154.978 340.238 156.697 341.613 157.954 343.323C158.679 344.311 157.982 345.705 156.757 345.713C149.738 345.761 132.585 345.859 132.714 345.693C132.846 345.524 132.953 338.442 132.99 335.746C132.999 335.066 132.877 334.365 132.628 333.673L129.03 323.65H140.225Z" fill="#A85735"/>
<path d="M114.99 220.179L143.639 326.987H126.115L94.2328 234.362L92.0425 326.987H75.9097L71.3379 222.456L99.6223 209.27L114.99 220.179Z" fill="#435862"/>
<path d="M116.029 224.055L71.9638 236.763L71.3379 222.456L99.6223 209.27L114.99 220.179L116.029 224.055Z" fill="#101E2E"/>
<path d="M96.632 218.44L130.427 326.987" stroke="#101E2E" stroke-width="0.903681" stroke-miterlimit="10"/>
<path d="M98.5951 218.065L99.5871 214.884L100.858 218.354C101.761 220.818 104.106 222.457 106.729 222.457H117.127L110.661 195.493L110.584 174.238C110.568 170.062 107.428 166.56 103.279 166.091L93.9464 165.036H83.2283L77.3059 166.347C73.5885 167.17 71.2935 170.911 72.2463 174.598L78.5871 199.144C78.5871 199.144 73.1634 214.529 71.3379 222.457H92.6257C95.3616 222.457 97.7799 220.677 98.5951 218.065Z" fill="#435862"/>
<path d="M80.4987 182.942L77.6932 195.684L75.4196 186.882L80.4987 182.942Z" fill="#101E2E"/>
<path d="M75.4196 222.456L79.5257 326.987" stroke="#101E2E" stroke-width="0.903681" stroke-miterlimit="10"/>
<path d="M130.635 187.775L125.073 193.269" stroke="#101E2E" stroke-width="0.837879" stroke-miterlimit="10"/>
<path d="M71.3379 222.457H80.6388L75.9419 206.931C74.2934 211.927 72.3079 218.244 71.3379 222.457Z" fill="#101E2E"/>
<path d="M100.817 196.358L102.928 200.342C103.202 200.86 103.369 201.427 103.419 202.01C103.469 202.594 103.402 203.181 103.221 203.738L99.867 214.025" stroke="#101E2E" stroke-width="0.837879" stroke-miterlimit="10"/>
<path d="M100.526 201.647C100.526 202.204 100.074 202.655 99.5174 202.655C98.9606 202.655 98.5094 202.204 98.5094 201.647C98.5094 201.091 98.9606 200.639 99.5174 200.639C100.074 200.639 100.526 201.091 100.526 201.647Z" stroke="white" stroke-width="0.837879" stroke-miterlimit="10"/>
<path d="M85.729 256.864L73.4372 242.949L91.6777 226.836L103.969 240.751L85.729 256.864Z" fill="white"/>
<path d="M85.7331 255.374L74.915 243.128L91.6729 228.324L102.492 240.571L85.7331 255.374Z" fill="#579293"/>
<path d="M98.995 234.371L99.5718 233.861C100.022 233.463 100.169 232.785 99.847 232.276C99.439 231.627 98.5702 231.521 98.0198 232.008L97.3951 232.56L96.2007 231.208L95.3407 231.968C94.8767 232.377 94.8327 233.086 95.2423 233.549L97.7462 236.384C98.1566 236.848 98.8646 236.892 99.3278 236.482L100.189 235.722L98.995 234.371Z" fill="#F9B524"/>
<path d="M97.6287 232.805L99.0046 234.362L99.4246 233.99L97.6287 232.805ZM99.107 233.114C99.0734 233.144 99.0343 233.167 98.9919 233.182C98.9494 233.196 98.9045 233.203 98.8597 233.2C98.8149 233.197 98.771 233.185 98.7307 233.166C98.6904 233.146 98.6543 233.119 98.6246 233.085C98.5949 233.051 98.5721 233.012 98.5575 232.97C98.5429 232.927 98.5368 232.883 98.5395 232.838C98.5423 232.793 98.5538 232.749 98.5735 232.709C98.5932 232.669 98.6206 232.633 98.6542 232.603C98.7225 232.546 98.8102 232.518 98.8988 232.525C98.9874 232.532 99.0699 232.573 99.1288 232.639C99.1877 232.706 99.2184 232.792 99.2143 232.881C99.2102 232.97 99.1718 233.054 99.107 233.114ZM85.5026 241.875L82.8322 238.603L81.2619 237.521L87.8489 231.702L91.1728 235.881L91.9088 238.864L89.8617 237.447L86.1466 237.051L85.5026 241.875Z" fill="#1B314D"/>
<path d="M102.577 343.323C101.697 341.613 100.281 340.238 98.5463 339.409L92.3825 336.465C91.5185 336.053 90.7937 335.445 90.2306 334.717H87.2658C85.4491 334.717 83.9763 336.19 83.9763 338.007V338.461L81.4732 334.717H79.429C79.4127 335.064 79.3647 335.408 79.2856 335.746C78.6537 338.442 76.9828 345.524 76.814 345.693C76.6456 345.861 94.2944 345.758 101.133 345.711C102.356 345.704 103.135 344.409 102.577 343.323ZM156.757 345.713C157.982 345.705 158.679 344.311 157.954 343.323C156.697 341.613 154.978 340.238 153.059 339.409L146.246 336.465C145.291 336.053 144.432 335.445 143.708 334.717H140.744C138.926 334.717 137.778 336.19 138.18 338.007L138.28 338.461L134.95 334.717H132.906C132.966 335.057 132.994 335.401 132.99 335.746C132.953 338.442 132.846 345.524 132.714 345.693C132.585 345.859 149.738 345.761 156.757 345.713Z" fill="#101E2E"/>
<path d="M84.0802 149.633C84.0802 149.633 86.201 147.756 86.0274 145.253C86.0274 145.253 89.3305 145.74 90.4081 143.862C91.8688 145.113 93.92 144.974 95.1024 144.21C95.9711 144.974 96.6319 145.009 96.6319 145.009V150.259C96.6319 150.259 98.3007 152.797 97.5007 154.988C96.7015 157.178 94.6504 157.943 94.6504 157.943L95.3112 163.645H84.0802L84.3938 151.963L84.0802 149.633Z" fill="#A85735"/>
<path d="M89.6281 148.022C89.1705 148.022 88.7993 148.392 88.7993 148.849C88.7993 148.934 88.8241 149.01 88.8473 149.087L89.4513 148.934L89.0297 149.416C89.1809 149.575 89.3913 149.677 89.6281 149.677C90.0849 149.677 90.4561 149.306 90.4561 148.849C90.4561 148.392 90.0849 148.022 89.6281 148.022ZM94.7744 148.022C94.3176 148.022 93.9464 148.392 93.9464 148.849C93.9464 148.934 93.9712 149.01 93.9952 149.087L94.5984 148.934L94.1768 149.416C94.328 149.575 94.5384 149.677 94.7744 149.677C95.2319 149.677 95.6023 149.306 95.6023 148.849C95.6023 148.392 95.2319 148.022 94.7744 148.022Z" fill="#101E2E"/>
<path d="M92.7905 148.086V149.101C92.7905 149.49 92.8985 149.872 93.1041 150.202L93.4609 150.776C93.6201 151.033 93.464 151.369 93.1649 151.413L92.1465 151.563" stroke="#3C171B" stroke-width="0.837879" stroke-miterlimit="10"/>
<path d="M88.3657 146.6C88.3657 146.6 89.8081 146.027 90.8993 146.6M93.264 146.6C93.264 146.6 94.7064 146.027 95.7975 146.6" stroke="#3C171B" stroke-width="1.31653" stroke-miterlimit="10"/>
<path d="M93.9464 152.337H90.4561C90.4561 152.337 90.9736 155.622 92.1464 155.544C93.32 155.466 93.9464 152.337 93.9464 152.337Z" fill="#3C171B"/>
<path d="M91.9209 153.754C91.5401 153.754 91.1713 153.782 90.8169 153.832C91.0913 154.688 91.5265 155.586 92.1465 155.544C92.7336 155.506 93.1832 154.703 93.4872 153.91C92.9716 153.806 92.4469 153.754 91.9209 153.754Z" fill="#A92734"/>
<path d="M93.9464 158.178C91.8336 158.856 88.1305 158.334 86.5666 156.118" stroke="#3C171B" stroke-width="0.837879" stroke-miterlimit="10"/>
<path d="M83.7947 161.837H95.756C96.2872 161.837 96.7368 162.231 96.8064 162.758L97.2575 166.149L99.6223 194.103L82.4723 166.341L82.7379 162.818C82.7787 162.265 83.2403 161.837 83.7947 161.837Z" fill="#4072C1"/>
<path d="M83.5939 166.079C83.5939 166.079 91.1041 167.435 96.3712 166.079" stroke="#101E2E" stroke-width="0.837879" stroke-miterlimit="10"/>
<path d="M80.2171 226.577L82.4426 229.428C82.4426 229.428 86.8929 230.819 88.4577 231.584C90.0224 232.349 91.3432 235.652 91.3432 235.652C91.3432 235.652 92.4912 238.677 92.0736 238.886C91.656 239.095 90.4744 236.765 90.4744 236.765L88.4225 234.957L88.9448 238.899C88.9448 238.899 89.2048 242.128 88.8752 242.258C88.2137 242.518 87.8145 242.258 87.8145 242.258C87.8145 242.258 87.3281 242.529 86.8409 242.289C86.0409 242.467 85.9193 242.258 85.5025 241.875C85.085 241.493 83.6594 238.259 83.6594 238.259L81.7122 236.243C81.7122 236.243 77.8876 235.513 77.5401 233.427L75.4196 230.749L80.2171 226.577Z" fill="#A85735"/>
<path d="M86.7283 235.356C86.7283 235.356 87.8234 238.251 87.849 241.85M85.1115 237.051C85.1115 237.051 86.5451 239.894 86.7283 241.85" stroke="#3C171B" stroke-width="0.837879" stroke-miterlimit="10"/>
<path d="M81.0946 227.701L76.8504 232.556L75.4196 230.749L80.2171 226.577L81.0946 227.701Z" fill="#1B314D"/>
<path d="M75.957 166.645L79.5257 165.855L80.9515 182.351L68.956 205.019L82.377 226.368L74.1715 232.556C74.1715 232.556 57.1641 216.725 53.8664 209.818C50.3868 202.529 61.7474 182.169 67.4454 172.748C69.3285 169.634 72.4033 167.431 75.957 166.645Z" fill="#435862"/>
<path d="M65.1315 198.936L68.9561 205.02M98.9959 166.381L102.229 168.896C102.953 169.459 103.245 170.416 102.957 171.286L101.216 176.579L104.712 179.543C105.038 179.818 105.275 180.184 105.393 180.594C105.512 181.004 105.507 181.44 105.379 181.847L100.817 196.358L85.0435 184.23C84.2059 183.586 83.9539 182.433 84.4475 181.499L86.5666 177.483L79.8127 172.529C78.774 171.768 78.624 170.275 79.4905 169.321L81.89 166.682" stroke="#101E2E" stroke-width="0.837879" stroke-miterlimit="10"/>
<path d="M97.3031 166.682L97.7182 191.021L99.6222 194.103L97.3031 166.682Z" fill="#101E2E"/>
<path d="M85.4187 151.033C85.4187 152.66 84.0995 153.98 82.4724 153.98C80.8452 153.98 79.5259 152.66 79.5259 151.033C79.5259 149.406 80.8452 148.087 82.4724 148.087C84.0995 148.087 85.4187 149.406 85.4187 151.033Z" fill="#A85735"/>
<path d="M80.9515 150.155C81.8899 148.938 84.665 150.385 84.6714 151.685M81.7163 151.407L82.8114 149.839" stroke="#3C171B" stroke-width="0.837879" stroke-miterlimit="10"/>
<path d="M60.8503 147.358V159.397M66.8699 153.377H54.8311M215.356 80.798V92.8368M221.375 86.8178H209.336M418.513 314.4V326.439M424.533 320.419H412.494" stroke="#F9B524" stroke-width="3.61473" stroke-miterlimit="10" stroke-linecap="round" stroke-linejoin="round"/>
<path d="M421.086 127.173C421.086 138.254 409.132 147.236 394.385 147.236C379.637 147.236 367.683 138.254 367.683 127.173C367.683 116.093 379.637 107.11 394.385 107.11C409.132 107.11 421.086 116.093 421.086 127.173Z" fill="#89D0CA"/>
<path d="M386.318 142.099L385.293 158.736L402.938 142.099H386.318Z" fill="#89D0CA"/>
<path d="M384.37 117.625H404.399M384.37 122.962H404.399M384.37 128.3H404.399M384.37 133.639H404.399" stroke="white" stroke-width="1.75538" stroke-miterlimit="10"/>
<path d="M123.714 118.556H57.9201C54.2845 118.556 51.3374 115.609 51.3374 111.974V74.9061C51.3374 71.2701 54.2845 68.323 57.9201 68.323H123.714C127.35 68.323 130.297 71.2701 130.297 74.9061V111.974C130.297 115.609 127.35 118.556 123.714 118.556Z" fill="#F9B524"/>
<path d="M83.3618 117.035H98.2726L90.8168 133.206L83.3618 117.035Z" fill="#F9B524"/>
<path d="M58.8403 97.4287C58.8403 97.4287 60.7332 97.4207 64.9243 93.44C69.1161 89.4585 72.226 89.7497 76.2821 91.9353C80.3387 94.1208 86.8282 94.3056 90.4793 90.3521C94.1296 86.3994 98.5919 81.8827 103.729 84.0683C108.868 86.2538 115.358 87.4706 122.794 77.5124" stroke="white" stroke-width="3.51075" stroke-miterlimit="10"/>
<path d="M61.9721 95.9076V108.542M71.8665 90.3885V108.542M81.761 93.4397V108.542M91.6544 89.099V108.542M101.549 83.5047V108.542M111.443 85.4967V108.542M121.338 79.1208V108.542M56.6185 108.542H125.016" stroke="#4072C1" stroke-width="1.25617" stroke-miterlimit="10"/>
<path d="M122.658 79.1208C122.658 79.8496 122.066 80.4408 121.338 80.4408C120.608 80.4408 120.017 79.8496 120.017 79.1208C120.017 78.3912 120.608 77.8 121.338 77.8C122.066 77.8 122.658 78.3912 122.658 79.1208ZM112.763 85.4966C112.763 86.2262 112.172 86.8174 111.444 86.8174C110.714 86.8174 110.123 86.2262 110.123 85.4966C110.123 84.7679 110.714 84.1767 111.444 84.1767C112.172 84.1767 112.763 84.7679 112.763 85.4966ZM102.869 83.5047C102.869 84.2335 102.278 84.8247 101.549 84.8247C100.82 84.8247 100.229 84.2335 100.229 83.5047C100.229 82.7759 100.82 82.1847 101.549 82.1847C102.278 82.1847 102.869 82.7759 102.869 83.5047ZM92.9752 89.0989C92.9752 89.8277 92.384 90.4189 91.6544 90.4189C90.9256 90.4189 90.3344 89.8277 90.3344 89.0989C90.3344 88.3694 90.9256 87.7782 91.6544 87.7782C92.384 87.7782 92.9752 88.3694 92.9752 89.0989ZM83.081 93.4396C83.081 94.1684 82.4899 94.7596 81.7611 94.7596C81.0315 94.7596 80.4403 94.1684 80.4403 93.4396C80.4403 92.71 81.0315 92.1189 81.7611 92.1189C82.4899 92.1189 83.081 92.71 83.081 93.4396ZM73.1868 90.4189C73.1868 91.1477 72.5956 91.7389 71.8665 91.7389C71.1372 91.7389 70.5463 91.1477 70.5463 90.4189C70.5463 89.6901 71.1372 89.0989 71.8665 89.0989C72.5956 89.0989 73.1868 89.6901 73.1868 90.4189ZM63.2924 95.9076C63.2924 96.6364 62.7015 97.2275 61.9721 97.2275C61.2428 97.2275 60.6519 96.6364 60.6519 95.9076C60.6519 95.178 61.2428 94.5876 61.9721 94.5876C62.7015 94.5876 63.2924 95.178 63.2924 95.9076Z" fill="#4072C1"/>
</svg>
