<svg width="24" height="25" viewBox="0 0 24 25" fill="none" xmlns="http://www.w3.org/2000/svg">
<mask id="mask0_6_304" style="mask-type:alpha" maskUnits="userSpaceOnUse" x="0" y="0" width="24" height="25">
<rect y="0.5" width="24" height="24" fill="#D9D9D9"/>
</mask>
<g mask="url(#mask0_6_304)">
<path d="M7 22.5C6.45 22.5 5.97917 22.3042 5.5875 21.9125C5.19583 21.5208 5 21.05 5 20.5C5 19.95 5.19583 19.4792 5.5875 19.0875C5.97917 18.6958 6.45 18.5 7 18.5C7.55 18.5 8.02083 18.6958 8.4125 19.0875C8.80417 19.4792 9 19.95 9 20.5C9 21.05 8.80417 21.5208 8.4125 21.9125C8.02083 22.3042 7.55 22.5 7 22.5ZM17 22.5C16.45 22.5 15.9792 22.3042 15.5875 21.9125C15.1958 21.5208 15 21.05 15 20.5C15 19.95 15.1958 19.4792 15.5875 19.0875C15.9792 18.6958 16.45 18.5 17 18.5C17.55 18.5 18.0208 18.6958 18.4125 19.0875C18.8042 19.4792 19 19.95 19 20.5C19 21.05 18.8042 21.5208 18.4125 21.9125C18.0208 22.3042 17.55 22.5 17 22.5ZM7 17.5C6.25 17.5 5.68333 17.1708 5.3 16.5125C4.91667 15.8542 4.9 15.2 5.25 14.55L6.6 12.1L3 4.5H1.975C1.69167 4.5 1.45833 4.40417 1.275 4.2125C1.09167 4.02083 1 3.78333 1 3.5C1 3.21667 1.09583 2.97917 1.2875 2.7875C1.47917 2.59583 1.71667 2.5 2 2.5H3.625C3.80833 2.5 3.98333 2.55 4.15 2.65C4.31667 2.75 4.44167 2.89167 4.525 3.075L5.2 4.5H19.95C20.4 4.5 20.7083 4.66667 20.875 5C21.0417 5.33333 21.0333 5.68333 20.85 6.05L17.3 12.45C17.1167 12.7833 16.875 13.0417 16.575 13.225C16.275 13.4083 15.9333 13.5 15.55 13.5H8.1L7 15.5H18.025C18.3083 15.5 18.5417 15.5958 18.725 15.7875C18.9083 15.9792 19 16.2167 19 16.5C19 16.7833 18.9042 17.0208 18.7125 17.2125C18.5208 17.4042 18.2833 17.5 18 17.5H7Z" fill="#2E2E2E"/>
</g>
</svg>
