<svg width="298" height="250" viewBox="0 0 298 250" fill="none" xmlns="http://www.w3.org/2000/svg">
<rect y="10" width="288" height="240" rx="10" fill="#3982AA"/>
<rect x="11" y="1" width="286" height="238" rx="9" fill="#E3F5FF" stroke="#3982AA" stroke-width="2"/>
<circle cx="45" cy="35" r="25" fill="#3982AA"/>
<g clip-path="url(#clip0_105_449)">
<path opacity="0.921" fill-rule="evenodd" clip-rule="evenodd" d="M35.3486 17.9658C35.4626 17.9658 35.5765 17.9658 35.6904 17.9658C36.067 19.5405 36.4544 21.1128 36.8525 22.6826C36.4581 22.7413 36.0707 22.8325 35.6904 22.9561C35.2803 21.407 34.8702 19.8575 34.46 18.3076C34.4743 18.2676 34.4971 18.2334 34.5283 18.2051C34.816 18.1449 35.0895 18.0651 35.3486 17.9658Z" fill="white"/>
<path opacity="0.938" fill-rule="evenodd" clip-rule="evenodd" d="M62.9658 27.4678C62.9658 27.7412 62.9658 28.0147 62.9658 28.2881C62.7967 29.2322 62.6486 30.1892 62.5215 31.1592C62.4815 31.5981 62.2422 31.8032 61.8037 31.7744C60.9422 31.6269 60.0763 31.5471 59.2061 31.5352C58.9304 31.7517 58.8734 32.0138 59.0352 32.3213C59.5304 32.97 60.0089 33.6308 60.4707 34.3037C60.5247 34.518 60.5019 34.7231 60.4023 34.919C59.5312 35.5995 58.6539 36.2717 57.7705 36.9356C57.4168 37.2848 57.0408 37.319 56.6426 37.0381C56.1561 36.3465 55.6434 35.6743 55.1045 35.0215C54.7469 34.9037 54.4848 35.0062 54.3184 35.3291C54.188 36.1735 54.0513 37.0166 53.9082 37.8584C53.7739 38.0723 53.5802 38.1862 53.3271 38.2002C52.1408 38.0389 50.956 37.868 49.7725 37.6875C49.4438 37.5978 49.2842 37.3813 49.2939 37.0381C49.3952 36.2613 49.5091 35.4866 49.6357 34.7139C49.5638 34.2203 49.2903 34.0494 48.8154 34.2012C48.1774 34.6797 47.5394 35.1582 46.9014 35.6367C46.6735 35.7735 46.4456 35.7735 46.2178 35.6367C45.4739 34.7334 44.7561 33.8106 44.0645 32.8682C43.8308 32.596 43.7853 32.2998 43.9277 31.9795C44.5805 31.4406 45.2527 30.9279 45.9443 30.4414C46.2356 30.0199 46.1445 29.7008 45.6709 29.4844C44.8952 29.3769 44.1204 29.2629 43.3467 29.1426C43.0503 29.0626 42.8908 28.8689 42.8682 28.5616C43.0397 27.3039 43.2333 26.0506 43.4492 24.8018C43.615 24.5671 43.8429 24.476 44.1328 24.5283C44.9629 24.647 45.7946 24.7268 46.6279 24.7676C47.0412 24.4825 47.0753 24.1521 46.7305 23.7764C46.2975 23.2067 45.8646 22.6371 45.4316 22.0674C45.4145 21.9353 45.3803 21.81 45.3291 21.6914C41.8744 21.7949 39.1742 23.2647 37.2285 26.1006C34.9911 29.9484 35.1278 33.7082 37.6387 37.3799C38.4807 38.4272 39.4719 39.3044 40.6123 40.0117C41.3643 40.6274 41.8314 41.4135 42.0137 42.3701C42.0959 43.4845 42.1414 44.6011 42.1504 45.7198C42.2808 46.1463 42.5657 46.4083 43.0049 46.5059C44.7865 46.5723 46.5638 46.5496 48.3369 46.4375C48.6027 46.2856 48.7964 46.0692 48.918 45.7881C49.0039 44.6746 49.0495 43.5581 49.0547 42.4385C49.2487 41.4691 49.7158 40.6602 50.4561 40.0117C51.0167 39.6744 51.5408 39.2871 52.0283 38.8496C52.3908 39.0406 52.687 39.3255 52.917 39.7041C52.4098 40.1746 51.8629 40.5961 51.2764 40.9688C50.7611 41.4182 50.4308 41.9765 50.2852 42.6436C50.2775 43.7625 50.232 44.879 50.1484 45.9932C49.991 46.6046 49.6492 47.0831 49.123 47.4287C49.1003 48.5225 49.0775 49.6162 49.0547 50.71C48.9398 51.861 48.336 52.613 47.2432 52.9659C46.1038 52.9659 44.9645 52.9659 43.8252 52.9659C42.9377 52.6821 42.3566 52.0896 42.082 51.1885C42.0593 49.9353 42.0364 48.682 42.0137 47.4287C41.5445 47.1306 41.2027 46.7204 40.9883 46.1983C40.9033 45.4275 40.8577 44.6527 40.8516 43.8741C40.5667 44.1589 40.2819 44.4437 39.9971 44.7285C39.7236 44.8653 39.4502 44.8653 39.1768 44.7285C38.6982 44.3982 38.2197 44.0677 37.7412 43.7373C37.532 44.3833 37.3611 45.0442 37.2285 45.7198C37.1487 45.7995 37.069 45.8792 36.9893 45.959C36.0095 46.0957 35.0296 46.0957 34.0498 45.959C33.97 45.8792 33.8903 45.7995 33.8105 45.7198C33.678 45.0442 33.5071 44.3833 33.2979 43.7373C32.7831 44.1039 32.259 44.4571 31.7256 44.7969C31.4888 44.8528 31.2609 44.8299 31.042 44.7285C30.3905 44.0999 29.7639 43.4505 29.1621 42.7803C29.1165 42.598 29.1165 42.4157 29.1621 42.2334C29.5019 41.7 29.8551 41.1759 30.2217 40.6612C29.5739 40.4593 28.9131 40.2884 28.2393 40.1485C28.1569 40.0544 28.0657 39.9747 27.9658 39.9092C27.9658 38.9294 27.9658 37.9496 27.9658 36.9698C28.0657 36.9043 28.1569 36.8246 28.2393 36.7305C28.9149 36.5979 29.5757 36.427 30.2217 36.2178C29.8913 35.7393 29.5609 35.2608 29.2305 34.7823C29.1291 34.5634 29.1063 34.3355 29.1621 34.0987C29.7639 33.4285 30.3905 32.7791 31.042 32.1504C31.2609 32.049 31.4888 32.0262 31.7256 32.0821C32.279 32.4328 32.8145 32.8088 33.332 33.21C33.5002 32.5284 33.6598 31.8448 33.8105 31.1592C33.9876 30.9167 34.2269 30.8255 34.5283 30.8858C34.7553 27.4577 36.2137 24.6891 38.9033 22.5801C41.1908 20.9258 43.7429 20.2308 46.5596 20.4951C47.1388 20.0868 47.7085 19.6652 48.2686 19.2305C48.6078 18.9965 48.9381 19.0079 49.2598 19.2647C49.7234 19.9335 50.2133 20.5829 50.7295 21.2129C51.1266 21.4148 51.4114 21.3122 51.584 20.9053C51.689 20.0562 51.8257 19.2131 51.9941 18.376C52.2738 18.1159 52.6042 18.0362 52.9854 18.1367C54.1115 18.2748 55.228 18.4571 56.335 18.6836C56.4968 18.8149 56.5879 18.9858 56.6084 19.1963C56.4817 19.969 56.3678 20.7437 56.2666 21.5205C56.3342 22.0786 56.6305 22.2495 57.1553 22.0332C57.7798 21.5045 58.4406 21.026 59.1377 20.5977C59.3293 20.5461 59.5116 20.5689 59.6846 20.666C60.4044 21.5476 61.0993 22.4477 61.7695 23.3662C62.1145 23.7995 62.0803 24.1982 61.667 24.5625C61.0323 24.9883 60.4285 25.4554 59.8555 25.9639C59.6777 26.3058 59.7574 26.5679 60.0947 26.75C60.9365 26.8931 61.7796 27.0298 62.624 27.1602C62.7735 27.2303 62.8875 27.3328 62.9658 27.4678ZM53.0537 19.4014C53.7804 19.5117 54.5096 19.6029 55.2412 19.6748C55.1357 20.4471 55.0787 21.2219 55.0703 21.9991C55.4177 23.0792 56.1583 23.5235 57.292 23.3321C57.9749 22.9797 58.613 22.5582 59.2061 22.0674C59.6643 22.6313 60.0973 23.2124 60.5049 23.8106C59.9425 24.269 59.3842 24.7361 58.8301 25.2119C58.3431 26.0998 58.4456 26.9087 59.1377 27.6387C59.286 27.7471 59.4456 27.8383 59.6162 27.9121C60.292 28.0689 60.9756 28.1714 61.667 28.2198C61.5759 28.9717 61.4847 29.7237 61.3936 30.4756C60.719 30.3809 60.0468 30.2897 59.377 30.2022C58.0269 30.4858 57.5027 31.3061 57.8047 32.6631C58.1698 33.2567 58.5685 33.8263 59.001 34.3721C58.4314 34.8388 57.8504 35.2945 57.2578 35.7393C56.8897 35.3029 56.5479 34.8472 56.2324 34.3721C55.4695 33.6478 54.6379 33.5452 53.7373 34.0645C53.4853 34.2839 53.2915 34.546 53.1562 34.8506C53.0122 35.5283 52.9097 36.2119 52.8486 36.9014C52.1436 36.7958 51.4372 36.6932 50.7295 36.5938C50.6743 36.5727 50.6287 36.5385 50.5928 36.4912C50.706 35.8919 50.7972 35.2881 50.8662 34.6797C50.7593 33.5588 50.1441 32.9549 49.0205 32.8682C48.5673 32.9394 48.1571 33.1103 47.79 33.3809C47.4141 33.6657 47.0381 33.9505 46.6621 34.2354C46.2318 33.6592 45.8103 33.0781 45.3975 32.4922C45.9752 32.0287 46.5335 31.5387 47.0723 31.0225C47.487 30.3051 47.4642 29.5986 47.0039 28.9033C46.7947 28.6905 46.5555 28.5196 46.2861 28.3907C45.6152 28.2461 44.943 28.1208 44.2695 28.0147C44.3073 27.2825 44.3871 26.5534 44.5088 25.8272C44.966 25.8681 45.4217 25.925 45.876 25.9981C47.0466 26.1824 47.8099 25.7152 48.166 24.5967C48.2258 24.0754 48.1119 23.5969 47.8242 23.1612C47.4938 22.7396 47.1634 22.3181 46.833 21.8965C47.4158 21.439 48.0082 20.9947 48.6104 20.5635C48.9731 20.9692 49.3035 21.4022 49.6016 21.8623C50.2436 22.5554 51.007 22.7263 51.8916 22.375C52.2253 22.1553 52.4874 21.8705 52.6777 21.5205C52.8443 20.8215 52.9696 20.1151 53.0537 19.4014ZM34.5967 33.2783C34.7303 33.8409 34.867 34.4106 35.0068 34.9873C33.6073 35.2035 32.6617 35.9782 32.1699 37.3116C31.6459 39.4421 32.3864 40.9346 34.3916 41.7891C36.2056 42.2429 37.607 41.6847 38.5957 40.1143C39.2152 40.5043 39.785 40.96 40.3047 41.4815C40.4567 41.7056 40.582 41.9449 40.6807 42.1992C40.3275 42.6436 39.9287 43.0423 39.4844 43.3955C38.9952 43.089 38.5053 42.7814 38.0146 42.4727C37.3607 42.3332 36.8708 42.5497 36.5449 43.1221C36.4064 43.6895 36.2811 44.2591 36.1689 44.8311C35.7336 44.8536 35.3006 44.8308 34.8701 44.7627C34.7462 44.3126 34.6437 43.8568 34.5625 43.3955C34.3309 42.6244 33.8182 42.3168 33.0244 42.4727C32.5454 42.7348 32.0896 43.0311 31.6572 43.3614C31.5889 43.407 31.5205 43.407 31.4521 43.3614C31.1299 43.0621 30.8337 42.7431 30.5635 42.4043C30.775 42.0331 31.0142 41.68 31.2812 41.3448C31.7295 40.5397 31.5586 39.913 30.7686 39.4649C30.2466 39.3287 29.7225 39.2033 29.1963 39.0889C29.1051 38.656 29.1051 38.223 29.1963 37.7901C29.7967 37.6723 30.3891 37.5242 30.9736 37.3457C31.4955 36.9421 31.6436 36.4294 31.418 35.8076C31.1445 35.3975 30.8711 34.9873 30.5977 34.5772C30.5521 34.5088 30.5521 34.4405 30.5977 34.3721C30.8969 34.0499 31.2159 33.7537 31.5547 33.4834C31.9755 33.7673 32.3971 34.052 32.8193 34.3379C33.8058 34.6312 34.3983 34.278 34.5967 33.2783ZM35.1436 36.1494C35.2874 36.129 35.4241 36.1518 35.5537 36.2178C35.8094 36.7979 36.117 37.3448 36.4766 37.8584C36.8535 38.3263 37.2295 38.7934 37.6045 39.2598C36.994 40.512 36.0141 40.9449 34.665 40.5586C33.4275 39.9175 33.0059 38.9263 33.4004 37.585C33.7652 36.8393 34.3463 36.3607 35.1436 36.1494ZM43.2783 47.7705C44.805 47.7705 46.3317 47.7705 47.8584 47.7705C47.8584 48.1351 47.8584 48.4997 47.8584 48.8643C46.3317 48.8643 44.805 48.8643 43.2783 48.8643C43.2783 48.4997 43.2783 48.1351 43.2783 47.7705ZM43.2783 50.0948C44.805 50.0948 46.3317 50.0948 47.8584 50.0948C47.9653 50.8382 47.6919 51.3738 47.0381 51.7012C46.0355 51.7468 45.0329 51.7468 44.0303 51.7012C43.3679 51.3673 43.1173 50.8319 43.2783 50.0948Z" fill="white"/>
<path opacity="0.91" fill-rule="evenodd" clip-rule="evenodd" d="M30.1533 21.1104C31.5632 22.0438 32.9532 23.0122 34.3232 24.0156C34.0954 24.3346 33.8675 24.6536 33.6396 24.9727C33.4483 24.9226 33.266 24.8314 33.0928 24.6992C31.8851 23.8219 30.6774 22.9447 29.4697 22.0674C29.6982 21.7464 29.9261 21.4274 30.1533 21.1104Z" fill="white"/>
<path opacity="0.936" fill-rule="evenodd" clip-rule="evenodd" d="M52.7803 23.4346C55.5715 23.5941 57.1779 25.0524 57.5996 27.8096C57.6462 30.0075 56.6778 31.5684 54.6943 32.4922C52.3531 33.2307 50.4505 32.6269 48.9863 30.6807C47.9567 28.7976 48.0478 26.9747 49.2598 25.2119C50.1957 24.1344 51.3692 23.542 52.7803 23.4346ZM52.7803 24.665C52.4416 24.7169 52.0998 24.7967 51.7549 24.9043C49.8946 25.7882 49.1995 27.2351 49.6699 29.2451C50.4062 30.9294 51.6936 31.6928 53.5322 31.5352C55.4345 31.0227 56.3802 29.7808 56.3691 27.8096C55.9941 25.8282 54.7978 24.7801 52.7803 24.665Z" fill="white"/>
<path opacity="0.933" fill-rule="evenodd" clip-rule="evenodd" d="M41.1592 24.5283C41.4363 24.8303 41.6641 25.1721 41.8428 25.5537C38.8223 27.8141 37.9451 30.7308 39.2109 34.3037C40.1484 36.2437 41.641 37.5539 43.6885 38.2344C45.2704 39.2141 46.0908 40.6382 46.1494 42.5068C45.7393 42.5068 45.3291 42.5068 44.9189 42.5068C44.8577 41.1189 44.2425 40.0594 43.0732 39.3281C39.0955 37.7198 37.2157 34.7689 37.4336 30.4756C37.8129 27.937 39.0547 25.9546 41.1592 24.5283Z" fill="white"/>
<path opacity="0.932" fill-rule="evenodd" clip-rule="evenodd" d="M33.1611 26.7842C33.3373 27.1691 33.4513 27.5793 33.5029 28.0146C31.9486 28.3804 30.3991 28.7678 28.8545 29.1768C28.7303 28.7943 28.6164 28.4069 28.5127 28.0146C30.0694 27.6028 31.6189 27.1926 33.1611 26.7842Z" fill="white"/>
<path opacity="0.936" fill-rule="evenodd" clip-rule="evenodd" d="M56.54 39.5674C57.9072 39.5674 59.2744 39.5674 60.6416 39.5674C60.6416 39.9775 60.6416 40.3877 60.6416 40.7979C59.2744 40.7979 57.9072 40.7979 56.54 40.7979C56.54 40.3877 56.54 39.9775 56.54 39.5674Z" fill="white"/>
<path opacity="0.912" fill-rule="evenodd" clip-rule="evenodd" d="M56.2666 42.6436C56.4227 42.6509 56.5594 42.7079 56.6768 42.8145C57.7605 43.7097 58.8314 44.6212 59.8897 45.5488C59.6357 45.8628 59.3737 46.1704 59.1035 46.4717C57.9414 45.5146 56.7793 44.5576 55.6172 43.6006C55.5716 43.555 55.5716 43.5095 55.6172 43.4639C55.8483 43.199 56.0647 42.9255 56.2666 42.6436Z" fill="white"/>
<path opacity="0.924" fill-rule="evenodd" clip-rule="evenodd" d="M44.9189 43.6689C45.3291 43.6689 45.7393 43.6689 46.1494 43.6689C46.1494 44.2614 46.1494 44.8538 46.1494 45.4463C45.7393 45.4463 45.3291 45.4463 44.9189 45.4463C44.9189 44.8538 44.9189 44.2614 44.9189 43.6689Z" fill="white"/>
<path opacity="0.935" fill-rule="evenodd" clip-rule="evenodd" d="M53.0537 44.2158C53.4639 44.2158 53.874 44.2158 54.2842 44.2158C54.2842 45.583 54.2842 46.9502 54.2842 48.3174C53.874 48.3174 53.4639 48.3174 53.0537 48.3174C53.0537 46.9502 53.0537 45.583 53.0537 44.2158Z" fill="white"/>
</g>
<path d="M24.18 78.04V92H21.38V78.04H24.18ZM33.0864 80.76C34.4064 80.76 35.4731 81.18 36.2864 82.02C37.0997 82.8467 37.5064 84.0067 37.5064 85.5V92H34.7064V85.88C34.7064 85 34.4864 84.3267 34.0464 83.86C33.6064 83.38 33.0064 83.14 32.2464 83.14C31.4731 83.14 30.8597 83.38 30.4064 83.86C29.9664 84.3267 29.7464 85 29.7464 85.88V92H26.9464V80.92H29.7464V82.3C30.1197 81.82 30.5931 81.4467 31.1664 81.18C31.7531 80.9 32.3931 80.76 33.0864 80.76ZM44.7891 89.42L47.5891 80.92H50.5691L46.4691 92H43.0691L38.9891 80.92H41.9891L44.7891 89.42ZM62.4417 86.22C62.4417 86.62 62.4151 86.98 62.3617 87.3H54.2617C54.3284 88.1 54.6084 88.7267 55.1017 89.18C55.5951 89.6333 56.2017 89.86 56.9217 89.86C57.9617 89.86 58.7017 89.4133 59.1417 88.52H62.1617C61.8417 89.5867 61.2284 90.4667 60.3217 91.16C59.4151 91.84 58.3017 92.18 56.9817 92.18C55.9151 92.18 54.9551 91.9467 54.1017 91.48C53.2617 91 52.6017 90.3267 52.1217 89.46C51.6551 88.5933 51.4217 87.5933 51.4217 86.46C51.4217 85.3133 51.6551 84.3067 52.1217 83.44C52.5884 82.5733 53.2417 81.9067 54.0817 81.44C54.9217 80.9733 55.8884 80.74 56.9817 80.74C58.0351 80.74 58.9751 80.9667 59.8017 81.42C60.6417 81.8733 61.2884 82.52 61.7417 83.36C62.2084 84.1867 62.4417 85.14 62.4417 86.22ZM59.5417 85.42C59.5284 84.7 59.2684 84.1267 58.7617 83.7C58.2551 83.26 57.6351 83.04 56.9017 83.04C56.2084 83.04 55.6217 83.2533 55.1417 83.68C54.6751 84.0933 54.3884 84.6733 54.2817 85.42H59.5417ZM68.7255 92.18C67.8188 92.18 67.0055 92.02 66.2855 91.7C65.5655 91.3667 64.9921 90.92 64.5655 90.36C64.1521 89.8 63.9255 89.18 63.8855 88.5H66.7055C66.7588 88.9267 66.9655 89.28 67.3255 89.56C67.6988 89.84 68.1588 89.98 68.7055 89.98C69.2388 89.98 69.6521 89.8733 69.9455 89.66C70.2521 89.4467 70.4055 89.1733 70.4055 88.84C70.4055 88.48 70.2188 88.2133 69.8455 88.04C69.4855 87.8533 68.9055 87.6533 68.1055 87.44C67.2788 87.24 66.5988 87.0333 66.0655 86.82C65.5455 86.6067 65.0921 86.28 64.7055 85.84C64.3321 85.4 64.1455 84.8067 64.1455 84.06C64.1455 83.4467 64.3188 82.8867 64.6655 82.38C65.0255 81.8733 65.5321 81.4733 66.1855 81.18C66.8521 80.8867 67.6321 80.74 68.5255 80.74C69.8455 80.74 70.8988 81.0733 71.6855 81.74C72.4721 82.3933 72.9055 83.28 72.9855 84.4H70.3055C70.2655 83.96 70.0788 83.6133 69.7455 83.36C69.4255 83.0933 68.9921 82.96 68.4455 82.96C67.9388 82.96 67.5455 83.0533 67.2655 83.24C66.9988 83.4267 66.8655 83.6867 66.8655 84.02C66.8655 84.3933 67.0521 84.68 67.4255 84.88C67.7988 85.0667 68.3788 85.26 69.1655 85.46C69.9655 85.66 70.6255 85.8667 71.1455 86.08C71.6655 86.2933 72.1121 86.6267 72.4855 87.08C72.8721 87.52 73.0721 88.1067 73.0855 88.84C73.0855 89.48 72.9055 90.0533 72.5455 90.56C72.1988 91.0667 71.6921 91.4667 71.0255 91.76C70.3721 92.04 69.6055 92.18 68.7255 92.18ZM78.6439 83.22V88.58C78.6439 88.9533 78.7306 89.2267 78.9039 89.4C79.0906 89.56 79.3972 89.64 79.8239 89.64H81.1239V92H79.3639C77.0039 92 75.8239 90.8533 75.8239 88.56V83.22H74.5039V80.92H75.8239V78.18H78.6439V80.92H81.1239V83.22H78.6439ZM88.0578 92.18C86.9911 92.18 86.0311 91.9467 85.1778 91.48C84.3245 91 83.6511 90.3267 83.1578 89.46C82.6778 88.5933 82.4378 87.5933 82.4378 86.46C82.4378 85.3267 82.6845 84.3267 83.1778 83.46C83.6845 82.5933 84.3711 81.9267 85.2378 81.46C86.1045 80.98 87.0711 80.74 88.1378 80.74C89.2045 80.74 90.1711 80.98 91.0378 81.46C91.9045 81.9267 92.5845 82.5933 93.0778 83.46C93.5845 84.3267 93.8378 85.3267 93.8378 86.46C93.8378 87.5933 93.5778 88.5933 93.0578 89.46C92.5511 90.3267 91.8578 91 90.9778 91.48C90.1111 91.9467 89.1378 92.18 88.0578 92.18ZM88.0578 89.74C88.5645 89.74 89.0378 89.62 89.4778 89.38C89.9311 89.1267 90.2911 88.7533 90.5578 88.26C90.8245 87.7667 90.9578 87.1667 90.9578 86.46C90.9578 85.4067 90.6778 84.6 90.1178 84.04C89.5711 83.4667 88.8978 83.18 88.0978 83.18C87.2978 83.18 86.6245 83.4667 86.0778 84.04C85.5445 84.6 85.2778 85.4067 85.2778 86.46C85.2778 87.5133 85.5378 88.3267 86.0578 88.9C86.5911 89.46 87.2578 89.74 88.0578 89.74ZM98.6917 82.64C99.0517 82.0533 99.5184 81.5933 100.092 81.26C100.678 80.9267 101.345 80.76 102.092 80.76V83.7H101.352C100.472 83.7 99.8051 83.9067 99.3517 84.32C98.9117 84.7333 98.6917 85.4533 98.6917 86.48V92H95.8917V80.92H98.6917V82.64ZM118.923 82.36C118.923 83.1067 118.743 83.8067 118.383 84.46C118.037 85.1133 117.483 85.64 116.723 86.04C115.977 86.44 115.03 86.64 113.883 86.64H111.543V92H108.743V78.04H113.883C114.963 78.04 115.883 78.2267 116.643 78.6C117.403 78.9733 117.97 79.4867 118.343 80.14C118.73 80.7933 118.923 81.5333 118.923 82.36ZM113.763 84.38C114.537 84.38 115.11 84.2067 115.483 83.86C115.857 83.5 116.043 83 116.043 82.36C116.043 81 115.283 80.32 113.763 80.32H111.543V84.38H113.763ZM122.331 79.6C121.838 79.6 121.425 79.4467 121.091 79.14C120.771 78.82 120.611 78.4267 120.611 77.96C120.611 77.4933 120.771 77.1067 121.091 76.8C121.425 76.48 121.838 76.32 122.331 76.32C122.825 76.32 123.231 76.48 123.551 76.8C123.885 77.1067 124.051 77.4933 124.051 77.96C124.051 78.4267 123.885 78.82 123.551 79.14C123.231 79.4467 122.825 79.6 122.331 79.6ZM123.711 80.92V92H120.911V80.92H123.711ZM129.738 83.22V88.58C129.738 88.9533 129.824 89.2267 129.998 89.4C130.184 89.56 130.491 89.64 130.918 89.64H132.218V92H130.458C128.098 92 126.918 90.8533 126.918 88.56V83.22H125.598V80.92H126.918V78.18H129.738V80.92H132.218V83.22H129.738ZM133.512 86.46C133.512 85.3133 133.745 84.3133 134.212 83.46C134.678 82.5933 135.325 81.9267 136.152 81.46C136.978 80.98 137.925 80.74 138.992 80.74C140.365 80.74 141.498 81.0867 142.392 81.78C143.298 82.46 143.905 83.42 144.212 84.66H141.192C141.032 84.18 140.758 83.8067 140.372 83.54C139.998 83.26 139.532 83.12 138.972 83.12C138.172 83.12 137.538 83.4133 137.072 84C136.605 84.5733 136.372 85.3933 136.372 86.46C136.372 87.5133 136.605 88.3333 137.072 88.92C137.538 89.4933 138.172 89.78 138.972 89.78C140.105 89.78 140.845 89.2733 141.192 88.26H144.212C143.905 89.46 143.298 90.4133 142.392 91.12C141.485 91.8267 140.352 92.18 138.992 92.18C137.925 92.18 136.978 91.9467 136.152 91.48C135.325 91 134.678 90.3333 134.212 89.48C133.745 88.6133 133.512 87.6067 133.512 86.46ZM152.503 80.76C153.343 80.76 154.089 80.9467 154.743 81.32C155.396 81.68 155.903 82.22 156.263 82.94C156.636 83.6467 156.823 84.5 156.823 85.5V92H154.023V85.88C154.023 85 153.803 84.3267 153.363 83.86C152.923 83.38 152.323 83.14 151.563 83.14C150.789 83.14 150.176 83.38 149.723 83.86C149.283 84.3267 149.063 85 149.063 85.88V92H146.263V77.2H149.063V82.3C149.423 81.82 149.903 81.4467 150.503 81.18C151.103 80.9 151.769 80.76 152.503 80.76Z" fill="#2E2E2E"/>
<path d="M33.72 110.27L30.836 120H29.03L26.986 112.636L24.816 120L23.024 120.014L20.266 110.27H21.96L23.976 118.194L26.16 110.27H27.952L29.982 118.152L32.012 110.27H33.72ZM35.8483 111.264C35.559 111.264 35.3163 111.166 35.1203 110.97C34.9243 110.774 34.8263 110.531 34.8263 110.242C34.8263 109.953 34.9243 109.71 35.1203 109.514C35.3163 109.318 35.559 109.22 35.8483 109.22C36.1283 109.22 36.3663 109.318 36.5623 109.514C36.7583 109.71 36.8563 109.953 36.8563 110.242C36.8563 110.531 36.7583 110.774 36.5623 110.97C36.3663 111.166 36.1283 111.264 35.8483 111.264ZM36.6323 112.286V120H35.0363V112.286H36.6323ZM40.5897 113.588V117.858C40.5897 118.147 40.6551 118.357 40.7857 118.488C40.9257 118.609 41.1591 118.67 41.4857 118.67H42.4657V120H41.2057C40.4871 120 39.9364 119.832 39.5537 119.496C39.1711 119.16 38.9797 118.614 38.9797 117.858V113.588H38.0697V112.286H38.9797V110.368H40.5897V112.286H42.4657V113.588H40.5897ZM47.9267 112.16C48.5147 112.16 49.0374 112.286 49.4947 112.538C49.9614 112.79 50.3254 113.163 50.5867 113.658C50.8574 114.153 50.9927 114.75 50.9927 115.45V120H49.4107V115.688C49.4107 114.997 49.2381 114.47 48.8927 114.106C48.5474 113.733 48.0761 113.546 47.4787 113.546C46.8814 113.546 46.4054 113.733 46.0507 114.106C45.7054 114.47 45.5327 114.997 45.5327 115.688V120H43.9367V109.64H45.5327V113.182C45.8034 112.855 46.1441 112.603 46.5547 112.426C46.9747 112.249 47.4321 112.16 47.9267 112.16ZM71.7425 120.126C71.0145 120.126 70.3565 119.963 69.7685 119.636C69.1805 119.3 68.7185 118.833 68.3825 118.236C68.0465 117.629 67.8785 116.929 67.8785 116.136C67.8785 115.352 68.0512 114.657 68.3965 114.05C68.7418 113.443 69.2132 112.977 69.8105 112.65C70.4078 112.323 71.0752 112.16 71.8125 112.16C72.5498 112.16 73.2172 112.323 73.8145 112.65C74.4118 112.977 74.8832 113.443 75.2285 114.05C75.5738 114.657 75.7465 115.352 75.7465 116.136C75.7465 116.92 75.5692 117.615 75.2145 118.222C74.8598 118.829 74.3745 119.3 73.7585 119.636C73.1518 119.963 72.4798 120.126 71.7425 120.126ZM71.7425 118.74C72.1532 118.74 72.5358 118.642 72.8905 118.446C73.2545 118.25 73.5485 117.956 73.7725 117.564C73.9965 117.172 74.1085 116.696 74.1085 116.136C74.1085 115.576 74.0012 115.105 73.7865 114.722C73.5718 114.33 73.2872 114.036 72.9325 113.84C72.5778 113.644 72.1952 113.546 71.7845 113.546C71.3738 113.546 70.9912 113.644 70.6365 113.84C70.2912 114.036 70.0158 114.33 69.8105 114.722C69.6052 115.105 69.5025 115.576 69.5025 116.136C69.5025 116.967 69.7125 117.611 70.1325 118.068C70.5618 118.516 71.0985 118.74 71.7425 118.74ZM84.3102 112.286V120H82.7142V119.09C82.4622 119.407 82.1309 119.659 81.7202 119.846C81.3189 120.023 80.8896 120.112 80.4322 120.112C79.8256 120.112 79.2796 119.986 78.7942 119.734C78.3182 119.482 77.9402 119.109 77.6602 118.614C77.3896 118.119 77.2542 117.522 77.2542 116.822V112.286H78.8362V116.584C78.8362 117.275 79.0089 117.807 79.3542 118.18C79.6996 118.544 80.1709 118.726 80.7682 118.726C81.3656 118.726 81.8369 118.544 82.1822 118.18C82.5369 117.807 82.7142 117.275 82.7142 116.584V112.286H84.3102ZM88.012 113.406C88.2453 113.014 88.5533 112.711 88.936 112.496C89.328 112.272 89.79 112.16 90.322 112.16V113.812H89.916C89.2907 113.812 88.8147 113.971 88.488 114.288C88.1707 114.605 88.012 115.156 88.012 115.94V120H86.416V112.286H88.012V113.406ZM109.957 120.126C109.35 120.126 108.804 120.019 108.319 119.804C107.843 119.58 107.465 119.281 107.185 118.908C106.905 118.525 106.756 118.101 106.737 117.634H108.389C108.417 117.961 108.571 118.236 108.851 118.46C109.14 118.675 109.5 118.782 109.929 118.782C110.377 118.782 110.722 118.698 110.965 118.53C111.217 118.353 111.343 118.129 111.343 117.858C111.343 117.569 111.203 117.354 110.923 117.214C110.652 117.074 110.218 116.92 109.621 116.752C109.042 116.593 108.571 116.439 108.207 116.29C107.843 116.141 107.526 115.912 107.255 115.604C106.994 115.296 106.863 114.89 106.863 114.386C106.863 113.975 106.984 113.602 107.227 113.266C107.47 112.921 107.815 112.65 108.263 112.454C108.72 112.258 109.243 112.16 109.831 112.16C110.708 112.16 111.413 112.384 111.945 112.832C112.486 113.271 112.776 113.873 112.813 114.638H111.217C111.189 114.293 111.049 114.017 110.797 113.812C110.545 113.607 110.204 113.504 109.775 113.504C109.355 113.504 109.033 113.583 108.809 113.742C108.585 113.901 108.473 114.111 108.473 114.372C108.473 114.577 108.548 114.75 108.697 114.89C108.846 115.03 109.028 115.142 109.243 115.226C109.458 115.301 109.775 115.399 110.195 115.52C110.755 115.669 111.212 115.823 111.567 115.982C111.931 116.131 112.244 116.355 112.505 116.654C112.766 116.953 112.902 117.349 112.911 117.844C112.911 118.283 112.79 118.675 112.547 119.02C112.304 119.365 111.959 119.636 111.511 119.832C111.072 120.028 110.554 120.126 109.957 120.126ZM116.498 113.588V117.858C116.498 118.147 116.563 118.357 116.694 118.488C116.834 118.609 117.067 118.67 117.394 118.67H118.374V120H117.114C116.395 120 115.844 119.832 115.462 119.496C115.079 119.16 114.888 118.614 114.888 117.858V113.588H113.978V112.286H114.888V110.368H116.498V112.286H118.374V113.588H116.498ZM121.441 113.406C121.674 113.014 121.982 112.711 122.365 112.496C122.757 112.272 123.219 112.16 123.751 112.16V113.812H123.345C122.719 113.812 122.243 113.971 121.917 114.288C121.599 114.605 121.441 115.156 121.441 115.94V120H119.845V112.286H121.441V113.406ZM128.564 120.126C127.836 120.126 127.178 119.963 126.59 119.636C126.002 119.3 125.54 118.833 125.204 118.236C124.868 117.629 124.7 116.929 124.7 116.136C124.7 115.352 124.872 114.657 125.218 114.05C125.563 113.443 126.034 112.977 126.632 112.65C127.229 112.323 127.896 112.16 128.634 112.16C129.371 112.16 130.038 112.323 130.636 112.65C131.233 112.977 131.704 113.443 132.05 114.05C132.395 114.657 132.568 115.352 132.568 116.136C132.568 116.92 132.39 117.615 132.036 118.222C131.681 118.829 131.196 119.3 130.58 119.636C129.973 119.963 129.301 120.126 128.564 120.126ZM128.564 118.74C128.974 118.74 129.357 118.642 129.712 118.446C130.076 118.25 130.37 117.956 130.594 117.564C130.818 117.172 130.93 116.696 130.93 116.136C130.93 115.576 130.822 115.105 130.608 114.722C130.393 114.33 130.108 114.036 129.754 113.84C129.399 113.644 129.016 113.546 128.606 113.546C128.195 113.546 127.812 113.644 127.458 113.84C127.112 114.036 126.837 114.33 126.632 114.722C126.426 115.105 126.324 115.576 126.324 116.136C126.324 116.967 126.534 117.611 126.954 118.068C127.383 118.516 127.92 118.74 128.564 118.74ZM138.037 112.16C138.644 112.16 139.185 112.286 139.661 112.538C140.147 112.79 140.525 113.163 140.795 113.658C141.066 114.153 141.201 114.75 141.201 115.45V120H139.619V115.688C139.619 114.997 139.447 114.47 139.101 114.106C138.756 113.733 138.285 113.546 137.687 113.546C137.09 113.546 136.614 113.733 136.259 114.106C135.914 114.47 135.741 114.997 135.741 115.688V120H134.145V112.286H135.741V113.168C136.003 112.851 136.334 112.603 136.735 112.426C137.146 112.249 137.58 112.16 138.037 112.16ZM146.345 112.16C146.942 112.16 147.47 112.281 147.927 112.524C148.394 112.757 148.758 113.051 149.019 113.406V112.286H150.629V120.126C150.629 120.835 150.48 121.465 150.181 122.016C149.882 122.576 149.448 123.015 148.879 123.332C148.319 123.649 147.647 123.808 146.863 123.808C145.818 123.808 144.95 123.561 144.259 123.066C143.568 122.581 143.176 121.918 143.083 121.078H144.665C144.786 121.479 145.043 121.801 145.435 122.044C145.836 122.296 146.312 122.422 146.863 122.422C147.507 122.422 148.025 122.226 148.417 121.834C148.818 121.442 149.019 120.873 149.019 120.126V118.838C148.748 119.202 148.38 119.51 147.913 119.762C147.456 120.005 146.933 120.126 146.345 120.126C145.673 120.126 145.057 119.958 144.497 119.622C143.946 119.277 143.508 118.801 143.181 118.194C142.864 117.578 142.705 116.883 142.705 116.108C142.705 115.333 142.864 114.647 143.181 114.05C143.508 113.453 143.946 112.991 144.497 112.664C145.057 112.328 145.673 112.16 146.345 112.16ZM149.019 116.136C149.019 115.604 148.907 115.142 148.683 114.75C148.468 114.358 148.184 114.059 147.829 113.854C147.474 113.649 147.092 113.546 146.681 113.546C146.27 113.546 145.888 113.649 145.533 113.854C145.178 114.05 144.889 114.344 144.665 114.736C144.45 115.119 144.343 115.576 144.343 116.108C144.343 116.64 144.45 117.107 144.665 117.508C144.889 117.909 145.178 118.217 145.533 118.432C145.897 118.637 146.28 118.74 146.681 118.74C147.092 118.74 147.474 118.637 147.829 118.432C148.184 118.227 148.468 117.928 148.683 117.536C148.907 117.135 149.019 116.668 149.019 116.136ZM169.955 113.588V117.858C169.955 118.147 170.021 118.357 170.151 118.488C170.291 118.609 170.525 118.67 170.851 118.67H171.831V120H170.571C169.853 120 169.302 119.832 168.919 119.496C168.537 119.16 168.345 118.614 168.345 117.858V113.588H167.435V112.286H168.345V110.368H169.955V112.286H171.831V113.588H169.955ZM180.372 115.954C180.372 116.243 180.354 116.505 180.316 116.738H174.422C174.469 117.354 174.698 117.849 175.108 118.222C175.519 118.595 176.023 118.782 176.62 118.782C177.479 118.782 178.086 118.423 178.44 117.704H180.162C179.929 118.413 179.504 118.997 178.888 119.454C178.282 119.902 177.526 120.126 176.62 120.126C175.883 120.126 175.22 119.963 174.632 119.636C174.054 119.3 173.596 118.833 173.26 118.236C172.934 117.629 172.77 116.929 172.77 116.136C172.77 115.343 172.929 114.647 173.246 114.05C173.573 113.443 174.026 112.977 174.604 112.65C175.192 112.323 175.864 112.16 176.62 112.16C177.348 112.16 177.997 112.319 178.566 112.636C179.136 112.953 179.579 113.401 179.896 113.98C180.214 114.549 180.372 115.207 180.372 115.954ZM178.706 115.45C178.697 114.862 178.487 114.391 178.076 114.036C177.666 113.681 177.157 113.504 176.55 113.504C176 113.504 175.528 113.681 175.136 114.036C174.744 114.381 174.511 114.853 174.436 115.45H178.706ZM181.411 116.108C181.411 115.333 181.57 114.647 181.887 114.05C182.214 113.453 182.652 112.991 183.203 112.664C183.763 112.328 184.379 112.16 185.051 112.16C185.658 112.16 186.185 112.281 186.633 112.524C187.09 112.757 187.454 113.051 187.725 113.406V112.286H189.335V120H187.725V118.852C187.454 119.216 187.086 119.519 186.619 119.762C186.152 120.005 185.62 120.126 185.023 120.126C184.36 120.126 183.754 119.958 183.203 119.622C182.652 119.277 182.214 118.801 181.887 118.194C181.57 117.578 181.411 116.883 181.411 116.108ZM187.725 116.136C187.725 115.604 187.613 115.142 187.389 114.75C187.174 114.358 186.89 114.059 186.535 113.854C186.18 113.649 185.798 113.546 185.387 113.546C184.976 113.546 184.594 113.649 184.239 113.854C183.884 114.05 183.595 114.344 183.371 114.736C183.156 115.119 183.049 115.576 183.049 116.108C183.049 116.64 183.156 117.107 183.371 117.508C183.595 117.909 183.884 118.217 184.239 118.432C184.603 118.637 184.986 118.74 185.387 118.74C185.798 118.74 186.18 118.637 186.535 118.432C186.89 118.227 187.174 117.928 187.389 117.536C187.613 117.135 187.725 116.668 187.725 116.136ZM200.769 112.16C201.376 112.16 201.917 112.286 202.393 112.538C202.879 112.79 203.257 113.163 203.527 113.658C203.807 114.153 203.947 114.75 203.947 115.45V120H202.365V115.688C202.365 114.997 202.193 114.47 201.847 114.106C201.502 113.733 201.031 113.546 200.433 113.546C199.836 113.546 199.36 113.733 199.005 114.106C198.66 114.47 198.487 114.997 198.487 115.688V120H196.905V115.688C196.905 114.997 196.733 114.47 196.387 114.106C196.042 113.733 195.571 113.546 194.973 113.546C194.376 113.546 193.9 113.733 193.545 114.106C193.2 114.47 193.027 114.997 193.027 115.688V120H191.431V112.286H193.027V113.168C193.289 112.851 193.62 112.603 194.021 112.426C194.423 112.249 194.852 112.16 195.309 112.16C195.925 112.16 196.476 112.291 196.961 112.552C197.447 112.813 197.82 113.191 198.081 113.686C198.315 113.219 198.679 112.851 199.173 112.58C199.668 112.3 200.2 112.16 200.769 112.16ZM224.692 120.126C223.964 120.126 223.306 119.963 222.718 119.636C222.13 119.3 221.668 118.833 221.332 118.236C220.996 117.629 220.828 116.929 220.828 116.136C220.828 115.352 221.001 114.657 221.346 114.05C221.691 113.443 222.163 112.977 222.76 112.65C223.357 112.323 224.025 112.16 224.762 112.16C225.499 112.16 226.167 112.323 226.764 112.65C227.361 112.977 227.833 113.443 228.178 114.05C228.523 114.657 228.696 115.352 228.696 116.136C228.696 116.92 228.519 117.615 228.164 118.222C227.809 118.829 227.324 119.3 226.708 119.636C226.101 119.963 225.429 120.126 224.692 120.126ZM224.692 118.74C225.103 118.74 225.485 118.642 225.84 118.446C226.204 118.25 226.498 117.956 226.722 117.564C226.946 117.172 227.058 116.696 227.058 116.136C227.058 115.576 226.951 115.105 226.736 114.722C226.521 114.33 226.237 114.036 225.882 113.84C225.527 113.644 225.145 113.546 224.734 113.546C224.323 113.546 223.941 113.644 223.586 113.84C223.241 114.036 222.965 114.33 222.76 114.722C222.555 115.105 222.452 115.576 222.452 116.136C222.452 116.967 222.662 117.611 223.082 118.068C223.511 118.516 224.048 118.74 224.692 118.74ZM233.508 113.588H232.08V120H230.47V113.588H229.56V112.286H230.47V111.74C230.47 110.853 230.703 110.209 231.17 109.808C231.646 109.397 232.388 109.192 233.396 109.192V110.522C232.91 110.522 232.57 110.615 232.374 110.802C232.178 110.979 232.08 111.292 232.08 111.74V112.286H233.508V113.588ZM253.524 113.588H252.096V120H250.486V113.588H249.576V112.286H250.486V111.74C250.486 110.853 250.72 110.209 251.186 109.808C251.662 109.397 252.404 109.192 253.412 109.192V110.522C252.927 110.522 252.586 110.615 252.39 110.802C252.194 110.979 252.096 111.292 252.096 111.74V112.286H253.524V113.588ZM255.751 111.264C255.461 111.264 255.219 111.166 255.023 110.97C254.827 110.774 254.729 110.531 254.729 110.242C254.729 109.953 254.827 109.71 255.023 109.514C255.219 109.318 255.461 109.22 255.751 109.22C256.031 109.22 256.269 109.318 256.465 109.514C256.661 109.71 256.759 109.953 256.759 110.242C256.759 110.531 256.661 110.774 256.465 110.97C256.269 111.166 256.031 111.264 255.751 111.264ZM256.535 112.286V120H254.939V112.286H256.535ZM262.522 112.16C263.129 112.16 263.67 112.286 264.146 112.538C264.631 112.79 265.009 113.163 265.28 113.658C265.551 114.153 265.686 114.75 265.686 115.45V120H264.104V115.688C264.104 114.997 263.931 114.47 263.586 114.106C263.241 113.733 262.769 113.546 262.172 113.546C261.575 113.546 261.099 113.733 260.744 114.106C260.399 114.47 260.226 114.997 260.226 115.688V120H258.63V112.286H260.226V113.168C260.487 112.851 260.819 112.603 261.22 112.426C261.631 112.249 262.065 112.16 262.522 112.16ZM274.792 115.954C274.792 116.243 274.773 116.505 274.736 116.738H268.842C268.889 117.354 269.117 117.849 269.528 118.222C269.939 118.595 270.443 118.782 271.04 118.782C271.899 118.782 272.505 118.423 272.86 117.704H274.582C274.349 118.413 273.924 118.997 273.308 119.454C272.701 119.902 271.945 120.126 271.04 120.126C270.303 120.126 269.64 119.963 269.052 119.636C268.473 119.3 268.016 118.833 267.68 118.236C267.353 117.629 267.19 116.929 267.19 116.136C267.19 115.343 267.349 114.647 267.666 114.05C267.993 113.443 268.445 112.977 269.024 112.65C269.612 112.323 270.284 112.16 271.04 112.16C271.768 112.16 272.417 112.319 272.986 112.636C273.555 112.953 273.999 113.401 274.316 113.98C274.633 114.549 274.792 115.207 274.792 115.954ZM273.126 115.45C273.117 114.862 272.907 114.391 272.496 114.036C272.085 113.681 271.577 113.504 270.97 113.504C270.419 113.504 269.948 113.681 269.556 114.036C269.164 114.381 268.931 114.853 268.856 115.45H273.126ZM279.163 120.126C278.556 120.126 278.01 120.019 277.525 119.804C277.049 119.58 276.671 119.281 276.391 118.908C276.111 118.525 275.961 118.101 275.943 117.634H277.595C277.623 117.961 277.777 118.236 278.057 118.46C278.346 118.675 278.705 118.782 279.135 118.782C279.583 118.782 279.928 118.698 280.171 118.53C280.423 118.353 280.549 118.129 280.549 117.858C280.549 117.569 280.409 117.354 280.129 117.214C279.858 117.074 279.424 116.92 278.827 116.752C278.248 116.593 277.777 116.439 277.413 116.29C277.049 116.141 276.731 115.912 276.461 115.604C276.199 115.296 276.069 114.89 276.069 114.386C276.069 113.975 276.19 113.602 276.433 113.266C276.675 112.921 277.021 112.65 277.469 112.454C277.926 112.258 278.449 112.16 279.037 112.16C279.914 112.16 280.619 112.384 281.151 112.832C281.692 113.271 281.981 113.873 282.019 114.638H280.423C280.395 114.293 280.255 114.017 280.003 113.812C279.751 113.607 279.41 113.504 278.981 113.504C278.561 113.504 278.239 113.583 278.015 113.742C277.791 113.901 277.679 114.111 277.679 114.372C277.679 114.577 277.753 114.75 277.903 114.89C278.052 115.03 278.234 115.142 278.449 115.226C278.663 115.301 278.981 115.399 279.401 115.52C279.961 115.669 280.418 115.823 280.773 115.982C281.137 116.131 281.449 116.355 281.711 116.654C281.972 116.953 282.107 117.349 282.117 117.844C282.117 118.283 281.995 118.675 281.753 119.02C281.51 119.365 281.165 119.636 280.717 119.832C280.278 120.028 279.76 120.126 279.163 120.126ZM285.703 113.588V117.858C285.703 118.147 285.768 118.357 285.899 118.488C286.039 118.609 286.272 118.67 286.599 118.67H287.579V120H286.319C285.6 120 285.05 119.832 284.667 119.496C284.284 119.16 284.093 118.614 284.093 117.858V113.588H283.183V112.286H284.093V110.368H285.703V112.286H287.579V113.588H285.703ZM20.518 137.108C20.518 136.333 20.6767 135.647 20.994 135.05C21.3207 134.453 21.7593 133.991 22.31 133.664C22.87 133.328 23.486 133.16 24.158 133.16C24.7647 133.16 25.292 133.281 25.74 133.524C26.1973 133.757 26.5613 134.051 26.832 134.406V133.286H28.442V141H26.832V139.852C26.5613 140.216 26.1927 140.519 25.726 140.762C25.2593 141.005 24.7273 141.126 24.13 141.126C23.4673 141.126 22.8607 140.958 22.31 140.622C21.7593 140.277 21.3207 139.801 20.994 139.194C20.6767 138.578 20.518 137.883 20.518 137.108ZM26.832 137.136C26.832 136.604 26.72 136.142 26.496 135.75C26.2813 135.358 25.9967 135.059 25.642 134.854C25.2873 134.649 24.9047 134.546 24.494 134.546C24.0833 134.546 23.7007 134.649 23.346 134.854C22.9913 135.05 22.702 135.344 22.478 135.736C22.2633 136.119 22.156 136.576 22.156 137.108C22.156 137.64 22.2633 138.107 22.478 138.508C22.702 138.909 22.9913 139.217 23.346 139.432C23.71 139.637 24.0927 139.74 24.494 139.74C24.9047 139.74 25.2873 139.637 25.642 139.432C25.9967 139.227 26.2813 138.928 26.496 138.536C26.72 138.135 26.832 137.668 26.832 137.136ZM34.4303 133.16C35.0369 133.16 35.5783 133.286 36.0543 133.538C36.5396 133.79 36.9176 134.163 37.1883 134.658C37.4589 135.153 37.5943 135.75 37.5943 136.45V141H36.0123V136.688C36.0123 135.997 35.8396 135.47 35.4943 135.106C35.1489 134.733 34.6776 134.546 34.0803 134.546C33.4829 134.546 33.0069 134.733 32.6523 135.106C32.3069 135.47 32.1343 135.997 32.1343 136.688V141H30.5383V133.286H32.1343V134.168C32.3956 133.851 32.7269 133.603 33.1283 133.426C33.5389 133.249 33.9729 133.16 34.4303 133.16ZM39.0981 137.108C39.0981 136.333 39.2567 135.647 39.5741 135.05C39.9007 134.453 40.3394 133.991 40.8901 133.664C41.4501 133.328 42.0661 133.16 42.7381 133.16C43.3447 133.16 43.8721 133.281 44.3201 133.524C44.7774 133.757 45.1414 134.051 45.4121 134.406V133.286H47.0221V141H45.4121V139.852C45.1414 140.216 44.7727 140.519 44.3061 140.762C43.8394 141.005 43.3074 141.126 42.7101 141.126C42.0474 141.126 41.4407 140.958 40.8901 140.622C40.3394 140.277 39.9007 139.801 39.5741 139.194C39.2567 138.578 39.0981 137.883 39.0981 137.108ZM45.4121 137.136C45.4121 136.604 45.3001 136.142 45.0761 135.75C44.8614 135.358 44.5767 135.059 44.2221 134.854C43.8674 134.649 43.4847 134.546 43.0741 134.546C42.6634 134.546 42.2807 134.649 41.9261 134.854C41.5714 135.05 41.2821 135.344 41.0581 135.736C40.8434 136.119 40.7361 136.576 40.7361 137.108C40.7361 137.64 40.8434 138.107 41.0581 138.508C41.2821 138.909 41.5714 139.217 41.9261 139.432C42.2901 139.637 42.6727 139.74 43.0741 139.74C43.4847 139.74 43.8674 139.637 44.2221 139.432C44.5767 139.227 44.8614 138.928 45.0761 138.536C45.3001 138.135 45.4121 137.668 45.4121 137.136ZM50.7144 130.64V141H49.1184V130.64H50.7144ZM59.7538 133.286L55.0218 144.626H53.3698L54.9378 140.874L51.8998 133.286H53.6778L55.8478 139.166L58.1018 133.286H59.7538ZM63.7582 141.126C63.1515 141.126 62.6055 141.019 62.1202 140.804C61.6442 140.58 61.2662 140.281 60.9862 139.908C60.7062 139.525 60.5569 139.101 60.5382 138.634H62.1902C62.2182 138.961 62.3722 139.236 62.6522 139.46C62.9415 139.675 63.3009 139.782 63.7302 139.782C64.1782 139.782 64.5235 139.698 64.7662 139.53C65.0182 139.353 65.1442 139.129 65.1442 138.858C65.1442 138.569 65.0042 138.354 64.7242 138.214C64.4535 138.074 64.0195 137.92 63.4222 137.752C62.8435 137.593 62.3722 137.439 62.0082 137.29C61.6442 137.141 61.3269 136.912 61.0562 136.604C60.7949 136.296 60.6642 135.89 60.6642 135.386C60.6642 134.975 60.7855 134.602 61.0282 134.266C61.2709 133.921 61.6162 133.65 62.0642 133.454C62.5215 133.258 63.0442 133.16 63.6322 133.16C64.5095 133.16 65.2142 133.384 65.7462 133.832C66.2875 134.271 66.5769 134.873 66.6142 135.638H65.0182C64.9902 135.293 64.8502 135.017 64.5982 134.812C64.3462 134.607 64.0055 134.504 63.5762 134.504C63.1562 134.504 62.8342 134.583 62.6102 134.742C62.3862 134.901 62.2742 135.111 62.2742 135.372C62.2742 135.577 62.3489 135.75 62.4982 135.89C62.6475 136.03 62.8295 136.142 63.0442 136.226C63.2589 136.301 63.5762 136.399 63.9962 136.52C64.5562 136.669 65.0135 136.823 65.3682 136.982C65.7322 137.131 66.0449 137.355 66.3062 137.654C66.5675 137.953 66.7029 138.349 66.7122 138.844C66.7122 139.283 66.5909 139.675 66.3482 140.02C66.1055 140.365 65.7602 140.636 65.3122 140.832C64.8735 141.028 64.3555 141.126 63.7582 141.126ZM70.2987 134.588V138.858C70.2987 139.147 70.3641 139.357 70.4947 139.488C70.6347 139.609 70.8681 139.67 71.1947 139.67H72.1747V141H70.9147C70.1961 141 69.6454 140.832 69.2627 140.496C68.8801 140.16 68.6887 139.614 68.6887 138.858V134.588H67.7787V133.286H68.6887V131.368H70.2987V133.286H72.1747V134.588H70.2987ZM76.4457 141.126C75.839 141.126 75.293 141.019 74.8077 140.804C74.3317 140.58 73.9537 140.281 73.6737 139.908C73.3937 139.525 73.2444 139.101 73.2257 138.634H74.8777C74.9057 138.961 75.0597 139.236 75.3397 139.46C75.629 139.675 75.9884 139.782 76.4177 139.782C76.8657 139.782 77.211 139.698 77.4537 139.53C77.7057 139.353 77.8317 139.129 77.8317 138.858C77.8317 138.569 77.6917 138.354 77.4117 138.214C77.141 138.074 76.707 137.92 76.1097 137.752C75.531 137.593 75.0597 137.439 74.6957 137.29C74.3317 137.141 74.0144 136.912 73.7437 136.604C73.4824 136.296 73.3517 135.89 73.3517 135.386C73.3517 134.975 73.473 134.602 73.7157 134.266C73.9584 133.921 74.3037 133.65 74.7517 133.454C75.209 133.258 75.7317 133.16 76.3197 133.16C77.197 133.16 77.9017 133.384 78.4337 133.832C78.975 134.271 79.2644 134.873 79.3017 135.638H77.7057C77.6777 135.293 77.5377 135.017 77.2857 134.812C77.0337 134.607 76.693 134.504 76.2637 134.504C75.8437 134.504 75.5217 134.583 75.2977 134.742C75.0737 134.901 74.9617 135.111 74.9617 135.372C74.9617 135.577 75.0364 135.75 75.1857 135.89C75.335 136.03 75.517 136.142 75.7317 136.226C75.9464 136.301 76.2637 136.399 76.6837 136.52C77.2437 136.669 77.701 136.823 78.0557 136.982C78.4197 137.131 78.7324 137.355 78.9937 137.654C79.255 137.953 79.3904 138.349 79.3997 138.844C79.3997 139.283 79.2784 139.675 79.0357 140.02C78.793 140.365 78.4477 140.636 77.9997 140.832C77.561 141.028 77.043 141.126 76.4457 141.126ZM82.8742 139.082L81.1802 142.946H80.1442L81.1382 139.082H82.8742ZM102.819 137.136C102.819 136.343 102.978 135.647 103.295 135.05C103.622 134.443 104.07 133.977 104.639 133.65C105.209 133.323 105.862 133.16 106.599 133.16C107.533 133.16 108.303 133.384 108.909 133.832C109.525 134.271 109.941 134.901 110.155 135.722H108.433C108.293 135.339 108.069 135.041 107.761 134.826C107.453 134.611 107.066 134.504 106.599 134.504C105.946 134.504 105.423 134.737 105.031 135.204C104.649 135.661 104.457 136.305 104.457 137.136C104.457 137.967 104.649 138.615 105.031 139.082C105.423 139.549 105.946 139.782 106.599 139.782C107.523 139.782 108.135 139.376 108.433 138.564H110.155C109.931 139.348 109.511 139.973 108.895 140.44C108.279 140.897 107.514 141.126 106.599 141.126C105.862 141.126 105.209 140.963 104.639 140.636C104.07 140.3 103.622 139.833 103.295 139.236C102.978 138.629 102.819 137.929 102.819 137.136ZM115.092 141.126C114.364 141.126 113.706 140.963 113.118 140.636C112.53 140.3 112.068 139.833 111.732 139.236C111.396 138.629 111.228 137.929 111.228 137.136C111.228 136.352 111.401 135.657 111.746 135.05C112.091 134.443 112.563 133.977 113.16 133.65C113.757 133.323 114.425 133.16 115.162 133.16C115.899 133.16 116.567 133.323 117.164 133.65C117.761 133.977 118.233 134.443 118.578 135.05C118.923 135.657 119.096 136.352 119.096 137.136C119.096 137.92 118.919 138.615 118.564 139.222C118.209 139.829 117.724 140.3 117.108 140.636C116.501 140.963 115.829 141.126 115.092 141.126ZM115.092 139.74C115.503 139.74 115.885 139.642 116.24 139.446C116.604 139.25 116.898 138.956 117.122 138.564C117.346 138.172 117.458 137.696 117.458 137.136C117.458 136.576 117.351 136.105 117.136 135.722C116.921 135.33 116.637 135.036 116.282 134.84C115.927 134.644 115.545 134.546 115.134 134.546C114.723 134.546 114.341 134.644 113.986 134.84C113.641 135.036 113.365 135.33 113.16 135.722C112.955 136.105 112.852 136.576 112.852 137.136C112.852 137.967 113.062 138.611 113.482 139.068C113.911 139.516 114.448 139.74 115.092 139.74ZM124.566 133.16C125.172 133.16 125.714 133.286 126.19 133.538C126.675 133.79 127.053 134.163 127.324 134.658C127.594 135.153 127.73 135.75 127.73 136.45V141H126.148V136.688C126.148 135.997 125.975 135.47 125.63 135.106C125.284 134.733 124.813 134.546 124.216 134.546C123.618 134.546 123.142 134.733 122.788 135.106C122.442 135.47 122.27 135.997 122.27 136.688V141H120.674V133.286H122.27V134.168C122.531 133.851 122.862 133.603 123.264 133.426C123.674 133.249 124.108 133.16 124.566 133.16ZM132.565 141.126C131.959 141.126 131.413 141.019 130.927 140.804C130.451 140.58 130.073 140.281 129.793 139.908C129.513 139.525 129.364 139.101 129.345 138.634H130.997C131.025 138.961 131.179 139.236 131.459 139.46C131.749 139.675 132.108 139.782 132.537 139.782C132.985 139.782 133.331 139.698 133.573 139.53C133.825 139.353 133.951 139.129 133.951 138.858C133.951 138.569 133.811 138.354 133.531 138.214C133.261 138.074 132.827 137.92 132.229 137.752C131.651 137.593 131.179 137.439 130.815 137.29C130.451 137.141 130.134 136.912 129.863 136.604C129.602 136.296 129.471 135.89 129.471 135.386C129.471 134.975 129.593 134.602 129.835 134.266C130.078 133.921 130.423 133.65 130.871 133.454C131.329 133.258 131.851 133.16 132.439 133.16C133.317 133.16 134.021 133.384 134.553 133.832C135.095 134.271 135.384 134.873 135.421 135.638H133.825C133.797 135.293 133.657 135.017 133.405 134.812C133.153 134.607 132.813 134.504 132.383 134.504C131.963 134.504 131.641 134.583 131.417 134.742C131.193 134.901 131.081 135.111 131.081 135.372C131.081 135.577 131.156 135.75 131.305 135.89C131.455 136.03 131.637 136.142 131.851 136.226C132.066 136.301 132.383 136.399 132.803 136.52C133.363 136.669 133.821 136.823 134.175 136.982C134.539 137.131 134.852 137.355 135.113 137.654C135.375 137.953 135.51 138.349 135.519 138.844C135.519 139.283 135.398 139.675 135.155 140.02C134.913 140.365 134.567 140.636 134.119 140.832C133.681 141.028 133.163 141.126 132.565 141.126ZM144.23 133.286V141H142.634V140.09C142.382 140.407 142.051 140.659 141.64 140.846C141.239 141.023 140.809 141.112 140.352 141.112C139.745 141.112 139.199 140.986 138.714 140.734C138.238 140.482 137.86 140.109 137.58 139.614C137.309 139.119 137.174 138.522 137.174 137.822V133.286H138.756V137.584C138.756 138.275 138.929 138.807 139.274 139.18C139.619 139.544 140.091 139.726 140.688 139.726C141.285 139.726 141.757 139.544 142.102 139.18C142.457 138.807 142.634 138.275 142.634 137.584V133.286H144.23ZM147.932 130.64V141H146.336V130.64H147.932ZM151.889 134.588V138.858C151.889 139.147 151.955 139.357 152.085 139.488C152.225 139.609 152.459 139.67 152.785 139.67H153.765V141H152.505C151.787 141 151.236 140.832 150.853 140.496C150.471 140.16 150.279 139.614 150.279 138.858V134.588H149.369V133.286H150.279V131.368H151.889V133.286H153.765V134.588H151.889ZM154.704 137.108C154.704 136.333 154.863 135.647 155.18 135.05C155.507 134.453 155.946 133.991 156.496 133.664C157.056 133.328 157.672 133.16 158.344 133.16C158.951 133.16 159.478 133.281 159.926 133.524C160.384 133.757 160.748 134.051 161.018 134.406V133.286H162.628V141H161.018V139.852C160.748 140.216 160.379 140.519 159.912 140.762C159.446 141.005 158.914 141.126 158.316 141.126C157.654 141.126 157.047 140.958 156.496 140.622C155.946 140.277 155.507 139.801 155.18 139.194C154.863 138.578 154.704 137.883 154.704 137.108ZM161.018 137.136C161.018 136.604 160.906 136.142 160.682 135.75C160.468 135.358 160.183 135.059 159.828 134.854C159.474 134.649 159.091 134.546 158.68 134.546C158.27 134.546 157.887 134.649 157.532 134.854C157.178 135.05 156.888 135.344 156.664 135.736C156.45 136.119 156.342 136.576 156.342 137.108C156.342 137.64 156.45 138.107 156.664 138.508C156.888 138.909 157.178 139.217 157.532 139.432C157.896 139.637 158.279 139.74 158.68 139.74C159.091 139.74 159.474 139.637 159.828 139.432C160.183 139.227 160.468 138.928 160.682 138.536C160.906 138.135 161.018 137.668 161.018 137.136ZM168.616 133.16C169.223 133.16 169.764 133.286 170.24 133.538C170.726 133.79 171.104 134.163 171.374 134.658C171.645 135.153 171.78 135.75 171.78 136.45V141H170.198V136.688C170.198 135.997 170.026 135.47 169.68 135.106C169.335 134.733 168.864 134.546 168.266 134.546C167.669 134.546 167.193 134.733 166.838 135.106C166.493 135.47 166.32 135.997 166.32 136.688V141H164.724V133.286H166.32V134.168C166.582 133.851 166.913 133.603 167.314 133.426C167.725 133.249 168.159 133.16 168.616 133.16ZM175.678 134.588V138.858C175.678 139.147 175.744 139.357 175.874 139.488C176.014 139.609 176.248 139.67 176.574 139.67H177.554V141H176.294C175.576 141 175.025 140.832 174.642 140.496C174.26 140.16 174.068 139.614 174.068 138.858V134.588H173.158V133.286H174.068V131.368H175.678V133.286H177.554V134.588H175.678ZM181.825 141.126C181.219 141.126 180.673 141.019 180.187 140.804C179.711 140.58 179.333 140.281 179.053 139.908C178.773 139.525 178.624 139.101 178.605 138.634H180.257C180.285 138.961 180.439 139.236 180.719 139.46C181.009 139.675 181.368 139.782 181.797 139.782C182.245 139.782 182.591 139.698 182.833 139.53C183.085 139.353 183.211 139.129 183.211 138.858C183.211 138.569 183.071 138.354 182.791 138.214C182.521 138.074 182.087 137.92 181.489 137.752C180.911 137.593 180.439 137.439 180.075 137.29C179.711 137.141 179.394 136.912 179.123 136.604C178.862 136.296 178.731 135.89 178.731 135.386C178.731 134.975 178.853 134.602 179.095 134.266C179.338 133.921 179.683 133.65 180.131 133.454C180.589 133.258 181.111 133.16 181.699 133.16C182.577 133.16 183.281 133.384 183.813 133.832C184.355 134.271 184.644 134.873 184.681 135.638H183.085C183.057 135.293 182.917 135.017 182.665 134.812C182.413 134.607 182.073 134.504 181.643 134.504C181.223 134.504 180.901 134.583 180.677 134.742C180.453 134.901 180.341 135.111 180.341 135.372C180.341 135.577 180.416 135.75 180.565 135.89C180.715 136.03 180.897 136.142 181.111 136.226C181.326 136.301 181.643 136.399 182.063 136.52C182.623 136.669 183.081 136.823 183.435 136.982C183.799 137.131 184.112 137.355 184.373 137.654C184.635 137.953 184.77 138.349 184.779 138.844C184.779 139.283 184.658 139.675 184.415 140.02C184.173 140.365 183.827 140.636 183.379 140.832C182.941 141.028 182.423 141.126 181.825 141.126ZM205.054 137.108C205.054 136.333 205.213 135.647 205.53 135.05C205.857 134.453 206.296 133.991 206.846 133.664C207.406 133.328 208.022 133.16 208.694 133.16C209.301 133.16 209.828 133.281 210.276 133.524C210.734 133.757 211.098 134.051 211.368 134.406V133.286H212.978V141H211.368V139.852C211.098 140.216 210.729 140.519 210.262 140.762C209.796 141.005 209.264 141.126 208.666 141.126C208.004 141.126 207.397 140.958 206.846 140.622C206.296 140.277 205.857 139.801 205.53 139.194C205.213 138.578 205.054 137.883 205.054 137.108ZM211.368 137.136C211.368 136.604 211.256 136.142 211.032 135.75C210.818 135.358 210.533 135.059 210.178 134.854C209.824 134.649 209.441 134.546 209.03 134.546C208.62 134.546 208.237 134.649 207.882 134.854C207.528 135.05 207.238 135.344 207.014 135.736C206.8 136.119 206.692 136.576 206.692 137.108C206.692 137.64 206.8 138.107 207.014 138.508C207.238 138.909 207.528 139.217 207.882 139.432C208.246 139.637 208.629 139.74 209.03 139.74C209.441 139.74 209.824 139.637 210.178 139.432C210.533 139.227 210.818 138.928 211.032 138.536C211.256 138.135 211.368 137.668 211.368 137.136ZM218.967 133.16C219.573 133.16 220.115 133.286 220.591 133.538C221.076 133.79 221.454 134.163 221.725 134.658C221.995 135.153 222.131 135.75 222.131 136.45V141H220.549V136.688C220.549 135.997 220.376 135.47 220.031 135.106C219.685 134.733 219.214 134.546 218.617 134.546C218.019 134.546 217.543 134.733 217.189 135.106C216.843 135.47 216.671 135.997 216.671 136.688V141H215.075V133.286H216.671V134.168C216.932 133.851 217.263 133.603 217.665 133.426C218.075 133.249 218.509 133.16 218.967 133.16ZM223.635 137.108C223.635 136.333 223.793 135.647 224.111 135.05C224.437 134.453 224.876 133.991 225.427 133.664C225.987 133.328 226.607 133.16 227.289 133.16C227.793 133.16 228.287 133.272 228.773 133.496C229.267 133.711 229.659 134 229.949 134.364V130.64H231.559V141H229.949V139.838C229.687 140.211 229.323 140.519 228.857 140.762C228.399 141.005 227.872 141.126 227.275 141.126C226.603 141.126 225.987 140.958 225.427 140.622C224.876 140.277 224.437 139.801 224.111 139.194C223.793 138.578 223.635 137.883 223.635 137.108ZM229.949 137.136C229.949 136.604 229.837 136.142 229.613 135.75C229.398 135.358 229.113 135.059 228.759 134.854C228.404 134.649 228.021 134.546 227.611 134.546C227.2 134.546 226.817 134.649 226.463 134.854C226.108 135.05 225.819 135.344 225.595 135.736C225.38 136.119 225.273 136.576 225.273 137.108C225.273 137.64 225.38 138.107 225.595 138.508C225.819 138.909 226.108 139.217 226.463 139.432C226.827 139.637 227.209 139.74 227.611 139.74C228.021 139.74 228.404 139.637 228.759 139.432C229.113 139.227 229.398 138.928 229.613 138.536C229.837 138.135 229.949 137.668 229.949 137.136ZM256.728 133.16C257.316 133.16 257.838 133.286 258.296 133.538C258.762 133.79 259.126 134.163 259.388 134.658C259.658 135.153 259.794 135.75 259.794 136.45V141H258.212V136.688C258.212 135.997 258.039 135.47 257.694 135.106C257.348 134.733 256.877 134.546 256.28 134.546C255.682 134.546 255.206 134.733 254.852 135.106C254.506 135.47 254.334 135.997 254.334 136.688V141H252.738V130.64H254.334V134.182C254.604 133.855 254.945 133.603 255.356 133.426C255.776 133.249 256.233 133.16 256.728 133.16ZM268.815 133.286V141H267.219V140.09C266.967 140.407 266.636 140.659 266.225 140.846C265.824 141.023 265.395 141.112 264.937 141.112C264.331 141.112 263.785 140.986 263.299 140.734C262.823 140.482 262.445 140.109 262.165 139.614C261.895 139.119 261.759 138.522 261.759 137.822V133.286H263.341V137.584C263.341 138.275 263.514 138.807 263.859 139.18C264.205 139.544 264.676 139.726 265.273 139.726C265.871 139.726 266.342 139.544 266.687 139.18C267.042 138.807 267.219 138.275 267.219 137.584V133.286H268.815ZM274.029 133.16C274.626 133.16 275.154 133.281 275.611 133.524C276.078 133.757 276.442 134.051 276.703 134.406V133.286H278.313V141.126C278.313 141.835 278.164 142.465 277.865 143.016C277.566 143.576 277.132 144.015 276.563 144.332C276.003 144.649 275.331 144.808 274.547 144.808C273.502 144.808 272.634 144.561 271.943 144.066C271.252 143.581 270.86 142.918 270.767 142.078H272.349C272.47 142.479 272.727 142.801 273.119 143.044C273.52 143.296 273.996 143.422 274.547 143.422C275.191 143.422 275.709 143.226 276.101 142.834C276.502 142.442 276.703 141.873 276.703 141.126V139.838C276.432 140.202 276.064 140.51 275.597 140.762C275.14 141.005 274.617 141.126 274.029 141.126C273.357 141.126 272.741 140.958 272.181 140.622C271.63 140.277 271.192 139.801 270.865 139.194C270.548 138.578 270.389 137.883 270.389 137.108C270.389 136.333 270.548 135.647 270.865 135.05C271.192 134.453 271.63 133.991 272.181 133.664C272.741 133.328 273.357 133.16 274.029 133.16ZM276.703 137.136C276.703 136.604 276.591 136.142 276.367 135.75C276.152 135.358 275.868 135.059 275.513 134.854C275.158 134.649 274.776 134.546 274.365 134.546C273.954 134.546 273.572 134.649 273.217 134.854C272.862 135.05 272.573 135.344 272.349 135.736C272.134 136.119 272.027 136.576 272.027 137.108C272.027 137.64 272.134 138.107 272.349 138.508C272.573 138.909 272.862 139.217 273.217 139.432C273.581 139.637 273.964 139.74 274.365 139.74C274.776 139.74 275.158 139.637 275.513 139.432C275.868 139.227 276.152 138.928 276.367 138.536C276.591 138.135 276.703 137.668 276.703 137.136ZM287.479 136.954C287.479 137.243 287.461 137.505 287.423 137.738H281.529C281.576 138.354 281.805 138.849 282.215 139.222C282.626 139.595 283.13 139.782 283.727 139.782C284.586 139.782 285.193 139.423 285.547 138.704H287.269C287.036 139.413 286.611 139.997 285.995 140.454C285.389 140.902 284.633 141.126 283.727 141.126C282.99 141.126 282.327 140.963 281.739 140.636C281.161 140.3 280.703 139.833 280.367 139.236C280.041 138.629 279.877 137.929 279.877 137.136C279.877 136.343 280.036 135.647 280.353 135.05C280.68 134.443 281.133 133.977 281.711 133.65C282.299 133.323 282.971 133.16 283.727 133.16C284.455 133.16 285.104 133.319 285.673 133.636C286.243 133.953 286.686 134.401 287.003 134.98C287.321 135.549 287.479 136.207 287.479 136.954ZM285.813 136.45C285.804 135.862 285.594 135.391 285.183 135.036C284.773 134.681 284.264 134.504 283.657 134.504C283.107 134.504 282.635 134.681 282.243 135.036C281.851 135.381 281.618 135.853 281.543 136.45H285.813ZM22.646 155.406C22.8793 155.014 23.1873 154.711 23.57 154.496C23.962 154.272 24.424 154.16 24.956 154.16V155.812H24.55C23.9247 155.812 23.4487 155.971 23.122 156.288C22.8047 156.605 22.646 157.156 22.646 157.94V162H21.05V154.286H22.646V155.406ZM33.493 157.954C33.493 158.243 33.4744 158.505 33.437 158.738H27.543C27.5897 159.354 27.8184 159.849 28.229 160.222C28.6397 160.595 29.1437 160.782 29.741 160.782C30.5997 160.782 31.2064 160.423 31.561 159.704H33.283C33.0497 160.413 32.625 160.997 32.009 161.454C31.4024 161.902 30.6464 162.126 29.741 162.126C29.0037 162.126 28.341 161.963 27.753 161.636C27.1744 161.3 26.717 160.833 26.381 160.236C26.0544 159.629 25.891 158.929 25.891 158.136C25.891 157.343 26.0497 156.647 26.367 156.05C26.6937 155.443 27.1464 154.977 27.725 154.65C28.313 154.323 28.985 154.16 29.741 154.16C30.469 154.16 31.1177 154.319 31.687 154.636C32.2564 154.953 32.6997 155.401 33.017 155.98C33.3344 156.549 33.493 157.207 33.493 157.954ZM31.827 157.45C31.8177 156.862 31.6077 156.391 31.197 156.036C30.7864 155.681 30.2777 155.504 29.671 155.504C29.1204 155.504 28.649 155.681 28.257 156.036C27.865 156.381 27.6317 156.853 27.557 157.45H31.827ZM36.6597 155.42C36.9303 155.065 37.299 154.767 37.7657 154.524C38.2323 154.281 38.7597 154.16 39.3477 154.16C40.0197 154.16 40.631 154.328 41.1817 154.664C41.7417 154.991 42.1803 155.453 42.4977 156.05C42.815 156.647 42.9737 157.333 42.9737 158.108C42.9737 158.883 42.815 159.578 42.4977 160.194C42.1803 160.801 41.7417 161.277 41.1817 161.622C40.631 161.958 40.0197 162.126 39.3477 162.126C38.7597 162.126 38.237 162.009 37.7797 161.776C37.3223 161.533 36.949 161.235 36.6597 160.88V165.668H35.0637V154.286H36.6597V155.42ZM41.3497 158.108C41.3497 157.576 41.2377 157.119 41.0137 156.736C40.799 156.344 40.5097 156.05 40.1457 155.854C39.791 155.649 39.4083 155.546 38.9977 155.546C38.5963 155.546 38.2137 155.649 37.8497 155.854C37.495 156.059 37.2057 156.358 36.9817 156.75C36.767 157.142 36.6597 157.604 36.6597 158.136C36.6597 158.668 36.767 159.135 36.9817 159.536C37.2057 159.928 37.495 160.227 37.8497 160.432C38.2137 160.637 38.5963 160.74 38.9977 160.74C39.4083 160.74 39.791 160.637 40.1457 160.432C40.5097 160.217 40.799 159.909 41.0137 159.508C41.2377 159.107 41.3497 158.64 41.3497 158.108ZM47.898 162.126C47.17 162.126 46.512 161.963 45.924 161.636C45.336 161.3 44.874 160.833 44.538 160.236C44.202 159.629 44.034 158.929 44.034 158.136C44.034 157.352 44.2066 156.657 44.552 156.05C44.8973 155.443 45.3686 154.977 45.966 154.65C46.5633 154.323 47.2306 154.16 47.968 154.16C48.7053 154.16 49.3726 154.323 49.97 154.65C50.5673 154.977 51.0386 155.443 51.384 156.05C51.7293 156.657 51.902 157.352 51.902 158.136C51.902 158.92 51.7246 159.615 51.37 160.222C51.0153 160.829 50.53 161.3 49.914 161.636C49.3073 161.963 48.6353 162.126 47.898 162.126ZM47.898 160.74C48.3086 160.74 48.6913 160.642 49.046 160.446C49.41 160.25 49.704 159.956 49.928 159.564C50.152 159.172 50.264 158.696 50.264 158.136C50.264 157.576 50.1566 157.105 49.942 156.722C49.7273 156.33 49.4426 156.036 49.088 155.84C48.7333 155.644 48.3506 155.546 47.94 155.546C47.5293 155.546 47.1466 155.644 46.792 155.84C46.4466 156.036 46.1713 156.33 45.966 156.722C45.7606 157.105 45.658 157.576 45.658 158.136C45.658 158.967 45.868 159.611 46.288 160.068C46.7173 160.516 47.254 160.74 47.898 160.74ZM55.0757 155.406C55.309 155.014 55.617 154.711 55.9997 154.496C56.3917 154.272 56.8537 154.16 57.3857 154.16V155.812H56.9797C56.3544 155.812 55.8784 155.971 55.5517 156.288C55.2344 156.605 55.0757 157.156 55.0757 157.94V162H53.4797V154.286H55.0757V155.406ZM60.7147 155.588V159.858C60.7147 160.147 60.7801 160.357 60.9107 160.488C61.0507 160.609 61.2841 160.67 61.6107 160.67H62.5907V162H61.3307C60.6121 162 60.0614 161.832 59.6787 161.496C59.2961 161.16 59.1047 160.614 59.1047 159.858V155.588H58.1947V154.286H59.1047V152.368H60.7147V154.286H62.5907V155.588H60.7147ZM66.8617 162.126C66.2551 162.126 65.7091 162.019 65.2237 161.804C64.7477 161.58 64.3697 161.281 64.0897 160.908C63.8097 160.525 63.6604 160.101 63.6417 159.634H65.2937C65.3217 159.961 65.4757 160.236 65.7557 160.46C66.0451 160.675 66.4044 160.782 66.8337 160.782C67.2817 160.782 67.6271 160.698 67.8697 160.53C68.1217 160.353 68.2477 160.129 68.2477 159.858C68.2477 159.569 68.1077 159.354 67.8277 159.214C67.5571 159.074 67.1231 158.92 66.5257 158.752C65.9471 158.593 65.4757 158.439 65.1117 158.29C64.7477 158.141 64.4304 157.912 64.1597 157.604C63.8984 157.296 63.7677 156.89 63.7677 156.386C63.7677 155.975 63.8891 155.602 64.1317 155.266C64.3744 154.921 64.7197 154.65 65.1677 154.454C65.6251 154.258 66.1477 154.16 66.7357 154.16C67.6131 154.16 68.3177 154.384 68.8497 154.832C69.3911 155.271 69.6804 155.873 69.7177 156.638H68.1217C68.0937 156.293 67.9537 156.017 67.7017 155.812C67.4497 155.607 67.1091 155.504 66.6797 155.504C66.2597 155.504 65.9377 155.583 65.7137 155.742C65.4897 155.901 65.3777 156.111 65.3777 156.372C65.3777 156.577 65.4524 156.75 65.6017 156.89C65.7511 157.03 65.9331 157.142 66.1477 157.226C66.3624 157.301 66.6797 157.399 67.0997 157.52C67.6597 157.669 68.1171 157.823 68.4717 157.982C68.8357 158.131 69.1484 158.355 69.4097 158.654C69.6711 158.953 69.8064 159.349 69.8157 159.844C69.8157 160.283 69.6944 160.675 69.4517 161.02C69.2091 161.365 68.8637 161.636 68.4157 161.832C67.9771 162.028 67.4591 162.126 66.8617 162.126ZM77.2661 155.406C77.4995 155.014 77.8075 154.711 78.1901 154.496C78.5821 154.272 79.0441 154.16 79.5761 154.16V155.812H79.1701C78.5448 155.812 78.0688 155.971 77.7421 156.288C77.4248 156.605 77.2661 157.156 77.2661 157.94V162H75.6701V154.286H77.2661V155.406ZM88.1132 157.954C88.1132 158.243 88.0945 158.505 88.0572 158.738H82.1632C82.2098 159.354 82.4385 159.849 82.8492 160.222C83.2598 160.595 83.7638 160.782 84.3612 160.782C85.2198 160.782 85.8265 160.423 86.1812 159.704H87.9032C87.6698 160.413 87.2452 160.997 86.6292 161.454C86.0225 161.902 85.2665 162.126 84.3612 162.126C83.6238 162.126 82.9612 161.963 82.3732 161.636C81.7945 161.3 81.3372 160.833 81.0012 160.236C80.6745 159.629 80.5112 158.929 80.5112 158.136C80.5112 157.343 80.6698 156.647 80.9872 156.05C81.3138 155.443 81.7665 154.977 82.3452 154.65C82.9332 154.323 83.6052 154.16 84.3612 154.16C85.0892 154.16 85.7378 154.319 86.3072 154.636C86.8765 154.953 87.3198 155.401 87.6372 155.98C87.9545 156.549 88.1132 157.207 88.1132 157.954ZM86.4472 157.45C86.4378 156.862 86.2278 156.391 85.8172 156.036C85.4065 155.681 84.8978 155.504 84.2912 155.504C83.7405 155.504 83.2692 155.681 82.8772 156.036C82.4852 156.381 82.2518 156.853 82.1772 157.45H86.4472ZM91.2798 155.42C91.5505 155.065 91.9191 154.767 92.3858 154.524C92.8525 154.281 93.3798 154.16 93.9678 154.16C94.6398 154.16 95.2511 154.328 95.8018 154.664C96.3618 154.991 96.8005 155.453 97.1178 156.05C97.4351 156.647 97.5938 157.333 97.5938 158.108C97.5938 158.883 97.4351 159.578 97.1178 160.194C96.8005 160.801 96.3618 161.277 95.8018 161.622C95.2511 161.958 94.6398 162.126 93.9678 162.126C93.3798 162.126 92.8571 162.009 92.3998 161.776C91.9425 161.533 91.5691 161.235 91.2798 160.88V165.668H89.6838V154.286H91.2798V155.42ZM95.9698 158.108C95.9698 157.576 95.8578 157.119 95.6338 156.736C95.4191 156.344 95.1298 156.05 94.7658 155.854C94.4111 155.649 94.0285 155.546 93.6178 155.546C93.2165 155.546 92.8338 155.649 92.4698 155.854C92.1151 156.059 91.8258 156.358 91.6018 156.75C91.3871 157.142 91.2798 157.604 91.2798 158.136C91.2798 158.668 91.3871 159.135 91.6018 159.536C91.8258 159.928 92.1151 160.227 92.4698 160.432C92.8338 160.637 93.2165 160.74 93.6178 160.74C94.0285 160.74 94.4111 160.637 94.7658 160.432C95.1298 160.217 95.4191 159.909 95.6338 159.508C95.8578 159.107 95.9698 158.64 95.9698 158.108ZM102.518 162.126C101.79 162.126 101.132 161.963 100.544 161.636C99.9561 161.3 99.4941 160.833 99.1581 160.236C98.8221 159.629 98.6541 158.929 98.6541 158.136C98.6541 157.352 98.8267 156.657 99.1721 156.05C99.5174 155.443 99.9887 154.977 100.586 154.65C101.183 154.323 101.851 154.16 102.588 154.16C103.325 154.16 103.993 154.323 104.59 154.65C105.187 154.977 105.659 155.443 106.004 156.05C106.349 156.657 106.522 157.352 106.522 158.136C106.522 158.92 106.345 159.615 105.99 160.222C105.635 160.829 105.15 161.3 104.534 161.636C103.927 161.963 103.255 162.126 102.518 162.126ZM102.518 160.74C102.929 160.74 103.311 160.642 103.666 160.446C104.03 160.25 104.324 159.956 104.548 159.564C104.772 159.172 104.884 158.696 104.884 158.136C104.884 157.576 104.777 157.105 104.562 156.722C104.347 156.33 104.063 156.036 103.708 155.84C103.353 155.644 102.971 155.546 102.56 155.546C102.149 155.546 101.767 155.644 101.412 155.84C101.067 156.036 100.791 156.33 100.586 156.722C100.381 157.105 100.278 157.576 100.278 158.136C100.278 158.967 100.488 159.611 100.908 160.068C101.337 160.516 101.874 160.74 102.518 160.74ZM110.9 162.126C110.293 162.126 109.747 162.019 109.262 161.804C108.786 161.58 108.408 161.281 108.128 160.908C107.848 160.525 107.698 160.101 107.68 159.634H109.332C109.36 159.961 109.514 160.236 109.794 160.46C110.083 160.675 110.442 160.782 110.872 160.782C111.32 160.782 111.665 160.698 111.908 160.53C112.16 160.353 112.286 160.129 112.286 159.858C112.286 159.569 112.146 159.354 111.866 159.214C111.595 159.074 111.161 158.92 110.564 158.752C109.985 158.593 109.514 158.439 109.15 158.29C108.786 158.141 108.468 157.912 108.198 157.604C107.936 157.296 107.806 156.89 107.806 156.386C107.806 155.975 107.927 155.602 108.17 155.266C108.412 154.921 108.758 154.65 109.206 154.454C109.663 154.258 110.186 154.16 110.774 154.16C111.651 154.16 112.356 154.384 112.888 154.832C113.429 155.271 113.718 155.873 113.756 156.638H112.16C112.132 156.293 111.992 156.017 111.74 155.812C111.488 155.607 111.147 155.504 110.718 155.504C110.298 155.504 109.976 155.583 109.752 155.742C109.528 155.901 109.416 156.111 109.416 156.372C109.416 156.577 109.49 156.75 109.64 156.89C109.789 157.03 109.971 157.142 110.186 157.226C110.4 157.301 110.718 157.399 111.138 157.52C111.698 157.669 112.155 157.823 112.51 157.982C112.874 158.131 113.186 158.355 113.448 158.654C113.709 158.953 113.844 159.349 113.854 159.844C113.854 160.283 113.732 160.675 113.49 161.02C113.247 161.365 112.902 161.636 112.454 161.832C112.015 162.028 111.497 162.126 110.9 162.126ZM116.39 153.264C116.101 153.264 115.858 153.166 115.662 152.97C115.466 152.774 115.368 152.531 115.368 152.242C115.368 151.953 115.466 151.71 115.662 151.514C115.858 151.318 116.101 151.22 116.39 151.22C116.67 151.22 116.908 151.318 117.104 151.514C117.3 151.71 117.398 151.953 117.398 152.242C117.398 152.531 117.3 152.774 117.104 152.97C116.908 153.166 116.67 153.264 116.39 153.264ZM117.174 154.286V162H115.578V154.286H117.174ZM121.132 155.588V159.858C121.132 160.147 121.197 160.357 121.328 160.488C121.468 160.609 121.701 160.67 122.028 160.67H123.008V162H121.748C121.029 162 120.478 161.832 120.096 161.496C119.713 161.16 119.522 160.614 119.522 159.858V155.588H118.612V154.286H119.522V152.368H121.132V154.286H123.008V155.588H121.132ZM127.825 162.126C127.097 162.126 126.439 161.963 125.851 161.636C125.263 161.3 124.801 160.833 124.465 160.236C124.129 159.629 123.961 158.929 123.961 158.136C123.961 157.352 124.133 156.657 124.479 156.05C124.824 155.443 125.295 154.977 125.893 154.65C126.49 154.323 127.157 154.16 127.895 154.16C128.632 154.16 129.299 154.323 129.897 154.65C130.494 154.977 130.965 155.443 131.311 156.05C131.656 156.657 131.829 157.352 131.829 158.136C131.829 158.92 131.651 159.615 131.297 160.222C130.942 160.829 130.457 161.3 129.841 161.636C129.234 161.963 128.562 162.126 127.825 162.126ZM127.825 160.74C128.235 160.74 128.618 160.642 128.973 160.446C129.337 160.25 129.631 159.956 129.855 159.564C130.079 159.172 130.191 158.696 130.191 158.136C130.191 157.576 130.083 157.105 129.869 156.722C129.654 156.33 129.369 156.036 129.015 155.84C128.66 155.644 128.277 155.546 127.867 155.546C127.456 155.546 127.073 155.644 126.719 155.84C126.373 156.036 126.098 156.33 125.893 156.722C125.687 157.105 125.585 157.576 125.585 158.136C125.585 158.967 125.795 159.611 126.215 160.068C126.644 160.516 127.181 160.74 127.825 160.74ZM135.002 155.406C135.236 155.014 135.544 154.711 135.926 154.496C136.318 154.272 136.78 154.16 137.312 154.16V155.812H136.906C136.281 155.812 135.805 155.971 135.478 156.288C135.161 156.605 135.002 157.156 135.002 157.94V162H133.406V154.286H135.002V155.406ZM145.723 154.286L140.991 165.626H139.339L140.907 161.874L137.869 154.286H139.647L141.817 160.166L144.071 154.286H145.723ZM148.678 160.082L146.984 163.946H145.948L146.942 160.082H148.678ZM164.562 154.286L162.168 162H160.488L158.934 156.302L157.38 162H155.7L153.292 154.286H154.916L156.526 160.488L158.164 154.286H159.83L161.398 160.46L162.994 154.286H164.562ZM172.825 157.954C172.825 158.243 172.806 158.505 172.769 158.738H166.875C166.922 159.354 167.15 159.849 167.561 160.222C167.972 160.595 168.476 160.782 169.073 160.782C169.932 160.782 170.538 160.423 170.893 159.704H172.615C172.382 160.413 171.957 160.997 171.341 161.454C170.734 161.902 169.978 162.126 169.073 162.126C168.336 162.126 167.673 161.963 167.085 161.636C166.506 161.3 166.049 160.833 165.713 160.236C165.386 159.629 165.223 158.929 165.223 158.136C165.223 157.343 165.382 156.647 165.699 156.05C166.026 155.443 166.478 154.977 167.057 154.65C167.645 154.323 168.317 154.16 169.073 154.16C169.801 154.16 170.45 154.319 171.019 154.636C171.588 154.953 172.032 155.401 172.349 155.98C172.666 156.549 172.825 157.207 172.825 157.954ZM171.159 157.45C171.15 156.862 170.94 156.391 170.529 156.036C170.118 155.681 169.61 155.504 169.003 155.504C168.452 155.504 167.981 155.681 167.589 156.036C167.197 156.381 166.964 156.853 166.889 157.45H171.159ZM181.872 162.126C181.144 162.126 180.486 161.963 179.898 161.636C179.31 161.3 178.848 160.833 178.512 160.236C178.176 159.629 178.008 158.929 178.008 158.136C178.008 157.352 178.18 156.657 178.526 156.05C178.871 155.443 179.342 154.977 179.94 154.65C180.537 154.323 181.204 154.16 181.942 154.16C182.679 154.16 183.346 154.323 183.944 154.65C184.541 154.977 185.012 155.443 185.358 156.05C185.703 156.657 185.876 157.352 185.876 158.136C185.876 158.92 185.698 159.615 185.344 160.222C184.989 160.829 184.504 161.3 183.888 161.636C183.281 161.963 182.609 162.126 181.872 162.126ZM181.872 160.74C182.282 160.74 182.665 160.642 183.02 160.446C183.384 160.25 183.678 159.956 183.902 159.564C184.126 159.172 184.238 158.696 184.238 158.136C184.238 157.576 184.13 157.105 183.916 156.722C183.701 156.33 183.416 156.036 183.062 155.84C182.707 155.644 182.324 155.546 181.914 155.546C181.503 155.546 181.12 155.644 180.766 155.84C180.42 156.036 180.145 156.33 179.94 156.722C179.734 157.105 179.632 157.576 179.632 158.136C179.632 158.967 179.842 159.611 180.262 160.068C180.691 160.516 181.228 160.74 181.872 160.74ZM190.687 155.588H189.259V162H187.649V155.588H186.739V154.286H187.649V153.74C187.649 152.853 187.883 152.209 188.349 151.808C188.825 151.397 189.567 151.192 190.575 151.192V152.522C190.09 152.522 189.749 152.615 189.553 152.802C189.357 152.979 189.259 153.292 189.259 153.74V154.286H190.687V155.588ZM195.336 155.588H193.908V162H192.298V155.588H191.388V154.286H192.298V153.74C192.298 152.853 192.531 152.209 192.998 151.808C193.474 151.397 194.216 151.192 195.224 151.192V152.522C194.738 152.522 194.398 152.615 194.202 152.802C194.006 152.979 193.908 153.292 193.908 153.74V154.286H195.336V155.588ZM203.82 157.954C203.82 158.243 203.802 158.505 203.764 158.738H197.87C197.917 159.354 198.146 159.849 198.556 160.222C198.967 160.595 199.471 160.782 200.068 160.782C200.927 160.782 201.534 160.423 201.888 159.704H203.61C203.377 160.413 202.952 160.997 202.336 161.454C201.73 161.902 200.974 162.126 200.068 162.126C199.331 162.126 198.668 161.963 198.08 161.636C197.502 161.3 197.044 160.833 196.708 160.236C196.382 159.629 196.218 158.929 196.218 158.136C196.218 157.343 196.377 156.647 196.694 156.05C197.021 155.443 197.474 154.977 198.052 154.65C198.64 154.323 199.312 154.16 200.068 154.16C200.796 154.16 201.445 154.319 202.014 154.636C202.584 154.953 203.027 155.401 203.344 155.98C203.662 156.549 203.82 157.207 203.82 157.954ZM202.154 157.45C202.145 156.862 201.935 156.391 201.524 156.036C201.114 155.681 200.605 155.504 199.998 155.504C199.448 155.504 198.976 155.681 198.584 156.036C198.192 156.381 197.959 156.853 197.884 157.45H202.154ZM206.987 155.406C207.22 155.014 207.528 154.711 207.911 154.496C208.303 154.272 208.765 154.16 209.297 154.16V155.812H208.891C208.265 155.812 207.789 155.971 207.463 156.288C207.145 156.605 206.987 157.156 206.987 157.94V162H205.391V154.286H206.987V155.406ZM214.362 158.136C214.362 157.343 214.52 156.647 214.838 156.05C215.164 155.443 215.612 154.977 216.182 154.65C216.751 154.323 217.404 154.16 218.142 154.16C219.075 154.16 219.845 154.384 220.452 154.832C221.068 155.271 221.483 155.901 221.698 156.722H219.976C219.836 156.339 219.612 156.041 219.304 155.826C218.996 155.611 218.608 155.504 218.142 155.504C217.488 155.504 216.966 155.737 216.574 156.204C216.191 156.661 216 157.305 216 158.136C216 158.967 216.191 159.615 216.574 160.082C216.966 160.549 217.488 160.782 218.142 160.782C219.066 160.782 219.677 160.376 219.976 159.564H221.698C221.474 160.348 221.054 160.973 220.438 161.44C219.822 161.897 219.056 162.126 218.142 162.126C217.404 162.126 216.751 161.963 216.182 161.636C215.612 161.3 215.164 160.833 214.838 160.236C214.52 159.629 214.362 158.929 214.362 158.136ZM226.634 162.126C225.906 162.126 225.248 161.963 224.66 161.636C224.072 161.3 223.61 160.833 223.274 160.236C222.938 159.629 222.77 158.929 222.77 158.136C222.77 157.352 222.943 156.657 223.288 156.05C223.634 155.443 224.105 154.977 224.702 154.65C225.3 154.323 225.967 154.16 226.704 154.16C227.442 154.16 228.109 154.323 228.706 154.65C229.304 154.977 229.775 155.443 230.12 156.05C230.466 156.657 230.638 157.352 230.638 158.136C230.638 158.92 230.461 159.615 230.106 160.222C229.752 160.829 229.266 161.3 228.65 161.636C228.044 161.963 227.372 162.126 226.634 162.126ZM226.634 160.74C227.045 160.74 227.428 160.642 227.782 160.446C228.146 160.25 228.44 159.956 228.664 159.564C228.888 159.172 229 158.696 229 158.136C229 157.576 228.893 157.105 228.678 156.722C228.464 156.33 228.179 156.036 227.824 155.84C227.47 155.644 227.087 155.546 226.676 155.546C226.266 155.546 225.883 155.644 225.528 155.84C225.183 156.036 224.908 156.33 224.702 156.722C224.497 157.105 224.394 157.576 224.394 158.136C224.394 158.967 224.604 159.611 225.024 160.068C225.454 160.516 225.99 160.74 226.634 160.74ZM236.108 154.16C236.715 154.16 237.256 154.286 237.732 154.538C238.217 154.79 238.595 155.163 238.866 155.658C239.137 156.153 239.272 156.75 239.272 157.45V162H237.69V157.688C237.69 156.997 237.517 156.47 237.172 156.106C236.827 155.733 236.355 155.546 235.758 155.546C235.161 155.546 234.685 155.733 234.33 156.106C233.985 156.47 233.812 156.997 233.812 157.688V162H232.216V154.286H233.812V155.168C234.073 154.851 234.405 154.603 234.806 154.426C235.217 154.249 235.651 154.16 236.108 154.16ZM244.108 162.126C243.501 162.126 242.955 162.019 242.47 161.804C241.994 161.58 241.616 161.281 241.336 160.908C241.056 160.525 240.906 160.101 240.888 159.634H242.54C242.568 159.961 242.722 160.236 243.002 160.46C243.291 160.675 243.65 160.782 244.08 160.782C244.528 160.782 244.873 160.698 245.116 160.53C245.368 160.353 245.494 160.129 245.494 159.858C245.494 159.569 245.354 159.354 245.074 159.214C244.803 159.074 244.369 158.92 243.772 158.752C243.193 158.593 242.722 158.439 242.358 158.29C241.994 158.141 241.676 157.912 241.406 157.604C241.144 157.296 241.014 156.89 241.014 156.386C241.014 155.975 241.135 155.602 241.378 155.266C241.62 154.921 241.966 154.65 242.414 154.454C242.871 154.258 243.394 154.16 243.982 154.16C244.859 154.16 245.564 154.384 246.096 154.832C246.637 155.271 246.926 155.873 246.964 156.638H245.368C245.34 156.293 245.2 156.017 244.948 155.812C244.696 155.607 244.355 155.504 243.926 155.504C243.506 155.504 243.184 155.583 242.96 155.742C242.736 155.901 242.624 156.111 242.624 156.372C242.624 156.577 242.698 156.75 242.848 156.89C242.997 157.03 243.179 157.142 243.394 157.226C243.608 157.301 243.926 157.399 244.346 157.52C244.906 157.669 245.363 157.823 245.718 157.982C246.082 158.131 246.394 158.355 246.656 158.654C246.917 158.953 247.052 159.349 247.062 159.844C247.062 160.283 246.94 160.675 246.698 161.02C246.455 161.365 246.11 161.636 245.662 161.832C245.223 162.028 244.705 162.126 244.108 162.126ZM255.772 154.286V162H254.176V161.09C253.924 161.407 253.593 161.659 253.182 161.846C252.781 162.023 252.352 162.112 251.894 162.112C251.288 162.112 250.742 161.986 250.256 161.734C249.78 161.482 249.402 161.109 249.122 160.614C248.852 160.119 248.716 159.522 248.716 158.822V154.286H250.298V158.584C250.298 159.275 250.471 159.807 250.816 160.18C251.162 160.544 251.633 160.726 252.23 160.726C252.828 160.726 253.299 160.544 253.644 160.18C253.999 159.807 254.176 159.275 254.176 158.584V154.286H255.772ZM259.474 151.64V162H257.878V151.64H259.474ZM263.432 155.588V159.858C263.432 160.147 263.497 160.357 263.628 160.488C263.768 160.609 264.001 160.67 264.328 160.67H265.308V162H264.048C263.329 162 262.778 161.832 262.396 161.496C262.013 161.16 261.822 160.614 261.822 159.858V155.588H260.912V154.286H261.822V152.368H263.432V154.286H265.308V155.588H263.432ZM267.591 153.264C267.301 153.264 267.059 153.166 266.863 152.97C266.667 152.774 266.569 152.531 266.569 152.242C266.569 151.953 266.667 151.71 266.863 151.514C267.059 151.318 267.301 151.22 267.591 151.22C267.871 151.22 268.109 151.318 268.305 151.514C268.501 151.71 268.599 151.953 268.599 152.242C268.599 152.531 268.501 152.774 268.305 152.97C268.109 153.166 267.871 153.264 267.591 153.264ZM268.375 154.286V162H266.779V154.286H268.375ZM274.362 154.16C274.969 154.16 275.51 154.286 275.986 154.538C276.471 154.79 276.849 155.163 277.12 155.658C277.391 156.153 277.526 156.75 277.526 157.45V162H275.944V157.688C275.944 156.997 275.771 156.47 275.426 156.106C275.081 155.733 274.609 155.546 274.012 155.546C273.415 155.546 272.939 155.733 272.584 156.106C272.239 156.47 272.066 156.997 272.066 157.688V162H270.47V154.286H272.066V155.168C272.327 154.851 272.659 154.603 273.06 154.426C273.471 154.249 273.905 154.16 274.362 154.16ZM282.67 154.16C283.267 154.16 283.794 154.281 284.252 154.524C284.718 154.757 285.082 155.051 285.344 155.406V154.286H286.954V162.126C286.954 162.835 286.804 163.465 286.506 164.016C286.207 164.576 285.773 165.015 285.204 165.332C284.644 165.649 283.972 165.808 283.188 165.808C282.142 165.808 281.274 165.561 280.584 165.066C279.893 164.581 279.501 163.918 279.408 163.078H280.99C281.111 163.479 281.368 163.801 281.76 164.044C282.161 164.296 282.637 164.422 283.188 164.422C283.832 164.422 284.35 164.226 284.742 163.834C285.143 163.442 285.344 162.873 285.344 162.126V160.838C285.073 161.202 284.704 161.51 284.238 161.762C283.78 162.005 283.258 162.126 282.67 162.126C281.998 162.126 281.382 161.958 280.822 161.622C280.271 161.277 279.832 160.801 279.506 160.194C279.188 159.578 279.03 158.883 279.03 158.108C279.03 157.333 279.188 156.647 279.506 156.05C279.832 155.453 280.271 154.991 280.822 154.664C281.382 154.328 281.998 154.16 282.67 154.16ZM285.344 158.136C285.344 157.604 285.232 157.142 285.008 156.75C284.793 156.358 284.508 156.059 284.154 155.854C283.799 155.649 283.416 155.546 283.006 155.546C282.595 155.546 282.212 155.649 281.858 155.854C281.503 156.05 281.214 156.344 280.99 156.736C280.775 157.119 280.668 157.576 280.668 158.108C280.668 158.64 280.775 159.107 280.99 159.508C281.214 159.909 281.503 160.217 281.858 160.432C282.222 160.637 282.604 160.74 283.006 160.74C283.416 160.74 283.799 160.637 284.154 160.432C284.508 160.227 284.793 159.928 285.008 159.536C285.232 159.135 285.344 158.668 285.344 158.136ZM23.85 183.126C23.2433 183.126 22.6973 183.019 22.212 182.804C21.736 182.58 21.358 182.281 21.078 181.908C20.798 181.525 20.6487 181.101 20.63 180.634H22.282C22.31 180.961 22.464 181.236 22.744 181.46C23.0333 181.675 23.3927 181.782 23.822 181.782C24.27 181.782 24.6153 181.698 24.858 181.53C25.11 181.353 25.236 181.129 25.236 180.858C25.236 180.569 25.096 180.354 24.816 180.214C24.5453 180.074 24.1113 179.92 23.514 179.752C22.9353 179.593 22.464 179.439 22.1 179.29C21.736 179.141 21.4187 178.912 21.148 178.604C20.8867 178.296 20.756 177.89 20.756 177.386C20.756 176.975 20.8773 176.602 21.12 176.266C21.3627 175.921 21.708 175.65 22.156 175.454C22.6133 175.258 23.136 175.16 23.724 175.16C24.6013 175.16 25.306 175.384 25.838 175.832C26.3793 176.271 26.6687 176.873 26.706 177.638H25.11C25.082 177.293 24.942 177.017 24.69 176.812C24.438 176.607 24.0973 176.504 23.668 176.504C23.248 176.504 22.926 176.583 22.702 176.742C22.478 176.901 22.366 177.111 22.366 177.372C22.366 177.577 22.4407 177.75 22.59 177.89C22.7393 178.03 22.9213 178.142 23.136 178.226C23.3507 178.301 23.668 178.399 24.088 178.52C24.648 178.669 25.1053 178.823 25.46 178.982C25.824 179.131 26.1367 179.355 26.398 179.654C26.6593 179.953 26.7947 180.349 26.804 180.844C26.804 181.283 26.6827 181.675 26.44 182.02C26.1973 182.365 25.852 182.636 25.404 182.832C24.9653 183.028 24.4473 183.126 23.85 183.126ZM35.5985 178.954C35.5985 179.243 35.5798 179.505 35.5425 179.738H29.6485C29.6952 180.354 29.9238 180.849 30.3345 181.222C30.7452 181.595 31.2492 181.782 31.8465 181.782C32.7052 181.782 33.3118 181.423 33.6665 180.704H35.3885C35.1552 181.413 34.7305 181.997 34.1145 182.454C33.5078 182.902 32.7518 183.126 31.8465 183.126C31.1092 183.126 30.4465 182.963 29.8585 182.636C29.2798 182.3 28.8225 181.833 28.4865 181.236C28.1598 180.629 27.9965 179.929 27.9965 179.136C27.9965 178.343 28.1552 177.647 28.4725 177.05C28.7992 176.443 29.2518 175.977 29.8305 175.65C30.4185 175.323 31.0905 175.16 31.8465 175.16C32.5745 175.16 33.2232 175.319 33.7925 175.636C34.3618 175.953 34.8052 176.401 35.1225 176.98C35.4398 177.549 35.5985 178.207 35.5985 178.954ZM33.9325 178.45C33.9232 177.862 33.7132 177.391 33.3025 177.036C32.8918 176.681 32.3832 176.504 31.7765 176.504C31.2258 176.504 30.7545 176.681 30.3625 177.036C29.9705 177.381 29.7372 177.853 29.6625 178.45H33.9325ZM38.7651 176.406C38.9985 176.014 39.3065 175.711 39.6891 175.496C40.0811 175.272 40.5431 175.16 41.0751 175.16V176.812H40.6691C40.0438 176.812 39.5678 176.971 39.2411 177.288C38.9238 177.605 38.7651 178.156 38.7651 178.94V183H37.1691V175.286H38.7651V176.406ZM45.5242 181.572L47.7082 175.286H49.4022L46.4622 183H44.5582L41.6322 175.286H43.3402L45.5242 181.572ZM51.4206 174.264C51.1313 174.264 50.8886 174.166 50.6926 173.97C50.4966 173.774 50.3986 173.531 50.3986 173.242C50.3986 172.953 50.4966 172.71 50.6926 172.514C50.8886 172.318 51.1313 172.22 51.4206 172.22C51.7006 172.22 51.9386 172.318 52.1346 172.514C52.3306 172.71 52.4286 172.953 52.4286 173.242C52.4286 173.531 52.3306 173.774 52.1346 173.97C51.9386 174.166 51.7006 174.264 51.4206 174.264ZM52.2046 175.286V183H50.6086V175.286H52.2046ZM53.768 179.136C53.768 178.343 53.9267 177.647 54.244 177.05C54.5707 176.443 55.0187 175.977 55.588 175.65C56.1573 175.323 56.8107 175.16 57.548 175.16C58.4813 175.16 59.2513 175.384 59.858 175.832C60.474 176.271 60.8893 176.901 61.104 177.722H59.382C59.242 177.339 59.018 177.041 58.71 176.826C58.402 176.611 58.0147 176.504 57.548 176.504C56.8947 176.504 56.372 176.737 55.98 177.204C55.5973 177.661 55.406 178.305 55.406 179.136C55.406 179.967 55.5973 180.615 55.98 181.082C56.372 181.549 56.8947 181.782 57.548 181.782C58.472 181.782 59.0833 181.376 59.382 180.564H61.104C60.88 181.348 60.46 181.973 59.844 182.44C59.228 182.897 58.4627 183.126 57.548 183.126C56.8107 183.126 56.1573 182.963 55.588 182.636C55.0187 182.3 54.5707 181.833 54.244 181.236C53.9267 180.629 53.768 179.929 53.768 179.136ZM69.7645 178.954C69.7645 179.243 69.7459 179.505 69.7085 179.738H63.8145C63.8612 180.354 64.0899 180.849 64.5005 181.222C64.9112 181.595 65.4152 181.782 66.0125 181.782C66.8712 181.782 67.4779 181.423 67.8325 180.704H69.5545C69.3212 181.413 68.8965 181.997 68.2805 182.454C67.6739 182.902 66.9179 183.126 66.0125 183.126C65.2752 183.126 64.6125 182.963 64.0245 182.636C63.4459 182.3 62.9885 181.833 62.6525 181.236C62.3259 180.629 62.1625 179.929 62.1625 179.136C62.1625 178.343 62.3212 177.647 62.6385 177.05C62.9652 176.443 63.4179 175.977 63.9965 175.65C64.5845 175.323 65.2565 175.16 66.0125 175.16C66.7405 175.16 67.3892 175.319 67.9585 175.636C68.5279 175.953 68.9712 176.401 69.2885 176.98C69.6059 177.549 69.7645 178.207 69.7645 178.954ZM68.0985 178.45C68.0892 177.862 67.8792 177.391 67.4685 177.036C67.0579 176.681 66.5492 176.504 65.9425 176.504C65.3919 176.504 64.9205 176.681 64.5285 177.036C64.1365 177.381 63.9032 177.853 63.8285 178.45H68.0985ZM74.1352 183.126C73.5285 183.126 72.9825 183.019 72.4972 182.804C72.0212 182.58 71.6432 182.281 71.3632 181.908C71.0832 181.525 70.9338 181.101 70.9152 180.634H72.5672C72.5952 180.961 72.7492 181.236 73.0292 181.46C73.3185 181.675 73.6778 181.782 74.1072 181.782C74.5552 181.782 74.9005 181.698 75.1432 181.53C75.3952 181.353 75.5212 181.129 75.5212 180.858C75.5212 180.569 75.3812 180.354 75.1012 180.214C74.8305 180.074 74.3965 179.92 73.7992 179.752C73.2205 179.593 72.7492 179.439 72.3852 179.29C72.0212 179.141 71.7038 178.912 71.4332 178.604C71.1718 178.296 71.0412 177.89 71.0412 177.386C71.0412 176.975 71.1625 176.602 71.4052 176.266C71.6478 175.921 71.9932 175.65 72.4412 175.454C72.8985 175.258 73.4212 175.16 74.0092 175.16C74.8865 175.16 75.5912 175.384 76.1232 175.832C76.6645 176.271 76.9538 176.873 76.9912 177.638H75.3952C75.3672 177.293 75.2272 177.017 74.9752 176.812C74.7232 176.607 74.3825 176.504 73.9532 176.504C73.5332 176.504 73.2112 176.583 72.9872 176.742C72.7632 176.901 72.6512 177.111 72.6512 177.372C72.6512 177.577 72.7258 177.75 72.8752 177.89C73.0245 178.03 73.2065 178.142 73.4212 178.226C73.6358 178.301 73.9532 178.399 74.3732 178.52C74.9332 178.669 75.3905 178.823 75.7452 178.982C76.1092 179.131 76.4218 179.355 76.6832 179.654C76.9445 179.953 77.0798 180.349 77.0892 180.844C77.0892 181.283 76.9678 181.675 76.7252 182.02C76.4825 182.365 76.1372 182.636 75.6892 182.832C75.2505 183.028 74.7325 183.126 74.1352 183.126ZM81.9184 179.108C81.9184 178.333 82.0771 177.647 82.3944 177.05C82.7211 176.453 83.1597 175.991 83.7104 175.664C84.2704 175.328 84.8864 175.16 85.5584 175.16C86.1651 175.16 86.6924 175.281 87.1404 175.524C87.5977 175.757 87.9617 176.051 88.2324 176.406V175.286H89.8424V183H88.2324V181.852C87.9617 182.216 87.5931 182.519 87.1264 182.762C86.6597 183.005 86.1277 183.126 85.5304 183.126C84.8677 183.126 84.2611 182.958 83.7104 182.622C83.1597 182.277 82.7211 181.801 82.3944 181.194C82.0771 180.578 81.9184 179.883 81.9184 179.108ZM88.2324 179.136C88.2324 178.604 88.1204 178.142 87.8964 177.75C87.6817 177.358 87.3971 177.059 87.0424 176.854C86.6877 176.649 86.3051 176.546 85.8944 176.546C85.4837 176.546 85.1011 176.649 84.7464 176.854C84.3917 177.05 84.1024 177.344 83.8784 177.736C83.6637 178.119 83.5564 178.576 83.5564 179.108C83.5564 179.64 83.6637 180.107 83.8784 180.508C84.1024 180.909 84.3917 181.217 84.7464 181.432C85.1104 181.637 85.4931 181.74 85.8944 181.74C86.3051 181.74 86.6877 181.637 87.0424 181.432C87.3971 181.227 87.6817 180.928 87.8964 180.536C88.1204 180.135 88.2324 179.668 88.2324 179.136ZM91.4067 179.136C91.4067 178.343 91.5653 177.647 91.8827 177.05C92.2093 176.443 92.6573 175.977 93.2267 175.65C93.796 175.323 94.4493 175.16 95.1867 175.16C96.12 175.16 96.89 175.384 97.4967 175.832C98.1127 176.271 98.528 176.901 98.7427 177.722H97.0207C96.8807 177.339 96.6567 177.041 96.3487 176.826C96.0407 176.611 95.6533 176.504 95.1867 176.504C94.5333 176.504 94.0107 176.737 93.6187 177.204C93.236 177.661 93.0447 178.305 93.0447 179.136C93.0447 179.967 93.236 180.615 93.6187 181.082C94.0107 181.549 94.5333 181.782 95.1867 181.782C96.1107 181.782 96.722 181.376 97.0207 180.564H98.7427C98.5187 181.348 98.0987 181.973 97.4827 182.44C96.8667 182.897 96.1013 183.126 95.1867 183.126C94.4493 183.126 93.796 182.963 93.2267 182.636C92.6573 182.3 92.2093 181.833 91.8827 181.236C91.5653 180.629 91.4067 179.929 91.4067 179.136ZM101.929 176.406C102.163 176.014 102.471 175.711 102.853 175.496C103.245 175.272 103.707 175.16 104.239 175.16V176.812H103.833C103.208 176.812 102.732 176.971 102.405 177.288C102.088 177.605 101.929 178.156 101.929 178.94V183H100.333V175.286H101.929V176.406ZM109.052 183.126C108.324 183.126 107.666 182.963 107.078 182.636C106.49 182.3 106.028 181.833 105.692 181.236C105.356 180.629 105.188 179.929 105.188 179.136C105.188 178.352 105.361 177.657 105.706 177.05C106.052 176.443 106.523 175.977 107.12 175.65C107.718 175.323 108.385 175.16 109.122 175.16C109.86 175.16 110.527 175.323 111.124 175.65C111.722 175.977 112.193 176.443 112.538 177.05C112.884 177.657 113.056 178.352 113.056 179.136C113.056 179.92 112.879 180.615 112.524 181.222C112.17 181.829 111.684 182.3 111.068 182.636C110.462 182.963 109.79 183.126 109.052 183.126ZM109.052 181.74C109.463 181.74 109.846 181.642 110.2 181.446C110.564 181.25 110.858 180.956 111.082 180.564C111.306 180.172 111.418 179.696 111.418 179.136C111.418 178.576 111.311 178.105 111.096 177.722C110.882 177.33 110.597 177.036 110.242 176.84C109.888 176.644 109.505 176.546 109.094 176.546C108.684 176.546 108.301 176.644 107.946 176.84C107.601 177.036 107.326 177.33 107.12 177.722C106.915 178.105 106.812 178.576 106.812 179.136C106.812 179.967 107.022 180.611 107.442 181.068C107.872 181.516 108.408 181.74 109.052 181.74ZM117.434 183.126C116.827 183.126 116.281 183.019 115.796 182.804C115.32 182.58 114.942 182.281 114.662 181.908C114.382 181.525 114.233 181.101 114.214 180.634H115.866C115.894 180.961 116.048 181.236 116.328 181.46C116.617 181.675 116.977 181.782 117.406 181.782C117.854 181.782 118.199 181.698 118.442 181.53C118.694 181.353 118.82 181.129 118.82 180.858C118.82 180.569 118.68 180.354 118.4 180.214C118.129 180.074 117.695 179.92 117.098 179.752C116.519 179.593 116.048 179.439 115.684 179.29C115.32 179.141 115.003 178.912 114.732 178.604C114.471 178.296 114.34 177.89 114.34 177.386C114.34 176.975 114.461 176.602 114.704 176.266C114.947 175.921 115.292 175.65 115.74 175.454C116.197 175.258 116.72 175.16 117.308 175.16C118.185 175.16 118.89 175.384 119.422 175.832C119.963 176.271 120.253 176.873 120.29 177.638H118.694C118.666 177.293 118.526 177.017 118.274 176.812C118.022 176.607 117.681 176.504 117.252 176.504C116.832 176.504 116.51 176.583 116.286 176.742C116.062 176.901 115.95 177.111 115.95 177.372C115.95 177.577 116.025 177.75 116.174 177.89C116.323 178.03 116.505 178.142 116.72 178.226C116.935 178.301 117.252 178.399 117.672 178.52C118.232 178.669 118.689 178.823 119.044 178.982C119.408 179.131 119.721 179.355 119.982 179.654C120.243 179.953 120.379 180.349 120.388 180.844C120.388 181.283 120.267 181.675 120.024 182.02C119.781 182.365 119.436 182.636 118.988 182.832C118.549 183.028 118.031 183.126 117.434 183.126ZM124.913 183.126C124.306 183.126 123.76 183.019 123.275 182.804C122.799 182.58 122.421 182.281 122.141 181.908C121.861 181.525 121.711 181.101 121.693 180.634H123.345C123.373 180.961 123.527 181.236 123.807 181.46C124.096 181.675 124.455 181.782 124.885 181.782C125.333 181.782 125.678 181.698 125.921 181.53C126.173 181.353 126.299 181.129 126.299 180.858C126.299 180.569 126.159 180.354 125.879 180.214C125.608 180.074 125.174 179.92 124.577 179.752C123.998 179.593 123.527 179.439 123.163 179.29C122.799 179.141 122.481 178.912 122.211 178.604C121.949 178.296 121.819 177.89 121.819 177.386C121.819 176.975 121.94 176.602 122.183 176.266C122.425 175.921 122.771 175.65 123.219 175.454C123.676 175.258 124.199 175.16 124.787 175.16C125.664 175.16 126.369 175.384 126.901 175.832C127.442 176.271 127.731 176.873 127.769 177.638H126.173C126.145 177.293 126.005 177.017 125.753 176.812C125.501 176.607 125.16 176.504 124.731 176.504C124.311 176.504 123.989 176.583 123.765 176.742C123.541 176.901 123.429 177.111 123.429 177.372C123.429 177.577 123.503 177.75 123.653 177.89C123.802 178.03 123.984 178.142 124.199 178.226C124.413 178.301 124.731 178.399 125.151 178.52C125.711 178.669 126.168 178.823 126.523 178.982C126.887 179.131 127.199 179.355 127.461 179.654C127.722 179.953 127.857 180.349 127.867 180.844C127.867 181.283 127.745 181.675 127.503 182.02C127.26 182.365 126.915 182.636 126.467 182.832C126.028 183.028 125.51 183.126 124.913 183.126ZM135.09 176.588V180.858C135.09 181.147 135.155 181.357 135.286 181.488C135.426 181.609 135.659 181.67 135.986 181.67H136.966V183H135.706C134.987 183 134.436 182.832 134.054 182.496C133.671 182.16 133.48 181.614 133.48 180.858V176.588H132.57V175.286H133.48V173.368H135.09V175.286H136.966V176.588H135.09ZM142.427 175.16C143.015 175.16 143.537 175.286 143.995 175.538C144.461 175.79 144.825 176.163 145.087 176.658C145.357 177.153 145.493 177.75 145.493 178.45V183H143.911V178.688C143.911 177.997 143.738 177.47 143.393 177.106C143.047 176.733 142.576 176.546 141.979 176.546C141.381 176.546 140.905 176.733 140.551 177.106C140.205 177.47 140.033 177.997 140.033 178.688V183H138.437V172.64H140.033V176.182C140.303 175.855 140.644 175.603 141.055 175.426C141.475 175.249 141.932 175.16 142.427 175.16ZM154.599 178.954C154.599 179.243 154.58 179.505 154.543 179.738H148.649C148.695 180.354 148.924 180.849 149.335 181.222C149.745 181.595 150.249 181.782 150.847 181.782C151.705 181.782 152.312 181.423 152.667 180.704H154.389C154.155 181.413 153.731 181.997 153.115 182.454C152.508 182.902 151.752 183.126 150.847 183.126C150.109 183.126 149.447 182.963 148.859 182.636C148.28 182.3 147.823 181.833 147.487 181.236C147.16 180.629 146.997 179.929 146.997 179.136C146.997 178.343 147.155 177.647 147.473 177.05C147.799 176.443 148.252 175.977 148.831 175.65C149.419 175.323 150.091 175.16 150.847 175.16C151.575 175.16 152.223 175.319 152.793 175.636C153.362 175.953 153.805 176.401 154.123 176.98C154.44 177.549 154.599 178.207 154.599 178.954ZM152.933 178.45C152.923 177.862 152.713 177.391 152.303 177.036C151.892 176.681 151.383 176.504 150.777 176.504C150.226 176.504 149.755 176.681 149.363 177.036C148.971 177.381 148.737 177.853 148.663 178.45H152.933ZM162.914 175.16C163.511 175.16 164.039 175.281 164.496 175.524C164.963 175.757 165.327 176.051 165.588 176.406V175.286H167.198V183.126C167.198 183.835 167.049 184.465 166.75 185.016C166.451 185.576 166.017 186.015 165.448 186.332C164.888 186.649 164.216 186.808 163.432 186.808C162.387 186.808 161.519 186.561 160.828 186.066C160.137 185.581 159.745 184.918 159.652 184.078H161.234C161.355 184.479 161.612 184.801 162.004 185.044C162.405 185.296 162.881 185.422 163.432 185.422C164.076 185.422 164.594 185.226 164.986 184.834C165.387 184.442 165.588 183.873 165.588 183.126V181.838C165.317 182.202 164.949 182.51 164.482 182.762C164.025 183.005 163.502 183.126 162.914 183.126C162.242 183.126 161.626 182.958 161.066 182.622C160.515 182.277 160.077 181.801 159.75 181.194C159.433 180.578 159.274 179.883 159.274 179.108C159.274 178.333 159.433 177.647 159.75 177.05C160.077 176.453 160.515 175.991 161.066 175.664C161.626 175.328 162.242 175.16 162.914 175.16ZM165.588 179.136C165.588 178.604 165.476 178.142 165.252 177.75C165.037 177.358 164.753 177.059 164.398 176.854C164.043 176.649 163.661 176.546 163.25 176.546C162.839 176.546 162.457 176.649 162.102 176.854C161.747 177.05 161.458 177.344 161.234 177.736C161.019 178.119 160.912 178.576 160.912 179.108C160.912 179.64 161.019 180.107 161.234 180.508C161.458 180.909 161.747 181.217 162.102 181.432C162.466 181.637 162.849 181.74 163.25 181.74C163.661 181.74 164.043 181.637 164.398 181.432C164.753 181.227 165.037 180.928 165.252 180.536C165.476 180.135 165.588 179.668 165.588 179.136ZM170.89 172.64V183H169.294V172.64H170.89ZM176.332 183.126C175.604 183.126 174.946 182.963 174.358 182.636C173.77 182.3 173.308 181.833 172.972 181.236C172.636 180.629 172.468 179.929 172.468 179.136C172.468 178.352 172.64 177.657 172.986 177.05C173.331 176.443 173.802 175.977 174.4 175.65C174.997 175.323 175.664 175.16 176.402 175.16C177.139 175.16 177.806 175.323 178.404 175.65C179.001 175.977 179.472 176.443 179.818 177.05C180.163 177.657 180.336 178.352 180.336 179.136C180.336 179.92 180.158 180.615 179.804 181.222C179.449 181.829 178.964 182.3 178.348 182.636C177.741 182.963 177.069 183.126 176.332 183.126ZM176.332 181.74C176.742 181.74 177.125 181.642 177.48 181.446C177.844 181.25 178.138 180.956 178.362 180.564C178.586 180.172 178.698 179.696 178.698 179.136C178.698 178.576 178.59 178.105 178.376 177.722C178.161 177.33 177.876 177.036 177.522 176.84C177.167 176.644 176.784 176.546 176.374 176.546C175.963 176.546 175.58 176.644 175.226 176.84C174.88 177.036 174.605 177.33 174.4 177.722C174.194 178.105 174.092 178.576 174.092 179.136C174.092 179.967 174.302 180.611 174.722 181.068C175.151 181.516 175.688 181.74 176.332 181.74ZM183.509 176.434C183.78 176.061 184.149 175.757 184.615 175.524C185.091 175.281 185.619 175.16 186.197 175.16C186.879 175.16 187.495 175.323 188.045 175.65C188.596 175.977 189.03 176.443 189.347 177.05C189.665 177.647 189.823 178.333 189.823 179.108C189.823 179.883 189.665 180.578 189.347 181.194C189.03 181.801 188.591 182.277 188.031 182.622C187.481 182.958 186.869 183.126 186.197 183.126C185.6 183.126 185.068 183.009 184.601 182.776C184.144 182.543 183.78 182.244 183.509 181.88V183H181.913V172.64H183.509V176.434ZM188.199 179.108C188.199 178.576 188.087 178.119 187.863 177.736C187.649 177.344 187.359 177.05 186.995 176.854C186.641 176.649 186.258 176.546 185.847 176.546C185.446 176.546 185.063 176.649 184.699 176.854C184.345 177.059 184.055 177.358 183.831 177.75C183.617 178.142 183.509 178.604 183.509 179.136C183.509 179.668 183.617 180.135 183.831 180.536C184.055 180.928 184.345 181.227 184.699 181.432C185.063 181.637 185.446 181.74 185.847 181.74C186.258 181.74 186.641 181.637 186.995 181.432C187.359 181.217 187.649 180.909 187.863 180.508C188.087 180.107 188.199 179.64 188.199 179.108ZM198.472 178.954C198.472 179.243 198.453 179.505 198.416 179.738H192.522C192.568 180.354 192.797 180.849 193.208 181.222C193.618 181.595 194.122 181.782 194.72 181.782C195.578 181.782 196.185 181.423 196.54 180.704H198.262C198.028 181.413 197.604 181.997 196.988 182.454C196.381 182.902 195.625 183.126 194.72 183.126C193.982 183.126 193.32 182.963 192.732 182.636C192.153 182.3 191.696 181.833 191.36 181.236C191.033 180.629 190.87 179.929 190.87 179.136C190.87 178.343 191.028 177.647 191.346 177.05C191.672 176.443 192.125 175.977 192.704 175.65C193.292 175.323 193.964 175.16 194.72 175.16C195.448 175.16 196.096 175.319 196.666 175.636C197.235 175.953 197.678 176.401 197.996 176.98C198.313 177.549 198.472 178.207 198.472 178.954ZM196.806 178.45C196.796 177.862 196.586 177.391 196.176 177.036C195.765 176.681 195.256 176.504 194.65 176.504C194.099 176.504 193.628 176.681 193.236 177.036C192.844 177.381 192.61 177.853 192.536 178.45H196.806ZM200.686 183.098C200.397 183.098 200.154 183 199.958 182.804C199.762 182.608 199.664 182.365 199.664 182.076C199.664 181.787 199.762 181.544 199.958 181.348C200.154 181.152 200.397 181.054 200.686 181.054C200.966 181.054 201.204 181.152 201.4 181.348C201.596 181.544 201.694 181.787 201.694 182.076C201.694 182.365 201.596 182.608 201.4 182.804C201.204 183 200.966 183.098 200.686 183.098Z" fill="#2E2E2E"/>
<defs>
<clipPath id="clip0_105_449">
<rect width="35" height="35" fill="white" transform="translate(28 18)"/>
</clipPath>
</defs>
</svg>
