<svg width="297" height="335" viewBox="0 0 297 335" fill="none" xmlns="http://www.w3.org/2000/svg">
<rect y="10" width="287" height="325" rx="10" fill="#2E2E2E"/>
<rect x="10.5" y="0.5" width="286" height="324" rx="9.5" fill="#EDECFF" stroke="#9F9BD5"/>
<line x1="22" y1="137.5" x2="285" y2="137.5" stroke="#2E2E2E" stroke-dasharray="3 3"/>
<path d="M32.42 30H29.342L24.194 22.206V30H21.116V17.364H24.194L29.342 25.194V17.364H32.42V30ZM37.7292 19.83V22.386H41.8512V24.762H37.7292V27.534H42.3912V30H34.6512V17.364H42.3912V19.83H37.7292ZM61.7774 17.364L58.4834 30H54.7574L52.7414 21.684L50.6534 30H46.9274L43.7234 17.364H47.0174L48.8354 26.562L51.0854 17.364H54.4694L56.6294 26.562L58.4654 17.364H61.7774ZM75.0555 17.364V25.968C75.0555 27.3 74.6775 28.326 73.9215 29.046C73.1775 29.766 72.1695 30.126 70.8975 30.126C69.5655 30.126 68.4975 29.748 67.6935 28.992C66.8895 28.236 66.4875 27.162 66.4875 25.77H69.5475C69.5475 26.298 69.6555 26.7 69.8715 26.976C70.0875 27.24 70.3995 27.372 70.8075 27.372C71.1795 27.372 71.4675 27.252 71.6715 27.012C71.8755 26.772 71.9775 26.424 71.9775 25.968V17.364H75.0555ZM80.6198 19.83V22.386H84.7418V24.762H80.6198V27.534H85.2818V30H77.5418V17.364H85.2818V19.83H80.6198ZM93.7241 30L91.0961 25.23H90.3581V30H87.2801V17.364H92.4461C93.4421 17.364 94.2881 17.538 94.9841 17.886C95.6921 18.234 96.2201 18.714 96.5681 19.326C96.9161 19.926 97.0901 20.598 97.0901 21.342C97.0901 22.182 96.8501 22.932 96.3701 23.592C95.9021 24.252 95.2061 24.72 94.2821 24.996L97.1981 30H93.7241ZM90.3581 23.052H92.2661C92.8301 23.052 93.2501 22.914 93.5261 22.638C93.8141 22.362 93.9581 21.972 93.9581 21.468C93.9581 20.988 93.8141 20.61 93.5261 20.334C93.2501 20.058 92.8301 19.92 92.2661 19.92H90.3581V23.052ZM103.594 30.126C102.67 30.126 101.842 29.976 101.11 29.676C100.378 29.376 99.7903 28.932 99.3463 28.344C98.9143 27.756 98.6863 27.048 98.6623 26.22H101.938C101.986 26.688 102.148 27.048 102.424 27.3C102.7 27.54 103.06 27.66 103.504 27.66C103.96 27.66 104.32 27.558 104.584 27.354C104.848 27.138 104.98 26.844 104.98 26.472C104.98 26.16 104.872 25.902 104.656 25.698C104.452 25.494 104.194 25.326 103.882 25.194C103.582 25.062 103.15 24.912 102.586 24.744C101.77 24.492 101.104 24.24 100.588 23.988C100.072 23.736 99.6283 23.364 99.2563 22.872C98.8843 22.38 98.6983 21.738 98.6983 20.946C98.6983 19.77 99.1243 18.852 99.9763 18.192C100.828 17.52 101.938 17.184 103.306 17.184C104.698 17.184 105.82 17.52 106.672 18.192C107.524 18.852 107.98 19.776 108.04 20.964H104.71C104.686 20.556 104.536 20.238 104.26 20.01C103.984 19.77 103.63 19.65 103.198 19.65C102.826 19.65 102.526 19.752 102.298 19.956C102.07 20.148 101.956 20.43 101.956 20.802C101.956 21.21 102.148 21.528 102.532 21.756C102.916 21.984 103.516 22.23 104.332 22.494C105.148 22.77 105.808 23.034 106.312 23.286C106.828 23.538 107.272 23.904 107.644 24.384C108.016 24.864 108.202 25.482 108.202 26.238C108.202 26.958 108.016 27.612 107.644 28.2C107.284 28.788 106.756 29.256 106.06 29.604C105.364 29.952 104.542 30.126 103.594 30.126ZM113.174 19.83V22.386H117.296V24.762H113.174V27.534H117.836V30H110.096V17.364H117.836V19.83H113.174ZM130.671 17.364L126.297 25.824V30H123.219V25.824L118.845 17.364H122.337L124.785 22.656L127.215 17.364H130.671ZM143.375 23.52C144.107 23.676 144.695 24.042 145.139 24.618C145.583 25.182 145.805 25.83 145.805 26.562C145.805 27.618 145.433 28.458 144.689 29.082C143.957 29.694 142.931 30 141.611 30H135.725V17.364H141.413C142.697 17.364 143.699 17.658 144.419 18.246C145.151 18.834 145.517 19.632 145.517 20.64C145.517 21.384 145.319 22.002 144.923 22.494C144.539 22.986 144.023 23.328 143.375 23.52ZM138.803 22.476H140.819C141.323 22.476 141.707 22.368 141.971 22.152C142.247 21.924 142.385 21.594 142.385 21.162C142.385 20.73 142.247 20.4 141.971 20.172C141.707 19.944 141.323 19.83 140.819 19.83H138.803V22.476ZM141.071 27.516C141.587 27.516 141.983 27.402 142.259 27.174C142.547 26.934 142.691 26.592 142.691 26.148C142.691 25.704 142.541 25.356 142.241 25.104C141.953 24.852 141.551 24.726 141.035 24.726H138.803V27.516H141.071ZM157.509 19.956V30H154.431V28.632C154.119 29.076 153.693 29.436 153.153 29.712C152.625 29.976 152.037 30.108 151.389 30.108C150.621 30.108 149.943 29.94 149.355 29.604C148.767 29.256 148.311 28.758 147.987 28.11C147.663 27.462 147.501 26.7 147.501 25.824V19.956H150.561V25.41C150.561 26.082 150.735 26.604 151.083 26.976C151.431 27.348 151.899 27.534 152.487 27.534C153.087 27.534 153.561 27.348 153.909 26.976C154.257 26.604 154.431 26.082 154.431 25.41V19.956H157.509ZM163.806 30.144C162.93 30.144 162.15 29.994 161.466 29.694C160.782 29.394 160.242 28.986 159.846 28.47C159.45 27.942 159.228 27.354 159.18 26.706H162.222C162.258 27.054 162.42 27.336 162.708 27.552C162.996 27.768 163.35 27.876 163.77 27.876C164.154 27.876 164.448 27.804 164.652 27.66C164.868 27.504 164.976 27.306 164.976 27.066C164.976 26.778 164.826 26.568 164.526 26.436C164.226 26.292 163.74 26.136 163.068 25.968C162.348 25.8 161.748 25.626 161.268 25.446C160.788 25.254 160.374 24.96 160.026 24.564C159.678 24.156 159.504 23.61 159.504 22.926C159.504 22.35 159.66 21.828 159.972 21.36C160.296 20.88 160.764 20.502 161.376 20.226C162 19.95 162.738 19.812 163.59 19.812C164.85 19.812 165.84 20.124 166.56 20.748C167.292 21.372 167.712 22.2 167.82 23.232H164.976C164.928 22.884 164.772 22.608 164.508 22.404C164.256 22.2 163.92 22.098 163.5 22.098C163.14 22.098 162.864 22.17 162.672 22.314C162.48 22.446 162.384 22.632 162.384 22.872C162.384 23.16 162.534 23.376 162.834 23.52C163.146 23.664 163.626 23.808 164.274 23.952C165.018 24.144 165.624 24.336 166.092 24.528C166.56 24.708 166.968 25.008 167.316 25.428C167.676 25.836 167.862 26.388 167.874 27.084C167.874 27.672 167.706 28.2 167.37 28.668C167.046 29.124 166.572 29.484 165.948 29.748C165.336 30.012 164.622 30.144 163.806 30.144ZM171.305 18.912C170.765 18.912 170.321 18.756 169.973 18.444C169.637 18.12 169.469 17.724 169.469 17.256C169.469 16.776 169.637 16.38 169.973 16.068C170.321 15.744 170.765 15.582 171.305 15.582C171.833 15.582 172.265 15.744 172.601 16.068C172.949 16.38 173.123 16.776 173.123 17.256C173.123 17.724 172.949 18.12 172.601 18.444C172.265 18.756 171.833 18.912 171.305 18.912ZM172.835 19.956V30H169.757V19.956H172.835ZM181.185 19.848C182.361 19.848 183.297 20.232 183.993 21C184.701 21.756 185.055 22.8 185.055 24.132V30H181.995V24.546C181.995 23.874 181.821 23.352 181.473 22.98C181.125 22.608 180.657 22.422 180.069 22.422C179.481 22.422 179.013 22.608 178.665 22.98C178.317 23.352 178.143 23.874 178.143 24.546V30H175.065V19.956H178.143V21.288C178.455 20.844 178.875 20.496 179.403 20.244C179.931 19.98 180.525 19.848 181.185 19.848ZM196.662 24.816C196.662 25.104 196.644 25.404 196.608 25.716H189.642C189.69 26.34 189.888 26.82 190.236 27.156C190.596 27.48 191.034 27.642 191.55 27.642C192.318 27.642 192.852 27.318 193.152 26.67H196.428C196.26 27.33 195.954 27.924 195.51 28.452C195.078 28.98 194.532 29.394 193.872 29.694C193.212 29.994 192.474 30.144 191.658 30.144C190.674 30.144 189.798 29.934 189.03 29.514C188.262 29.094 187.662 28.494 187.23 27.714C186.798 26.934 186.582 26.022 186.582 24.978C186.582 23.934 186.792 23.022 187.212 22.242C187.644 21.462 188.244 20.862 189.012 20.442C189.78 20.022 190.662 19.812 191.658 19.812C192.63 19.812 193.494 20.016 194.25 20.424C195.006 20.832 195.594 21.414 196.014 22.17C196.446 22.926 196.662 23.808 196.662 24.816ZM193.512 24.006C193.512 23.478 193.332 23.058 192.972 22.746C192.612 22.434 192.162 22.278 191.622 22.278C191.106 22.278 190.668 22.428 190.308 22.728C189.96 23.028 189.744 23.454 189.66 24.006H193.512ZM202.372 30.144C201.496 30.144 200.716 29.994 200.032 29.694C199.348 29.394 198.808 28.986 198.412 28.47C198.016 27.942 197.794 27.354 197.746 26.706H200.788C200.824 27.054 200.986 27.336 201.274 27.552C201.562 27.768 201.916 27.876 202.336 27.876C202.72 27.876 203.014 27.804 203.218 27.66C203.434 27.504 203.542 27.306 203.542 27.066C203.542 26.778 203.392 26.568 203.092 26.436C202.792 26.292 202.306 26.136 201.634 25.968C200.914 25.8 200.314 25.626 199.834 25.446C199.354 25.254 198.94 24.96 198.592 24.564C198.244 24.156 198.07 23.61 198.07 22.926C198.07 22.35 198.226 21.828 198.538 21.36C198.862 20.88 199.33 20.502 199.942 20.226C200.566 19.95 201.304 19.812 202.156 19.812C203.416 19.812 204.406 20.124 205.126 20.748C205.858 21.372 206.278 22.2 206.386 23.232H203.542C203.494 22.884 203.338 22.608 203.074 22.404C202.822 22.2 202.486 22.098 202.066 22.098C201.706 22.098 201.43 22.17 201.238 22.314C201.046 22.446 200.95 22.632 200.95 22.872C200.95 23.16 201.1 23.376 201.4 23.52C201.712 23.664 202.192 23.808 202.84 23.952C203.584 24.144 204.19 24.336 204.658 24.528C205.126 24.708 205.534 25.008 205.882 25.428C206.242 25.836 206.428 26.388 206.44 27.084C206.44 27.672 206.272 28.2 205.936 28.668C205.612 29.124 205.138 29.484 204.514 29.748C203.902 30.012 203.188 30.144 202.372 30.144ZM212.409 30.144C211.533 30.144 210.753 29.994 210.069 29.694C209.385 29.394 208.845 28.986 208.449 28.47C208.053 27.942 207.831 27.354 207.783 26.706H210.825C210.861 27.054 211.023 27.336 211.311 27.552C211.599 27.768 211.953 27.876 212.373 27.876C212.757 27.876 213.051 27.804 213.255 27.66C213.471 27.504 213.579 27.306 213.579 27.066C213.579 26.778 213.429 26.568 213.129 26.436C212.829 26.292 212.343 26.136 211.671 25.968C210.951 25.8 210.351 25.626 209.871 25.446C209.391 25.254 208.977 24.96 208.629 24.564C208.281 24.156 208.107 23.61 208.107 22.926C208.107 22.35 208.263 21.828 208.575 21.36C208.899 20.88 209.367 20.502 209.979 20.226C210.603 19.95 211.341 19.812 212.193 19.812C213.453 19.812 214.443 20.124 215.163 20.748C215.895 21.372 216.315 22.2 216.423 23.232H213.579C213.531 22.884 213.375 22.608 213.111 22.404C212.859 22.2 212.523 22.098 212.103 22.098C211.743 22.098 211.467 22.17 211.275 22.314C211.083 22.446 210.987 22.632 210.987 22.872C210.987 23.16 211.137 23.376 211.437 23.52C211.749 23.664 212.229 23.808 212.877 23.952C213.621 24.144 214.227 24.336 214.695 24.528C215.163 24.708 215.571 25.008 215.919 25.428C216.279 25.836 216.465 26.388 216.477 27.084C216.477 27.672 216.309 28.2 215.973 28.668C215.649 29.124 215.175 29.484 214.551 29.748C213.939 30.012 213.225 30.144 212.409 30.144ZM24.194 44.364V57H21.116V44.364H24.194ZM32.5446 46.848C33.7206 46.848 34.6566 47.232 35.3526 48C36.0606 48.756 36.4146 49.8 36.4146 51.132V57H33.3546V51.546C33.3546 50.874 33.1806 50.352 32.8326 49.98C32.4846 49.608 32.0166 49.422 31.4286 49.422C30.8406 49.422 30.3726 49.608 30.0246 49.98C29.6766 50.352 29.5026 50.874 29.5026 51.546V57H26.4246V46.956H29.5026V48.288C29.8146 47.844 30.2346 47.496 30.7626 47.244C31.2906 46.98 31.8846 46.848 32.5446 46.848ZM43.0715 54.12L45.2495 46.956H48.5255L44.9615 57H41.1635L37.5995 46.956H40.8935L43.0715 54.12ZM59.2891 51.816C59.2891 52.104 59.2711 52.404 59.2351 52.716H52.2691C52.3171 53.34 52.5151 53.82 52.8631 54.156C53.2231 54.48 53.6611 54.642 54.1771 54.642C54.9451 54.642 55.4791 54.318 55.7791 53.67H59.0551C58.8871 54.33 58.5811 54.924 58.1371 55.452C57.7051 55.98 57.1591 56.394 56.4991 56.694C55.8391 56.994 55.1011 57.144 54.2851 57.144C53.3011 57.144 52.4251 56.934 51.6571 56.514C50.8891 56.094 50.2891 55.494 49.8571 54.714C49.4251 53.934 49.2091 53.022 49.2091 51.978C49.2091 50.934 49.4191 50.022 49.8391 49.242C50.2711 48.462 50.8711 47.862 51.6391 47.442C52.4071 47.022 53.2891 46.812 54.2851 46.812C55.2571 46.812 56.1211 47.016 56.8771 47.424C57.6331 47.832 58.2211 48.414 58.6411 49.17C59.0731 49.926 59.2891 50.808 59.2891 51.816ZM56.1391 51.006C56.1391 50.478 55.9591 50.058 55.5991 49.746C55.2391 49.434 54.7891 49.278 54.2491 49.278C53.7331 49.278 53.2951 49.428 52.9351 49.728C52.5871 50.028 52.3711 50.454 52.2871 51.006H56.1391ZM64.9989 57.144C64.1229 57.144 63.3429 56.994 62.6589 56.694C61.9749 56.394 61.4349 55.986 61.0389 55.47C60.6429 54.942 60.4209 54.354 60.3729 53.706H63.4149C63.4509 54.054 63.6129 54.336 63.9009 54.552C64.1889 54.768 64.5429 54.876 64.9629 54.876C65.3469 54.876 65.6409 54.804 65.8449 54.66C66.0609 54.504 66.1689 54.306 66.1689 54.066C66.1689 53.778 66.0189 53.568 65.7189 53.436C65.4189 53.292 64.9329 53.136 64.2609 52.968C63.5409 52.8 62.9409 52.626 62.4609 52.446C61.9809 52.254 61.5669 51.96 61.2189 51.564C60.8709 51.156 60.6969 50.61 60.6969 49.926C60.6969 49.35 60.8529 48.828 61.1649 48.36C61.4889 47.88 61.9569 47.502 62.5689 47.226C63.1929 46.95 63.9309 46.812 64.7829 46.812C66.0429 46.812 67.0329 47.124 67.7529 47.748C68.4849 48.372 68.9049 49.2 69.0129 50.232H66.1689C66.1209 49.884 65.9649 49.608 65.7009 49.404C65.4489 49.2 65.1129 49.098 64.6929 49.098C64.3329 49.098 64.0569 49.17 63.8649 49.314C63.6729 49.446 63.5769 49.632 63.5769 49.872C63.5769 50.16 63.7269 50.376 64.0269 50.52C64.3389 50.664 64.8189 50.808 65.4669 50.952C66.2109 51.144 66.8169 51.336 67.2849 51.528C67.7529 51.708 68.1609 52.008 68.5089 52.428C68.8689 52.836 69.0549 53.388 69.0669 54.084C69.0669 54.672 68.8989 55.2 68.5629 55.668C68.2389 56.124 67.7649 56.484 67.1409 56.748C66.5289 57.012 65.8149 57.144 64.9989 57.144ZM76.548 54.39V57H74.982C73.866 57 72.996 56.73 72.372 56.19C71.748 55.638 71.436 54.744 71.436 53.508V49.512H70.212V46.956H71.436V44.508H74.514V46.956H76.53V49.512H74.514V53.544C74.514 53.844 74.586 54.06 74.73 54.192C74.874 54.324 75.114 54.39 75.45 54.39H76.548ZM91.0785 46.848C92.3265 46.848 93.3165 47.226 94.0485 47.982C94.7925 48.738 95.1645 49.788 95.1645 51.132V57H92.1045V51.546C92.1045 50.898 91.9305 50.4 91.5825 50.052C91.2465 49.692 90.7785 49.512 90.1785 49.512C89.5785 49.512 89.1045 49.692 88.7565 50.052C88.4205 50.4 88.2525 50.898 88.2525 51.546V57H85.1925V51.546C85.1925 50.898 85.0185 50.4 84.6705 50.052C84.3345 49.692 83.8665 49.512 83.2665 49.512C82.6665 49.512 82.1925 49.692 81.8445 50.052C81.5085 50.4 81.3405 50.898 81.3405 51.546V57H78.2625V46.956H81.3405V48.216C81.6525 47.796 82.0605 47.466 82.5645 47.226C83.0685 46.974 83.6385 46.848 84.2745 46.848C85.0305 46.848 85.7025 47.01 86.2905 47.334C86.8905 47.658 87.3585 48.12 87.6945 48.72C88.0425 48.168 88.5165 47.718 89.1165 47.37C89.7165 47.022 90.3705 46.848 91.0785 46.848ZM106.785 51.816C106.785 52.104 106.767 52.404 106.731 52.716H99.7652C99.8132 53.34 100.011 53.82 100.359 54.156C100.719 54.48 101.157 54.642 101.673 54.642C102.441 54.642 102.975 54.318 103.275 53.67H106.551C106.383 54.33 106.077 54.924 105.633 55.452C105.201 55.98 104.655 56.394 103.995 56.694C103.335 56.994 102.597 57.144 101.781 57.144C100.797 57.144 99.9212 56.934 99.1532 56.514C98.3852 56.094 97.7852 55.494 97.3532 54.714C96.9212 53.934 96.7052 53.022 96.7052 51.978C96.7052 50.934 96.9152 50.022 97.3352 49.242C97.7672 48.462 98.3672 47.862 99.1352 47.442C99.9032 47.022 100.785 46.812 101.781 46.812C102.753 46.812 103.617 47.016 104.373 47.424C105.129 47.832 105.717 48.414 106.137 49.17C106.569 49.926 106.785 50.808 106.785 51.816ZM103.635 51.006C103.635 50.478 103.455 50.058 103.095 49.746C102.735 49.434 102.285 49.278 101.745 49.278C101.229 49.278 100.791 49.428 100.431 49.728C100.083 50.028 99.8672 50.454 99.7832 51.006H103.635ZM114.529 46.848C115.705 46.848 116.641 47.232 117.337 48C118.045 48.756 118.399 49.8 118.399 51.132V57H115.339V51.546C115.339 50.874 115.165 50.352 114.817 49.98C114.469 49.608 114.001 49.422 113.413 49.422C112.825 49.422 112.357 49.608 112.009 49.98C111.661 50.352 111.487 50.874 111.487 51.546V57H108.409V46.956H111.487V48.288C111.799 47.844 112.219 47.496 112.747 47.244C113.275 46.98 113.869 46.848 114.529 46.848ZM126.136 54.39V57H124.57C123.454 57 122.584 56.73 121.96 56.19C121.336 55.638 121.024 54.744 121.024 53.508V49.512H119.8V46.956H121.024V44.508H124.102V46.956H126.118V49.512H124.102V53.544C124.102 53.844 124.174 54.06 124.318 54.192C124.462 54.324 124.702 54.39 125.038 54.39H126.136ZM137.641 57.126C136.453 57.126 135.361 56.85 134.365 56.298C133.381 55.746 132.595 54.978 132.007 53.994C131.431 52.998 131.143 51.882 131.143 50.646C131.143 49.41 131.431 48.3 132.007 47.316C132.595 46.332 133.381 45.564 134.365 45.012C135.361 44.46 136.453 44.184 137.641 44.184C138.829 44.184 139.915 44.46 140.899 45.012C141.895 45.564 142.675 46.332 143.239 47.316C143.815 48.3 144.103 49.41 144.103 50.646C144.103 51.882 143.815 52.998 143.239 53.994C142.663 54.978 141.883 55.746 140.899 56.298C139.915 56.85 138.829 57.126 137.641 57.126ZM137.641 54.318C138.649 54.318 139.453 53.982 140.053 53.31C140.665 52.638 140.971 51.75 140.971 50.646C140.971 49.53 140.665 48.642 140.053 47.982C139.453 47.31 138.649 46.974 137.641 46.974C136.621 46.974 135.805 47.304 135.193 47.964C134.593 48.624 134.293 49.518 134.293 50.646C134.293 51.762 134.593 52.656 135.193 53.328C135.805 53.988 136.621 54.318 137.641 54.318ZM148.893 48.378C149.193 47.91 149.607 47.532 150.135 47.244C150.663 46.956 151.281 46.812 151.989 46.812C152.817 46.812 153.567 47.022 154.239 47.442C154.911 47.862 155.439 48.462 155.823 49.242C156.219 50.022 156.417 50.928 156.417 51.96C156.417 52.992 156.219 53.904 155.823 54.696C155.439 55.476 154.911 56.082 154.239 56.514C153.567 56.934 152.817 57.144 151.989 57.144C151.293 57.144 150.675 57 150.135 56.712C149.607 56.424 149.193 56.052 148.893 55.596V61.788H145.815V46.956H148.893V48.378ZM153.285 51.96C153.285 51.192 153.069 50.592 152.637 50.16C152.217 49.716 151.695 49.494 151.071 49.494C150.459 49.494 149.937 49.716 149.505 50.16C149.085 50.604 148.875 51.21 148.875 51.978C148.875 52.746 149.085 53.352 149.505 53.796C149.937 54.24 150.459 54.462 151.071 54.462C151.683 54.462 152.205 54.24 152.637 53.796C153.069 53.34 153.285 52.728 153.285 51.96ZM161.11 48.378C161.41 47.91 161.824 47.532 162.352 47.244C162.88 46.956 163.498 46.812 164.206 46.812C165.034 46.812 165.784 47.022 166.456 47.442C167.128 47.862 167.656 48.462 168.04 49.242C168.436 50.022 168.634 50.928 168.634 51.96C168.634 52.992 168.436 53.904 168.04 54.696C167.656 55.476 167.128 56.082 166.456 56.514C165.784 56.934 165.034 57.144 164.206 57.144C163.51 57.144 162.892 57 162.352 56.712C161.824 56.424 161.41 56.052 161.11 55.596V61.788H158.032V46.956H161.11V48.378ZM165.502 51.96C165.502 51.192 165.286 50.592 164.854 50.16C164.434 49.716 163.912 49.494 163.288 49.494C162.676 49.494 162.154 49.716 161.722 50.16C161.302 50.604 161.092 51.21 161.092 51.978C161.092 52.746 161.302 53.352 161.722 53.796C162.154 54.24 162.676 54.462 163.288 54.462C163.9 54.462 164.422 54.24 164.854 53.796C165.286 53.34 165.502 52.728 165.502 51.96ZM174.821 57.144C173.837 57.144 172.949 56.934 172.157 56.514C171.377 56.094 170.759 55.494 170.303 54.714C169.859 53.934 169.637 53.022 169.637 51.978C169.637 50.946 169.865 50.04 170.321 49.26C170.777 48.468 171.401 47.862 172.193 47.442C172.985 47.022 173.873 46.812 174.857 46.812C175.841 46.812 176.729 47.022 177.521 47.442C178.313 47.862 178.937 48.468 179.393 49.26C179.849 50.04 180.077 50.946 180.077 51.978C180.077 53.01 179.843 53.922 179.375 54.714C178.919 55.494 178.289 56.094 177.485 56.514C176.693 56.934 175.805 57.144 174.821 57.144ZM174.821 54.48C175.409 54.48 175.907 54.264 176.315 53.832C176.735 53.4 176.945 52.782 176.945 51.978C176.945 51.174 176.741 50.556 176.333 50.124C175.937 49.692 175.445 49.476 174.857 49.476C174.257 49.476 173.759 49.692 173.363 50.124C172.967 50.544 172.769 51.162 172.769 51.978C172.769 52.782 172.961 53.4 173.345 53.832C173.741 54.264 174.233 54.48 174.821 54.48ZM184.788 48.63C185.148 48.078 185.598 47.646 186.138 47.334C186.678 47.01 187.278 46.848 187.938 46.848V50.106H187.092C186.324 50.106 185.748 50.274 185.364 50.61C184.98 50.934 184.788 51.51 184.788 52.338V57H181.71V46.956H184.788V48.63ZM195.007 54.39V57H193.441C192.325 57 191.455 56.73 190.831 56.19C190.207 55.638 189.895 54.744 189.895 53.508V49.512H188.671V46.956H189.895V44.508H192.973V46.956H194.989V49.512H192.973V53.544C192.973 53.844 193.045 54.06 193.189 54.192C193.333 54.324 193.573 54.39 193.909 54.39H195.007ZM206.639 46.956V57H203.561V55.632C203.249 56.076 202.823 56.436 202.283 56.712C201.755 56.976 201.167 57.108 200.519 57.108C199.751 57.108 199.073 56.94 198.485 56.604C197.897 56.256 197.441 55.758 197.117 55.11C196.793 54.462 196.631 53.7 196.631 52.824V46.956H199.691V52.41C199.691 53.082 199.865 53.604 200.213 53.976C200.561 54.348 201.029 54.534 201.617 54.534C202.217 54.534 202.691 54.348 203.039 53.976C203.387 53.604 203.561 53.082 203.561 52.41V46.956H206.639ZM214.97 46.848C216.146 46.848 217.082 47.232 217.778 48C218.486 48.756 218.84 49.8 218.84 51.132V57H215.78V51.546C215.78 50.874 215.606 50.352 215.258 49.98C214.91 49.608 214.442 49.422 213.854 49.422C213.266 49.422 212.798 49.608 212.45 49.98C212.102 50.352 211.928 50.874 211.928 51.546V57H208.85V46.956H211.928V48.288C212.24 47.844 212.66 47.496 213.188 47.244C213.716 46.98 214.31 46.848 214.97 46.848ZM222.527 45.912C221.987 45.912 221.543 45.756 221.195 45.444C220.859 45.12 220.691 44.724 220.691 44.256C220.691 43.776 220.859 43.38 221.195 43.068C221.543 42.744 221.987 42.582 222.527 42.582C223.055 42.582 223.487 42.744 223.823 43.068C224.171 43.38 224.345 43.776 224.345 44.256C224.345 44.724 224.171 45.12 223.823 45.444C223.487 45.756 223.055 45.912 222.527 45.912ZM224.057 46.956V57H220.979V46.956H224.057ZM231.886 54.39V57H230.32C229.204 57 228.334 56.73 227.71 56.19C227.086 55.638 226.774 54.744 226.774 53.508V49.512H225.55V46.956H226.774V44.508H229.852V46.956H231.868V49.512H229.852V53.544C229.852 53.844 229.924 54.06 230.068 54.192C230.212 54.324 230.452 54.39 230.788 54.39H231.886ZM235.148 45.912C234.608 45.912 234.164 45.756 233.816 45.444C233.48 45.12 233.312 44.724 233.312 44.256C233.312 43.776 233.48 43.38 233.816 43.068C234.164 42.744 234.608 42.582 235.148 42.582C235.676 42.582 236.108 42.744 236.444 43.068C236.792 43.38 236.966 43.776 236.966 44.256C236.966 44.724 236.792 45.12 236.444 45.444C236.108 45.756 235.676 45.912 235.148 45.912ZM236.678 46.956V57H233.6V46.956H236.678ZM248.377 51.816C248.377 52.104 248.359 52.404 248.323 52.716H241.357C241.405 53.34 241.603 53.82 241.951 54.156C242.311 54.48 242.749 54.642 243.265 54.642C244.033 54.642 244.567 54.318 244.867 53.67H248.143C247.975 54.33 247.669 54.924 247.225 55.452C246.793 55.98 246.247 56.394 245.587 56.694C244.927 56.994 244.189 57.144 243.373 57.144C242.389 57.144 241.513 56.934 240.745 56.514C239.977 56.094 239.377 55.494 238.945 54.714C238.513 53.934 238.297 53.022 238.297 51.978C238.297 50.934 238.507 50.022 238.927 49.242C239.359 48.462 239.959 47.862 240.727 47.442C241.495 47.022 242.377 46.812 243.373 46.812C244.345 46.812 245.209 47.016 245.965 47.424C246.721 47.832 247.309 48.414 247.729 49.17C248.161 49.926 248.377 50.808 248.377 51.816ZM245.227 51.006C245.227 50.478 245.047 50.058 244.687 49.746C244.327 49.434 243.877 49.278 243.337 49.278C242.821 49.278 242.383 49.428 242.023 49.728C241.675 50.028 241.459 50.454 241.375 51.006H245.227ZM254.087 57.144C253.211 57.144 252.431 56.994 251.747 56.694C251.063 56.394 250.523 55.986 250.127 55.47C249.731 54.942 249.509 54.354 249.461 53.706H252.503C252.539 54.054 252.701 54.336 252.989 54.552C253.277 54.768 253.631 54.876 254.051 54.876C254.435 54.876 254.729 54.804 254.933 54.66C255.149 54.504 255.257 54.306 255.257 54.066C255.257 53.778 255.107 53.568 254.807 53.436C254.507 53.292 254.021 53.136 253.349 52.968C252.629 52.8 252.029 52.626 251.549 52.446C251.069 52.254 250.655 51.96 250.307 51.564C249.959 51.156 249.785 50.61 249.785 49.926C249.785 49.35 249.941 48.828 250.253 48.36C250.577 47.88 251.045 47.502 251.657 47.226C252.281 46.95 253.019 46.812 253.871 46.812C255.131 46.812 256.121 47.124 256.841 47.748C257.573 48.372 257.993 49.2 258.101 50.232H255.257C255.209 49.884 255.053 49.608 254.789 49.404C254.537 49.2 254.201 49.098 253.781 49.098C253.421 49.098 253.145 49.17 252.953 49.314C252.761 49.446 252.665 49.632 252.665 49.872C252.665 50.16 252.815 50.376 253.115 50.52C253.427 50.664 253.907 50.808 254.555 50.952C255.299 51.144 255.905 51.336 256.373 51.528C256.841 51.708 257.249 52.008 257.597 52.428C257.957 52.836 258.143 53.388 258.155 54.084C258.155 54.672 257.987 55.2 257.651 55.668C257.327 56.124 256.853 56.484 256.229 56.748C255.617 57.012 254.903 57.144 254.087 57.144Z" fill="#2E2E2E"/>
<circle cx="262" cy="290" r="25" fill="#2E2E2E"/>
<mask id="mask0_105_1260" style="mask-type:alpha" maskUnits="userSpaceOnUse" x="247" y="275" width="30" height="30">
<rect x="247" y="275" width="30" height="30" fill="#D9D9D9"/>
</mask>
<g mask="url(#mask0_105_1260)">
<path d="M263.625 296.594C263.375 296.344 263.255 296.042 263.266 295.688C263.276 295.333 263.406 295.031 263.656 294.781L267.187 291.25H253.25C252.896 291.25 252.599 291.13 252.359 290.891C252.12 290.651 252 290.354 252 290C252 289.646 252.12 289.349 252.359 289.109C252.599 288.87 252.896 288.75 253.25 288.75H267.187L263.625 285.188C263.375 284.938 263.25 284.641 263.25 284.297C263.25 283.953 263.375 283.656 263.625 283.406C263.875 283.156 264.172 283.031 264.516 283.031C264.859 283.031 265.156 283.156 265.406 283.406L271.125 289.125C271.25 289.25 271.339 289.385 271.391 289.531C271.443 289.677 271.469 289.833 271.469 290C271.469 290.167 271.443 290.323 271.391 290.469C271.339 290.615 271.25 290.75 271.125 290.875L265.375 296.625C265.146 296.854 264.859 296.969 264.516 296.969C264.172 296.969 263.875 296.844 263.625 296.594Z" fill="white"/>
</g>
<path d="M32.912 165.88V177H31.088V169.384L27.696 177H26.432L23.024 169.384V177H21.2V165.88H23.168L27.072 174.6L30.96 165.88H32.912ZM34.7014 172.552C34.7014 171.667 34.8827 170.883 35.2454 170.2C35.6187 169.517 36.12 168.989 36.7494 168.616C37.3894 168.232 38.0934 168.04 38.8614 168.04C39.5547 168.04 40.1574 168.179 40.6694 168.456C41.192 168.723 41.608 169.059 41.9174 169.464V168.184H43.7574V177H41.9174V175.688C41.608 176.104 41.1867 176.451 40.6534 176.728C40.12 177.005 39.512 177.144 38.8294 177.144C38.072 177.144 37.3787 176.952 36.7494 176.568C36.12 176.173 35.6187 175.629 35.2454 174.936C34.8827 174.232 34.7014 173.437 34.7014 172.552ZM41.9174 172.584C41.9174 171.976 41.7894 171.448 41.5334 171C41.288 170.552 40.9627 170.211 40.5574 169.976C40.152 169.741 39.7147 169.624 39.2454 169.624C38.776 169.624 38.3387 169.741 37.9334 169.976C37.528 170.2 37.1974 170.536 36.9414 170.984C36.696 171.421 36.5734 171.944 36.5734 172.552C36.5734 173.16 36.696 173.693 36.9414 174.152C37.1974 174.611 37.528 174.963 37.9334 175.208C38.3494 175.443 38.7867 175.56 39.2454 175.56C39.7147 175.56 40.152 175.443 40.5574 175.208C40.9627 174.973 41.288 174.632 41.5334 174.184C41.7894 173.725 41.9174 173.192 41.9174 172.584ZM47.9771 169.464C48.2438 169.016 48.5958 168.669 49.0331 168.424C49.4811 168.168 50.0091 168.04 50.6171 168.04V169.928H50.1531C49.4385 169.928 48.8945 170.109 48.5211 170.472C48.1585 170.835 47.9771 171.464 47.9771 172.36V177H46.1531V168.184H47.9771V169.464ZM55.7818 172.6L59.8458 177H57.3818L54.1178 173.208V177H52.2938V165.16H54.1178V172.04L57.3178 168.184H59.8458L55.7818 172.6ZM69.2331 172.376C69.2331 172.707 69.2118 173.005 69.1691 173.272H62.4331C62.4865 173.976 62.7478 174.541 63.2171 174.968C63.6865 175.395 64.2625 175.608 64.9451 175.608C65.9265 175.608 66.6198 175.197 67.0251 174.376H68.9931C68.7265 175.187 68.2411 175.853 67.5371 176.376C66.8438 176.888 65.9798 177.144 64.9451 177.144C64.1025 177.144 63.3451 176.957 62.6731 176.584C62.0118 176.2 61.4891 175.667 61.1051 174.984C60.7318 174.291 60.5451 173.491 60.5451 172.584C60.5451 171.677 60.7265 170.883 61.0891 170.2C61.4625 169.507 61.9798 168.973 62.6411 168.6C63.3131 168.227 64.0811 168.04 64.9451 168.04C65.7771 168.04 66.5185 168.221 67.1691 168.584C67.8198 168.947 68.3265 169.459 68.6891 170.12C69.0518 170.771 69.2331 171.523 69.2331 172.376ZM67.3291 171.8C67.3185 171.128 67.0785 170.589 66.6091 170.184C66.1398 169.779 65.5585 169.576 64.8651 169.576C64.2358 169.576 63.6971 169.779 63.2491 170.184C62.8011 170.579 62.5345 171.117 62.4491 171.8H67.3291ZM73.1561 169.672V174.552C73.1561 174.883 73.2308 175.123 73.3801 175.272C73.5401 175.411 73.8068 175.48 74.1801 175.48H75.3001V177H73.8601C73.0388 177 72.4095 176.808 71.9721 176.424C71.5348 176.04 71.3161 175.416 71.3161 174.552V169.672H70.2761V168.184H71.3161V165.992H73.1561V168.184H75.3001V169.672H73.1561ZM86.9135 177L84.3535 172.552H82.9615V177H81.1375V165.88H84.9775C85.8308 165.88 86.5508 166.029 87.1375 166.328C87.7348 166.627 88.1775 167.027 88.4655 167.528C88.7642 168.029 88.9135 168.589 88.9135 169.208C88.9135 169.933 88.7002 170.595 88.2735 171.192C87.8575 171.779 87.2122 172.179 86.3375 172.392L89.0895 177H86.9135ZM82.9615 171.096H84.9775C85.6602 171.096 86.1722 170.925 86.5135 170.584C86.8655 170.243 87.0415 169.784 87.0415 169.208C87.0415 168.632 86.8708 168.184 86.5295 167.864C86.1882 167.533 85.6708 167.368 84.9775 167.368H82.9615V171.096ZM99.3269 172.376C99.3269 172.707 99.3055 173.005 99.2629 173.272H92.5269C92.5802 173.976 92.8415 174.541 93.3109 174.968C93.7802 175.395 94.3562 175.608 95.0389 175.608C96.0202 175.608 96.7135 175.197 97.1189 174.376H99.0869C98.8202 175.187 98.3349 175.853 97.6309 176.376C96.9375 176.888 96.0735 177.144 95.0389 177.144C94.1962 177.144 93.4389 176.957 92.7669 176.584C92.1055 176.2 91.5829 175.667 91.1989 174.984C90.8255 174.291 90.6389 173.491 90.6389 172.584C90.6389 171.677 90.8202 170.883 91.1829 170.2C91.5562 169.507 92.0735 168.973 92.7349 168.6C93.4069 168.227 94.1749 168.04 95.0389 168.04C95.8709 168.04 96.6122 168.221 97.2629 168.584C97.9135 168.947 98.4202 169.459 98.7829 170.12C99.1455 170.771 99.3269 171.523 99.3269 172.376ZM97.4229 171.8C97.4122 171.128 97.1722 170.589 96.7029 170.184C96.2335 169.779 95.6522 169.576 94.9589 169.576C94.3295 169.576 93.7909 169.779 93.3429 170.184C92.8949 170.579 92.6282 171.117 92.5429 171.8H97.4229ZM104.322 177.144C103.629 177.144 103.005 177.021 102.45 176.776C101.906 176.52 101.474 176.179 101.154 175.752C100.834 175.315 100.663 174.829 100.642 174.296H102.53C102.562 174.669 102.738 174.984 103.058 175.24C103.389 175.485 103.799 175.608 104.29 175.608C104.802 175.608 105.197 175.512 105.474 175.32C105.762 175.117 105.906 174.861 105.906 174.552C105.906 174.221 105.746 173.976 105.426 173.816C105.117 173.656 104.621 173.48 103.938 173.288C103.277 173.107 102.738 172.931 102.322 172.76C101.906 172.589 101.543 172.328 101.234 171.976C100.935 171.624 100.786 171.16 100.786 170.584C100.786 170.115 100.925 169.688 101.202 169.304C101.479 168.909 101.874 168.6 102.386 168.376C102.909 168.152 103.506 168.04 104.178 168.04C105.181 168.04 105.986 168.296 106.594 168.808C107.213 169.309 107.543 169.997 107.586 170.872H105.762C105.73 170.477 105.57 170.163 105.282 169.928C104.994 169.693 104.605 169.576 104.114 169.576C103.634 169.576 103.266 169.667 103.01 169.848C102.754 170.029 102.626 170.269 102.626 170.568C102.626 170.803 102.711 171 102.882 171.16C103.053 171.32 103.261 171.448 103.506 171.544C103.751 171.629 104.114 171.741 104.594 171.88C105.234 172.051 105.757 172.227 106.162 172.408C106.578 172.579 106.935 172.835 107.234 173.176C107.533 173.517 107.687 173.971 107.698 174.536C107.698 175.037 107.559 175.485 107.282 175.88C107.005 176.275 106.61 176.584 106.098 176.808C105.597 177.032 105.005 177.144 104.322 177.144ZM117.749 172.376C117.749 172.707 117.727 173.005 117.685 173.272H110.949C111.002 173.976 111.263 174.541 111.733 174.968C112.202 175.395 112.778 175.608 113.461 175.608C114.442 175.608 115.135 175.197 115.541 174.376H117.509C117.242 175.187 116.757 175.853 116.053 176.376C115.359 176.888 114.495 177.144 113.461 177.144C112.618 177.144 111.861 176.957 111.189 176.584C110.527 176.2 110.005 175.667 109.621 174.984C109.247 174.291 109.061 173.491 109.061 172.584C109.061 171.677 109.242 170.883 109.605 170.2C109.978 169.507 110.495 168.973 111.157 168.6C111.829 168.227 112.597 168.04 113.461 168.04C114.293 168.04 115.034 168.221 115.685 168.584C116.335 168.947 116.842 169.459 117.205 170.12C117.567 170.771 117.749 171.523 117.749 172.376ZM115.845 171.8C115.834 171.128 115.594 170.589 115.125 170.184C114.655 169.779 114.074 169.576 113.381 169.576C112.751 169.576 112.213 169.779 111.765 170.184C111.317 170.579 111.05 171.117 110.965 171.8H115.845ZM118.936 172.552C118.936 171.667 119.117 170.883 119.48 170.2C119.853 169.517 120.354 168.989 120.984 168.616C121.624 168.232 122.328 168.04 123.096 168.04C123.789 168.04 124.392 168.179 124.904 168.456C125.426 168.723 125.842 169.059 126.152 169.464V168.184H127.992V177H126.152V175.688C125.842 176.104 125.421 176.451 124.888 176.728C124.354 177.005 123.746 177.144 123.064 177.144C122.306 177.144 121.613 176.952 120.984 176.568C120.354 176.173 119.853 175.629 119.48 174.936C119.117 174.232 118.936 173.437 118.936 172.552ZM126.152 172.584C126.152 171.976 126.024 171.448 125.768 171C125.522 170.552 125.197 170.211 124.792 169.976C124.386 169.741 123.949 169.624 123.48 169.624C123.01 169.624 122.573 169.741 122.168 169.976C121.762 170.2 121.432 170.536 121.176 170.984C120.93 171.421 120.808 171.944 120.808 172.552C120.808 173.16 120.93 173.693 121.176 174.152C121.432 174.611 121.762 174.963 122.168 175.208C122.584 175.443 123.021 175.56 123.48 175.56C123.949 175.56 124.386 175.443 124.792 175.208C125.197 174.973 125.522 174.632 125.768 174.184C126.024 173.725 126.152 173.192 126.152 172.584ZM132.212 169.464C132.478 169.016 132.83 168.669 133.268 168.424C133.716 168.168 134.244 168.04 134.852 168.04V169.928H134.388C133.673 169.928 133.129 170.109 132.756 170.472C132.393 170.835 132.212 171.464 132.212 172.36V177H130.388V168.184H132.212V169.464ZM135.92 172.584C135.92 171.677 136.101 170.883 136.464 170.2C136.837 169.507 137.349 168.973 138 168.6C138.651 168.227 139.397 168.04 140.24 168.04C141.307 168.04 142.187 168.296 142.88 168.808C143.584 169.309 144.059 170.029 144.304 170.968H142.336C142.176 170.531 141.92 170.189 141.568 169.944C141.216 169.699 140.773 169.576 140.24 169.576C139.493 169.576 138.896 169.843 138.448 170.376C138.011 170.899 137.792 171.635 137.792 172.584C137.792 173.533 138.011 174.275 138.448 174.808C138.896 175.341 139.493 175.608 140.24 175.608C141.296 175.608 141.995 175.144 142.336 174.216H144.304C144.048 175.112 143.568 175.827 142.864 176.36C142.16 176.883 141.285 177.144 140.24 177.144C139.397 177.144 138.651 176.957 138 176.584C137.349 176.2 136.837 175.667 136.464 174.984C136.101 174.291 135.92 173.491 135.92 172.584ZM150.682 168.04C151.354 168.04 151.951 168.184 152.474 168.472C153.007 168.76 153.423 169.187 153.722 169.752C154.031 170.317 154.186 171 154.186 171.8V177H152.378V172.072C152.378 171.283 152.181 170.68 151.786 170.264C151.391 169.837 150.853 169.624 150.17 169.624C149.487 169.624 148.943 169.837 148.538 170.264C148.143 170.68 147.946 171.283 147.946 172.072V177H146.122V165.16H147.946V169.208C148.255 168.835 148.645 168.547 149.114 168.344C149.594 168.141 150.117 168.04 150.682 168.04ZM169.261 177L167.885 175.624C167.351 176.157 166.77 176.557 166.141 176.824C165.511 177.08 164.807 177.208 164.029 177.208C163.239 177.208 162.541 177.069 161.933 176.792C161.325 176.515 160.855 176.12 160.525 175.608C160.194 175.085 160.029 174.483 160.029 173.8C160.029 173.032 160.247 172.349 160.685 171.752C161.122 171.144 161.773 170.664 162.637 170.312C162.327 169.939 162.109 169.592 161.981 169.272C161.853 168.941 161.789 168.579 161.789 168.184C161.789 167.693 161.911 167.256 162.157 166.872C162.413 166.488 162.775 166.184 163.245 165.96C163.714 165.736 164.258 165.624 164.877 165.624C165.506 165.624 166.039 165.747 166.477 165.992C166.925 166.227 167.255 166.552 167.469 166.968C167.693 167.384 167.783 167.848 167.741 168.36H165.917C165.927 167.965 165.831 167.661 165.629 167.448C165.426 167.224 165.149 167.112 164.797 167.112C164.445 167.112 164.157 167.219 163.933 167.432C163.719 167.635 163.613 167.885 163.613 168.184C163.613 168.472 163.693 168.76 163.853 169.048C164.023 169.325 164.317 169.688 164.733 170.136L167.677 173.064L168.813 171.192H170.781L169.341 173.656L168.941 174.312L171.645 177H169.261ZM164.029 175.656C165.031 175.656 165.917 175.245 166.685 174.424L163.741 171.464C162.482 171.965 161.853 172.723 161.853 173.736C161.853 174.28 162.055 174.739 162.461 175.112C162.866 175.475 163.389 175.656 164.029 175.656ZM182.069 177.112C181.034 177.112 180.08 176.872 179.205 176.392C178.341 175.901 177.653 175.224 177.141 174.36C176.64 173.485 176.389 172.504 176.389 171.416C176.389 170.328 176.64 169.352 177.141 168.488C177.653 167.624 178.341 166.952 179.205 166.472C180.08 165.981 181.034 165.736 182.069 165.736C183.114 165.736 184.069 165.981 184.933 166.472C185.808 166.952 186.496 167.624 186.997 168.488C187.498 169.352 187.749 170.328 187.749 171.416C187.749 172.504 187.498 173.485 186.997 174.36C186.496 175.224 185.808 175.901 184.933 176.392C184.069 176.872 183.114 177.112 182.069 177.112ZM182.069 175.528C182.805 175.528 183.461 175.363 184.037 175.032C184.613 174.691 185.061 174.211 185.381 173.592C185.712 172.963 185.877 172.237 185.877 171.416C185.877 170.595 185.712 169.875 185.381 169.256C185.061 168.637 184.613 168.163 184.037 167.832C183.461 167.501 182.805 167.336 182.069 167.336C181.333 167.336 180.677 167.501 180.101 167.832C179.525 168.163 179.072 168.637 178.741 169.256C178.421 169.875 178.261 170.595 178.261 171.416C178.261 172.237 178.421 172.963 178.741 173.592C179.072 174.211 179.525 174.691 180.101 175.032C180.677 175.363 181.333 175.528 182.069 175.528ZM191.368 169.48C191.677 169.075 192.098 168.733 192.632 168.456C193.165 168.179 193.768 168.04 194.44 168.04C195.208 168.04 195.906 168.232 196.536 168.616C197.176 168.989 197.677 169.517 198.04 170.2C198.402 170.883 198.584 171.667 198.584 172.552C198.584 173.437 198.402 174.232 198.04 174.936C197.677 175.629 197.176 176.173 196.536 176.568C195.906 176.952 195.208 177.144 194.44 177.144C193.768 177.144 193.17 177.011 192.648 176.744C192.125 176.467 191.698 176.125 191.368 175.72V181.192H189.544V168.184H191.368V169.48ZM196.728 172.552C196.728 171.944 196.6 171.421 196.344 170.984C196.098 170.536 195.768 170.2 195.352 169.976C194.946 169.741 194.509 169.624 194.04 169.624C193.581 169.624 193.144 169.741 192.728 169.976C192.322 170.211 191.992 170.552 191.736 171C191.49 171.448 191.368 171.976 191.368 172.584C191.368 173.192 191.49 173.725 191.736 174.184C191.992 174.632 192.322 174.973 192.728 175.208C193.144 175.443 193.581 175.56 194.04 175.56C194.509 175.56 194.946 175.443 195.352 175.208C195.768 174.963 196.098 174.611 196.344 174.152C196.6 173.693 196.728 173.16 196.728 172.552ZM202.212 169.48C202.521 169.075 202.942 168.733 203.476 168.456C204.009 168.179 204.612 168.04 205.284 168.04C206.052 168.04 206.75 168.232 207.38 168.616C208.02 168.989 208.521 169.517 208.884 170.2C209.246 170.883 209.428 171.667 209.428 172.552C209.428 173.437 209.246 174.232 208.884 174.936C208.521 175.629 208.02 176.173 207.38 176.568C206.75 176.952 206.052 177.144 205.284 177.144C204.612 177.144 204.014 177.011 203.492 176.744C202.969 176.467 202.542 176.125 202.212 175.72V181.192H200.388V168.184H202.212V169.48ZM207.572 172.552C207.572 171.944 207.444 171.421 207.188 170.984C206.942 170.536 206.612 170.2 206.196 169.976C205.79 169.741 205.353 169.624 204.884 169.624C204.425 169.624 203.988 169.741 203.572 169.976C203.166 170.211 202.836 170.552 202.58 171C202.334 171.448 202.212 171.976 202.212 172.584C202.212 173.192 202.334 173.725 202.58 174.184C202.836 174.632 203.166 174.973 203.572 175.208C203.988 175.443 204.425 175.56 204.884 175.56C205.353 175.56 205.79 175.443 206.196 175.208C206.612 174.963 206.942 174.611 207.188 174.152C207.444 173.693 207.572 173.16 207.572 172.552ZM215.055 177.144C214.223 177.144 213.471 176.957 212.799 176.584C212.127 176.2 211.599 175.667 211.215 174.984C210.831 174.291 210.639 173.491 210.639 172.584C210.639 171.688 210.837 170.893 211.231 170.2C211.626 169.507 212.165 168.973 212.847 168.6C213.53 168.227 214.293 168.04 215.135 168.04C215.978 168.04 216.741 168.227 217.423 168.6C218.106 168.973 218.645 169.507 219.039 170.2C219.434 170.893 219.631 171.688 219.631 172.584C219.631 173.48 219.429 174.275 219.023 174.968C218.618 175.661 218.063 176.2 217.359 176.584C216.666 176.957 215.898 177.144 215.055 177.144ZM215.055 175.56C215.525 175.56 215.962 175.448 216.367 175.224C216.783 175 217.119 174.664 217.375 174.216C217.631 173.768 217.759 173.224 217.759 172.584C217.759 171.944 217.637 171.405 217.391 170.968C217.146 170.52 216.821 170.184 216.415 169.96C216.01 169.736 215.573 169.624 215.103 169.624C214.634 169.624 214.197 169.736 213.791 169.96C213.397 170.184 213.082 170.52 212.847 170.968C212.613 171.405 212.495 171.944 212.495 172.584C212.495 173.533 212.735 174.269 213.215 174.792C213.706 175.304 214.319 175.56 215.055 175.56ZM223.258 169.464C223.525 169.016 223.877 168.669 224.314 168.424C224.762 168.168 225.29 168.04 225.898 168.04V169.928H225.434C224.72 169.928 224.176 170.109 223.802 170.472C223.44 170.835 223.258 171.464 223.258 172.36V177H221.434V168.184H223.258V169.464ZM229.703 169.672V174.552C229.703 174.883 229.778 175.123 229.927 175.272C230.087 175.411 230.354 175.48 230.727 175.48H231.847V177H230.407C229.586 177 228.956 176.808 228.519 176.424C228.082 176.04 227.863 175.416 227.863 174.552V169.672H226.823V168.184H227.863V165.992H229.703V168.184H231.847V169.672H229.703ZM241.512 168.184V177H239.688V175.96C239.4 176.323 239.021 176.611 238.552 176.824C238.093 177.027 237.603 177.128 237.08 177.128C236.387 177.128 235.763 176.984 235.208 176.696C234.664 176.408 234.232 175.981 233.912 175.416C233.603 174.851 233.448 174.168 233.448 173.368V168.184H235.256V173.096C235.256 173.885 235.453 174.493 235.848 174.92C236.243 175.336 236.781 175.544 237.464 175.544C238.147 175.544 238.685 175.336 239.08 174.92C239.485 174.493 239.688 173.885 239.688 173.096V168.184H241.512ZM248.367 168.04C249.06 168.04 249.679 168.184 250.223 168.472C250.777 168.76 251.209 169.187 251.519 169.752C251.828 170.317 251.983 171 251.983 171.8V177H250.175V172.072C250.175 171.283 249.977 170.68 249.583 170.264C249.188 169.837 248.649 169.624 247.967 169.624C247.284 169.624 246.74 169.837 246.335 170.264C245.94 170.68 245.743 171.283 245.743 172.072V177H243.919V168.184H245.743V169.192C246.041 168.829 246.42 168.547 246.879 168.344C247.348 168.141 247.844 168.04 248.367 168.04ZM255.237 167.016C254.907 167.016 254.629 166.904 254.405 166.68C254.181 166.456 254.069 166.179 254.069 165.848C254.069 165.517 254.181 165.24 254.405 165.016C254.629 164.792 254.907 164.68 255.237 164.68C255.557 164.68 255.829 164.792 256.053 165.016C256.277 165.24 256.389 165.517 256.389 165.848C256.389 166.179 256.277 166.456 256.053 166.68C255.829 166.904 255.557 167.016 255.237 167.016ZM256.133 168.184V177H254.309V168.184H256.133ZM260.656 169.672V174.552C260.656 174.883 260.731 175.123 260.88 175.272C261.04 175.411 261.307 175.48 261.68 175.48H262.8V177H261.36C260.539 177 259.909 176.808 259.472 176.424C259.035 176.04 258.816 175.416 258.816 174.552V169.672H257.776V168.184H258.816V165.992H260.656V168.184H262.8V169.672H260.656ZM272.417 168.184L267.009 181.144H265.121L266.913 176.856L263.441 168.184H265.473L267.953 174.904L270.529 168.184H272.417ZM27.904 198.728H23.248L22.448 201H20.544L24.528 189.864H26.64L30.624 201H28.704L27.904 198.728ZM27.392 197.24L25.584 192.072L23.76 197.24H27.392ZM36.8043 192.04C37.4976 192.04 38.1163 192.184 38.6603 192.472C39.2149 192.76 39.6469 193.187 39.9563 193.752C40.2656 194.317 40.4203 195 40.4203 195.8V201H38.6123V196.072C38.6123 195.283 38.4149 194.68 38.0203 194.264C37.6256 193.837 37.0869 193.624 36.4043 193.624C35.7216 193.624 35.1776 193.837 34.7723 194.264C34.3776 194.68 34.1803 195.283 34.1803 196.072V201H32.3563V192.184H34.1803V193.192C34.4789 192.829 34.8576 192.547 35.3163 192.344C35.7856 192.141 36.2816 192.04 36.8043 192.04ZM42.1389 196.552C42.1389 195.667 42.3202 194.883 42.6829 194.2C43.0562 193.517 43.5575 192.989 44.1869 192.616C44.8269 192.232 45.5309 192.04 46.2989 192.04C46.9922 192.04 47.5949 192.179 48.1069 192.456C48.6295 192.723 49.0455 193.059 49.3549 193.464V192.184H51.1949V201H49.3549V199.688C49.0455 200.104 48.6242 200.451 48.0909 200.728C47.5575 201.005 46.9495 201.144 46.2669 201.144C45.5095 201.144 44.8162 200.952 44.1869 200.568C43.5575 200.173 43.0562 199.629 42.6829 198.936C42.3202 198.232 42.1389 197.437 42.1389 196.552ZM49.3549 196.584C49.3549 195.976 49.2269 195.448 48.9709 195C48.7255 194.552 48.4002 194.211 47.9949 193.976C47.5895 193.741 47.1522 193.624 46.6829 193.624C46.2135 193.624 45.7762 193.741 45.3709 193.976C44.9655 194.2 44.6349 194.536 44.3789 194.984C44.1335 195.421 44.0109 195.944 44.0109 196.552C44.0109 197.16 44.1335 197.693 44.3789 198.152C44.6349 198.611 44.9655 198.963 45.3709 199.208C45.7869 199.443 46.2242 199.56 46.6829 199.56C47.1522 199.56 47.5895 199.443 47.9949 199.208C48.4002 198.973 48.7255 198.632 48.9709 198.184C49.2269 197.725 49.3549 197.192 49.3549 196.584ZM55.4146 189.16V201H53.5906V189.16H55.4146ZM65.7454 192.184L60.3374 205.144H58.4494L60.2414 200.856L56.7694 192.184H58.8014L61.2814 198.904L63.8574 192.184H65.7454ZM70.3219 201.144C69.6285 201.144 69.0045 201.021 68.4499 200.776C67.9059 200.52 67.4739 200.179 67.1539 199.752C66.8339 199.315 66.6632 198.829 66.6419 198.296H68.5299C68.5619 198.669 68.7379 198.984 69.0579 199.24C69.3885 199.485 69.7992 199.608 70.2899 199.608C70.8019 199.608 71.1965 199.512 71.4739 199.32C71.7619 199.117 71.9059 198.861 71.9059 198.552C71.9059 198.221 71.7459 197.976 71.4259 197.816C71.1165 197.656 70.6205 197.48 69.9379 197.288C69.2765 197.107 68.7379 196.931 68.3219 196.76C67.9059 196.589 67.5432 196.328 67.2339 195.976C66.9352 195.624 66.7859 195.16 66.7859 194.584C66.7859 194.115 66.9245 193.688 67.2019 193.304C67.4792 192.909 67.8739 192.6 68.3859 192.376C68.9085 192.152 69.5059 192.04 70.1779 192.04C71.1805 192.04 71.9859 192.296 72.5939 192.808C73.2125 193.309 73.5432 193.997 73.5859 194.872H71.7619C71.7299 194.477 71.5699 194.163 71.2819 193.928C70.9939 193.693 70.6045 193.576 70.1139 193.576C69.6339 193.576 69.2659 193.667 69.0099 193.848C68.7539 194.029 68.6259 194.269 68.6259 194.568C68.6259 194.803 68.7112 195 68.8819 195.16C69.0525 195.32 69.2605 195.448 69.5059 195.544C69.7512 195.629 70.1139 195.741 70.5939 195.88C71.2339 196.051 71.7565 196.227 72.1619 196.408C72.5779 196.579 72.9352 196.835 73.2339 197.176C73.5325 197.517 73.6872 197.971 73.6979 198.536C73.6979 199.037 73.5592 199.485 73.2819 199.88C73.0045 200.275 72.6099 200.584 72.0979 200.808C71.5965 201.032 71.0045 201.144 70.3219 201.144ZM76.5968 191.016C76.2661 191.016 75.9888 190.904 75.7648 190.68C75.5408 190.456 75.4288 190.179 75.4288 189.848C75.4288 189.517 75.5408 189.24 75.7648 189.016C75.9888 188.792 76.2661 188.68 76.5968 188.68C76.9168 188.68 77.1888 188.792 77.4128 189.016C77.6368 189.24 77.7488 189.517 77.7488 189.848C77.7488 190.179 77.6368 190.456 77.4128 190.68C77.1888 190.904 76.9168 191.016 76.5968 191.016ZM77.4928 192.184V201H75.6688V192.184H77.4928ZM83.0875 201.144C82.3942 201.144 81.7702 201.021 81.2155 200.776C80.6715 200.52 80.2395 200.179 79.9195 199.752C79.5995 199.315 79.4288 198.829 79.4075 198.296H81.2955C81.3275 198.669 81.5035 198.984 81.8235 199.24C82.1542 199.485 82.5648 199.608 83.0555 199.608C83.5675 199.608 83.9622 199.512 84.2395 199.32C84.5275 199.117 84.6715 198.861 84.6715 198.552C84.6715 198.221 84.5115 197.976 84.1915 197.816C83.8822 197.656 83.3862 197.48 82.7035 197.288C82.0422 197.107 81.5035 196.931 81.0875 196.76C80.6715 196.589 80.3088 196.328 79.9995 195.976C79.7008 195.624 79.5515 195.16 79.5515 194.584C79.5515 194.115 79.6902 193.688 79.9675 193.304C80.2448 192.909 80.6395 192.6 81.1515 192.376C81.6742 192.152 82.2715 192.04 82.9435 192.04C83.9462 192.04 84.7515 192.296 85.3595 192.808C85.9782 193.309 86.3088 193.997 86.3515 194.872H84.5275C84.4955 194.477 84.3355 194.163 84.0475 193.928C83.7595 193.693 83.3702 193.576 82.8795 193.576C82.3995 193.576 82.0315 193.667 81.7755 193.848C81.5195 194.029 81.3915 194.269 81.3915 194.568C81.3915 194.803 81.4768 195 81.6475 195.16C81.8182 195.32 82.0262 195.448 82.2715 195.544C82.5168 195.629 82.8795 195.741 83.3595 195.88C83.9995 196.051 84.5222 196.227 84.9275 196.408C85.3435 196.579 85.7008 196.835 85.9995 197.176C86.2982 197.517 86.4528 197.971 86.4635 198.536C86.4635 199.037 86.3248 199.485 86.0475 199.88C85.7702 200.275 85.3755 200.584 84.8635 200.808C84.3622 201.032 83.7702 201.144 83.0875 201.144ZM98.3666 201L95.8066 196.552H94.4146V201H92.5906V189.88H96.4306C97.284 189.88 98.004 190.029 98.5906 190.328C99.188 190.627 99.6306 191.027 99.9186 191.528C100.217 192.029 100.367 192.589 100.367 193.208C100.367 193.933 100.153 194.595 99.7266 195.192C99.3106 195.779 98.6653 196.179 97.7906 196.392L100.543 201H98.3666ZM94.4146 195.096H96.4306C97.1133 195.096 97.6253 194.925 97.9666 194.584C98.3186 194.243 98.4946 193.784 98.4946 193.208C98.4946 192.632 98.324 192.184 97.9826 191.864C97.6413 191.533 97.124 191.368 96.4306 191.368H94.4146V195.096ZM110.78 196.376C110.78 196.707 110.759 197.005 110.716 197.272H103.98C104.033 197.976 104.295 198.541 104.764 198.968C105.233 199.395 105.809 199.608 106.492 199.608C107.473 199.608 108.167 199.197 108.572 198.376H110.54C110.273 199.187 109.788 199.853 109.084 200.376C108.391 200.888 107.527 201.144 106.492 201.144C105.649 201.144 104.892 200.957 104.22 200.584C103.559 200.2 103.036 199.667 102.652 198.984C102.279 198.291 102.092 197.491 102.092 196.584C102.092 195.677 102.273 194.883 102.636 194.2C103.009 193.507 103.527 192.973 104.188 192.6C104.86 192.227 105.628 192.04 106.492 192.04C107.324 192.04 108.065 192.221 108.716 192.584C109.367 192.947 109.873 193.459 110.236 194.12C110.599 194.771 110.78 195.523 110.78 196.376ZM108.876 195.8C108.865 195.128 108.625 194.589 108.156 194.184C107.687 193.779 107.105 193.576 106.412 193.576C105.783 193.576 105.244 193.779 104.796 194.184C104.348 194.579 104.081 195.117 103.996 195.8H108.876ZM114.399 193.48C114.708 193.075 115.13 192.733 115.663 192.456C116.196 192.179 116.799 192.04 117.471 192.04C118.239 192.04 118.938 192.232 119.567 192.616C120.207 192.989 120.708 193.517 121.071 194.2C121.434 194.883 121.615 195.667 121.615 196.552C121.615 197.437 121.434 198.232 121.071 198.936C120.708 199.629 120.207 200.173 119.567 200.568C118.938 200.952 118.239 201.144 117.471 201.144C116.799 201.144 116.202 201.011 115.679 200.744C115.156 200.467 114.73 200.125 114.399 199.72V205.192H112.575V192.184H114.399V193.48ZM119.759 196.552C119.759 195.944 119.631 195.421 119.375 194.984C119.13 194.536 118.799 194.2 118.383 193.976C117.978 193.741 117.54 193.624 117.071 193.624C116.612 193.624 116.175 193.741 115.759 193.976C115.354 194.211 115.023 194.552 114.767 195C114.522 195.448 114.399 195.976 114.399 196.584C114.399 197.192 114.522 197.725 114.767 198.184C115.023 198.632 115.354 198.973 115.759 199.208C116.175 199.443 116.612 199.56 117.071 199.56C117.54 199.56 117.978 199.443 118.383 199.208C118.799 198.963 119.13 198.611 119.375 198.152C119.631 197.693 119.759 197.16 119.759 196.552ZM127.243 201.144C126.411 201.144 125.659 200.957 124.987 200.584C124.315 200.2 123.787 199.667 123.403 198.984C123.019 198.291 122.827 197.491 122.827 196.584C122.827 195.688 123.024 194.893 123.419 194.2C123.813 193.507 124.352 192.973 125.035 192.6C125.717 192.227 126.48 192.04 127.323 192.04C128.165 192.04 128.928 192.227 129.611 192.6C130.293 192.973 130.832 193.507 131.227 194.2C131.621 194.893 131.819 195.688 131.819 196.584C131.819 197.48 131.616 198.275 131.211 198.968C130.805 199.661 130.251 200.2 129.547 200.584C128.853 200.957 128.085 201.144 127.243 201.144ZM127.243 199.56C127.712 199.56 128.149 199.448 128.555 199.224C128.971 199 129.307 198.664 129.563 198.216C129.819 197.768 129.947 197.224 129.947 196.584C129.947 195.944 129.824 195.405 129.579 194.968C129.333 194.52 129.008 194.184 128.603 193.96C128.197 193.736 127.76 193.624 127.291 193.624C126.821 193.624 126.384 193.736 125.979 193.96C125.584 194.184 125.269 194.52 125.035 194.968C124.8 195.405 124.683 195.944 124.683 196.584C124.683 197.533 124.923 198.269 125.403 198.792C125.893 199.304 126.507 199.56 127.243 199.56ZM135.446 193.464C135.713 193.016 136.065 192.669 136.502 192.424C136.95 192.168 137.478 192.04 138.086 192.04V193.928H137.622C136.907 193.928 136.363 194.109 135.99 194.472C135.627 194.835 135.446 195.464 135.446 196.36V201H133.622V192.184H135.446V193.464ZM141.891 193.672V198.552C141.891 198.883 141.965 199.123 142.115 199.272C142.275 199.411 142.541 199.48 142.915 199.48H144.035V201H142.595C141.773 201 141.144 200.808 140.707 200.424C140.269 200.04 140.051 199.416 140.051 198.552V193.672H139.011V192.184H140.051V189.992H141.891V192.184H144.035V193.672H141.891ZM158.624 194.44V195.976H150.064V194.44H158.624ZM174.492 201H172.668L167.18 192.696V201H165.356V189.864H167.18L172.668 198.152V189.864H174.492V201ZM184.968 196.376C184.968 196.707 184.946 197.005 184.904 197.272H178.168C178.221 197.976 178.482 198.541 178.952 198.968C179.421 199.395 179.997 199.608 180.68 199.608C181.661 199.608 182.354 199.197 182.76 198.376H184.727C184.461 199.187 183.976 199.853 183.272 200.376C182.578 200.888 181.714 201.144 180.68 201.144C179.837 201.144 179.08 200.957 178.408 200.584C177.746 200.2 177.224 199.667 176.84 198.984C176.466 198.291 176.28 197.491 176.28 196.584C176.28 195.677 176.461 194.883 176.824 194.2C177.197 193.507 177.714 192.973 178.376 192.6C179.048 192.227 179.816 192.04 180.68 192.04C181.512 192.04 182.253 192.221 182.904 192.584C183.554 192.947 184.061 193.459 184.424 194.12C184.786 194.771 184.968 195.523 184.968 196.376ZM183.064 195.8C183.053 195.128 182.813 194.589 182.344 194.184C181.874 193.779 181.293 193.576 180.6 193.576C179.97 193.576 179.432 193.779 178.984 194.184C178.536 194.579 178.269 195.117 178.184 195.8H183.064ZM198.603 192.184L195.867 201H193.947L192.171 194.488L190.395 201H188.475L185.723 192.184H187.579L189.419 199.272L191.291 192.184H193.195L194.987 199.24L196.811 192.184H198.603ZM210.186 189.88V197.896C210.186 198.888 209.882 199.672 209.274 200.248C208.677 200.824 207.887 201.112 206.906 201.112C205.925 201.112 205.13 200.824 204.522 200.248C203.925 199.672 203.626 198.888 203.626 197.896H205.466C205.477 198.387 205.599 198.776 205.834 199.064C206.079 199.352 206.437 199.496 206.906 199.496C207.375 199.496 207.733 199.352 207.978 199.064C208.223 198.765 208.346 198.376 208.346 197.896V189.88H210.186ZM221.233 196.376C221.233 196.707 221.212 197.005 221.169 197.272H214.433C214.486 197.976 214.748 198.541 215.217 198.968C215.686 199.395 216.262 199.608 216.945 199.608C217.926 199.608 218.62 199.197 219.025 198.376H220.993C220.726 199.187 220.241 199.853 219.537 200.376C218.844 200.888 217.98 201.144 216.945 201.144C216.102 201.144 215.345 200.957 214.673 200.584C214.012 200.2 213.489 199.667 213.105 198.984C212.732 198.291 212.545 197.491 212.545 196.584C212.545 195.677 212.726 194.883 213.089 194.2C213.462 193.507 213.98 192.973 214.641 192.6C215.313 192.227 216.081 192.04 216.945 192.04C217.777 192.04 218.518 192.221 219.169 192.584C219.82 192.947 220.326 193.459 220.689 194.12C221.052 194.771 221.233 195.523 221.233 196.376ZM219.329 195.8C219.318 195.128 219.078 194.589 218.609 194.184C218.14 193.779 217.558 193.576 216.865 193.576C216.236 193.576 215.697 193.779 215.249 194.184C214.801 194.579 214.534 195.117 214.449 195.8H219.329ZM224.852 193.464C225.119 193.016 225.471 192.669 225.908 192.424C226.356 192.168 226.884 192.04 227.492 192.04V193.928H227.028C226.313 193.928 225.769 194.109 225.396 194.472C225.033 194.835 224.852 195.464 224.852 196.36V201H223.028V192.184H224.852V193.464ZM232.369 201.144C231.675 201.144 231.051 201.021 230.497 200.776C229.953 200.52 229.521 200.179 229.201 199.752C228.881 199.315 228.71 198.829 228.689 198.296H230.577C230.609 198.669 230.785 198.984 231.105 199.24C231.435 199.485 231.846 199.608 232.337 199.608C232.849 199.608 233.243 199.512 233.521 199.32C233.809 199.117 233.953 198.861 233.953 198.552C233.953 198.221 233.793 197.976 233.473 197.816C233.163 197.656 232.667 197.48 231.985 197.288C231.323 197.107 230.785 196.931 230.369 196.76C229.953 196.589 229.59 196.328 229.281 195.976C228.982 195.624 228.833 195.16 228.833 194.584C228.833 194.115 228.971 193.688 229.249 193.304C229.526 192.909 229.921 192.6 230.433 192.376C230.955 192.152 231.553 192.04 232.225 192.04C233.227 192.04 234.033 192.296 234.641 192.808C235.259 193.309 235.59 193.997 235.633 194.872H233.809C233.777 194.477 233.617 194.163 233.329 193.928C233.041 193.693 232.651 193.576 232.161 193.576C231.681 193.576 231.313 193.667 231.057 193.848C230.801 194.029 230.673 194.269 230.673 194.568C230.673 194.803 230.758 195 230.929 195.16C231.099 195.32 231.307 195.448 231.553 195.544C231.798 195.629 232.161 195.741 232.641 195.88C233.281 196.051 233.803 196.227 234.209 196.408C234.625 196.579 234.982 196.835 235.281 197.176C235.579 197.517 235.734 197.971 235.745 198.536C235.745 199.037 235.606 199.485 235.329 199.88C235.051 200.275 234.657 200.584 234.145 200.808C233.643 201.032 233.051 201.144 232.369 201.144ZM245.796 196.376C245.796 196.707 245.774 197.005 245.732 197.272H238.996C239.049 197.976 239.31 198.541 239.78 198.968C240.249 199.395 240.825 199.608 241.508 199.608C242.489 199.608 243.182 199.197 243.588 198.376H245.556C245.289 199.187 244.804 199.853 244.1 200.376C243.406 200.888 242.542 201.144 241.508 201.144C240.665 201.144 239.908 200.957 239.236 200.584C238.574 200.2 238.052 199.667 237.668 198.984C237.294 198.291 237.108 197.491 237.108 196.584C237.108 195.677 237.289 194.883 237.652 194.2C238.025 193.507 238.542 192.973 239.204 192.6C239.876 192.227 240.644 192.04 241.508 192.04C242.34 192.04 243.081 192.221 243.732 192.584C244.382 192.947 244.889 193.459 245.252 194.12C245.614 194.771 245.796 195.523 245.796 196.376ZM243.892 195.8C243.881 195.128 243.641 194.589 243.172 194.184C242.702 193.779 242.121 193.576 241.428 193.576C240.798 193.576 240.26 193.779 239.812 194.184C239.364 194.579 239.097 195.117 239.012 195.8H243.892ZM255.527 192.184L250.119 205.144H248.231L250.023 200.856L246.551 192.184H248.583L251.063 198.904L253.639 192.184H255.527ZM257.639 201.112C257.308 201.112 257.031 201 256.807 200.776C256.583 200.552 256.471 200.275 256.471 199.944C256.471 199.613 256.583 199.336 256.807 199.112C257.031 198.888 257.308 198.776 257.639 198.776C257.959 198.776 258.231 198.888 258.455 199.112C258.679 199.336 258.791 199.613 258.791 199.944C258.791 200.275 258.679 200.552 258.455 200.776C258.231 201 257.959 201.112 257.639 201.112ZM26.272 225.112C25.2373 225.112 24.2827 224.872 23.408 224.392C22.544 223.901 21.856 223.224 21.344 222.36C20.8427 221.485 20.592 220.504 20.592 219.416C20.592 218.328 20.8427 217.352 21.344 216.488C21.856 215.624 22.544 214.952 23.408 214.472C24.2827 213.981 25.2373 213.736 26.272 213.736C27.3173 213.736 28.272 213.981 29.136 214.472C30.0107 214.952 30.6987 215.624 31.2 216.488C31.7013 217.352 31.952 218.328 31.952 219.416C31.952 220.504 31.7013 221.485 31.2 222.36C30.6987 223.224 30.0107 223.901 29.136 224.392C28.272 224.872 27.3173 225.112 26.272 225.112ZM26.272 223.528C27.008 223.528 27.664 223.363 28.24 223.032C28.816 222.691 29.264 222.211 29.584 221.592C29.9147 220.963 30.08 220.237 30.08 219.416C30.08 218.595 29.9147 217.875 29.584 217.256C29.264 216.637 28.816 216.163 28.24 215.832C27.664 215.501 27.008 215.336 26.272 215.336C25.536 215.336 24.88 215.501 24.304 215.832C23.728 216.163 23.2747 216.637 22.944 217.256C22.624 217.875 22.464 218.595 22.464 219.416C22.464 220.237 22.624 220.963 22.944 221.592C23.2747 222.211 23.728 222.691 24.304 223.032C24.88 223.363 25.536 223.528 26.272 223.528ZM41.7309 216.184V225H39.9069V223.96C39.6189 224.323 39.2402 224.611 38.7709 224.824C38.3122 225.027 37.8215 225.128 37.2989 225.128C36.6055 225.128 35.9815 224.984 35.4269 224.696C34.8829 224.408 34.4509 223.981 34.1309 223.416C33.8215 222.851 33.6669 222.168 33.6669 221.368V216.184H35.4749V221.096C35.4749 221.885 35.6722 222.493 36.0669 222.92C36.4615 223.336 37.0002 223.544 37.6829 223.544C38.3655 223.544 38.9042 223.336 39.2989 222.92C39.7042 222.493 39.9069 221.885 39.9069 221.096V216.184H41.7309ZM45.9615 217.464C46.2282 217.016 46.5802 216.669 47.0175 216.424C47.4655 216.168 47.9935 216.04 48.6015 216.04V217.928H48.1375C47.4228 217.928 46.8788 218.109 46.5055 218.472C46.1428 218.835 45.9615 219.464 45.9615 220.36V225H44.1375V216.184H45.9615V217.464ZM62.5144 220.376C62.5144 220.707 62.493 221.005 62.4504 221.272H55.7144C55.7677 221.976 56.029 222.541 56.4984 222.968C56.9677 223.395 57.5437 223.608 58.2264 223.608C59.2077 223.608 59.901 223.197 60.3064 222.376H62.2744C62.0077 223.187 61.5224 223.853 60.8184 224.376C60.125 224.888 59.261 225.144 58.2264 225.144C57.3837 225.144 56.6264 224.957 55.9544 224.584C55.293 224.2 54.7704 223.667 54.3864 222.984C54.013 222.291 53.8264 221.491 53.8264 220.584C53.8264 219.677 54.0077 218.883 54.3704 218.2C54.7437 217.507 55.261 216.973 55.9224 216.6C56.5944 216.227 57.3624 216.04 58.2264 216.04C59.0584 216.04 59.7997 216.221 60.4504 216.584C61.101 216.947 61.6077 217.459 61.9704 218.12C62.333 218.771 62.5144 219.523 62.5144 220.376ZM60.6104 219.8C60.5997 219.128 60.3597 218.589 59.8904 218.184C59.421 217.779 58.8397 217.576 58.1464 217.576C57.517 217.576 56.9784 217.779 56.5304 218.184C56.0824 218.579 55.8157 219.117 55.7304 219.8H60.6104ZM68.0854 220.536L70.9334 225H68.8694L66.9654 222.008L65.1734 225H63.2694L66.1174 220.664L63.2694 216.184H65.3334L67.2374 219.176L69.0294 216.184H70.9334L68.0854 220.536ZM74.1178 217.48C74.4271 217.075 74.8484 216.733 75.3818 216.456C75.9151 216.179 76.5178 216.04 77.1898 216.04C77.9578 216.04 78.6564 216.232 79.2858 216.616C79.9258 216.989 80.4271 217.517 80.7898 218.2C81.1524 218.883 81.3338 219.667 81.3338 220.552C81.3338 221.437 81.1524 222.232 80.7898 222.936C80.4271 223.629 79.9258 224.173 79.2858 224.568C78.6564 224.952 77.9578 225.144 77.1898 225.144C76.5178 225.144 75.9204 225.011 75.3978 224.744C74.8751 224.467 74.4484 224.125 74.1178 223.72V229.192H72.2938V216.184H74.1178V217.48ZM79.4778 220.552C79.4778 219.944 79.3498 219.421 79.0938 218.984C78.8484 218.536 78.5178 218.2 78.1018 217.976C77.6964 217.741 77.2591 217.624 76.7898 217.624C76.3311 217.624 75.8938 217.741 75.4778 217.976C75.0724 218.211 74.7418 218.552 74.4858 219C74.2404 219.448 74.1178 219.976 74.1178 220.584C74.1178 221.192 74.2404 221.725 74.4858 222.184C74.7418 222.632 75.0724 222.973 75.4778 223.208C75.8938 223.443 76.3311 223.56 76.7898 223.56C77.2591 223.56 77.6964 223.443 78.1018 223.208C78.5178 222.963 78.8484 222.611 79.0938 222.152C79.3498 221.693 79.4778 221.16 79.4778 220.552ZM91.2175 220.376C91.2175 220.707 91.1962 221.005 91.1535 221.272H84.4175C84.4708 221.976 84.7322 222.541 85.2015 222.968C85.6708 223.395 86.2468 223.608 86.9295 223.608C87.9108 223.608 88.6042 223.197 89.0095 222.376H90.9775C90.7108 223.187 90.2255 223.853 89.5215 224.376C88.8282 224.888 87.9642 225.144 86.9295 225.144C86.0868 225.144 85.3295 224.957 84.6575 224.584C83.9962 224.2 83.4735 223.667 83.0895 222.984C82.7162 222.291 82.5295 221.491 82.5295 220.584C82.5295 219.677 82.7108 218.883 83.0735 218.2C83.4468 217.507 83.9642 216.973 84.6255 216.6C85.2975 216.227 86.0655 216.04 86.9295 216.04C87.7615 216.04 88.5028 216.221 89.1535 216.584C89.8042 216.947 90.3108 217.459 90.6735 218.12C91.0362 218.771 91.2175 219.523 91.2175 220.376ZM89.3135 219.8C89.3028 219.128 89.0628 218.589 88.5935 218.184C88.1242 217.779 87.5428 217.576 86.8495 217.576C86.2202 217.576 85.6815 217.779 85.2335 218.184C84.7855 218.579 84.5188 219.117 84.4335 219.8H89.3135ZM94.8365 217.464C95.1032 217.016 95.4552 216.669 95.8925 216.424C96.3405 216.168 96.8685 216.04 97.4765 216.04V217.928H97.0125C96.2978 217.928 95.7538 218.109 95.3805 218.472C95.0178 218.835 94.8365 219.464 94.8365 220.36V225H93.0125V216.184H94.8365V217.464ZM101.281 217.672V222.552C101.281 222.883 101.356 223.123 101.505 223.272C101.665 223.411 101.932 223.48 102.305 223.48H103.425V225H101.985C101.164 225 100.534 224.808 100.097 224.424C99.6598 224.04 99.4411 223.416 99.4411 222.552V217.672H98.4011V216.184H99.4411V213.992H101.281V216.184H103.425V217.672H101.281ZM111.391 217.672V222.552C111.391 222.883 111.465 223.123 111.615 223.272C111.775 223.411 112.041 223.48 112.415 223.48H113.535V225H112.095C111.273 225 110.644 224.808 110.207 224.424C109.769 224.04 109.551 223.416 109.551 222.552V217.672H108.511V216.184H109.551V213.992H111.391V216.184H113.535V217.672H111.391ZM123.296 220.376C123.296 220.707 123.274 221.005 123.232 221.272H116.496C116.549 221.976 116.81 222.541 117.28 222.968C117.749 223.395 118.325 223.608 119.008 223.608C119.989 223.608 120.682 223.197 121.088 222.376H123.056C122.789 223.187 122.304 223.853 121.6 224.376C120.906 224.888 120.042 225.144 119.008 225.144C118.165 225.144 117.408 224.957 116.736 224.584C116.074 224.2 115.552 223.667 115.168 222.984C114.794 222.291 114.608 221.491 114.608 220.584C114.608 219.677 114.789 218.883 115.152 218.2C115.525 217.507 116.042 216.973 116.704 216.6C117.376 216.227 118.144 216.04 119.008 216.04C119.84 216.04 120.581 216.221 121.232 216.584C121.882 216.947 122.389 217.459 122.752 218.12C123.114 218.771 123.296 219.523 123.296 220.376ZM121.392 219.8C121.381 219.128 121.141 218.589 120.672 218.184C120.202 217.779 119.621 217.576 118.928 217.576C118.298 217.576 117.76 217.779 117.312 218.184C116.864 218.579 116.597 219.117 116.512 219.8H121.392ZM124.483 220.552C124.483 219.667 124.664 218.883 125.027 218.2C125.4 217.517 125.901 216.989 126.531 216.616C127.171 216.232 127.875 216.04 128.643 216.04C129.336 216.04 129.939 216.179 130.451 216.456C130.973 216.723 131.389 217.059 131.699 217.464V216.184H133.539V225H131.699V223.688C131.389 224.104 130.968 224.451 130.435 224.728C129.901 225.005 129.293 225.144 128.611 225.144C127.853 225.144 127.16 224.952 126.531 224.568C125.901 224.173 125.4 223.629 125.027 222.936C124.664 222.232 124.483 221.437 124.483 220.552ZM131.699 220.584C131.699 219.976 131.571 219.448 131.315 219C131.069 218.552 130.744 218.211 130.339 217.976C129.933 217.741 129.496 217.624 129.027 217.624C128.557 217.624 128.12 217.741 127.715 217.976C127.309 218.2 126.979 218.536 126.723 218.984C126.477 219.421 126.355 219.944 126.355 220.552C126.355 221.16 126.477 221.693 126.723 222.152C126.979 222.611 127.309 222.963 127.715 223.208C128.131 223.443 128.568 223.56 129.027 223.56C129.496 223.56 129.933 223.443 130.339 223.208C130.744 222.973 131.069 222.632 131.315 222.184C131.571 221.725 131.699 221.192 131.699 220.584ZM146.606 216.04C147.3 216.04 147.918 216.184 148.462 216.472C149.017 216.76 149.449 217.187 149.758 217.752C150.078 218.317 150.238 219 150.238 219.8V225H148.43V220.072C148.43 219.283 148.233 218.68 147.838 218.264C147.444 217.837 146.905 217.624 146.222 217.624C145.54 217.624 144.996 217.837 144.59 218.264C144.196 218.68 143.998 219.283 143.998 220.072V225H142.19V220.072C142.19 219.283 141.993 218.68 141.598 218.264C141.204 217.837 140.665 217.624 139.982 217.624C139.3 217.624 138.756 217.837 138.35 218.264C137.956 218.68 137.758 219.283 137.758 220.072V225H135.934V216.184H137.758V217.192C138.057 216.829 138.436 216.547 138.894 216.344C139.353 216.141 139.844 216.04 140.366 216.04C141.07 216.04 141.7 216.189 142.254 216.488C142.809 216.787 143.236 217.219 143.534 217.784C143.801 217.251 144.217 216.829 144.782 216.52C145.348 216.2 145.956 216.04 146.606 216.04ZM161.276 216.04C161.948 216.04 162.545 216.184 163.068 216.472C163.601 216.76 164.017 217.187 164.316 217.752C164.625 218.317 164.78 219 164.78 219.8V225H162.972V220.072C162.972 219.283 162.774 218.68 162.38 218.264C161.985 217.837 161.446 217.624 160.764 217.624C160.081 217.624 159.537 217.837 159.132 218.264C158.737 218.68 158.54 219.283 158.54 220.072V225H156.716V213.16H158.54V217.208C158.849 216.835 159.238 216.547 159.708 216.344C160.188 216.141 160.71 216.04 161.276 216.04ZM166.498 220.552C166.498 219.667 166.68 218.883 167.042 218.2C167.416 217.517 167.917 216.989 168.546 216.616C169.186 216.232 169.89 216.04 170.658 216.04C171.352 216.04 171.954 216.179 172.466 216.456C172.989 216.723 173.405 217.059 173.714 217.464V216.184H175.554V225H173.714V223.688C173.405 224.104 172.984 224.451 172.45 224.728C171.917 225.005 171.309 225.144 170.626 225.144C169.869 225.144 169.176 224.952 168.546 224.568C167.917 224.173 167.416 223.629 167.042 222.936C166.68 222.232 166.498 221.437 166.498 220.552ZM173.714 220.584C173.714 219.976 173.586 219.448 173.33 219C173.085 218.552 172.76 218.211 172.354 217.976C171.949 217.741 171.512 217.624 171.042 217.624C170.573 217.624 170.136 217.741 169.73 217.976C169.325 218.2 168.994 218.536 168.738 218.984C168.493 219.421 168.37 219.944 168.37 220.552C168.37 221.16 168.493 221.693 168.738 222.152C168.994 222.611 169.325 222.963 169.73 223.208C170.146 223.443 170.584 223.56 171.042 223.56C171.512 223.56 171.949 223.443 172.354 223.208C172.76 222.973 173.085 222.632 173.33 222.184C173.586 221.725 173.714 221.192 173.714 220.584ZM181.15 225.144C180.457 225.144 179.833 225.021 179.278 224.776C178.734 224.52 178.302 224.179 177.982 223.752C177.662 223.315 177.491 222.829 177.47 222.296H179.358C179.39 222.669 179.566 222.984 179.886 223.24C180.217 223.485 180.627 223.608 181.118 223.608C181.63 223.608 182.025 223.512 182.302 223.32C182.59 223.117 182.734 222.861 182.734 222.552C182.734 222.221 182.574 221.976 182.254 221.816C181.945 221.656 181.449 221.48 180.766 221.288C180.105 221.107 179.566 220.931 179.15 220.76C178.734 220.589 178.371 220.328 178.062 219.976C177.763 219.624 177.614 219.16 177.614 218.584C177.614 218.115 177.753 217.688 178.03 217.304C178.307 216.909 178.702 216.6 179.214 216.376C179.737 216.152 180.334 216.04 181.006 216.04C182.009 216.04 182.814 216.296 183.422 216.808C184.041 217.309 184.371 217.997 184.414 218.872H182.59C182.558 218.477 182.398 218.163 182.11 217.928C181.822 217.693 181.433 217.576 180.942 217.576C180.462 217.576 180.094 217.667 179.838 217.848C179.582 218.029 179.454 218.269 179.454 218.568C179.454 218.803 179.539 219 179.71 219.16C179.881 219.32 180.089 219.448 180.334 219.544C180.579 219.629 180.942 219.741 181.422 219.88C182.062 220.051 182.585 220.227 182.99 220.408C183.406 220.579 183.763 220.835 184.062 221.176C184.361 221.517 184.515 221.971 184.526 222.536C184.526 223.037 184.387 223.485 184.11 223.88C183.833 224.275 183.438 224.584 182.926 224.808C182.425 225.032 181.833 225.144 181.15 225.144ZM193.853 225.144C193.16 225.144 192.536 225.021 191.981 224.776C191.437 224.52 191.005 224.179 190.685 223.752C190.365 223.315 190.194 222.829 190.173 222.296H192.061C192.093 222.669 192.269 222.984 192.589 223.24C192.92 223.485 193.33 223.608 193.821 223.608C194.333 223.608 194.728 223.512 195.005 223.32C195.293 223.117 195.437 222.861 195.437 222.552C195.437 222.221 195.277 221.976 194.957 221.816C194.648 221.656 194.152 221.48 193.469 221.288C192.808 221.107 192.269 220.931 191.853 220.76C191.437 220.589 191.074 220.328 190.765 219.976C190.466 219.624 190.317 219.16 190.317 218.584C190.317 218.115 190.456 217.688 190.733 217.304C191.01 216.909 191.405 216.6 191.917 216.376C192.44 216.152 193.037 216.04 193.709 216.04C194.712 216.04 195.517 216.296 196.125 216.808C196.744 217.309 197.074 217.997 197.117 218.872H195.293C195.261 218.477 195.101 218.163 194.813 217.928C194.525 217.693 194.136 217.576 193.645 217.576C193.165 217.576 192.797 217.667 192.541 217.848C192.285 218.029 192.157 218.269 192.157 218.568C192.157 218.803 192.242 219 192.413 219.16C192.584 219.32 192.792 219.448 193.037 219.544C193.282 219.629 193.645 219.741 194.125 219.88C194.765 220.051 195.288 220.227 195.693 220.408C196.109 220.579 196.466 220.835 196.765 221.176C197.064 221.517 197.218 221.971 197.229 222.536C197.229 223.037 197.09 223.485 196.813 223.88C196.536 224.275 196.141 224.584 195.629 224.808C195.128 225.032 194.536 225.144 193.853 225.144ZM201.328 217.672V222.552C201.328 222.883 201.403 223.123 201.552 223.272C201.712 223.411 201.979 223.48 202.352 223.48H203.472V225H202.032C201.211 225 200.581 224.808 200.144 224.424C199.707 224.04 199.488 223.416 199.488 222.552V217.672H198.448V216.184H199.488V213.992H201.328V216.184H203.472V217.672H201.328ZM213.137 216.184V225H211.313V223.96C211.025 224.323 210.646 224.611 210.177 224.824C209.718 225.027 209.228 225.128 208.705 225.128C208.012 225.128 207.388 224.984 206.833 224.696C206.289 224.408 205.857 223.981 205.537 223.416C205.228 222.851 205.073 222.168 205.073 221.368V216.184H206.881V221.096C206.881 221.885 207.078 222.493 207.473 222.92C207.868 223.336 208.406 223.544 209.089 223.544C209.772 223.544 210.31 223.336 210.705 222.92C211.11 222.493 211.313 221.885 211.313 221.096V216.184H213.137ZM214.936 220.552C214.936 219.667 215.117 218.883 215.48 218.2C215.853 217.517 216.354 216.989 216.984 216.616C217.624 216.232 218.333 216.04 219.112 216.04C219.688 216.04 220.253 216.168 220.808 216.424C221.373 216.669 221.821 217 222.152 217.416V213.16H223.992V225H222.152V223.672C221.853 224.099 221.437 224.451 220.904 224.728C220.381 225.005 219.778 225.144 219.096 225.144C218.328 225.144 217.624 224.952 216.984 224.568C216.354 224.173 215.853 223.629 215.48 222.936C215.117 222.232 214.936 221.437 214.936 220.552ZM222.152 220.584C222.152 219.976 222.024 219.448 221.768 219C221.522 218.552 221.197 218.211 220.792 217.976C220.386 217.741 219.949 217.624 219.48 217.624C219.01 217.624 218.573 217.741 218.168 217.976C217.762 218.2 217.432 218.536 217.176 218.984C216.93 219.421 216.808 219.944 216.808 220.552C216.808 221.16 216.93 221.693 217.176 222.152C217.432 222.611 217.762 222.963 218.168 223.208C218.584 223.443 219.021 223.56 219.48 223.56C219.949 223.56 220.386 223.443 220.792 223.208C221.197 222.973 221.522 222.632 221.768 222.184C222.024 221.725 222.152 221.192 222.152 220.584ZM227.316 215.016C226.985 215.016 226.708 214.904 226.484 214.68C226.26 214.456 226.148 214.179 226.148 213.848C226.148 213.517 226.26 213.24 226.484 213.016C226.708 212.792 226.985 212.68 227.316 212.68C227.636 212.68 227.908 212.792 228.132 213.016C228.356 213.24 228.468 213.517 228.468 213.848C228.468 214.179 228.356 214.456 228.132 214.68C227.908 214.904 227.636 215.016 227.316 215.016ZM228.212 216.184V225H226.388V216.184H228.212ZM238.686 220.376C238.686 220.707 238.665 221.005 238.622 221.272H231.886C231.94 221.976 232.201 222.541 232.67 222.968C233.14 223.395 233.716 223.608 234.398 223.608C235.38 223.608 236.073 223.197 236.478 222.376H238.446C238.18 223.187 237.694 223.853 236.99 224.376C236.297 224.888 235.433 225.144 234.398 225.144C233.556 225.144 232.798 224.957 232.126 224.584C231.465 224.2 230.942 223.667 230.558 222.984C230.185 222.291 229.998 221.491 229.998 220.584C229.998 219.677 230.18 218.883 230.542 218.2C230.916 217.507 231.433 216.973 232.094 216.6C232.766 216.227 233.534 216.04 234.398 216.04C235.23 216.04 235.972 216.221 236.622 216.584C237.273 216.947 237.78 217.459 238.142 218.12C238.505 218.771 238.686 219.523 238.686 220.376ZM236.782 219.8C236.772 219.128 236.532 218.589 236.062 218.184C235.593 217.779 235.012 217.576 234.318 217.576C233.689 217.576 233.15 217.779 232.702 218.184C232.254 218.579 231.988 219.117 231.902 219.8H236.782ZM239.873 220.552C239.873 219.667 240.055 218.883 240.417 218.2C240.791 217.517 241.292 216.989 241.921 216.616C242.561 216.232 243.271 216.04 244.049 216.04C244.625 216.04 245.191 216.168 245.745 216.424C246.311 216.669 246.759 217 247.089 217.416V213.16H248.929V225H247.089V223.672C246.791 224.099 246.375 224.451 245.841 224.728C245.319 225.005 244.716 225.144 244.033 225.144C243.265 225.144 242.561 224.952 241.921 224.568C241.292 224.173 240.791 223.629 240.417 222.936C240.055 222.232 239.873 221.437 239.873 220.552ZM247.089 220.584C247.089 219.976 246.961 219.448 246.705 219C246.46 218.552 246.135 218.211 245.729 217.976C245.324 217.741 244.887 217.624 244.417 217.624C243.948 217.624 243.511 217.741 243.105 217.976C242.7 218.2 242.369 218.536 242.113 218.984C241.868 219.421 241.745 219.944 241.745 220.552C241.745 221.16 241.868 221.693 242.113 222.152C242.369 222.611 242.7 222.963 243.105 223.208C243.521 223.443 243.959 223.56 244.417 223.56C244.887 223.56 245.324 223.443 245.729 223.208C246.135 222.973 246.46 222.632 246.705 222.184C246.961 221.725 247.089 221.192 247.089 220.584ZM30.336 249H28.512L23.024 240.696V249H21.2V237.864H23.024L28.512 246.152V237.864H30.336V249ZM40.8113 244.376C40.8113 244.707 40.7899 245.005 40.7473 245.272H34.0113C34.0646 245.976 34.3259 246.541 34.7953 246.968C35.2646 247.395 35.8406 247.608 36.5233 247.608C37.5046 247.608 38.1979 247.197 38.6033 246.376H40.5712C40.3046 247.187 39.8193 247.853 39.1153 248.376C38.4219 248.888 37.5579 249.144 36.5233 249.144C35.6806 249.144 34.9233 248.957 34.2513 248.584C33.5899 248.2 33.0673 247.667 32.6833 246.984C32.3099 246.291 32.1233 245.491 32.1233 244.584C32.1233 243.677 32.3046 242.883 32.6673 242.2C33.0406 241.507 33.5579 240.973 34.2193 240.6C34.8913 240.227 35.6593 240.04 36.5233 240.04C37.3553 240.04 38.0966 240.221 38.7473 240.584C39.3979 240.947 39.9046 241.459 40.2673 242.12C40.6299 242.771 40.8113 243.523 40.8113 244.376ZM38.9073 243.8C38.8966 243.128 38.6566 242.589 38.1873 242.184C37.7179 241.779 37.1366 241.576 36.4433 241.576C35.8139 241.576 35.2753 241.779 34.8273 242.184C34.3793 242.579 34.1126 243.117 34.0273 243.8H38.9073ZM54.4463 240.184L51.7103 249H49.7903L48.0143 242.488L46.2383 249H44.3183L41.5663 240.184H43.4223L45.2623 247.272L47.1343 240.184H49.0383L50.8303 247.24L52.6543 240.184H54.4463ZM56.5454 249.112C56.2147 249.112 55.9374 249 55.7134 248.776C55.4894 248.552 55.3774 248.275 55.3774 247.944C55.3774 247.613 55.4894 247.336 55.7134 247.112C55.9374 246.888 56.2147 246.776 56.5454 246.776C56.8654 246.776 57.1374 246.888 57.3614 247.112C57.5854 247.336 57.6974 247.613 57.6974 247.944C57.6974 248.275 57.5854 248.552 57.3614 248.776C57.1374 249 56.8654 249.112 56.5454 249.112ZM60.4048 249.112C60.0741 249.112 59.7968 249 59.5728 248.776C59.3488 248.552 59.2368 248.275 59.2368 247.944C59.2368 247.613 59.3488 247.336 59.5728 247.112C59.7968 246.888 60.0741 246.776 60.4048 246.776C60.7248 246.776 60.9968 246.888 61.2208 247.112C61.4448 247.336 61.5568 247.613 61.5568 247.944C61.5568 248.275 61.4448 248.552 61.2208 248.776C60.9968 249 60.7248 249.112 60.4048 249.112ZM64.2641 249.112C63.9335 249.112 63.6561 249 63.4321 248.776C63.2081 248.552 63.0961 248.275 63.0961 247.944C63.0961 247.613 63.2081 247.336 63.4321 247.112C63.6561 246.888 63.9335 246.776 64.2641 246.776C64.5841 246.776 64.8561 246.888 65.0801 247.112C65.3041 247.336 65.4161 247.613 65.4161 247.944C65.4161 248.275 65.3041 248.552 65.0801 248.776C64.8561 249 64.5841 249.112 64.2641 249.112Z" fill="#2E2E2E"/>
<mask id="mask1_105_1260" style="mask-type:alpha" maskUnits="userSpaceOnUse" x="20" y="278" width="24" height="24">
<rect x="20" y="278" width="24" height="24" fill="#D9D9D9"/>
</mask>
<g mask="url(#mask1_105_1260)">
<path d="M34.625 294.025C34.8083 294.208 35.0333 294.3 35.3 294.3C35.5667 294.3 35.8 294.2 36 294C36.1833 293.817 36.275 293.583 36.275 293.3C36.275 293.017 36.1833 292.783 36 292.6L33 289.6V285.975C33 285.692 32.9042 285.458 32.7125 285.275C32.5208 285.092 32.2833 285 32 285C31.7167 285 31.4792 285.096 31.2875 285.287C31.0958 285.479 31 285.717 31 286V289.975C31 290.108 31.025 290.238 31.075 290.363C31.125 290.488 31.2 290.6 31.3 290.7L34.625 294.025ZM32 300C30.6167 300 29.3167 299.737 28.1 299.212C26.8833 298.688 25.825 297.975 24.925 297.075C24.025 296.175 23.3125 295.117 22.7875 293.9C22.2625 292.683 22 291.383 22 290C22 288.617 22.2625 287.317 22.7875 286.1C23.3125 284.883 24.025 283.825 24.925 282.925C25.825 282.025 26.8833 281.312 28.1 280.788C29.3167 280.262 30.6167 280 32 280C33.3833 280 34.6833 280.262 35.9 280.788C37.1167 281.312 38.175 282.025 39.075 282.925C39.975 283.825 40.6875 284.883 41.2125 286.1C41.7375 287.317 42 288.617 42 290C42 291.383 41.7375 292.683 41.2125 293.9C40.6875 295.117 39.975 296.175 39.075 297.075C38.175 297.975 37.1167 298.688 35.9 299.212C34.6833 299.737 33.3833 300 32 300ZM32 298C34.2167 298 36.1042 297.221 37.6625 295.663C39.2208 294.104 40 292.217 40 290C40 287.783 39.2208 285.896 37.6625 284.338C36.1042 282.779 34.2167 282 32 282C29.7833 282 27.8958 282.779 26.3375 284.338C24.7792 285.896 24 287.783 24 290C24 292.217 24.7792 294.104 26.3375 295.663C27.8958 297.221 29.7833 298 32 298Z" fill="#2E2E2E"/>
</g>
<path d="M51.562 289.166C50.5913 288.681 50.106 287.915 50.106 286.87C50.106 286.366 50.232 285.904 50.484 285.484C50.736 285.064 51.114 284.733 51.618 284.49C52.122 284.238 52.738 284.112 53.466 284.112C54.1847 284.112 54.796 284.238 55.3 284.49C55.8133 284.733 56.196 285.064 56.448 285.484C56.7 285.904 56.826 286.366 56.826 286.87C56.826 287.393 56.6907 287.855 56.42 288.256C56.1587 288.648 55.8087 288.951 55.37 289.166C55.902 289.362 56.322 289.684 56.63 290.132C56.938 290.571 57.092 291.089 57.092 291.686C57.092 292.293 56.938 292.829 56.63 293.296C56.322 293.763 55.8927 294.122 55.342 294.374C54.7913 294.626 54.166 294.752 53.466 294.752C52.766 294.752 52.1407 294.626 51.59 294.374C51.0487 294.122 50.624 293.763 50.316 293.296C50.008 292.829 49.854 292.293 49.854 291.686C49.854 291.079 50.008 290.557 50.316 290.118C50.624 289.679 51.0393 289.362 51.562 289.166ZM55.3 287.066C55.3 286.543 55.1367 286.142 54.81 285.862C54.4833 285.582 54.0353 285.442 53.466 285.442C52.906 285.442 52.4627 285.582 52.136 285.862C51.8093 286.142 51.646 286.548 51.646 287.08C51.646 287.547 51.814 287.929 52.15 288.228C52.4953 288.517 52.934 288.662 53.466 288.662C53.998 288.662 54.4367 288.513 54.782 288.214C55.1273 287.915 55.3 287.533 55.3 287.066ZM53.466 289.866C52.85 289.866 52.346 290.02 51.954 290.328C51.5713 290.627 51.38 291.061 51.38 291.63C51.38 292.162 51.5667 292.596 51.94 292.932C52.3133 293.259 52.822 293.422 53.466 293.422C54.1007 293.422 54.6 293.254 54.964 292.918C55.3373 292.582 55.524 292.153 55.524 291.63C55.524 291.07 55.3327 290.636 54.95 290.328C54.5767 290.02 54.082 289.866 53.466 289.866ZM65.8205 294.598C65.1671 294.598 64.5791 294.486 64.0565 294.262C63.5338 294.029 63.1231 293.702 62.8245 293.282C62.5258 292.862 62.3765 292.372 62.3765 291.812H64.0845C64.1218 292.232 64.2851 292.577 64.5745 292.848C64.8731 293.119 65.2885 293.254 65.8205 293.254C66.3711 293.254 66.8005 293.123 67.1085 292.862C67.4165 292.591 67.5705 292.246 67.5705 291.826C67.5705 291.499 67.4725 291.233 67.2765 291.028C67.0898 290.823 66.8518 290.664 66.5625 290.552C66.2825 290.44 65.8905 290.319 65.3865 290.188C64.7518 290.02 64.2338 289.852 63.8325 289.684C63.4405 289.507 63.1045 289.236 62.8245 288.872C62.5445 288.508 62.4045 288.023 62.4045 287.416C62.4045 286.856 62.5445 286.366 62.8245 285.946C63.1045 285.526 63.4965 285.204 64.0005 284.98C64.5045 284.756 65.0878 284.644 65.7505 284.644C66.6931 284.644 67.4631 284.882 68.0605 285.358C68.6671 285.825 69.0031 286.469 69.0685 287.29H67.3045C67.2765 286.935 67.1085 286.632 66.8005 286.38C66.4925 286.128 66.0865 286.002 65.5825 286.002C65.1251 286.002 64.7518 286.119 64.4625 286.352C64.1731 286.585 64.0285 286.921 64.0285 287.36C64.0285 287.659 64.1171 287.906 64.2945 288.102C64.4811 288.289 64.7145 288.438 64.9945 288.55C65.2745 288.662 65.6571 288.783 66.1425 288.914C66.7865 289.091 67.3091 289.269 67.7105 289.446C68.1211 289.623 68.4665 289.899 68.7465 290.272C69.0358 290.636 69.1805 291.126 69.1805 291.742C69.1805 292.237 69.0451 292.703 68.7745 293.142C68.5131 293.581 68.1258 293.935 67.6125 294.206C67.1085 294.467 66.5111 294.598 65.8205 294.598ZM78.1337 290.454C78.1337 290.743 78.115 291.005 78.0777 291.238H72.1837C72.2303 291.854 72.459 292.349 72.8697 292.722C73.2803 293.095 73.7843 293.282 74.3817 293.282C75.2403 293.282 75.847 292.923 76.2017 292.204H77.9237C77.6903 292.913 77.2657 293.497 76.6497 293.954C76.043 294.402 75.287 294.626 74.3817 294.626C73.6443 294.626 72.9817 294.463 72.3937 294.136C71.815 293.8 71.3577 293.333 71.0217 292.736C70.695 292.129 70.5317 291.429 70.5317 290.636C70.5317 289.843 70.6903 289.147 71.0077 288.55C71.3343 287.943 71.787 287.477 72.3657 287.15C72.9537 286.823 73.6257 286.66 74.3817 286.66C75.1097 286.66 75.7583 286.819 76.3277 287.136C76.897 287.453 77.3403 287.901 77.6577 288.48C77.975 289.049 78.1337 289.707 78.1337 290.454ZM76.4677 289.95C76.4583 289.362 76.2483 288.891 75.8377 288.536C75.427 288.181 74.9183 288.004 74.3117 288.004C73.761 288.004 73.2897 288.181 72.8977 288.536C72.5057 288.881 72.2723 289.353 72.1977 289.95H76.4677ZM81.3003 287.92C81.571 287.565 81.9396 287.267 82.4063 287.024C82.873 286.781 83.4003 286.66 83.9883 286.66C84.6603 286.66 85.2716 286.828 85.8223 287.164C86.3823 287.491 86.821 287.953 87.1383 288.55C87.4556 289.147 87.6143 289.833 87.6143 290.608C87.6143 291.383 87.4556 292.078 87.1383 292.694C86.821 293.301 86.3823 293.777 85.8223 294.122C85.2716 294.458 84.6603 294.626 83.9883 294.626C83.4003 294.626 82.8776 294.509 82.4203 294.276C81.963 294.033 81.5896 293.735 81.3003 293.38V298.168H79.7043V286.786H81.3003V287.92ZM85.9903 290.608C85.9903 290.076 85.8783 289.619 85.6543 289.236C85.4396 288.844 85.1503 288.55 84.7863 288.354C84.4316 288.149 84.049 288.046 83.6383 288.046C83.237 288.046 82.8543 288.149 82.4903 288.354C82.1356 288.559 81.8463 288.858 81.6223 289.25C81.4076 289.642 81.3003 290.104 81.3003 290.636C81.3003 291.168 81.4076 291.635 81.6223 292.036C81.8463 292.428 82.1356 292.727 82.4903 292.932C82.8543 293.137 83.237 293.24 83.6383 293.24C84.049 293.24 84.4316 293.137 84.7863 292.932C85.1503 292.717 85.4396 292.409 85.6543 292.008C85.8783 291.607 85.9903 291.14 85.9903 290.608ZM93.5013 292.33C94.3973 291.555 95.102 290.921 95.6153 290.426C96.138 289.922 96.572 289.399 96.9173 288.858C97.2626 288.317 97.4353 287.775 97.4353 287.234C97.4353 286.674 97.3 286.235 97.0293 285.918C96.768 285.601 96.3526 285.442 95.7833 285.442C95.2326 285.442 94.8033 285.619 94.4953 285.974C94.1966 286.319 94.038 286.786 94.0193 287.374H92.4793C92.5073 286.31 92.8246 285.498 93.4313 284.938C94.0473 284.369 94.8266 284.084 95.7693 284.084C96.7866 284.084 97.58 284.364 98.1493 284.924C98.728 285.484 99.0173 286.231 99.0173 287.164C99.0173 287.836 98.8446 288.485 98.4993 289.11C98.1633 289.726 97.7573 290.281 97.2813 290.776C96.8146 291.261 96.2173 291.826 95.4893 292.47L94.8593 293.03H99.2973V294.36H92.4933V293.198L93.5013 292.33ZM100.699 289.264C100.699 287.649 100.97 286.389 101.511 285.484C102.062 284.569 103.005 284.112 104.339 284.112C105.674 284.112 106.612 284.569 107.153 285.484C107.704 286.389 107.979 287.649 107.979 289.264C107.979 290.897 107.704 292.176 107.153 293.1C106.612 294.015 105.674 294.472 104.339 294.472C103.005 294.472 102.062 294.015 101.511 293.1C100.97 292.176 100.699 290.897 100.699 289.264ZM106.411 289.264C106.411 288.508 106.36 287.869 106.257 287.346C106.164 286.823 105.968 286.399 105.669 286.072C105.371 285.736 104.927 285.568 104.339 285.568C103.751 285.568 103.308 285.736 103.009 286.072C102.711 286.399 102.51 286.823 102.407 287.346C102.314 287.869 102.267 288.508 102.267 289.264C102.267 290.048 102.314 290.706 102.407 291.238C102.501 291.77 102.697 292.199 102.995 292.526C103.303 292.853 103.751 293.016 104.339 293.016C104.927 293.016 105.371 292.853 105.669 292.526C105.977 292.199 106.178 291.77 106.271 291.238C106.365 290.706 106.411 290.048 106.411 289.264ZM110.55 292.33C111.446 291.555 112.151 290.921 112.664 290.426C113.187 289.922 113.621 289.399 113.966 288.858C114.311 288.317 114.484 287.775 114.484 287.234C114.484 286.674 114.349 286.235 114.078 285.918C113.817 285.601 113.401 285.442 112.832 285.442C112.281 285.442 111.852 285.619 111.544 285.974C111.245 286.319 111.087 286.786 111.068 287.374H109.528C109.556 286.31 109.873 285.498 110.48 284.938C111.096 284.369 111.875 284.084 112.818 284.084C113.835 284.084 114.629 284.364 115.198 284.924C115.777 285.484 116.066 286.231 116.066 287.164C116.066 287.836 115.893 288.485 115.548 289.11C115.212 289.726 114.806 290.281 114.33 290.776C113.863 291.261 113.266 291.826 112.538 292.47L111.908 293.03H116.346V294.36H109.542V293.198L110.55 292.33ZM117.538 285.75V284.294H120.45V294.5H118.84V285.75H117.538Z" fill="#2E2E2E"/>
</svg>
