<svg width="297" height="335" viewBox="0 0 297 335" fill="none" xmlns="http://www.w3.org/2000/svg">
<rect y="10" width="287" height="325" rx="10" fill="#2E2E2E"/>
<rect x="10.5" y="0.5" width="286" height="324" rx="9.5" fill="#EDECFF" stroke="#9F9BD5"/>
<line x1="22" y1="137.5" x2="285" y2="137.5" stroke="#2E2E2E" stroke-dasharray="3 3"/>
<path d="M24.194 17.364V30H21.116V17.364H24.194ZM37.7286 30H34.6506L29.5026 22.206V30H26.4246V17.364H29.5026L34.6506 25.194V17.364H37.7286V30ZM44.6938 17.364C46.0258 17.364 47.1898 17.628 48.1858 18.156C49.1818 18.684 49.9498 19.428 50.4898 20.388C51.0418 21.336 51.3178 22.434 51.3178 23.682C51.3178 24.918 51.0418 26.016 50.4898 26.976C49.9498 27.936 49.1758 28.68 48.1678 29.208C47.1718 29.736 46.0138 30 44.6938 30H39.9598V17.364H44.6938ZM44.4958 27.336C45.6598 27.336 46.5658 27.018 47.2138 26.382C47.8618 25.746 48.1858 24.846 48.1858 23.682C48.1858 22.518 47.8618 21.612 47.2138 20.964C46.5658 20.316 45.6598 19.992 44.4958 19.992H43.0378V27.336H44.4958ZM59.0139 30.126C57.8259 30.126 56.7339 29.85 55.7379 29.298C54.7539 28.746 53.9679 27.978 53.3799 26.994C52.8039 25.998 52.5159 24.882 52.5159 23.646C52.5159 22.41 52.8039 21.3 53.3799 20.316C53.9679 19.332 54.7539 18.564 55.7379 18.012C56.7339 17.46 57.8259 17.184 59.0139 17.184C60.2019 17.184 61.2879 17.46 62.2719 18.012C63.2679 18.564 64.0479 19.332 64.6119 20.316C65.1879 21.3 65.4759 22.41 65.4759 23.646C65.4759 24.882 65.1879 25.998 64.6119 26.994C64.0359 27.978 63.2559 28.746 62.2719 29.298C61.2879 29.85 60.2019 30.126 59.0139 30.126ZM59.0139 27.318C60.0219 27.318 60.8259 26.982 61.4259 26.31C62.0379 25.638 62.3439 24.75 62.3439 23.646C62.3439 22.53 62.0379 21.642 61.4259 20.982C60.8259 20.31 60.0219 19.974 59.0139 19.974C57.9939 19.974 57.1779 20.304 56.5659 20.964C55.9659 21.624 55.6659 22.518 55.6659 23.646C55.6659 24.762 55.9659 25.656 56.5659 26.328C57.1779 26.988 57.9939 27.318 59.0139 27.318ZM78.4923 30H75.4143L70.2663 22.206V30H67.1883V17.364H70.2663L75.4143 25.194V17.364H78.4923V30ZM83.8014 19.83V22.386H87.9234V24.762H83.8014V27.534H88.4634V30H80.7234V17.364H88.4634V19.83H83.8014ZM95.0337 30.126C94.1097 30.126 93.2817 29.976 92.5497 29.676C91.8177 29.376 91.2297 28.932 90.7857 28.344C90.3537 27.756 90.1257 27.048 90.1017 26.22H93.3777C93.4257 26.688 93.5877 27.048 93.8637 27.3C94.1397 27.54 94.4997 27.66 94.9437 27.66C95.3997 27.66 95.7597 27.558 96.0237 27.354C96.2877 27.138 96.4197 26.844 96.4197 26.472C96.4197 26.16 96.3117 25.902 96.0957 25.698C95.8917 25.494 95.6337 25.326 95.3217 25.194C95.0217 25.062 94.5897 24.912 94.0257 24.744C93.2097 24.492 92.5437 24.24 92.0277 23.988C91.5117 23.736 91.0677 23.364 90.6957 22.872C90.3237 22.38 90.1377 21.738 90.1377 20.946C90.1377 19.77 90.5637 18.852 91.4157 18.192C92.2677 17.52 93.3777 17.184 94.7457 17.184C96.1377 17.184 97.2597 17.52 98.1117 18.192C98.9637 18.852 99.4197 19.776 99.4797 20.964H96.1497C96.1257 20.556 95.9757 20.238 95.6997 20.01C95.4237 19.77 95.0697 19.65 94.6377 19.65C94.2657 19.65 93.9657 19.752 93.7377 19.956C93.5097 20.148 93.3957 20.43 93.3957 20.802C93.3957 21.21 93.5877 21.528 93.9717 21.756C94.3557 21.984 94.9557 22.23 95.7717 22.494C96.5877 22.77 97.2477 23.034 97.7517 23.286C98.2677 23.538 98.7117 23.904 99.0837 24.384C99.4557 24.864 99.6417 25.482 99.6417 26.238C99.6417 26.958 99.4557 27.612 99.0837 28.2C98.7237 28.788 98.1957 29.256 97.4997 29.604C96.8037 29.952 95.9817 30.126 95.0337 30.126ZM104.614 17.364V30H101.536V17.364H104.614ZM114.711 27.768H109.995L109.239 30H106.017L110.589 17.364H114.153L118.725 30H115.467L114.711 27.768ZM113.919 25.392L112.353 20.766L110.805 25.392H113.919ZM134.064 22.404V24.96H124.074V22.404H134.064ZM147.911 23.52C148.643 23.676 149.231 24.042 149.675 24.618C150.119 25.182 150.341 25.83 150.341 26.562C150.341 27.618 149.969 28.458 149.225 29.082C148.493 29.694 147.467 30 146.147 30H140.261V17.364H145.949C147.233 17.364 148.235 17.658 148.955 18.246C149.687 18.834 150.053 19.632 150.053 20.64C150.053 21.384 149.855 22.002 149.459 22.494C149.075 22.986 148.559 23.328 147.911 23.52ZM143.339 22.476H145.355C145.859 22.476 146.243 22.368 146.507 22.152C146.783 21.924 146.921 21.594 146.921 21.162C146.921 20.73 146.783 20.4 146.507 20.172C146.243 19.944 145.859 19.83 145.355 19.83H143.339V22.476ZM145.607 27.516C146.123 27.516 146.519 27.402 146.795 27.174C147.083 26.934 147.227 26.592 147.227 26.148C147.227 25.704 147.077 25.356 146.777 25.104C146.489 24.852 146.087 24.726 145.571 24.726H143.339V27.516H145.607ZM162.044 19.956V30H158.966V28.632C158.654 29.076 158.228 29.436 157.688 29.712C157.16 29.976 156.572 30.108 155.924 30.108C155.156 30.108 154.478 29.94 153.89 29.604C153.302 29.256 152.846 28.758 152.522 28.11C152.198 27.462 152.036 26.7 152.036 25.824V19.956H155.096V25.41C155.096 26.082 155.27 26.604 155.618 26.976C155.966 27.348 156.434 27.534 157.022 27.534C157.622 27.534 158.096 27.348 158.444 26.976C158.792 26.604 158.966 26.082 158.966 25.41V19.956H162.044ZM168.341 30.144C167.465 30.144 166.685 29.994 166.001 29.694C165.317 29.394 164.777 28.986 164.381 28.47C163.985 27.942 163.763 27.354 163.715 26.706H166.757C166.793 27.054 166.955 27.336 167.243 27.552C167.531 27.768 167.885 27.876 168.305 27.876C168.689 27.876 168.983 27.804 169.187 27.66C169.403 27.504 169.511 27.306 169.511 27.066C169.511 26.778 169.361 26.568 169.061 26.436C168.761 26.292 168.275 26.136 167.603 25.968C166.883 25.8 166.283 25.626 165.803 25.446C165.323 25.254 164.909 24.96 164.561 24.564C164.213 24.156 164.039 23.61 164.039 22.926C164.039 22.35 164.195 21.828 164.507 21.36C164.831 20.88 165.299 20.502 165.911 20.226C166.535 19.95 167.273 19.812 168.125 19.812C169.385 19.812 170.375 20.124 171.095 20.748C171.827 21.372 172.247 22.2 172.355 23.232H169.511C169.463 22.884 169.307 22.608 169.043 22.404C168.791 22.2 168.455 22.098 168.035 22.098C167.675 22.098 167.399 22.17 167.207 22.314C167.015 22.446 166.919 22.632 166.919 22.872C166.919 23.16 167.069 23.376 167.369 23.52C167.681 23.664 168.161 23.808 168.809 23.952C169.553 24.144 170.159 24.336 170.627 24.528C171.095 24.708 171.503 25.008 171.851 25.428C172.211 25.836 172.397 26.388 172.409 27.084C172.409 27.672 172.241 28.2 171.905 28.668C171.581 29.124 171.107 29.484 170.483 29.748C169.871 30.012 169.157 30.144 168.341 30.144ZM175.84 18.912C175.3 18.912 174.856 18.756 174.508 18.444C174.172 18.12 174.004 17.724 174.004 17.256C174.004 16.776 174.172 16.38 174.508 16.068C174.856 15.744 175.3 15.582 175.84 15.582C176.368 15.582 176.8 15.744 177.136 16.068C177.484 16.38 177.658 16.776 177.658 17.256C177.658 17.724 177.484 18.12 177.136 18.444C176.8 18.756 176.368 18.912 175.84 18.912ZM177.37 19.956V30H174.292V19.956H177.37ZM185.72 19.848C186.896 19.848 187.832 20.232 188.528 21C189.236 21.756 189.59 22.8 189.59 24.132V30H186.53V24.546C186.53 23.874 186.356 23.352 186.008 22.98C185.66 22.608 185.192 22.422 184.604 22.422C184.016 22.422 183.548 22.608 183.2 22.98C182.852 23.352 182.678 23.874 182.678 24.546V30H179.6V19.956H182.678V21.288C182.99 20.844 183.41 20.496 183.938 20.244C184.466 19.98 185.06 19.848 185.72 19.848ZM201.197 24.816C201.197 25.104 201.179 25.404 201.143 25.716H194.177C194.225 26.34 194.423 26.82 194.771 27.156C195.131 27.48 195.569 27.642 196.085 27.642C196.853 27.642 197.387 27.318 197.687 26.67H200.963C200.795 27.33 200.489 27.924 200.045 28.452C199.613 28.98 199.067 29.394 198.407 29.694C197.747 29.994 197.009 30.144 196.193 30.144C195.209 30.144 194.333 29.934 193.565 29.514C192.797 29.094 192.197 28.494 191.765 27.714C191.333 26.934 191.117 26.022 191.117 24.978C191.117 23.934 191.327 23.022 191.747 22.242C192.179 21.462 192.779 20.862 193.547 20.442C194.315 20.022 195.197 19.812 196.193 19.812C197.165 19.812 198.029 20.016 198.785 20.424C199.541 20.832 200.129 21.414 200.549 22.17C200.981 22.926 201.197 23.808 201.197 24.816ZM198.047 24.006C198.047 23.478 197.867 23.058 197.507 22.746C197.147 22.434 196.697 22.278 196.157 22.278C195.641 22.278 195.203 22.428 194.843 22.728C194.495 23.028 194.279 23.454 194.195 24.006H198.047ZM206.907 30.144C206.031 30.144 205.251 29.994 204.567 29.694C203.883 29.394 203.343 28.986 202.947 28.47C202.551 27.942 202.329 27.354 202.281 26.706H205.323C205.359 27.054 205.521 27.336 205.809 27.552C206.097 27.768 206.451 27.876 206.871 27.876C207.255 27.876 207.549 27.804 207.753 27.66C207.969 27.504 208.077 27.306 208.077 27.066C208.077 26.778 207.927 26.568 207.627 26.436C207.327 26.292 206.841 26.136 206.169 25.968C205.449 25.8 204.849 25.626 204.369 25.446C203.889 25.254 203.475 24.96 203.127 24.564C202.779 24.156 202.605 23.61 202.605 22.926C202.605 22.35 202.761 21.828 203.073 21.36C203.397 20.88 203.865 20.502 204.477 20.226C205.101 19.95 205.839 19.812 206.691 19.812C207.951 19.812 208.941 20.124 209.661 20.748C210.393 21.372 210.813 22.2 210.921 23.232H208.077C208.029 22.884 207.873 22.608 207.609 22.404C207.357 22.2 207.021 22.098 206.601 22.098C206.241 22.098 205.965 22.17 205.773 22.314C205.581 22.446 205.485 22.632 205.485 22.872C205.485 23.16 205.635 23.376 205.935 23.52C206.247 23.664 206.727 23.808 207.375 23.952C208.119 24.144 208.725 24.336 209.193 24.528C209.661 24.708 210.069 25.008 210.417 25.428C210.777 25.836 210.963 26.388 210.975 27.084C210.975 27.672 210.807 28.2 210.471 28.668C210.147 29.124 209.673 29.484 209.049 29.748C208.437 30.012 207.723 30.144 206.907 30.144ZM216.944 30.144C216.068 30.144 215.288 29.994 214.604 29.694C213.92 29.394 213.38 28.986 212.984 28.47C212.588 27.942 212.366 27.354 212.318 26.706H215.36C215.396 27.054 215.558 27.336 215.846 27.552C216.134 27.768 216.488 27.876 216.908 27.876C217.292 27.876 217.586 27.804 217.79 27.66C218.006 27.504 218.114 27.306 218.114 27.066C218.114 26.778 217.964 26.568 217.664 26.436C217.364 26.292 216.878 26.136 216.206 25.968C215.486 25.8 214.886 25.626 214.406 25.446C213.926 25.254 213.512 24.96 213.164 24.564C212.816 24.156 212.642 23.61 212.642 22.926C212.642 22.35 212.798 21.828 213.11 21.36C213.434 20.88 213.902 20.502 214.514 20.226C215.138 19.95 215.876 19.812 216.728 19.812C217.988 19.812 218.978 20.124 219.698 20.748C220.43 21.372 220.85 22.2 220.958 23.232H218.114C218.066 22.884 217.91 22.608 217.646 22.404C217.394 22.2 217.058 22.098 216.638 22.098C216.278 22.098 216.002 22.17 215.81 22.314C215.618 22.446 215.522 22.632 215.522 22.872C215.522 23.16 215.672 23.376 215.972 23.52C216.284 23.664 216.764 23.808 217.412 23.952C218.156 24.144 218.762 24.336 219.23 24.528C219.698 24.708 220.106 25.008 220.454 25.428C220.814 25.836 221 26.388 221.012 27.084C221.012 27.672 220.844 28.2 220.508 28.668C220.184 29.124 219.71 29.484 219.086 29.748C218.474 30.012 217.76 30.144 216.944 30.144ZM27.092 57.126C25.904 57.126 24.812 56.85 23.816 56.298C22.832 55.746 22.046 54.978 21.458 53.994C20.882 52.998 20.594 51.882 20.594 50.646C20.594 49.41 20.882 48.3 21.458 47.316C22.046 46.332 22.832 45.564 23.816 45.012C24.812 44.46 25.904 44.184 27.092 44.184C28.28 44.184 29.366 44.46 30.35 45.012C31.346 45.564 32.126 46.332 32.69 47.316C33.266 48.3 33.554 49.41 33.554 50.646C33.554 51.882 33.266 52.998 32.69 53.994C32.114 54.978 31.334 55.746 30.35 56.298C29.366 56.85 28.28 57.126 27.092 57.126ZM27.092 54.318C28.1 54.318 28.904 53.982 29.504 53.31C30.116 52.638 30.422 51.75 30.422 50.646C30.422 49.53 30.116 48.642 29.504 47.982C28.904 47.31 28.1 46.974 27.092 46.974C26.072 46.974 25.256 47.304 24.644 47.964C24.044 48.624 23.744 49.518 23.744 50.646C23.744 51.762 24.044 52.656 24.644 53.328C25.256 53.988 26.072 54.318 27.092 54.318ZM38.3444 48.378C38.6444 47.91 39.0584 47.532 39.5864 47.244C40.1144 46.956 40.7324 46.812 41.4404 46.812C42.2684 46.812 43.0184 47.022 43.6904 47.442C44.3624 47.862 44.8904 48.462 45.2744 49.242C45.6704 50.022 45.8684 50.928 45.8684 51.96C45.8684 52.992 45.6704 53.904 45.2744 54.696C44.8904 55.476 44.3624 56.082 43.6904 56.514C43.0184 56.934 42.2684 57.144 41.4404 57.144C40.7444 57.144 40.1264 57 39.5864 56.712C39.0584 56.424 38.6444 56.052 38.3444 55.596V61.788H35.2664V46.956H38.3444V48.378ZM42.7364 51.96C42.7364 51.192 42.5204 50.592 42.0884 50.16C41.6684 49.716 41.1464 49.494 40.5224 49.494C39.9104 49.494 39.3884 49.716 38.9564 50.16C38.5364 50.604 38.3264 51.21 38.3264 51.978C38.3264 52.746 38.5364 53.352 38.9564 53.796C39.3884 54.24 39.9104 54.462 40.5224 54.462C41.1344 54.462 41.6564 54.24 42.0884 53.796C42.5204 53.34 42.7364 52.728 42.7364 51.96ZM50.5612 48.378C50.8612 47.91 51.2752 47.532 51.8032 47.244C52.3312 46.956 52.9492 46.812 53.6572 46.812C54.4852 46.812 55.2352 47.022 55.9072 47.442C56.5792 47.862 57.1072 48.462 57.4912 49.242C57.8872 50.022 58.0852 50.928 58.0852 51.96C58.0852 52.992 57.8872 53.904 57.4912 54.696C57.1072 55.476 56.5792 56.082 55.9072 56.514C55.2352 56.934 54.4852 57.144 53.6572 57.144C52.9612 57.144 52.3432 57 51.8032 56.712C51.2752 56.424 50.8612 56.052 50.5612 55.596V61.788H47.4832V46.956H50.5612V48.378ZM54.9532 51.96C54.9532 51.192 54.7372 50.592 54.3052 50.16C53.8852 49.716 53.3632 49.494 52.7392 49.494C52.1272 49.494 51.6052 49.716 51.1732 50.16C50.7532 50.604 50.5432 51.21 50.5432 51.978C50.5432 52.746 50.7532 53.352 51.1732 53.796C51.6052 54.24 52.1272 54.462 52.7392 54.462C53.3512 54.462 53.8732 54.24 54.3052 53.796C54.7372 53.34 54.9532 52.728 54.9532 51.96ZM64.272 57.144C63.288 57.144 62.4 56.934 61.608 56.514C60.828 56.094 60.21 55.494 59.754 54.714C59.31 53.934 59.088 53.022 59.088 51.978C59.088 50.946 59.316 50.04 59.772 49.26C60.228 48.468 60.852 47.862 61.644 47.442C62.436 47.022 63.324 46.812 64.308 46.812C65.292 46.812 66.18 47.022 66.972 47.442C67.764 47.862 68.388 48.468 68.844 49.26C69.3 50.04 69.528 50.946 69.528 51.978C69.528 53.01 69.294 53.922 68.826 54.714C68.37 55.494 67.74 56.094 66.936 56.514C66.144 56.934 65.256 57.144 64.272 57.144ZM64.272 54.48C64.86 54.48 65.358 54.264 65.766 53.832C66.186 53.4 66.396 52.782 66.396 51.978C66.396 51.174 66.192 50.556 65.784 50.124C65.388 49.692 64.896 49.476 64.308 49.476C63.708 49.476 63.21 49.692 62.814 50.124C62.418 50.544 62.22 51.162 62.22 51.978C62.22 52.782 62.412 53.4 62.796 53.832C63.192 54.264 63.684 54.48 64.272 54.48ZM74.2389 48.63C74.5989 48.078 75.0489 47.646 75.5889 47.334C76.1289 47.01 76.7289 46.848 77.3889 46.848V50.106H76.5429C75.7749 50.106 75.1989 50.274 74.8149 50.61C74.4309 50.934 74.2389 51.51 74.2389 52.338V57H71.1609V46.956H74.2389V48.63ZM84.4581 54.39V57H82.8921C81.7761 57 80.9061 56.73 80.2821 56.19C79.6581 55.638 79.3461 54.744 79.3461 53.508V49.512H78.1221V46.956H79.3461V44.508H82.4241V46.956H84.4401V49.512H82.4241V53.544C82.4241 53.844 82.4961 54.06 82.6401 54.192C82.7841 54.324 83.0241 54.39 83.3601 54.39H84.4581ZM96.0906 46.956V57H93.0126V55.632C92.7006 56.076 92.2746 56.436 91.7346 56.712C91.2066 56.976 90.6186 57.108 89.9706 57.108C89.2026 57.108 88.5246 56.94 87.9366 56.604C87.3486 56.256 86.8926 55.758 86.5686 55.11C86.2446 54.462 86.0826 53.7 86.0826 52.824V46.956H89.1426V52.41C89.1426 53.082 89.3166 53.604 89.6646 53.976C90.0126 54.348 90.4806 54.534 91.0686 54.534C91.6686 54.534 92.1426 54.348 92.4906 53.976C92.8386 53.604 93.0126 53.082 93.0126 52.41V46.956H96.0906ZM104.422 46.848C105.598 46.848 106.534 47.232 107.23 48C107.938 48.756 108.292 49.8 108.292 51.132V57H105.232V51.546C105.232 50.874 105.058 50.352 104.71 49.98C104.362 49.608 103.894 49.422 103.306 49.422C102.718 49.422 102.25 49.608 101.902 49.98C101.554 50.352 101.38 50.874 101.38 51.546V57H98.3015V46.956H101.38V48.288C101.692 47.844 102.112 47.496 102.64 47.244C103.168 46.98 103.762 46.848 104.422 46.848ZM111.978 45.912C111.438 45.912 110.994 45.756 110.646 45.444C110.31 45.12 110.142 44.724 110.142 44.256C110.142 43.776 110.31 43.38 110.646 43.068C110.994 42.744 111.438 42.582 111.978 42.582C112.506 42.582 112.938 42.744 113.274 43.068C113.622 43.38 113.796 43.776 113.796 44.256C113.796 44.724 113.622 45.12 113.274 45.444C112.938 45.756 112.506 45.912 111.978 45.912ZM113.508 46.956V57H110.43V46.956H113.508ZM121.337 54.39V57H119.771C118.655 57 117.785 56.73 117.161 56.19C116.537 55.638 116.225 54.744 116.225 53.508V49.512H115.001V46.956H116.225V44.508H119.303V46.956H121.319V49.512H119.303V53.544C119.303 53.844 119.375 54.06 119.519 54.192C119.663 54.324 119.903 54.39 120.239 54.39H121.337ZM124.6 45.912C124.06 45.912 123.616 45.756 123.268 45.444C122.932 45.12 122.764 44.724 122.764 44.256C122.764 43.776 122.932 43.38 123.268 43.068C123.616 42.744 124.06 42.582 124.6 42.582C125.128 42.582 125.56 42.744 125.896 43.068C126.244 43.38 126.418 43.776 126.418 44.256C126.418 44.724 126.244 45.12 125.896 45.444C125.56 45.756 125.128 45.912 124.6 45.912ZM126.13 46.956V57H123.052V46.956H126.13ZM137.828 51.816C137.828 52.104 137.81 52.404 137.774 52.716H130.808C130.856 53.34 131.054 53.82 131.402 54.156C131.762 54.48 132.2 54.642 132.716 54.642C133.484 54.642 134.018 54.318 134.318 53.67H137.594C137.426 54.33 137.12 54.924 136.676 55.452C136.244 55.98 135.698 56.394 135.038 56.694C134.378 56.994 133.64 57.144 132.824 57.144C131.84 57.144 130.964 56.934 130.196 56.514C129.428 56.094 128.828 55.494 128.396 54.714C127.964 53.934 127.748 53.022 127.748 51.978C127.748 50.934 127.958 50.022 128.378 49.242C128.81 48.462 129.41 47.862 130.178 47.442C130.946 47.022 131.828 46.812 132.824 46.812C133.796 46.812 134.66 47.016 135.416 47.424C136.172 47.832 136.76 48.414 137.18 49.17C137.612 49.926 137.828 50.808 137.828 51.816ZM134.678 51.006C134.678 50.478 134.498 50.058 134.138 49.746C133.778 49.434 133.328 49.278 132.788 49.278C132.272 49.278 131.834 49.428 131.474 49.728C131.126 50.028 130.91 50.454 130.826 51.006H134.678ZM143.538 57.144C142.662 57.144 141.882 56.994 141.198 56.694C140.514 56.394 139.974 55.986 139.578 55.47C139.182 54.942 138.96 54.354 138.912 53.706H141.954C141.99 54.054 142.152 54.336 142.44 54.552C142.728 54.768 143.082 54.876 143.502 54.876C143.886 54.876 144.18 54.804 144.384 54.66C144.6 54.504 144.708 54.306 144.708 54.066C144.708 53.778 144.558 53.568 144.258 53.436C143.958 53.292 143.472 53.136 142.8 52.968C142.08 52.8 141.48 52.626 141 52.446C140.52 52.254 140.106 51.96 139.758 51.564C139.41 51.156 139.236 50.61 139.236 49.926C139.236 49.35 139.392 48.828 139.704 48.36C140.028 47.88 140.496 47.502 141.108 47.226C141.732 46.95 142.47 46.812 143.322 46.812C144.582 46.812 145.572 47.124 146.292 47.748C147.024 48.372 147.444 49.2 147.552 50.232H144.708C144.66 49.884 144.504 49.608 144.24 49.404C143.988 49.2 143.652 49.098 143.232 49.098C142.872 49.098 142.596 49.17 142.404 49.314C142.212 49.446 142.116 49.632 142.116 49.872C142.116 50.16 142.266 50.376 142.566 50.52C142.878 50.664 143.358 50.808 144.006 50.952C144.75 51.144 145.356 51.336 145.824 51.528C146.292 51.708 146.7 52.008 147.048 52.428C147.408 52.836 147.594 53.388 147.606 54.084C147.606 54.672 147.438 55.2 147.102 55.668C146.778 56.124 146.304 56.484 145.68 56.748C145.068 57.012 144.354 57.144 143.538 57.144ZM152.692 51.96C152.692 50.928 152.884 50.022 153.268 49.242C153.664 48.462 154.198 47.862 154.87 47.442C155.542 47.022 156.292 46.812 157.12 46.812C157.828 46.812 158.446 46.956 158.974 47.244C159.514 47.532 159.928 47.91 160.216 48.378V46.956H163.294V57H160.216V55.578C159.916 56.046 159.496 56.424 158.956 56.712C158.428 57 157.81 57.144 157.102 57.144C156.286 57.144 155.542 56.934 154.87 56.514C154.198 56.082 153.664 55.476 153.268 54.696C152.884 53.904 152.692 52.992 152.692 51.96ZM160.216 51.978C160.216 51.21 160 50.604 159.568 50.16C159.148 49.716 158.632 49.494 158.02 49.494C157.408 49.494 156.886 49.716 156.454 50.16C156.034 50.592 155.824 51.192 155.824 51.96C155.824 52.728 156.034 53.34 156.454 53.796C156.886 54.24 157.408 54.462 158.02 54.462C158.632 54.462 159.148 54.24 159.568 53.796C160 53.352 160.216 52.746 160.216 51.978ZM171.64 46.848C172.816 46.848 173.752 47.232 174.448 48C175.156 48.756 175.51 49.8 175.51 51.132V57H172.45V51.546C172.45 50.874 172.276 50.352 171.928 49.98C171.58 49.608 171.112 49.422 170.524 49.422C169.936 49.422 169.468 49.608 169.12 49.98C168.772 50.352 168.598 50.874 168.598 51.546V57H165.52V46.956H168.598V48.288C168.91 47.844 169.33 47.496 169.858 47.244C170.386 46.98 170.98 46.848 171.64 46.848ZM177.037 51.96C177.037 50.928 177.229 50.022 177.613 49.242C178.009 48.462 178.543 47.862 179.215 47.442C179.887 47.022 180.637 46.812 181.465 46.812C182.125 46.812 182.725 46.95 183.265 47.226C183.817 47.502 184.249 47.874 184.561 48.342V43.68H187.639V57H184.561V55.56C184.273 56.04 183.859 56.424 183.319 56.712C182.791 57 182.173 57.144 181.465 57.144C180.637 57.144 179.887 56.934 179.215 56.514C178.543 56.082 178.009 55.476 177.613 54.696C177.229 53.904 177.037 52.992 177.037 51.96ZM184.561 51.978C184.561 51.21 184.345 50.604 183.913 50.16C183.493 49.716 182.977 49.494 182.365 49.494C181.753 49.494 181.231 49.716 180.799 50.16C180.379 50.592 180.169 51.192 180.169 51.96C180.169 52.728 180.379 53.34 180.799 53.796C181.231 54.24 181.753 54.462 182.365 54.462C182.977 54.462 183.493 54.24 183.913 53.796C184.345 53.352 184.561 52.746 184.561 51.978ZM207.99 44.364V57H204.912V49.422L202.086 57H199.602L196.758 49.404V57H193.68V44.364H197.316L200.862 53.112L204.372 44.364H207.99ZM209.592 51.96C209.592 50.928 209.784 50.022 210.168 49.242C210.564 48.462 211.098 47.862 211.77 47.442C212.442 47.022 213.192 46.812 214.02 46.812C214.728 46.812 215.346 46.956 215.874 47.244C216.414 47.532 216.828 47.91 217.116 48.378V46.956H220.194V57H217.116V55.578C216.816 56.046 216.396 56.424 215.856 56.712C215.328 57 214.71 57.144 214.002 57.144C213.186 57.144 212.442 56.934 211.77 56.514C211.098 56.082 210.564 55.476 210.168 54.696C209.784 53.904 209.592 52.992 209.592 51.96ZM217.116 51.978C217.116 51.21 216.9 50.604 216.468 50.16C216.048 49.716 215.532 49.494 214.92 49.494C214.308 49.494 213.786 49.716 213.354 50.16C212.934 50.592 212.724 51.192 212.724 51.96C212.724 52.728 212.934 53.34 213.354 53.796C213.786 54.24 214.308 54.462 214.92 54.462C215.532 54.462 216.048 54.24 216.468 53.796C216.9 53.352 217.116 52.746 217.116 51.978ZM225.499 48.63C225.859 48.078 226.309 47.646 226.849 47.334C227.389 47.01 227.989 46.848 228.649 46.848V50.106H227.803C227.035 50.106 226.459 50.274 226.075 50.61C225.691 50.934 225.499 51.51 225.499 52.338V57H222.421V46.956H225.499V48.63ZM236.258 57L233.198 52.788V57H230.12V43.68H233.198V51.042L236.24 46.956H240.038L235.862 51.996L240.074 57H236.258ZM250.715 51.816C250.715 52.104 250.697 52.404 250.661 52.716H243.695C243.743 53.34 243.941 53.82 244.289 54.156C244.649 54.48 245.087 54.642 245.603 54.642C246.371 54.642 246.905 54.318 247.205 53.67H250.481C250.313 54.33 250.007 54.924 249.563 55.452C249.131 55.98 248.585 56.394 247.925 56.694C247.265 56.994 246.527 57.144 245.711 57.144C244.727 57.144 243.851 56.934 243.083 56.514C242.315 56.094 241.715 55.494 241.283 54.714C240.851 53.934 240.635 53.022 240.635 51.978C240.635 50.934 240.845 50.022 241.265 49.242C241.697 48.462 242.297 47.862 243.065 47.442C243.833 47.022 244.715 46.812 245.711 46.812C246.683 46.812 247.547 47.016 248.303 47.424C249.059 47.832 249.647 48.414 250.067 49.17C250.499 49.926 250.715 50.808 250.715 51.816ZM247.565 51.006C247.565 50.478 247.385 50.058 247.025 49.746C246.665 49.434 246.215 49.278 245.675 49.278C245.159 49.278 244.721 49.428 244.361 49.728C244.013 50.028 243.797 50.454 243.713 51.006H247.565ZM257.937 54.39V57H256.371C255.255 57 254.385 56.73 253.761 56.19C253.137 55.638 252.825 54.744 252.825 53.508V49.512H251.601V46.956H252.825V44.508H255.903V46.956H257.919V49.512H255.903V53.544C255.903 53.844 255.975 54.06 256.119 54.192C256.263 54.324 256.503 54.39 256.839 54.39H257.937ZM28.982 81.768H24.266L23.51 84H20.288L24.86 71.364H28.424L32.996 84H29.738L28.982 81.768ZM28.19 79.392L26.624 74.766L25.076 79.392H28.19ZM40.5075 73.848C41.6835 73.848 42.6195 74.232 43.3155 75C44.0235 75.756 44.3775 76.8 44.3775 78.132V84H41.3175V78.546C41.3175 77.874 41.1435 77.352 40.7955 76.98C40.4475 76.608 39.9795 76.422 39.3915 76.422C38.8035 76.422 38.3355 76.608 37.9875 76.98C37.6395 77.352 37.4655 77.874 37.4655 78.546V84H34.3875V73.956H37.4655V75.288C37.7775 74.844 38.1975 74.496 38.7255 74.244C39.2535 73.98 39.8475 73.848 40.5075 73.848ZM45.9044 78.96C45.9044 77.928 46.0964 77.022 46.4804 76.242C46.8764 75.462 47.4104 74.862 48.0824 74.442C48.7544 74.022 49.5044 73.812 50.3324 73.812C51.0404 73.812 51.6584 73.956 52.1864 74.244C52.7264 74.532 53.1404 74.91 53.4284 75.378V73.956H56.5064V84H53.4284V82.578C53.1284 83.046 52.7084 83.424 52.1684 83.712C51.6404 84 51.0224 84.144 50.3144 84.144C49.4984 84.144 48.7544 83.934 48.0824 83.514C47.4104 83.082 46.8764 82.476 46.4804 81.696C46.0964 80.904 45.9044 79.992 45.9044 78.96ZM53.4284 78.978C53.4284 78.21 53.2124 77.604 52.7804 77.16C52.3604 76.716 51.8444 76.494 51.2324 76.494C50.6204 76.494 50.0984 76.716 49.6664 77.16C49.2464 77.592 49.0364 78.192 49.0364 78.96C49.0364 79.728 49.2464 80.34 49.6664 80.796C50.0984 81.24 50.6204 81.462 51.2324 81.462C51.8444 81.462 52.3604 81.24 52.7804 80.796C53.2124 80.352 53.4284 79.746 53.4284 78.978ZM61.8112 70.68V84H58.7332V70.68H61.8112ZM74.3018 73.956L68.0018 88.77H64.6898L66.9938 83.658L62.9078 73.956H66.3458L68.6678 80.238L70.9718 73.956H74.3018ZM79.5008 84.144C78.6248 84.144 77.8448 83.994 77.1608 83.694C76.4768 83.394 75.9368 82.986 75.5408 82.47C75.1448 81.942 74.9228 81.354 74.8748 80.706H77.9168C77.9528 81.054 78.1148 81.336 78.4028 81.552C78.6908 81.768 79.0448 81.876 79.4648 81.876C79.8488 81.876 80.1428 81.804 80.3468 81.66C80.5628 81.504 80.6708 81.306 80.6708 81.066C80.6708 80.778 80.5208 80.568 80.2208 80.436C79.9208 80.292 79.4348 80.136 78.7628 79.968C78.0428 79.8 77.4428 79.626 76.9628 79.446C76.4828 79.254 76.0688 78.96 75.7208 78.564C75.3728 78.156 75.1988 77.61 75.1988 76.926C75.1988 76.35 75.3548 75.828 75.6668 75.36C75.9908 74.88 76.4588 74.502 77.0708 74.226C77.6948 73.95 78.4328 73.812 79.2848 73.812C80.5448 73.812 81.5348 74.124 82.2548 74.748C82.9868 75.372 83.4068 76.2 83.5148 77.232H80.6708C80.6228 76.884 80.4668 76.608 80.2028 76.404C79.9508 76.2 79.6148 76.098 79.1948 76.098C78.8348 76.098 78.5588 76.17 78.3668 76.314C78.1748 76.446 78.0788 76.632 78.0788 76.872C78.0788 77.16 78.2288 77.376 78.5288 77.52C78.8408 77.664 79.3208 77.808 79.9688 77.952C80.7128 78.144 81.3188 78.336 81.7868 78.528C82.2548 78.708 82.6628 79.008 83.0108 79.428C83.3708 79.836 83.5568 80.388 83.5688 81.084C83.5688 81.672 83.4008 82.2 83.0648 82.668C82.7408 83.124 82.2668 83.484 81.6428 83.748C81.0308 84.012 80.3168 84.144 79.5008 84.144ZM86.9999 72.912C86.4599 72.912 86.0159 72.756 85.6679 72.444C85.3319 72.12 85.1639 71.724 85.1639 71.256C85.1639 70.776 85.3319 70.38 85.6679 70.068C86.0159 69.744 86.4599 69.582 86.9999 69.582C87.5279 69.582 87.9599 69.744 88.2959 70.068C88.6439 70.38 88.8179 70.776 88.8179 71.256C88.8179 71.724 88.6439 72.12 88.2959 72.444C87.9599 72.756 87.5279 72.912 86.9999 72.912ZM88.5299 73.956V84H85.4519V73.956H88.5299ZM94.8465 84.144C93.9705 84.144 93.1905 83.994 92.5065 83.694C91.8225 83.394 91.2825 82.986 90.8865 82.47C90.4905 81.942 90.2685 81.354 90.2205 80.706H93.2625C93.2985 81.054 93.4605 81.336 93.7485 81.552C94.0365 81.768 94.3905 81.876 94.8105 81.876C95.1945 81.876 95.4885 81.804 95.6925 81.66C95.9085 81.504 96.0165 81.306 96.0165 81.066C96.0165 80.778 95.8665 80.568 95.5665 80.436C95.2665 80.292 94.7805 80.136 94.1085 79.968C93.3885 79.8 92.7885 79.626 92.3085 79.446C91.8285 79.254 91.4145 78.96 91.0665 78.564C90.7185 78.156 90.5445 77.61 90.5445 76.926C90.5445 76.35 90.7005 75.828 91.0125 75.36C91.3365 74.88 91.8045 74.502 92.4165 74.226C93.0405 73.95 93.7785 73.812 94.6305 73.812C95.8905 73.812 96.8805 74.124 97.6005 74.748C98.3325 75.372 98.7525 76.2 98.8605 77.232H96.0165C95.9685 76.884 95.8125 76.608 95.5485 76.404C95.2965 76.2 94.9605 76.098 94.5405 76.098C94.1805 76.098 93.9045 76.17 93.7125 76.314C93.5205 76.446 93.4245 76.632 93.4245 76.872C93.4245 77.16 93.5745 77.376 93.8745 77.52C94.1865 77.664 94.6665 77.808 95.3145 77.952C96.0585 78.144 96.6645 78.336 97.1325 78.528C97.6005 78.708 98.0085 79.008 98.3565 79.428C98.7165 79.836 98.9025 80.388 98.9145 81.084C98.9145 81.672 98.7465 82.2 98.4105 82.668C98.0865 83.124 97.6125 83.484 96.9885 83.748C96.3765 84.012 95.6625 84.144 94.8465 84.144Z" fill="#2E2E2E"/>
<circle cx="262" cy="290" r="25" fill="#2E2E2E"/>
<mask id="mask0_105_1258" style="mask-type:alpha" maskUnits="userSpaceOnUse" x="247" y="275" width="30" height="30">
<rect x="247" y="275" width="30" height="30" fill="#D9D9D9"/>
</mask>
<g mask="url(#mask0_105_1258)">
<path d="M263.625 296.594C263.375 296.344 263.255 296.042 263.266 295.688C263.276 295.333 263.406 295.031 263.656 294.781L267.188 291.25H253.25C252.896 291.25 252.599 291.13 252.359 290.891C252.12 290.651 252 290.354 252 290C252 289.646 252.12 289.349 252.359 289.109C252.599 288.87 252.896 288.75 253.25 288.75H267.188L263.625 285.188C263.375 284.938 263.25 284.641 263.25 284.297C263.25 283.953 263.375 283.656 263.625 283.406C263.875 283.156 264.172 283.031 264.516 283.031C264.859 283.031 265.156 283.156 265.406 283.406L271.125 289.125C271.25 289.25 271.339 289.385 271.391 289.531C271.443 289.677 271.469 289.833 271.469 290C271.469 290.167 271.443 290.323 271.391 290.469C271.339 290.615 271.25 290.75 271.125 290.875L265.375 296.625C265.146 296.854 264.859 296.969 264.516 296.969C264.172 296.969 263.875 296.844 263.625 296.594Z" fill="white"/>
</g>
<path d="M26.272 177.112C25.2373 177.112 24.2827 176.872 23.408 176.392C22.544 175.901 21.856 175.224 21.344 174.36C20.8427 173.485 20.592 172.504 20.592 171.416C20.592 170.328 20.8427 169.352 21.344 168.488C21.856 167.624 22.544 166.952 23.408 166.472C24.2827 165.981 25.2373 165.736 26.272 165.736C27.3173 165.736 28.272 165.981 29.136 166.472C30.0107 166.952 30.6987 167.624 31.2 168.488C31.7013 169.352 31.952 170.328 31.952 171.416C31.952 172.504 31.7013 173.485 31.2 174.36C30.6987 175.224 30.0107 175.901 29.136 176.392C28.272 176.872 27.3173 177.112 26.272 177.112ZM26.272 175.528C27.008 175.528 27.664 175.363 28.24 175.032C28.816 174.691 29.264 174.211 29.584 173.592C29.9147 172.963 30.08 172.237 30.08 171.416C30.08 170.595 29.9147 169.875 29.584 169.256C29.264 168.637 28.816 168.163 28.24 167.832C27.664 167.501 27.008 167.336 26.272 167.336C25.536 167.336 24.88 167.501 24.304 167.832C23.728 168.163 23.2747 168.637 22.944 169.256C22.624 169.875 22.464 170.595 22.464 171.416C22.464 172.237 22.624 172.963 22.944 173.592C23.2747 174.211 23.728 174.691 24.304 175.032C24.88 175.363 25.536 175.528 26.272 175.528ZM41.7309 168.184V177H39.9069V175.96C39.6189 176.323 39.2402 176.611 38.7709 176.824C38.3122 177.027 37.8215 177.128 37.2989 177.128C36.6055 177.128 35.9815 176.984 35.4269 176.696C34.8829 176.408 34.4509 175.981 34.1309 175.416C33.8215 174.851 33.6669 174.168 33.6669 173.368V168.184H35.4749V173.096C35.4749 173.885 35.6722 174.493 36.0669 174.92C36.4615 175.336 37.0002 175.544 37.6829 175.544C38.3655 175.544 38.9042 175.336 39.2989 174.92C39.7042 174.493 39.9069 173.885 39.9069 173.096V168.184H41.7309ZM45.9615 169.464C46.2282 169.016 46.5802 168.669 47.0175 168.424C47.4655 168.168 47.9935 168.04 48.6015 168.04V169.928H48.1375C47.4228 169.928 46.8788 170.109 46.5055 170.472C46.1428 170.835 45.9615 171.464 45.9615 172.36V177H44.1375V168.184H45.9615V169.464ZM62.5144 172.376C62.5144 172.707 62.493 173.005 62.4504 173.272H55.7144C55.7677 173.976 56.029 174.541 56.4984 174.968C56.9677 175.395 57.5437 175.608 58.2264 175.608C59.2077 175.608 59.901 175.197 60.3064 174.376H62.2744C62.0077 175.187 61.5224 175.853 60.8184 176.376C60.125 176.888 59.261 177.144 58.2264 177.144C57.3837 177.144 56.6264 176.957 55.9544 176.584C55.293 176.2 54.7704 175.667 54.3864 174.984C54.013 174.291 53.8264 173.491 53.8264 172.584C53.8264 171.677 54.0077 170.883 54.3704 170.2C54.7437 169.507 55.261 168.973 55.9224 168.6C56.5944 168.227 57.3624 168.04 58.2264 168.04C59.0584 168.04 59.7997 168.221 60.4504 168.584C61.101 168.947 61.6077 169.459 61.9704 170.12C62.333 170.771 62.5144 171.523 62.5144 172.376ZM60.6104 171.8C60.5997 171.128 60.3597 170.589 59.8904 170.184C59.421 169.779 58.8397 169.576 58.1464 169.576C57.517 169.576 56.9784 169.779 56.5304 170.184C56.0824 170.579 55.8157 171.117 55.7304 171.8H60.6104ZM68.0854 172.536L70.9334 177H68.8694L66.9654 174.008L65.1734 177H63.2694L66.1174 172.664L63.2694 168.184H65.3334L67.2374 171.176L69.0294 168.184H70.9334L68.0854 172.536ZM74.1178 169.48C74.4271 169.075 74.8484 168.733 75.3818 168.456C75.9151 168.179 76.5178 168.04 77.1898 168.04C77.9578 168.04 78.6564 168.232 79.2858 168.616C79.9258 168.989 80.4271 169.517 80.7898 170.2C81.1524 170.883 81.3338 171.667 81.3338 172.552C81.3338 173.437 81.1524 174.232 80.7898 174.936C80.4271 175.629 79.9258 176.173 79.2858 176.568C78.6564 176.952 77.9578 177.144 77.1898 177.144C76.5178 177.144 75.9204 177.011 75.3978 176.744C74.8751 176.467 74.4484 176.125 74.1178 175.72V181.192H72.2938V168.184H74.1178V169.48ZM79.4778 172.552C79.4778 171.944 79.3498 171.421 79.0938 170.984C78.8484 170.536 78.5178 170.2 78.1018 169.976C77.6964 169.741 77.2591 169.624 76.7898 169.624C76.3311 169.624 75.8938 169.741 75.4778 169.976C75.0724 170.211 74.7418 170.552 74.4858 171C74.2404 171.448 74.1178 171.976 74.1178 172.584C74.1178 173.192 74.2404 173.725 74.4858 174.184C74.7418 174.632 75.0724 174.973 75.4778 175.208C75.8938 175.443 76.3311 175.56 76.7898 175.56C77.2591 175.56 77.6964 175.443 78.1018 175.208C78.5178 174.963 78.8484 174.611 79.0938 174.152C79.3498 173.693 79.4778 173.16 79.4778 172.552ZM91.2175 172.376C91.2175 172.707 91.1962 173.005 91.1535 173.272H84.4175C84.4708 173.976 84.7322 174.541 85.2015 174.968C85.6708 175.395 86.2468 175.608 86.9295 175.608C87.9108 175.608 88.6042 175.197 89.0095 174.376H90.9775C90.7108 175.187 90.2255 175.853 89.5215 176.376C88.8282 176.888 87.9642 177.144 86.9295 177.144C86.0868 177.144 85.3295 176.957 84.6575 176.584C83.9962 176.2 83.4735 175.667 83.0895 174.984C82.7162 174.291 82.5295 173.491 82.5295 172.584C82.5295 171.677 82.7108 170.883 83.0735 170.2C83.4468 169.507 83.9642 168.973 84.6255 168.6C85.2975 168.227 86.0655 168.04 86.9295 168.04C87.7615 168.04 88.5028 168.221 89.1535 168.584C89.8042 168.947 90.3108 169.459 90.6735 170.12C91.0362 170.771 91.2175 171.523 91.2175 172.376ZM89.3135 171.8C89.3028 171.128 89.0628 170.589 88.5935 170.184C88.1242 169.779 87.5428 169.576 86.8495 169.576C86.2202 169.576 85.6815 169.779 85.2335 170.184C84.7855 170.579 84.5188 171.117 84.4335 171.8H89.3135ZM94.8365 169.464C95.1032 169.016 95.4552 168.669 95.8925 168.424C96.3405 168.168 96.8685 168.04 97.4765 168.04V169.928H97.0125C96.2978 169.928 95.7538 170.109 95.3805 170.472C95.0178 170.835 94.8365 171.464 94.8365 172.36V177H93.0125V168.184H94.8365V169.464ZM101.281 169.672V174.552C101.281 174.883 101.356 175.123 101.505 175.272C101.665 175.411 101.932 175.48 102.305 175.48H103.425V177H101.985C101.164 177 100.534 176.808 100.097 176.424C99.6598 176.04 99.4411 175.416 99.4411 174.552V169.672H98.4011V168.184H99.4411V165.992H101.281V168.184H103.425V169.672H101.281ZM111.391 169.672V174.552C111.391 174.883 111.465 175.123 111.615 175.272C111.775 175.411 112.041 175.48 112.415 175.48H113.535V177H112.095C111.273 177 110.644 176.808 110.207 176.424C109.769 176.04 109.551 175.416 109.551 174.552V169.672H108.511V168.184H109.551V165.992H111.391V168.184H113.535V169.672H111.391ZM123.296 172.376C123.296 172.707 123.274 173.005 123.232 173.272H116.496C116.549 173.976 116.81 174.541 117.28 174.968C117.749 175.395 118.325 175.608 119.008 175.608C119.989 175.608 120.682 175.197 121.088 174.376H123.056C122.789 175.187 122.304 175.853 121.6 176.376C120.906 176.888 120.042 177.144 119.008 177.144C118.165 177.144 117.408 176.957 116.736 176.584C116.074 176.2 115.552 175.667 115.168 174.984C114.794 174.291 114.608 173.491 114.608 172.584C114.608 171.677 114.789 170.883 115.152 170.2C115.525 169.507 116.042 168.973 116.704 168.6C117.376 168.227 118.144 168.04 119.008 168.04C119.84 168.04 120.581 168.221 121.232 168.584C121.882 168.947 122.389 169.459 122.752 170.12C123.114 170.771 123.296 171.523 123.296 172.376ZM121.392 171.8C121.381 171.128 121.141 170.589 120.672 170.184C120.202 169.779 119.621 169.576 118.928 169.576C118.298 169.576 117.76 169.779 117.312 170.184C116.864 170.579 116.597 171.117 116.512 171.8H121.392ZM124.483 172.552C124.483 171.667 124.664 170.883 125.027 170.2C125.4 169.517 125.901 168.989 126.531 168.616C127.171 168.232 127.875 168.04 128.643 168.04C129.336 168.04 129.939 168.179 130.451 168.456C130.973 168.723 131.389 169.059 131.699 169.464V168.184H133.539V177H131.699V175.688C131.389 176.104 130.968 176.451 130.435 176.728C129.901 177.005 129.293 177.144 128.611 177.144C127.853 177.144 127.16 176.952 126.531 176.568C125.901 176.173 125.4 175.629 125.027 174.936C124.664 174.232 124.483 173.437 124.483 172.552ZM131.699 172.584C131.699 171.976 131.571 171.448 131.315 171C131.069 170.552 130.744 170.211 130.339 169.976C129.933 169.741 129.496 169.624 129.027 169.624C128.557 169.624 128.12 169.741 127.715 169.976C127.309 170.2 126.979 170.536 126.723 170.984C126.477 171.421 126.355 171.944 126.355 172.552C126.355 173.16 126.477 173.693 126.723 174.152C126.979 174.611 127.309 174.963 127.715 175.208C128.131 175.443 128.568 175.56 129.027 175.56C129.496 175.56 129.933 175.443 130.339 175.208C130.744 174.973 131.069 174.632 131.315 174.184C131.571 173.725 131.699 173.192 131.699 172.584ZM146.606 168.04C147.3 168.04 147.918 168.184 148.462 168.472C149.017 168.76 149.449 169.187 149.758 169.752C150.078 170.317 150.238 171 150.238 171.8V177H148.43V172.072C148.43 171.283 148.233 170.68 147.838 170.264C147.444 169.837 146.905 169.624 146.222 169.624C145.54 169.624 144.996 169.837 144.59 170.264C144.196 170.68 143.998 171.283 143.998 172.072V177H142.19V172.072C142.19 171.283 141.993 170.68 141.598 170.264C141.204 169.837 140.665 169.624 139.982 169.624C139.3 169.624 138.756 169.837 138.35 170.264C137.956 170.68 137.758 171.283 137.758 172.072V177H135.934V168.184H137.758V169.192C138.057 168.829 138.436 168.547 138.894 168.344C139.353 168.141 139.844 168.04 140.366 168.04C141.07 168.04 141.7 168.189 142.254 168.488C142.809 168.787 143.236 169.219 143.534 169.784C143.801 169.251 144.217 168.829 144.782 168.52C145.348 168.2 145.956 168.04 146.606 168.04ZM161.276 168.04C161.948 168.04 162.545 168.184 163.068 168.472C163.601 168.76 164.017 169.187 164.316 169.752C164.625 170.317 164.78 171 164.78 171.8V177H162.972V172.072C162.972 171.283 162.774 170.68 162.38 170.264C161.985 169.837 161.446 169.624 160.764 169.624C160.081 169.624 159.537 169.837 159.132 170.264C158.737 170.68 158.54 171.283 158.54 172.072V177H156.716V165.16H158.54V169.208C158.849 168.835 159.238 168.547 159.708 168.344C160.188 168.141 160.71 168.04 161.276 168.04ZM166.498 172.552C166.498 171.667 166.68 170.883 167.042 170.2C167.416 169.517 167.917 168.989 168.546 168.616C169.186 168.232 169.89 168.04 170.658 168.04C171.352 168.04 171.954 168.179 172.466 168.456C172.989 168.723 173.405 169.059 173.714 169.464V168.184H175.554V177H173.714V175.688C173.405 176.104 172.984 176.451 172.45 176.728C171.917 177.005 171.309 177.144 170.626 177.144C169.869 177.144 169.176 176.952 168.546 176.568C167.917 176.173 167.416 175.629 167.042 174.936C166.68 174.232 166.498 173.437 166.498 172.552ZM173.714 172.584C173.714 171.976 173.586 171.448 173.33 171C173.085 170.552 172.76 170.211 172.354 169.976C171.949 169.741 171.512 169.624 171.042 169.624C170.573 169.624 170.136 169.741 169.73 169.976C169.325 170.2 168.994 170.536 168.738 170.984C168.493 171.421 168.37 171.944 168.37 172.552C168.37 173.16 168.493 173.693 168.738 174.152C168.994 174.611 169.325 174.963 169.73 175.208C170.146 175.443 170.584 175.56 171.042 175.56C171.512 175.56 171.949 175.443 172.354 175.208C172.76 174.973 173.085 174.632 173.33 174.184C173.586 173.725 173.714 173.192 173.714 172.584ZM181.15 177.144C180.457 177.144 179.833 177.021 179.278 176.776C178.734 176.52 178.302 176.179 177.982 175.752C177.662 175.315 177.491 174.829 177.47 174.296H179.358C179.39 174.669 179.566 174.984 179.886 175.24C180.217 175.485 180.627 175.608 181.118 175.608C181.63 175.608 182.025 175.512 182.302 175.32C182.59 175.117 182.734 174.861 182.734 174.552C182.734 174.221 182.574 173.976 182.254 173.816C181.945 173.656 181.449 173.48 180.766 173.288C180.105 173.107 179.566 172.931 179.15 172.76C178.734 172.589 178.371 172.328 178.062 171.976C177.763 171.624 177.614 171.16 177.614 170.584C177.614 170.115 177.753 169.688 178.03 169.304C178.307 168.909 178.702 168.6 179.214 168.376C179.737 168.152 180.334 168.04 181.006 168.04C182.009 168.04 182.814 168.296 183.422 168.808C184.041 169.309 184.371 169.997 184.414 170.872H182.59C182.558 170.477 182.398 170.163 182.11 169.928C181.822 169.693 181.433 169.576 180.942 169.576C180.462 169.576 180.094 169.667 179.838 169.848C179.582 170.029 179.454 170.269 179.454 170.568C179.454 170.803 179.539 171 179.71 171.16C179.881 171.32 180.089 171.448 180.334 171.544C180.579 171.629 180.942 171.741 181.422 171.88C182.062 172.051 182.585 172.227 182.99 172.408C183.406 172.579 183.763 172.835 184.062 173.176C184.361 173.517 184.515 173.971 184.526 174.536C184.526 175.037 184.387 175.485 184.11 175.88C183.833 176.275 183.438 176.584 182.926 176.808C182.425 177.032 181.833 177.144 181.15 177.144ZM193.853 177.144C193.16 177.144 192.536 177.021 191.981 176.776C191.437 176.52 191.005 176.179 190.685 175.752C190.365 175.315 190.194 174.829 190.173 174.296H192.061C192.093 174.669 192.269 174.984 192.589 175.24C192.92 175.485 193.33 175.608 193.821 175.608C194.333 175.608 194.728 175.512 195.005 175.32C195.293 175.117 195.437 174.861 195.437 174.552C195.437 174.221 195.277 173.976 194.957 173.816C194.648 173.656 194.152 173.48 193.469 173.288C192.808 173.107 192.269 172.931 191.853 172.76C191.437 172.589 191.074 172.328 190.765 171.976C190.466 171.624 190.317 171.16 190.317 170.584C190.317 170.115 190.456 169.688 190.733 169.304C191.01 168.909 191.405 168.6 191.917 168.376C192.44 168.152 193.037 168.04 193.709 168.04C194.712 168.04 195.517 168.296 196.125 168.808C196.744 169.309 197.074 169.997 197.117 170.872H195.293C195.261 170.477 195.101 170.163 194.813 169.928C194.525 169.693 194.136 169.576 193.645 169.576C193.165 169.576 192.797 169.667 192.541 169.848C192.285 170.029 192.157 170.269 192.157 170.568C192.157 170.803 192.242 171 192.413 171.16C192.584 171.32 192.792 171.448 193.037 171.544C193.282 171.629 193.645 171.741 194.125 171.88C194.765 172.051 195.288 172.227 195.693 172.408C196.109 172.579 196.466 172.835 196.765 173.176C197.064 173.517 197.218 173.971 197.229 174.536C197.229 175.037 197.09 175.485 196.813 175.88C196.536 176.275 196.141 176.584 195.629 176.808C195.128 177.032 194.536 177.144 193.853 177.144ZM201.328 169.672V174.552C201.328 174.883 201.403 175.123 201.552 175.272C201.712 175.411 201.979 175.48 202.352 175.48H203.472V177H202.032C201.211 177 200.581 176.808 200.144 176.424C199.707 176.04 199.488 175.416 199.488 174.552V169.672H198.448V168.184H199.488V165.992H201.328V168.184H203.472V169.672H201.328ZM213.137 168.184V177H211.313V175.96C211.025 176.323 210.646 176.611 210.177 176.824C209.718 177.027 209.228 177.128 208.705 177.128C208.012 177.128 207.388 176.984 206.833 176.696C206.289 176.408 205.857 175.981 205.537 175.416C205.228 174.851 205.073 174.168 205.073 173.368V168.184H206.881V173.096C206.881 173.885 207.078 174.493 207.473 174.92C207.868 175.336 208.406 175.544 209.089 175.544C209.772 175.544 210.31 175.336 210.705 174.92C211.11 174.493 211.313 173.885 211.313 173.096V168.184H213.137ZM214.936 172.552C214.936 171.667 215.117 170.883 215.48 170.2C215.853 169.517 216.354 168.989 216.984 168.616C217.624 168.232 218.333 168.04 219.112 168.04C219.688 168.04 220.253 168.168 220.808 168.424C221.373 168.669 221.821 169 222.152 169.416V165.16H223.992V177H222.152V175.672C221.853 176.099 221.437 176.451 220.904 176.728C220.381 177.005 219.778 177.144 219.096 177.144C218.328 177.144 217.624 176.952 216.984 176.568C216.354 176.173 215.853 175.629 215.48 174.936C215.117 174.232 214.936 173.437 214.936 172.552ZM222.152 172.584C222.152 171.976 222.024 171.448 221.768 171C221.522 170.552 221.197 170.211 220.792 169.976C220.386 169.741 219.949 169.624 219.48 169.624C219.01 169.624 218.573 169.741 218.168 169.976C217.762 170.2 217.432 170.536 217.176 170.984C216.93 171.421 216.808 171.944 216.808 172.552C216.808 173.16 216.93 173.693 217.176 174.152C217.432 174.611 217.762 174.963 218.168 175.208C218.584 175.443 219.021 175.56 219.48 175.56C219.949 175.56 220.386 175.443 220.792 175.208C221.197 174.973 221.522 174.632 221.768 174.184C222.024 173.725 222.152 173.192 222.152 172.584ZM227.316 167.016C226.985 167.016 226.708 166.904 226.484 166.68C226.26 166.456 226.148 166.179 226.148 165.848C226.148 165.517 226.26 165.24 226.484 165.016C226.708 164.792 226.985 164.68 227.316 164.68C227.636 164.68 227.908 164.792 228.132 165.016C228.356 165.24 228.468 165.517 228.468 165.848C228.468 166.179 228.356 166.456 228.132 166.68C227.908 166.904 227.636 167.016 227.316 167.016ZM228.212 168.184V177H226.388V168.184H228.212ZM238.686 172.376C238.686 172.707 238.665 173.005 238.622 173.272H231.886C231.94 173.976 232.201 174.541 232.67 174.968C233.14 175.395 233.716 175.608 234.398 175.608C235.38 175.608 236.073 175.197 236.478 174.376H238.446C238.18 175.187 237.694 175.853 236.99 176.376C236.297 176.888 235.433 177.144 234.398 177.144C233.556 177.144 232.798 176.957 232.126 176.584C231.465 176.2 230.942 175.667 230.558 174.984C230.185 174.291 229.998 173.491 229.998 172.584C229.998 171.677 230.18 170.883 230.542 170.2C230.916 169.507 231.433 168.973 232.094 168.6C232.766 168.227 233.534 168.04 234.398 168.04C235.23 168.04 235.972 168.221 236.622 168.584C237.273 168.947 237.78 169.459 238.142 170.12C238.505 170.771 238.686 171.523 238.686 172.376ZM236.782 171.8C236.772 171.128 236.532 170.589 236.062 170.184C235.593 169.779 235.012 169.576 234.318 169.576C233.689 169.576 233.15 169.779 232.702 170.184C232.254 170.579 231.988 171.117 231.902 171.8H236.782ZM239.873 172.552C239.873 171.667 240.055 170.883 240.417 170.2C240.791 169.517 241.292 168.989 241.921 168.616C242.561 168.232 243.271 168.04 244.049 168.04C244.625 168.04 245.191 168.168 245.745 168.424C246.311 168.669 246.759 169 247.089 169.416V165.16H248.929V177H247.089V175.672C246.791 176.099 246.375 176.451 245.841 176.728C245.319 177.005 244.716 177.144 244.033 177.144C243.265 177.144 242.561 176.952 241.921 176.568C241.292 176.173 240.791 175.629 240.417 174.936C240.055 174.232 239.873 173.437 239.873 172.552ZM247.089 172.584C247.089 171.976 246.961 171.448 246.705 171C246.46 170.552 246.135 170.211 245.729 169.976C245.324 169.741 244.887 169.624 244.417 169.624C243.948 169.624 243.511 169.741 243.105 169.976C242.7 170.2 242.369 170.536 242.113 170.984C241.868 171.421 241.745 171.944 241.745 172.552C241.745 173.16 241.868 173.693 242.113 174.152C242.369 174.611 242.7 174.963 243.105 175.208C243.521 175.443 243.959 175.56 244.417 175.56C244.887 175.56 245.324 175.443 245.729 175.208C246.135 174.973 246.46 174.632 246.705 174.184C246.961 173.725 247.089 173.192 247.089 172.584ZM23.024 189.88V201H21.2V189.88H23.024ZM29.8668 192.04C30.5601 192.04 31.1788 192.184 31.7228 192.472C32.2774 192.76 32.7094 193.187 33.0188 193.752C33.3281 194.317 33.4828 195 33.4828 195.8V201H31.6748V196.072C31.6748 195.283 31.4774 194.68 31.0828 194.264C30.6881 193.837 30.1494 193.624 29.4668 193.624C28.7841 193.624 28.2401 193.837 27.8348 194.264C27.4401 194.68 27.2428 195.283 27.2428 196.072V201H25.4188V192.184H27.2428V193.192C27.5414 192.829 27.9201 192.547 28.3788 192.344C28.8481 192.141 29.3441 192.04 29.8668 192.04ZM35.2014 196.552C35.2014 195.667 35.3827 194.883 35.7454 194.2C36.1187 193.517 36.62 192.989 37.2494 192.616C37.8894 192.232 38.5987 192.04 39.3774 192.04C39.9534 192.04 40.5187 192.168 41.0734 192.424C41.6387 192.669 42.0867 193 42.4174 193.416V189.16H44.2574V201H42.4174V199.672C42.1187 200.099 41.7027 200.451 41.1694 200.728C40.6467 201.005 40.044 201.144 39.3614 201.144C38.5934 201.144 37.8894 200.952 37.2494 200.568C36.62 200.173 36.1187 199.629 35.7454 198.936C35.3827 198.232 35.2014 197.437 35.2014 196.552ZM42.4174 196.584C42.4174 195.976 42.2894 195.448 42.0334 195C41.788 194.552 41.4627 194.211 41.0574 193.976C40.652 193.741 40.2147 193.624 39.7454 193.624C39.276 193.624 38.8387 193.741 38.4334 193.976C38.028 194.2 37.6974 194.536 37.4414 194.984C37.196 195.421 37.0734 195.944 37.0734 196.552C37.0734 197.16 37.196 197.693 37.4414 198.152C37.6974 198.611 38.028 198.963 38.4334 199.208C38.8494 199.443 39.2867 199.56 39.7454 199.56C40.2147 199.56 40.652 199.443 41.0574 199.208C41.4627 198.973 41.788 198.632 42.0334 198.184C42.2894 197.725 42.4174 197.192 42.4174 196.584ZM50.4771 201.144C49.6451 201.144 48.8931 200.957 48.2211 200.584C47.5491 200.2 47.0211 199.667 46.6371 198.984C46.2531 198.291 46.0611 197.491 46.0611 196.584C46.0611 195.688 46.2585 194.893 46.6531 194.2C47.0478 193.507 47.5865 192.973 48.2691 192.6C48.9518 192.227 49.7145 192.04 50.5571 192.04C51.3998 192.04 52.1625 192.227 52.8451 192.6C53.5278 192.973 54.0665 193.507 54.4611 194.2C54.8558 194.893 55.0531 195.688 55.0531 196.584C55.0531 197.48 54.8505 198.275 54.4451 198.968C54.0398 199.661 53.4851 200.2 52.7811 200.584C52.0878 200.957 51.3198 201.144 50.4771 201.144ZM50.4771 199.56C50.9465 199.56 51.3838 199.448 51.7891 199.224C52.2051 199 52.5411 198.664 52.7971 198.216C53.0531 197.768 53.1811 197.224 53.1811 196.584C53.1811 195.944 53.0585 195.405 52.8131 194.968C52.5678 194.52 52.2425 194.184 51.8371 193.96C51.4318 193.736 50.9945 193.624 50.5251 193.624C50.0558 193.624 49.6185 193.736 49.2131 193.96C48.8185 194.184 48.5038 194.52 48.2691 194.968C48.0345 195.405 47.9171 195.944 47.9171 196.584C47.9171 197.533 48.1571 198.269 48.6371 198.792C49.1278 199.304 49.7411 199.56 50.4771 199.56ZM61.3043 192.04C61.9976 192.04 62.6163 192.184 63.1603 192.472C63.7149 192.76 64.1469 193.187 64.4563 193.752C64.7656 194.317 64.9203 195 64.9203 195.8V201H63.1123V196.072C63.1123 195.283 62.9149 194.68 62.5203 194.264C62.1256 193.837 61.5869 193.624 60.9043 193.624C60.2216 193.624 59.6776 193.837 59.2723 194.264C58.8776 194.68 58.6803 195.283 58.6803 196.072V201H56.8563V192.184H58.6803V193.192C58.9789 192.829 59.3576 192.547 59.8163 192.344C60.2856 192.141 60.7816 192.04 61.3043 192.04ZM75.3269 196.376C75.3269 196.707 75.3055 197.005 75.2629 197.272H68.5269C68.5802 197.976 68.8415 198.541 69.3109 198.968C69.7802 199.395 70.3562 199.608 71.0389 199.608C72.0202 199.608 72.7135 199.197 73.1189 198.376H75.0869C74.8202 199.187 74.3349 199.853 73.6309 200.376C72.9375 200.888 72.0735 201.144 71.0389 201.144C70.1962 201.144 69.4389 200.957 68.7669 200.584C68.1055 200.2 67.5829 199.667 67.1989 198.984C66.8255 198.291 66.6389 197.491 66.6389 196.584C66.6389 195.677 66.8202 194.883 67.1829 194.2C67.5562 193.507 68.0735 192.973 68.7349 192.6C69.4069 192.227 70.1749 192.04 71.0389 192.04C71.8709 192.04 72.6122 192.221 73.2629 192.584C73.9135 192.947 74.4202 193.459 74.7829 194.12C75.1455 194.771 75.3269 195.523 75.3269 196.376ZM73.4229 195.8C73.4122 195.128 73.1722 194.589 72.7029 194.184C72.2335 193.779 71.6522 193.576 70.9589 193.576C70.3295 193.576 69.7909 193.779 69.3429 194.184C68.8949 194.579 68.6282 195.117 68.5429 195.8H73.4229ZM80.3219 201.144C79.6285 201.144 79.0045 201.021 78.4499 200.776C77.9059 200.52 77.4739 200.179 77.1539 199.752C76.8339 199.315 76.6632 198.829 76.6419 198.296H78.5299C78.5619 198.669 78.7379 198.984 79.0579 199.24C79.3885 199.485 79.7992 199.608 80.2899 199.608C80.8019 199.608 81.1965 199.512 81.4739 199.32C81.7619 199.117 81.9059 198.861 81.9059 198.552C81.9059 198.221 81.7459 197.976 81.4259 197.816C81.1165 197.656 80.6205 197.48 79.9379 197.288C79.2765 197.107 78.7379 196.931 78.3219 196.76C77.9059 196.589 77.5432 196.328 77.2339 195.976C76.9352 195.624 76.7859 195.16 76.7859 194.584C76.7859 194.115 76.9245 193.688 77.2019 193.304C77.4792 192.909 77.8739 192.6 78.3859 192.376C78.9085 192.152 79.5059 192.04 80.1779 192.04C81.1805 192.04 81.9859 192.296 82.5939 192.808C83.2125 193.309 83.5432 193.997 83.5859 194.872H81.7619C81.7299 194.477 81.5699 194.163 81.2819 193.928C80.9939 193.693 80.6045 193.576 80.1139 193.576C79.6339 193.576 79.2659 193.667 79.0099 193.848C78.7539 194.029 78.6259 194.269 78.6259 194.568C78.6259 194.803 78.7112 195 78.8819 195.16C79.0525 195.32 79.2605 195.448 79.5059 195.544C79.7512 195.629 80.1139 195.741 80.5939 195.88C81.2339 196.051 81.7565 196.227 82.1619 196.408C82.5779 196.579 82.9352 196.835 83.2339 197.176C83.5325 197.517 83.6872 197.971 83.6979 198.536C83.6979 199.037 83.5592 199.485 83.2819 199.88C83.0045 200.275 82.6099 200.584 82.0979 200.808C81.5965 201.032 81.0045 201.144 80.3219 201.144ZM86.5968 191.016C86.2661 191.016 85.9888 190.904 85.7648 190.68C85.5408 190.456 85.4288 190.179 85.4288 189.848C85.4288 189.517 85.5408 189.24 85.7648 189.016C85.9888 188.792 86.2661 188.68 86.5968 188.68C86.9168 188.68 87.1888 188.792 87.4128 189.016C87.6368 189.24 87.7488 189.517 87.7488 189.848C87.7488 190.179 87.6368 190.456 87.4128 190.68C87.1888 190.904 86.9168 191.016 86.5968 191.016ZM87.4928 192.184V201H85.6688V192.184H87.4928ZM89.2795 196.552C89.2795 195.667 89.4608 194.883 89.8235 194.2C90.1968 193.517 90.6982 192.989 91.3275 192.616C91.9675 192.232 92.6715 192.04 93.4395 192.04C94.1328 192.04 94.7355 192.179 95.2475 192.456C95.7702 192.723 96.1862 193.059 96.4955 193.464V192.184H98.3355V201H96.4955V199.688C96.1862 200.104 95.7648 200.451 95.2315 200.728C94.6982 201.005 94.0902 201.144 93.4075 201.144C92.6502 201.144 91.9568 200.952 91.3275 200.568C90.6982 200.173 90.1968 199.629 89.8235 198.936C89.4608 198.232 89.2795 197.437 89.2795 196.552ZM96.4955 196.584C96.4955 195.976 96.3675 195.448 96.1115 195C95.8662 194.552 95.5408 194.211 95.1355 193.976C94.7302 193.741 94.2928 193.624 93.8235 193.624C93.3542 193.624 92.9168 193.741 92.5115 193.976C92.1062 194.2 91.7755 194.536 91.5195 194.984C91.2742 195.421 91.1515 195.944 91.1515 196.552C91.1515 197.16 91.2742 197.693 91.5195 198.152C91.7755 198.611 92.1062 198.963 92.5115 199.208C92.9275 199.443 93.3648 199.56 93.8235 199.56C94.2928 199.56 94.7302 199.443 95.1355 199.208C95.5408 198.973 95.8662 198.632 96.1115 198.184C96.3675 197.725 96.4955 197.192 96.4955 196.584ZM106.712 193.496C107.021 193.069 107.442 192.723 107.976 192.456C108.52 192.179 109.122 192.04 109.784 192.04C110.562 192.04 111.266 192.227 111.896 192.6C112.525 192.973 113.021 193.507 113.384 194.2C113.746 194.883 113.928 195.667 113.928 196.552C113.928 197.437 113.746 198.232 113.384 198.936C113.021 199.629 112.52 200.173 111.88 200.568C111.25 200.952 110.552 201.144 109.784 201.144C109.101 201.144 108.493 201.011 107.96 200.744C107.437 200.477 107.021 200.136 106.712 199.72V201H104.888V189.16H106.712V193.496ZM112.072 196.552C112.072 195.944 111.944 195.421 111.688 194.984C111.442 194.536 111.112 194.2 110.696 193.976C110.29 193.741 109.853 193.624 109.384 193.624C108.925 193.624 108.488 193.741 108.072 193.976C107.666 194.211 107.336 194.552 107.08 195C106.834 195.448 106.712 195.976 106.712 196.584C106.712 197.192 106.834 197.725 107.08 198.184C107.336 198.632 107.666 198.973 108.072 199.208C108.488 199.443 108.925 199.56 109.384 199.56C109.853 199.56 110.29 199.443 110.696 199.208C111.112 198.963 111.442 198.611 111.688 198.152C111.944 197.693 112.072 197.16 112.072 196.552ZM115.123 196.552C115.123 195.667 115.305 194.883 115.667 194.2C116.041 193.517 116.542 192.989 117.171 192.616C117.811 192.232 118.515 192.04 119.283 192.04C119.977 192.04 120.579 192.179 121.091 192.456C121.614 192.723 122.03 193.059 122.339 193.464V192.184H124.179V201H122.339V199.688C122.03 200.104 121.609 200.451 121.075 200.728C120.542 201.005 119.934 201.144 119.251 201.144C118.494 201.144 117.801 200.952 117.171 200.568C116.542 200.173 116.041 199.629 115.667 198.936C115.305 198.232 115.123 197.437 115.123 196.552ZM122.339 196.584C122.339 195.976 122.211 195.448 121.955 195C121.71 194.552 121.385 194.211 120.979 193.976C120.574 193.741 120.137 193.624 119.667 193.624C119.198 193.624 118.761 193.741 118.355 193.976C117.95 194.2 117.619 194.536 117.363 194.984C117.118 195.421 116.995 195.944 116.995 196.552C116.995 197.16 117.118 197.693 117.363 198.152C117.619 198.611 117.95 198.963 118.355 199.208C118.771 199.443 119.209 199.56 119.667 199.56C120.137 199.56 120.574 199.443 120.979 199.208C121.385 198.973 121.71 198.632 121.955 198.184C122.211 197.725 122.339 197.192 122.339 196.584ZM129.775 201.144C129.082 201.144 128.458 201.021 127.903 200.776C127.359 200.52 126.927 200.179 126.607 199.752C126.287 199.315 126.116 198.829 126.095 198.296H127.983C128.015 198.669 128.191 198.984 128.511 199.24C128.842 199.485 129.252 199.608 129.743 199.608C130.255 199.608 130.65 199.512 130.927 199.32C131.215 199.117 131.359 198.861 131.359 198.552C131.359 198.221 131.199 197.976 130.879 197.816C130.57 197.656 130.074 197.48 129.391 197.288C128.73 197.107 128.191 196.931 127.775 196.76C127.359 196.589 126.996 196.328 126.687 195.976C126.388 195.624 126.239 195.16 126.239 194.584C126.239 194.115 126.378 193.688 126.655 193.304C126.932 192.909 127.327 192.6 127.839 192.376C128.362 192.152 128.959 192.04 129.631 192.04C130.634 192.04 131.439 192.296 132.047 192.808C132.666 193.309 132.996 193.997 133.039 194.872H131.215C131.183 194.477 131.023 194.163 130.735 193.928C130.447 193.693 130.058 193.576 129.567 193.576C129.087 193.576 128.719 193.667 128.463 193.848C128.207 194.029 128.079 194.269 128.079 194.568C128.079 194.803 128.164 195 128.335 195.16C128.506 195.32 128.714 195.448 128.959 195.544C129.204 195.629 129.567 195.741 130.047 195.88C130.687 196.051 131.21 196.227 131.615 196.408C132.031 196.579 132.388 196.835 132.687 197.176C132.986 197.517 133.14 197.971 133.151 198.536C133.151 199.037 133.012 199.485 132.735 199.88C132.458 200.275 132.063 200.584 131.551 200.808C131.05 201.032 130.458 201.144 129.775 201.144ZM143.202 196.376C143.202 196.707 143.181 197.005 143.138 197.272H136.402C136.455 197.976 136.717 198.541 137.186 198.968C137.655 199.395 138.231 199.608 138.914 199.608C139.895 199.608 140.589 199.197 140.994 198.376H142.962C142.695 199.187 142.21 199.853 141.506 200.376C140.813 200.888 139.949 201.144 138.914 201.144C138.071 201.144 137.314 200.957 136.642 200.584C135.981 200.2 135.458 199.667 135.074 198.984C134.701 198.291 134.514 197.491 134.514 196.584C134.514 195.677 134.695 194.883 135.058 194.2C135.431 193.507 135.949 192.973 136.61 192.6C137.282 192.227 138.05 192.04 138.914 192.04C139.746 192.04 140.487 192.221 141.138 192.584C141.789 192.947 142.295 193.459 142.658 194.12C143.021 194.771 143.202 195.523 143.202 196.376ZM141.298 195.8C141.287 195.128 141.047 194.589 140.578 194.184C140.109 193.779 139.527 193.576 138.834 193.576C138.205 193.576 137.666 193.779 137.218 194.184C136.77 194.579 136.503 195.117 136.418 195.8H141.298ZM144.389 196.552C144.389 195.667 144.57 194.883 144.933 194.2C145.306 193.517 145.808 192.989 146.437 192.616C147.077 192.232 147.786 192.04 148.565 192.04C149.141 192.04 149.706 192.168 150.261 192.424C150.826 192.669 151.274 193 151.605 193.416V189.16H153.445V201H151.605V199.672C151.306 200.099 150.89 200.451 150.357 200.728C149.834 201.005 149.232 201.144 148.549 201.144C147.781 201.144 147.077 200.952 146.437 200.568C145.808 200.173 145.306 199.629 144.933 198.936C144.57 198.232 144.389 197.437 144.389 196.552ZM151.605 196.584C151.605 195.976 151.477 195.448 151.221 195C150.976 194.552 150.65 194.211 150.245 193.976C149.84 193.741 149.402 193.624 148.933 193.624C148.464 193.624 148.026 193.741 147.621 193.976C147.216 194.2 146.885 194.536 146.629 194.984C146.384 195.421 146.261 195.944 146.261 196.552C146.261 197.16 146.384 197.693 146.629 198.152C146.885 198.611 147.216 198.963 147.621 199.208C148.037 199.443 148.474 199.56 148.933 199.56C149.402 199.56 149.84 199.443 150.245 199.208C150.65 198.973 150.976 198.632 151.221 198.184C151.477 197.725 151.605 197.192 151.605 196.584ZM167.981 192.184V201H166.157V199.96C165.869 200.323 165.49 200.611 165.021 200.824C164.562 201.027 164.072 201.128 163.549 201.128C162.856 201.128 162.232 200.984 161.677 200.696C161.133 200.408 160.701 199.981 160.381 199.416C160.072 198.851 159.917 198.168 159.917 197.368V192.184H161.725V197.096C161.725 197.885 161.922 198.493 162.317 198.92C162.712 199.336 163.25 199.544 163.933 199.544C164.616 199.544 165.154 199.336 165.549 198.92C165.954 198.493 166.157 197.885 166.157 197.096V192.184H167.981ZM172.212 193.48C172.521 193.075 172.942 192.733 173.476 192.456C174.009 192.179 174.612 192.04 175.284 192.04C176.052 192.04 176.75 192.232 177.38 192.616C178.02 192.989 178.521 193.517 178.884 194.2C179.246 194.883 179.428 195.667 179.428 196.552C179.428 197.437 179.246 198.232 178.884 198.936C178.521 199.629 178.02 200.173 177.38 200.568C176.75 200.952 176.052 201.144 175.284 201.144C174.612 201.144 174.014 201.011 173.492 200.744C172.969 200.467 172.542 200.125 172.212 199.72V205.192H170.388V192.184H172.212V193.48ZM177.572 196.552C177.572 195.944 177.444 195.421 177.188 194.984C176.942 194.536 176.612 194.2 176.196 193.976C175.79 193.741 175.353 193.624 174.884 193.624C174.425 193.624 173.988 193.741 173.572 193.976C173.166 194.211 172.836 194.552 172.58 195C172.334 195.448 172.212 195.976 172.212 196.584C172.212 197.192 172.334 197.725 172.58 198.184C172.836 198.632 173.166 198.973 173.572 199.208C173.988 199.443 174.425 199.56 174.884 199.56C175.353 199.56 175.79 199.443 176.196 199.208C176.612 198.963 176.942 198.611 177.188 198.152C177.444 197.693 177.572 197.16 177.572 196.552ZM185.055 201.144C184.223 201.144 183.471 200.957 182.799 200.584C182.127 200.2 181.599 199.667 181.215 198.984C180.831 198.291 180.639 197.491 180.639 196.584C180.639 195.688 180.837 194.893 181.231 194.2C181.626 193.507 182.165 192.973 182.847 192.6C183.53 192.227 184.293 192.04 185.135 192.04C185.978 192.04 186.741 192.227 187.423 192.6C188.106 192.973 188.645 193.507 189.039 194.2C189.434 194.893 189.631 195.688 189.631 196.584C189.631 197.48 189.429 198.275 189.023 198.968C188.618 199.661 188.063 200.2 187.359 200.584C186.666 200.957 185.898 201.144 185.055 201.144ZM185.055 199.56C185.525 199.56 185.962 199.448 186.367 199.224C186.783 199 187.119 198.664 187.375 198.216C187.631 197.768 187.759 197.224 187.759 196.584C187.759 195.944 187.637 195.405 187.391 194.968C187.146 194.52 186.821 194.184 186.415 193.96C186.01 193.736 185.573 193.624 185.103 193.624C184.634 193.624 184.197 193.736 183.791 193.96C183.397 194.184 183.082 194.52 182.847 194.968C182.613 195.405 182.495 195.944 182.495 196.584C182.495 197.533 182.735 198.269 183.215 198.792C183.706 199.304 184.319 199.56 185.055 199.56ZM195.882 192.04C196.576 192.04 197.194 192.184 197.738 192.472C198.293 192.76 198.725 193.187 199.034 193.752C199.344 194.317 199.498 195 199.498 195.8V201H197.69V196.072C197.69 195.283 197.493 194.68 197.098 194.264C196.704 193.837 196.165 193.624 195.482 193.624C194.8 193.624 194.256 193.837 193.85 194.264C193.456 194.68 193.258 195.283 193.258 196.072V201H191.434V192.184H193.258V193.192C193.557 192.829 193.936 192.547 194.394 192.344C194.864 192.141 195.36 192.04 195.882 192.04ZM205.373 196.584C205.373 195.677 205.555 194.883 205.917 194.2C206.291 193.507 206.803 192.973 207.453 192.6C208.104 192.227 208.851 192.04 209.693 192.04C210.76 192.04 211.64 192.296 212.333 192.808C213.037 193.309 213.512 194.029 213.757 194.968H211.789C211.629 194.531 211.373 194.189 211.021 193.944C210.669 193.699 210.227 193.576 209.693 193.576C208.947 193.576 208.349 193.843 207.901 194.376C207.464 194.899 207.245 195.635 207.245 196.584C207.245 197.533 207.464 198.275 207.901 198.808C208.349 199.341 208.947 199.608 209.693 199.608C210.749 199.608 211.448 199.144 211.789 198.216H213.757C213.501 199.112 213.021 199.827 212.317 200.36C211.613 200.883 210.739 201.144 209.693 201.144C208.851 201.144 208.104 200.957 207.453 200.584C206.803 200.2 206.291 199.667 205.917 198.984C205.555 198.291 205.373 197.491 205.373 196.584ZM220.135 192.04C220.807 192.04 221.404 192.184 221.927 192.472C222.46 192.76 222.876 193.187 223.175 193.752C223.484 194.317 223.639 195 223.639 195.8V201H221.831V196.072C221.831 195.283 221.634 194.68 221.239 194.264C220.844 193.837 220.306 193.624 219.623 193.624C218.94 193.624 218.396 193.837 217.991 194.264C217.596 194.68 217.399 195.283 217.399 196.072V201H215.575V189.16H217.399V193.208C217.708 192.835 218.098 192.547 218.567 192.344C219.047 192.141 219.57 192.04 220.135 192.04ZM225.358 196.552C225.358 195.667 225.539 194.883 225.902 194.2C226.275 193.517 226.776 192.989 227.406 192.616C228.046 192.232 228.75 192.04 229.518 192.04C230.211 192.04 230.814 192.179 231.326 192.456C231.848 192.723 232.264 193.059 232.574 193.464V192.184H234.414V201H232.574V199.688C232.264 200.104 231.843 200.451 231.31 200.728C230.776 201.005 230.168 201.144 229.486 201.144C228.728 201.144 228.035 200.952 227.406 200.568C226.776 200.173 226.275 199.629 225.902 198.936C225.539 198.232 225.358 197.437 225.358 196.552ZM232.574 196.584C232.574 195.976 232.446 195.448 232.19 195C231.944 194.552 231.619 194.211 231.214 193.976C230.808 193.741 230.371 193.624 229.902 193.624C229.432 193.624 228.995 193.741 228.59 193.976C228.184 194.2 227.854 194.536 227.598 194.984C227.352 195.421 227.23 195.944 227.23 196.552C227.23 197.16 227.352 197.693 227.598 198.152C227.854 198.611 228.184 198.963 228.59 199.208C229.006 199.443 229.443 199.56 229.902 199.56C230.371 199.56 230.808 199.443 231.214 199.208C231.619 198.973 231.944 198.632 232.19 198.184C232.446 197.725 232.574 197.192 232.574 196.584ZM241.257 192.04C241.951 192.04 242.569 192.184 243.113 192.472C243.668 192.76 244.1 193.187 244.409 193.752C244.719 194.317 244.873 195 244.873 195.8V201H243.065V196.072C243.065 195.283 242.868 194.68 242.473 194.264C242.079 193.837 241.54 193.624 240.857 193.624C240.175 193.624 239.631 193.837 239.225 194.264C238.831 194.68 238.633 195.283 238.633 196.072V201H236.809V192.184H238.633V193.192C238.932 192.829 239.311 192.547 239.769 192.344C240.239 192.141 240.735 192.04 241.257 192.04ZM250.752 192.04C251.435 192.04 252.037 192.179 252.56 192.456C253.093 192.723 253.509 193.059 253.808 193.464V192.184H255.648V201.144C255.648 201.955 255.477 202.675 255.136 203.304C254.795 203.944 254.299 204.445 253.648 204.808C253.008 205.171 252.24 205.352 251.344 205.352C250.149 205.352 249.157 205.069 248.368 204.504C247.579 203.949 247.131 203.192 247.024 202.232H248.832C248.971 202.691 249.264 203.059 249.712 203.336C250.171 203.624 250.715 203.768 251.344 203.768C252.08 203.768 252.672 203.544 253.12 203.096C253.579 202.648 253.808 201.997 253.808 201.144V199.672C253.499 200.088 253.077 200.44 252.544 200.728C252.021 201.005 251.424 201.144 250.752 201.144C249.984 201.144 249.28 200.952 248.64 200.568C248.011 200.173 247.509 199.629 247.136 198.936C246.773 198.232 246.592 197.437 246.592 196.552C246.592 195.667 246.773 194.883 247.136 194.2C247.509 193.517 248.011 192.989 248.64 192.616C249.28 192.232 249.984 192.04 250.752 192.04ZM253.808 196.584C253.808 195.976 253.68 195.448 253.424 195C253.179 194.552 252.853 194.211 252.448 193.976C252.043 193.741 251.605 193.624 251.136 193.624C250.667 193.624 250.229 193.741 249.824 193.976C249.419 194.2 249.088 194.536 248.832 194.984C248.587 195.421 248.464 195.944 248.464 196.552C248.464 197.16 248.587 197.693 248.832 198.152C249.088 198.611 249.419 198.963 249.824 199.208C250.24 199.443 250.677 199.56 251.136 199.56C251.605 199.56 252.043 199.443 252.448 199.208C252.853 198.973 253.179 198.632 253.424 198.184C253.68 197.725 253.808 197.192 253.808 196.584ZM258.972 191.016C258.641 191.016 258.364 190.904 258.14 190.68C257.916 190.456 257.804 190.179 257.804 189.848C257.804 189.517 257.916 189.24 258.14 189.016C258.364 188.792 258.641 188.68 258.972 188.68C259.292 188.68 259.564 188.792 259.788 189.016C260.012 189.24 260.124 189.517 260.124 189.848C260.124 190.179 260.012 190.456 259.788 190.68C259.564 190.904 259.292 191.016 258.972 191.016ZM259.868 192.184V201H258.044V192.184H259.868ZM266.711 192.04C267.404 192.04 268.023 192.184 268.567 192.472C269.121 192.76 269.553 193.187 269.863 193.752C270.172 194.317 270.327 195 270.327 195.8V201H268.519V196.072C268.519 195.283 268.321 194.68 267.927 194.264C267.532 193.837 266.993 193.624 266.311 193.624C265.628 193.624 265.084 193.837 264.679 194.264C264.284 194.68 264.087 195.283 264.087 196.072V201H262.263V192.184H264.087V193.192C264.385 192.829 264.764 192.547 265.223 192.344C265.692 192.141 266.188 192.04 266.711 192.04ZM276.205 192.04C276.888 192.04 277.49 192.179 278.013 192.456C278.546 192.723 278.962 193.059 279.261 193.464V192.184H281.101V201.144C281.101 201.955 280.93 202.675 280.589 203.304C280.248 203.944 279.752 204.445 279.101 204.808C278.461 205.171 277.693 205.352 276.797 205.352C275.602 205.352 274.61 205.069 273.821 204.504C273.032 203.949 272.584 203.192 272.477 202.232H274.285C274.424 202.691 274.717 203.059 275.165 203.336C275.624 203.624 276.168 203.768 276.797 203.768C277.533 203.768 278.125 203.544 278.573 203.096C279.032 202.648 279.261 201.997 279.261 201.144V199.672C278.952 200.088 278.53 200.44 277.997 200.728C277.474 201.005 276.877 201.144 276.205 201.144C275.437 201.144 274.733 200.952 274.093 200.568C273.464 200.173 272.962 199.629 272.589 198.936C272.226 198.232 272.045 197.437 272.045 196.552C272.045 195.667 272.226 194.883 272.589 194.2C272.962 193.517 273.464 192.989 274.093 192.616C274.733 192.232 275.437 192.04 276.205 192.04ZM279.261 196.584C279.261 195.976 279.133 195.448 278.877 195C278.632 194.552 278.306 194.211 277.901 193.976C277.496 193.741 277.058 193.624 276.589 193.624C276.12 193.624 275.682 193.741 275.277 193.976C274.872 194.2 274.541 194.536 274.285 194.984C274.04 195.421 273.917 195.944 273.917 196.552C273.917 197.16 274.04 197.693 274.285 198.152C274.541 198.611 274.872 198.963 275.277 199.208C275.693 199.443 276.13 199.56 276.589 199.56C277.058 199.56 277.496 199.443 277.901 199.208C278.306 198.973 278.632 198.632 278.877 198.184C279.133 197.725 279.261 197.192 279.261 196.584ZM31.872 216.04C32.5653 216.04 33.184 216.184 33.728 216.472C34.2827 216.76 34.7147 217.187 35.024 217.752C35.344 218.317 35.504 219 35.504 219.8V225H33.696V220.072C33.696 219.283 33.4987 218.68 33.104 218.264C32.7093 217.837 32.1707 217.624 31.488 217.624C30.8053 217.624 30.2613 217.837 29.856 218.264C29.4613 218.68 29.264 219.283 29.264 220.072V225H27.456V220.072C27.456 219.283 27.2587 218.68 26.864 218.264C26.4693 217.837 25.9307 217.624 25.248 217.624C24.5653 217.624 24.0213 217.837 23.616 218.264C23.2213 218.68 23.024 219.283 23.024 220.072V225H21.2V216.184H23.024V217.192C23.3227 216.829 23.7013 216.547 24.16 216.344C24.6187 216.141 25.1093 216.04 25.632 216.04C26.336 216.04 26.9653 216.189 27.52 216.488C28.0747 216.787 28.5013 217.219 28.8 217.784C29.0667 217.251 29.4827 216.829 30.048 216.52C30.6133 216.2 31.2213 216.04 31.872 216.04ZM37.217 220.552C37.217 219.667 37.3983 218.883 37.761 218.2C38.1343 217.517 38.6357 216.989 39.265 216.616C39.905 216.232 40.609 216.04 41.377 216.04C42.0703 216.04 42.673 216.179 43.185 216.456C43.7077 216.723 44.1237 217.059 44.433 217.464V216.184H46.273V225H44.433V223.688C44.1237 224.104 43.7023 224.451 43.169 224.728C42.6357 225.005 42.0277 225.144 41.345 225.144C40.5877 225.144 39.8943 224.952 39.265 224.568C38.6357 224.173 38.1343 223.629 37.761 222.936C37.3983 222.232 37.217 221.437 37.217 220.552ZM44.433 220.584C44.433 219.976 44.305 219.448 44.049 219C43.8037 218.552 43.4783 218.211 43.073 217.976C42.6677 217.741 42.2303 217.624 41.761 217.624C41.2917 217.624 40.8543 217.741 40.449 217.976C40.0437 218.2 39.713 218.536 39.457 218.984C39.2117 219.421 39.089 219.944 39.089 220.552C39.089 221.16 39.2117 221.693 39.457 222.152C39.713 222.611 40.0437 222.963 40.449 223.208C40.865 223.443 41.3023 223.56 41.761 223.56C42.2303 223.56 42.6677 223.443 43.073 223.208C43.4783 222.973 43.8037 222.632 44.049 222.184C44.305 221.725 44.433 221.192 44.433 220.584ZM50.4928 217.464C50.7594 217.016 51.1114 216.669 51.5488 216.424C51.9968 216.168 52.5248 216.04 53.1328 216.04V217.928H52.6688C51.9541 217.928 51.4101 218.109 51.0368 218.472C50.6741 218.835 50.4928 219.464 50.4928 220.36V225H48.6688V216.184H50.4928V217.464ZM58.2974 220.6L62.3614 225H59.8974L56.6334 221.208V225H54.8094V213.16H56.6334V220.04L59.8334 216.184H62.3614L58.2974 220.6ZM71.7488 220.376C71.7488 220.707 71.7274 221.005 71.6848 221.272H64.9488C65.0021 221.976 65.2634 222.541 65.7328 222.968C66.2021 223.395 66.7781 223.608 67.4608 223.608C68.4421 223.608 69.1354 223.197 69.5408 222.376H71.5087C71.2421 223.187 70.7568 223.853 70.0528 224.376C69.3594 224.888 68.4954 225.144 67.4608 225.144C66.6181 225.144 65.8608 224.957 65.1888 224.584C64.5274 224.2 64.0048 223.667 63.6208 222.984C63.2474 222.291 63.0608 221.491 63.0608 220.584C63.0608 219.677 63.2421 218.883 63.6048 218.2C63.9781 217.507 64.4954 216.973 65.1568 216.6C65.8288 216.227 66.5968 216.04 67.4608 216.04C68.2928 216.04 69.0341 216.221 69.6848 216.584C70.3354 216.947 70.8421 217.459 71.2048 218.12C71.5674 218.771 71.7488 219.523 71.7488 220.376ZM69.8448 219.8C69.8341 219.128 69.5941 218.589 69.1248 218.184C68.6554 217.779 68.0741 217.576 67.3808 217.576C66.7514 217.576 66.2128 217.779 65.7648 218.184C65.3168 218.579 65.0501 219.117 64.9648 219.8H69.8448ZM75.6718 217.672V222.552C75.6718 222.883 75.7464 223.123 75.8958 223.272C76.0558 223.411 76.3224 223.48 76.6958 223.48H77.8158V225H76.3758C75.5544 225 74.9251 224.808 74.4878 224.424C74.0504 224.04 73.8318 223.416 73.8318 222.552V217.672H72.7918V216.184H73.8318V213.992H75.6718V216.184H77.8158V217.672H75.6718ZM85.7811 217.672V222.552C85.7811 222.883 85.8558 223.123 86.0051 223.272C86.1651 223.411 86.4318 223.48 86.8051 223.48H87.9251V225H86.4851C85.6638 225 85.0345 224.808 84.5971 224.424C84.1598 224.04 83.9411 223.416 83.9411 222.552V217.672H82.9011V216.184H83.9411V213.992H85.7811V216.184H87.9251V217.672H85.7811ZM91.4303 217.464C91.6969 217.016 92.0489 216.669 92.4863 216.424C92.9343 216.168 93.4623 216.04 94.0703 216.04V217.928H93.6063C92.8916 217.928 92.3476 218.109 91.9743 218.472C91.6116 218.835 91.4303 219.464 91.4303 220.36V225H89.6063V216.184H91.4303V217.464ZM103.827 220.376C103.827 220.707 103.806 221.005 103.763 221.272H97.0269C97.0802 221.976 97.3415 222.541 97.8109 222.968C98.2802 223.395 98.8562 223.608 99.5389 223.608C100.52 223.608 101.214 223.197 101.619 222.376H103.587C103.32 223.187 102.835 223.853 102.131 224.376C101.438 224.888 100.574 225.144 99.5389 225.144C98.6962 225.144 97.9389 224.957 97.2669 224.584C96.6055 224.2 96.0829 223.667 95.6989 222.984C95.3255 222.291 95.1389 221.491 95.1389 220.584C95.1389 219.677 95.3202 218.883 95.6829 218.2C96.0562 217.507 96.5735 216.973 97.2349 216.6C97.9069 216.227 98.6749 216.04 99.5389 216.04C100.371 216.04 101.112 216.221 101.763 216.584C102.414 216.947 102.92 217.459 103.283 218.12C103.646 218.771 103.827 219.523 103.827 220.376ZM101.923 219.8C101.912 219.128 101.672 218.589 101.203 218.184C100.734 217.779 100.152 217.576 99.4589 217.576C98.8295 217.576 98.2909 217.779 97.8429 218.184C97.3949 218.579 97.1282 219.117 97.0429 219.8H101.923ZM110.07 216.04C110.763 216.04 111.382 216.184 111.926 216.472C112.481 216.76 112.913 217.187 113.222 217.752C113.531 218.317 113.686 219 113.686 219.8V225H111.878V220.072C111.878 219.283 111.681 218.68 111.286 218.264C110.891 217.837 110.353 217.624 109.67 217.624C108.987 217.624 108.443 217.837 108.038 218.264C107.643 218.68 107.446 219.283 107.446 220.072V225H105.622V216.184H107.446V217.192C107.745 216.829 108.123 216.547 108.582 216.344C109.051 216.141 109.547 216.04 110.07 216.04ZM115.405 220.552C115.405 219.667 115.586 218.883 115.949 218.2C116.322 217.517 116.823 216.989 117.453 216.616C118.093 216.232 118.802 216.04 119.581 216.04C120.157 216.04 120.722 216.168 121.277 216.424C121.842 216.669 122.29 217 122.621 217.416V213.16H124.461V225H122.621V223.672C122.322 224.099 121.906 224.451 121.373 224.728C120.85 225.005 120.247 225.144 119.565 225.144C118.797 225.144 118.093 224.952 117.453 224.568C116.823 224.173 116.322 223.629 115.949 222.936C115.586 222.232 115.405 221.437 115.405 220.552ZM122.621 220.584C122.621 219.976 122.493 219.448 122.237 219C121.991 218.552 121.666 218.211 121.261 217.976C120.855 217.741 120.418 217.624 119.949 217.624C119.479 217.624 119.042 217.741 118.637 217.976C118.231 218.2 117.901 218.536 117.645 218.984C117.399 219.421 117.277 219.944 117.277 220.552C117.277 221.16 117.399 221.693 117.645 222.152C117.901 222.611 118.231 222.963 118.637 223.208C119.053 223.443 119.49 223.56 119.949 223.56C120.418 223.56 120.855 223.443 121.261 223.208C121.666 222.973 121.991 222.632 122.237 222.184C122.493 221.725 122.621 221.192 122.621 220.584ZM130.056 225.144C129.363 225.144 128.739 225.021 128.184 224.776C127.64 224.52 127.208 224.179 126.888 223.752C126.568 223.315 126.398 222.829 126.376 222.296H128.264C128.296 222.669 128.472 222.984 128.792 223.24C129.123 223.485 129.534 223.608 130.024 223.608C130.536 223.608 130.931 223.512 131.208 223.32C131.496 223.117 131.64 222.861 131.64 222.552C131.64 222.221 131.48 221.976 131.16 221.816C130.851 221.656 130.355 221.48 129.672 221.288C129.011 221.107 128.472 220.931 128.056 220.76C127.64 220.589 127.278 220.328 126.968 219.976C126.67 219.624 126.52 219.16 126.52 218.584C126.52 218.115 126.659 217.688 126.936 217.304C127.214 216.909 127.608 216.6 128.12 216.376C128.643 216.152 129.24 216.04 129.912 216.04C130.915 216.04 131.72 216.296 132.328 216.808C132.947 217.309 133.278 217.997 133.32 218.872H131.496C131.464 218.477 131.304 218.163 131.016 217.928C130.728 217.693 130.339 217.576 129.848 217.576C129.368 217.576 129 217.667 128.744 217.848C128.488 218.029 128.36 218.269 128.36 218.568C128.36 218.803 128.446 219 128.616 219.16C128.787 219.32 128.995 219.448 129.24 219.544C129.486 219.629 129.848 219.741 130.328 219.88C130.968 220.051 131.491 220.227 131.896 220.408C132.312 220.579 132.67 220.835 132.968 221.176C133.267 221.517 133.422 221.971 133.432 222.536C133.432 223.037 133.294 223.485 133.016 223.88C132.739 224.275 132.344 224.584 131.832 224.808C131.331 225.032 130.739 225.144 130.056 225.144ZM137.403 222.808L135.467 227.224H134.283L135.419 222.808H137.403ZM142.545 220.552C142.545 219.667 142.726 218.883 143.089 218.2C143.462 217.517 143.964 216.989 144.593 216.616C145.233 216.232 145.942 216.04 146.721 216.04C147.297 216.04 147.862 216.168 148.417 216.424C148.982 216.669 149.43 217 149.761 217.416V213.16H151.601V225H149.761V223.672C149.462 224.099 149.046 224.451 148.513 224.728C147.99 225.005 147.388 225.144 146.705 225.144C145.937 225.144 145.233 224.952 144.593 224.568C143.964 224.173 143.462 223.629 143.089 222.936C142.726 222.232 142.545 221.437 142.545 220.552ZM149.761 220.584C149.761 219.976 149.633 219.448 149.377 219C149.132 218.552 148.806 218.211 148.401 217.976C147.996 217.741 147.558 217.624 147.089 217.624C146.62 217.624 146.182 217.741 145.777 217.976C145.372 218.2 145.041 218.536 144.785 218.984C144.54 219.421 144.417 219.944 144.417 220.552C144.417 221.16 144.54 221.693 144.785 222.152C145.041 222.611 145.372 222.963 145.777 223.208C146.193 223.443 146.63 223.56 147.089 223.56C147.558 223.56 147.996 223.443 148.401 223.208C148.806 222.973 149.132 222.632 149.377 222.184C149.633 221.725 149.761 221.192 149.761 220.584ZM162.077 220.376C162.077 220.707 162.056 221.005 162.013 221.272H155.277C155.33 221.976 155.592 222.541 156.061 222.968C156.53 223.395 157.106 223.608 157.789 223.608C158.77 223.608 159.464 223.197 159.869 222.376H161.837C161.57 223.187 161.085 223.853 160.381 224.376C159.688 224.888 158.824 225.144 157.789 225.144C156.946 225.144 156.189 224.957 155.517 224.584C154.856 224.2 154.333 223.667 153.949 222.984C153.576 222.291 153.389 221.491 153.389 220.584C153.389 219.677 153.57 218.883 153.933 218.2C154.306 217.507 154.824 216.973 155.485 216.6C156.157 216.227 156.925 216.04 157.789 216.04C158.621 216.04 159.362 216.221 160.013 216.584C160.664 216.947 161.17 217.459 161.533 218.12C161.896 218.771 162.077 219.523 162.077 220.376ZM160.173 219.8C160.162 219.128 159.922 218.589 159.453 218.184C158.984 217.779 158.402 217.576 157.709 217.576C157.08 217.576 156.541 217.779 156.093 218.184C155.645 218.579 155.378 219.117 155.293 219.8H160.173ZM174.544 216.04C175.237 216.04 175.856 216.184 176.4 216.472C176.955 216.76 177.387 217.187 177.696 217.752C178.016 218.317 178.176 219 178.176 219.8V225H176.368V220.072C176.368 219.283 176.171 218.68 175.776 218.264C175.381 217.837 174.843 217.624 174.16 217.624C173.477 217.624 172.933 217.837 172.528 218.264C172.133 218.68 171.936 219.283 171.936 220.072V225H170.128V220.072C170.128 219.283 169.931 218.68 169.536 218.264C169.141 217.837 168.603 217.624 167.92 217.624C167.237 217.624 166.693 217.837 166.288 218.264C165.893 218.68 165.696 219.283 165.696 220.072V225H163.872V216.184H165.696V217.192C165.995 216.829 166.373 216.547 166.832 216.344C167.291 216.141 167.781 216.04 168.304 216.04C169.008 216.04 169.637 216.189 170.192 216.488C170.747 216.787 171.173 217.219 171.472 217.784C171.739 217.251 172.155 216.829 172.72 216.52C173.285 216.2 173.893 216.04 174.544 216.04ZM179.889 220.552C179.889 219.667 180.07 218.883 180.433 218.2C180.806 217.517 181.308 216.989 181.937 216.616C182.577 216.232 183.281 216.04 184.049 216.04C184.742 216.04 185.345 216.179 185.857 216.456C186.38 216.723 186.796 217.059 187.105 217.464V216.184H188.945V225H187.105V223.688C186.796 224.104 186.374 224.451 185.841 224.728C185.308 225.005 184.7 225.144 184.017 225.144C183.26 225.144 182.566 224.952 181.937 224.568C181.308 224.173 180.806 223.629 180.433 222.936C180.07 222.232 179.889 221.437 179.889 220.552ZM187.105 220.584C187.105 219.976 186.977 219.448 186.721 219C186.476 218.552 186.15 218.211 185.745 217.976C185.34 217.741 184.902 217.624 184.433 217.624C183.964 217.624 183.526 217.741 183.121 217.976C182.716 218.2 182.385 218.536 182.129 218.984C181.884 219.421 181.761 219.944 181.761 220.552C181.761 221.16 181.884 221.693 182.129 222.152C182.385 222.611 182.716 222.963 183.121 223.208C183.537 223.443 183.974 223.56 184.433 223.56C184.902 223.56 185.34 223.443 185.745 223.208C186.15 222.973 186.476 222.632 186.721 222.184C186.977 221.725 187.105 221.192 187.105 220.584ZM195.789 216.04C196.482 216.04 197.101 216.184 197.645 216.472C198.199 216.76 198.631 217.187 198.941 217.752C199.25 218.317 199.405 219 199.405 219.8V225H197.597V220.072C197.597 219.283 197.399 218.68 197.005 218.264C196.61 217.837 196.071 217.624 195.389 217.624C194.706 217.624 194.162 217.837 193.757 218.264C193.362 218.68 193.165 219.283 193.165 220.072V225H191.341V216.184H193.165V217.192C193.463 216.829 193.842 216.547 194.301 216.344C194.77 216.141 195.266 216.04 195.789 216.04ZM201.123 220.552C201.123 219.667 201.305 218.883 201.667 218.2C202.041 217.517 202.542 216.989 203.171 216.616C203.811 216.232 204.521 216.04 205.299 216.04C205.875 216.04 206.441 216.168 206.995 216.424C207.561 216.669 208.009 217 208.339 217.416V213.16H210.179V225H208.339V223.672C208.041 224.099 207.625 224.451 207.091 224.728C206.569 225.005 205.966 225.144 205.283 225.144C204.515 225.144 203.811 224.952 203.171 224.568C202.542 224.173 202.041 223.629 201.667 222.936C201.305 222.232 201.123 221.437 201.123 220.552ZM208.339 220.584C208.339 219.976 208.211 219.448 207.955 219C207.71 218.552 207.385 218.211 206.979 217.976C206.574 217.741 206.137 217.624 205.667 217.624C205.198 217.624 204.761 217.741 204.355 217.976C203.95 218.2 203.619 218.536 203.363 218.984C203.118 219.421 202.995 219.944 202.995 220.552C202.995 221.16 203.118 221.693 203.363 222.152C203.619 222.611 203.95 222.963 204.355 223.208C204.771 223.443 205.209 223.56 205.667 223.56C206.137 223.56 206.574 223.443 206.979 223.208C207.385 222.973 207.71 222.632 207.955 222.184C208.211 221.725 208.339 221.192 208.339 220.584ZM225.323 225L223.947 223.624C223.414 224.157 222.833 224.557 222.203 224.824C221.574 225.08 220.87 225.208 220.091 225.208C219.302 225.208 218.603 225.069 217.995 224.792C217.387 224.515 216.918 224.12 216.587 223.608C216.257 223.085 216.091 222.483 216.091 221.8C216.091 221.032 216.31 220.349 216.747 219.752C217.185 219.144 217.835 218.664 218.699 218.312C218.39 217.939 218.171 217.592 218.043 217.272C217.915 216.941 217.851 216.579 217.851 216.184C217.851 215.693 217.974 215.256 218.219 214.872C218.475 214.488 218.838 214.184 219.307 213.96C219.777 213.736 220.321 213.624 220.939 213.624C221.569 213.624 222.102 213.747 222.539 213.992C222.987 214.227 223.318 214.552 223.531 214.968C223.755 215.384 223.846 215.848 223.803 216.36H221.979C221.99 215.965 221.894 215.661 221.691 215.448C221.489 215.224 221.211 215.112 220.859 215.112C220.507 215.112 220.219 215.219 219.995 215.432C219.782 215.635 219.675 215.885 219.675 216.184C219.675 216.472 219.755 216.76 219.915 217.048C220.086 217.325 220.379 217.688 220.795 218.136L223.739 221.064L224.875 219.192H226.843L225.403 221.656L225.003 222.312L227.707 225H225.323ZM220.091 223.656C221.094 223.656 221.979 223.245 222.747 222.424L219.803 219.464C218.545 219.965 217.915 220.723 217.915 221.736C217.915 222.28 218.118 222.739 218.523 223.112C218.929 223.475 219.451 223.656 220.091 223.656ZM236.259 225.144C235.566 225.144 234.942 225.021 234.387 224.776C233.843 224.52 233.411 224.179 233.091 223.752C232.771 223.315 232.601 222.829 232.579 222.296H234.467C234.499 222.669 234.675 222.984 234.995 223.24C235.326 223.485 235.737 223.608 236.227 223.608C236.739 223.608 237.134 223.512 237.411 223.32C237.699 223.117 237.843 222.861 237.843 222.552C237.843 222.221 237.683 221.976 237.363 221.816C237.054 221.656 236.558 221.48 235.875 221.288C235.214 221.107 234.675 220.931 234.259 220.76C233.843 220.589 233.481 220.328 233.171 219.976C232.873 219.624 232.723 219.16 232.723 218.584C232.723 218.115 232.862 217.688 233.139 217.304C233.417 216.909 233.811 216.6 234.323 216.376C234.846 216.152 235.443 216.04 236.115 216.04C237.118 216.04 237.923 216.296 238.531 216.808C239.15 217.309 239.481 217.997 239.523 218.872H237.699C237.667 218.477 237.507 218.163 237.219 217.928C236.931 217.693 236.542 217.576 236.051 217.576C235.571 217.576 235.203 217.667 234.947 217.848C234.691 218.029 234.563 218.269 234.563 218.568C234.563 218.803 234.649 219 234.819 219.16C234.99 219.32 235.198 219.448 235.443 219.544C235.689 219.629 236.051 219.741 236.531 219.88C237.171 220.051 237.694 220.227 238.099 220.408C238.515 220.579 238.873 220.835 239.171 221.176C239.47 221.517 239.625 221.971 239.635 222.536C239.635 223.037 239.497 223.485 239.219 223.88C238.942 224.275 238.547 224.584 238.035 224.808C237.534 225.032 236.942 225.144 236.259 225.144ZM249.59 216.184V225H247.766V223.96C247.478 224.323 247.1 224.611 246.63 224.824C246.172 225.027 245.681 225.128 245.158 225.128C244.465 225.128 243.841 224.984 243.286 224.696C242.742 224.408 242.31 223.981 241.99 223.416C241.681 222.851 241.526 222.168 241.526 221.368V216.184H243.334V221.096C243.334 221.885 243.532 222.493 243.926 222.92C244.321 223.336 244.86 223.544 245.542 223.544C246.225 223.544 246.764 223.336 247.158 222.92C247.564 222.493 247.766 221.885 247.766 221.096V216.184H249.59ZM253.821 217.48C254.13 217.075 254.552 216.733 255.085 216.456C255.618 216.179 256.221 216.04 256.893 216.04C257.661 216.04 258.36 216.232 258.989 216.616C259.629 216.989 260.13 217.517 260.493 218.2C260.856 218.883 261.037 219.667 261.037 220.552C261.037 221.437 260.856 222.232 260.493 222.936C260.13 223.629 259.629 224.173 258.989 224.568C258.36 224.952 257.661 225.144 256.893 225.144C256.221 225.144 255.624 225.011 255.101 224.744C254.578 224.467 254.152 224.125 253.821 223.72V229.192H251.997V216.184H253.821V217.48ZM259.181 220.552C259.181 219.944 259.053 219.421 258.797 218.984C258.552 218.536 258.221 218.2 257.805 217.976C257.4 217.741 256.962 217.624 256.493 217.624C256.034 217.624 255.597 217.741 255.181 217.976C254.776 218.211 254.445 218.552 254.189 219C253.944 219.448 253.821 219.976 253.821 220.584C253.821 221.192 253.944 221.725 254.189 222.184C254.445 222.632 254.776 222.973 255.181 223.208C255.597 223.443 256.034 223.56 256.493 223.56C256.962 223.56 257.4 223.443 257.805 223.208C258.221 222.963 258.552 222.611 258.797 222.152C259.053 221.693 259.181 221.16 259.181 220.552ZM264.665 217.48C264.974 217.075 265.395 216.733 265.929 216.456C266.462 216.179 267.065 216.04 267.737 216.04C268.505 216.04 269.203 216.232 269.833 216.616C270.473 216.989 270.974 217.517 271.337 218.2C271.699 218.883 271.881 219.667 271.881 220.552C271.881 221.437 271.699 222.232 271.337 222.936C270.974 223.629 270.473 224.173 269.833 224.568C269.203 224.952 268.505 225.144 267.737 225.144C267.065 225.144 266.467 225.011 265.945 224.744C265.422 224.467 264.995 224.125 264.665 223.72V229.192H262.841V216.184H264.665V217.48ZM270.025 220.552C270.025 219.944 269.897 219.421 269.641 218.984C269.395 218.536 269.065 218.2 268.649 217.976C268.243 217.741 267.806 217.624 267.337 217.624C266.878 217.624 266.441 217.741 266.025 217.976C265.619 218.211 265.289 218.552 265.033 219C264.787 219.448 264.665 219.976 264.665 220.584C264.665 221.192 264.787 221.725 265.033 222.184C265.289 222.632 265.619 222.973 266.025 223.208C266.441 223.443 266.878 223.56 267.337 223.56C267.806 223.56 268.243 223.443 268.649 223.208C269.065 222.963 269.395 222.611 269.641 222.152C269.897 221.693 270.025 221.16 270.025 220.552ZM275.508 213.16V225H273.684V213.16H275.508ZM285.839 216.184L280.431 229.144H278.543L280.335 224.856L276.863 216.184H278.895L281.375 222.904L283.951 216.184H285.839ZM25.024 249.144C24.192 249.144 23.44 248.957 22.768 248.584C22.096 248.2 21.568 247.667 21.184 246.984C20.8 246.291 20.608 245.491 20.608 244.584C20.608 243.688 20.8053 242.893 21.2 242.2C21.5947 241.507 22.1333 240.973 22.816 240.6C23.4987 240.227 24.2613 240.04 25.104 240.04C25.9467 240.04 26.7093 240.227 27.392 240.6C28.0747 240.973 28.6133 241.507 29.008 242.2C29.4027 242.893 29.6 243.688 29.6 244.584C29.6 245.48 29.3973 246.275 28.992 246.968C28.5867 247.661 28.032 248.2 27.328 248.584C26.6347 248.957 25.8667 249.144 25.024 249.144ZM25.024 247.56C25.4933 247.56 25.9307 247.448 26.336 247.224C26.752 247 27.088 246.664 27.344 246.216C27.6 245.768 27.728 245.224 27.728 244.584C27.728 243.944 27.6053 243.405 27.36 242.968C27.1147 242.52 26.7893 242.184 26.384 241.96C25.9787 241.736 25.5413 241.624 25.072 241.624C24.6027 241.624 24.1653 241.736 23.76 241.96C23.3653 242.184 23.0507 242.52 22.816 242.968C22.5813 243.405 22.464 243.944 22.464 244.584C22.464 245.533 22.704 246.269 23.184 246.792C23.6747 247.304 24.288 247.56 25.024 247.56ZM35.0991 241.672H33.4671V249H31.6271V241.672H30.5871V240.184H31.6271V239.56C31.6271 238.547 31.8938 237.811 32.4271 237.352C32.9711 236.883 33.8191 236.648 34.9711 236.648V238.168C34.4165 238.168 34.0271 238.275 33.8031 238.488C33.5791 238.691 33.4671 239.048 33.4671 239.56V240.184H35.0991V241.672ZM37.4516 249.112C37.121 249.112 36.8436 249 36.6196 248.776C36.3956 248.552 36.2836 248.275 36.2836 247.944C36.2836 247.613 36.3956 247.336 36.6196 247.112C36.8436 246.888 37.121 246.776 37.4516 246.776C37.7716 246.776 38.0436 246.888 38.2676 247.112C38.4916 247.336 38.6036 247.613 38.6036 247.944C38.6036 248.275 38.4916 248.552 38.2676 248.776C38.0436 249 37.7716 249.112 37.4516 249.112ZM41.311 249.112C40.9803 249.112 40.703 249 40.479 248.776C40.255 248.552 40.143 248.275 40.143 247.944C40.143 247.613 40.255 247.336 40.479 247.112C40.703 246.888 40.9803 246.776 41.311 246.776C41.631 246.776 41.903 246.888 42.127 247.112C42.351 247.336 42.463 247.613 42.463 247.944C42.463 248.275 42.351 248.552 42.127 248.776C41.903 249 41.631 249.112 41.311 249.112ZM45.1704 249.112C44.8397 249.112 44.5624 249 44.3384 248.776C44.1144 248.552 44.0024 248.275 44.0024 247.944C44.0024 247.613 44.1144 247.336 44.3384 247.112C44.5624 246.888 44.8397 246.776 45.1704 246.776C45.4904 246.776 45.7624 246.888 45.9864 247.112C46.2104 247.336 46.3224 247.613 46.3224 247.944C46.3224 248.275 46.2104 248.552 45.9864 248.776C45.7624 249 45.4904 249.112 45.1704 249.112Z" fill="#2E2E2E"/>
<mask id="mask1_105_1258" style="mask-type:alpha" maskUnits="userSpaceOnUse" x="20" y="278" width="24" height="24">
<rect x="20" y="278" width="24" height="24" fill="#D9D9D9"/>
</mask>
<g mask="url(#mask1_105_1258)">
<path d="M34.625 294.025C34.8083 294.208 35.0333 294.3 35.3 294.3C35.5667 294.3 35.8 294.2 36 294C36.1833 293.817 36.275 293.583 36.275 293.3C36.275 293.017 36.1833 292.783 36 292.6L33 289.6V285.975C33 285.692 32.9042 285.458 32.7125 285.275C32.5208 285.092 32.2833 285 32 285C31.7167 285 31.4792 285.096 31.2875 285.287C31.0958 285.479 31 285.717 31 286V289.975C31 290.108 31.025 290.238 31.075 290.363C31.125 290.488 31.2 290.6 31.3 290.7L34.625 294.025ZM32 300C30.6167 300 29.3167 299.737 28.1 299.212C26.8833 298.688 25.825 297.975 24.925 297.075C24.025 296.175 23.3125 295.117 22.7875 293.9C22.2625 292.683 22 291.383 22 290C22 288.617 22.2625 287.317 22.7875 286.1C23.3125 284.883 24.025 283.825 24.925 282.925C25.825 282.025 26.8833 281.312 28.1 280.788C29.3167 280.262 30.6167 280 32 280C33.3833 280 34.6833 280.262 35.9 280.788C37.1167 281.312 38.175 282.025 39.075 282.925C39.975 283.825 40.6875 284.883 41.2125 286.1C41.7375 287.317 42 288.617 42 290C42 291.383 41.7375 292.683 41.2125 293.9C40.6875 295.117 39.975 296.175 39.075 297.075C38.175 297.975 37.1167 298.688 35.9 299.212C34.6833 299.737 33.3833 300 32 300ZM32 298C34.2167 298 36.1042 297.221 37.6625 295.663C39.2208 294.104 40 292.217 40 290C40 287.783 39.2208 285.896 37.6625 284.338C36.1042 282.779 34.2167 282 32 282C29.7833 282 27.8958 282.779 26.3375 284.338C24.7792 285.896 24 287.783 24 290C24 292.217 24.7792 294.104 26.3375 295.663C27.8958 297.221 29.7833 298 32 298Z" fill="#2E2E2E"/>
</g>
<path d="M49.63 285.75V284.294H52.542V294.5H50.932V285.75H49.63ZM54.7065 286.814C54.7625 285.946 55.0939 285.269 55.7005 284.784C56.3165 284.299 57.1005 284.056 58.0525 284.056C58.7059 284.056 59.2705 284.173 59.7465 284.406C60.2225 284.639 60.5819 284.957 60.8245 285.358C61.0672 285.759 61.1885 286.212 61.1885 286.716C61.1885 287.295 61.0345 287.789 60.7265 288.2C60.4185 288.611 60.0499 288.886 59.6205 289.026V289.082C60.1712 289.25 60.6005 289.558 60.9085 290.006C61.2165 290.445 61.3705 291.009 61.3705 291.7C61.3705 292.251 61.2445 292.741 60.9925 293.17C60.7405 293.599 60.3672 293.94 59.8725 294.192C59.3779 294.435 58.7852 294.556 58.0945 294.556C57.0865 294.556 56.2559 294.299 55.6025 293.786C54.9585 293.263 54.6132 292.517 54.5665 291.546H56.1065C56.1439 292.041 56.3352 292.447 56.6805 292.764C57.0259 293.072 57.4925 293.226 58.0805 293.226C58.6499 293.226 59.0885 293.072 59.3965 292.764C59.7045 292.447 59.8585 292.041 59.8585 291.546C59.8585 290.893 59.6485 290.431 59.2285 290.16C58.8179 289.88 58.1832 289.74 57.3245 289.74H56.9605V288.424H57.3385C58.0945 288.415 58.6685 288.289 59.0605 288.046C59.4619 287.803 59.6625 287.421 59.6625 286.898C59.6625 286.45 59.5179 286.095 59.2285 285.834C58.9392 285.563 58.5285 285.428 57.9965 285.428C57.4739 285.428 57.0679 285.563 56.7785 285.834C56.4892 286.095 56.3165 286.422 56.2605 286.814H54.7065ZM71.3318 294.598C70.4264 294.598 69.5911 294.388 68.8258 293.968C68.0698 293.539 67.4678 292.946 67.0198 292.19C66.5811 291.425 66.3618 290.566 66.3618 289.614C66.3618 288.662 66.5811 287.808 67.0198 287.052C67.4678 286.296 68.0698 285.708 68.8258 285.288C69.5911 284.859 70.4264 284.644 71.3318 284.644C72.2464 284.644 73.0818 284.859 73.8378 285.288C74.6031 285.708 75.2051 286.296 75.6438 287.052C76.0824 287.808 76.3018 288.662 76.3018 289.614C76.3018 290.566 76.0824 291.425 75.6438 292.19C75.2051 292.946 74.6031 293.539 73.8378 293.968C73.0818 294.388 72.2464 294.598 71.3318 294.598ZM71.3318 293.212C71.9758 293.212 72.5498 293.067 73.0538 292.778C73.5578 292.479 73.9498 292.059 74.2298 291.518C74.5191 290.967 74.6638 290.333 74.6638 289.614C74.6638 288.895 74.5191 288.265 74.2298 287.724C73.9498 287.183 73.5578 286.767 73.0538 286.478C72.5498 286.189 71.9758 286.044 71.3318 286.044C70.6878 286.044 70.1138 286.189 69.6098 286.478C69.1058 286.767 68.7091 287.183 68.4198 287.724C68.1398 288.265 67.9998 288.895 67.9998 289.614C67.9998 290.333 68.1398 290.967 68.4198 291.518C68.7091 292.059 69.1058 292.479 69.6098 292.778C70.1138 293.067 70.6878 293.212 71.3318 293.212ZM77.3403 290.636C77.3403 289.843 77.4989 289.147 77.8163 288.55C78.1429 287.943 78.5909 287.477 79.1603 287.15C79.7296 286.823 80.3829 286.66 81.1203 286.66C82.0536 286.66 82.8236 286.884 83.4303 287.332C84.0463 287.771 84.4616 288.401 84.6763 289.222H82.9543C82.8143 288.839 82.5903 288.541 82.2823 288.326C81.9743 288.111 81.5869 288.004 81.1203 288.004C80.4669 288.004 79.9443 288.237 79.5523 288.704C79.1696 289.161 78.9783 289.805 78.9783 290.636C78.9783 291.467 79.1696 292.115 79.5523 292.582C79.9443 293.049 80.4669 293.282 81.1203 293.282C82.0443 293.282 82.6556 292.876 82.9543 292.064H84.6763C84.4523 292.848 84.0323 293.473 83.4163 293.94C82.8003 294.397 82.0349 294.626 81.1203 294.626C80.3829 294.626 79.7296 294.463 79.1603 294.136C78.5909 293.8 78.1429 293.333 77.8163 292.736C77.4989 292.129 77.3403 291.429 77.3403 290.636ZM88.1288 288.088V292.358C88.1288 292.647 88.1941 292.857 88.3248 292.988C88.4648 293.109 88.6981 293.17 89.0248 293.17H90.0048V294.5H88.7448C88.0261 294.5 87.4755 294.332 87.0928 293.996C86.7101 293.66 86.5188 293.114 86.5188 292.358V288.088H85.6088V286.786H86.5188V284.868H88.1288V286.786H90.0048V288.088H88.1288ZM95.7845 292.33C96.6805 291.555 97.3852 290.921 97.8985 290.426C98.4212 289.922 98.8552 289.399 99.2005 288.858C99.5458 288.317 99.7185 287.775 99.7185 287.234C99.7185 286.674 99.5832 286.235 99.3125 285.918C99.0512 285.601 98.6358 285.442 98.0665 285.442C97.5158 285.442 97.0865 285.619 96.7785 285.974C96.4798 286.319 96.3212 286.786 96.3025 287.374H94.7625C94.7905 286.31 95.1078 285.498 95.7145 284.938C96.3305 284.369 97.1098 284.084 98.0525 284.084C99.0698 284.084 99.8632 284.364 100.433 284.924C101.011 285.484 101.301 286.231 101.301 287.164C101.301 287.836 101.128 288.485 100.783 289.11C100.447 289.726 100.041 290.281 99.5645 290.776C99.0978 291.261 98.5005 291.826 97.7725 292.47L97.1425 293.03H101.581V294.36H94.7765V293.198L95.7845 292.33ZM102.983 289.264C102.983 287.649 103.253 286.389 103.795 285.484C104.345 284.569 105.288 284.112 106.623 284.112C107.957 284.112 108.895 284.569 109.437 285.484C109.987 286.389 110.263 287.649 110.263 289.264C110.263 290.897 109.987 292.176 109.437 293.1C108.895 294.015 107.957 294.472 106.623 294.472C105.288 294.472 104.345 294.015 103.795 293.1C103.253 292.176 102.983 290.897 102.983 289.264ZM108.695 289.264C108.695 288.508 108.643 287.869 108.541 287.346C108.447 286.823 108.251 286.399 107.953 286.072C107.654 285.736 107.211 285.568 106.623 285.568C106.035 285.568 105.591 285.736 105.293 286.072C104.994 286.399 104.793 286.823 104.691 287.346C104.597 287.869 104.551 288.508 104.551 289.264C104.551 290.048 104.597 290.706 104.691 291.238C104.784 291.77 104.98 292.199 105.279 292.526C105.587 292.853 106.035 293.016 106.623 293.016C107.211 293.016 107.654 292.853 107.953 292.526C108.261 292.199 108.461 291.77 108.555 291.238C108.648 290.706 108.695 290.048 108.695 289.264ZM112.833 292.33C113.729 291.555 114.434 290.921 114.947 290.426C115.47 289.922 115.904 289.399 116.249 288.858C116.595 288.317 116.767 287.775 116.767 287.234C116.767 286.674 116.632 286.235 116.361 285.918C116.1 285.601 115.685 285.442 115.115 285.442C114.565 285.442 114.135 285.619 113.827 285.974C113.529 286.319 113.37 286.786 113.351 287.374H111.811C111.839 286.31 112.157 285.498 112.763 284.938C113.379 284.369 114.159 284.084 115.101 284.084C116.119 284.084 116.912 284.364 117.481 284.924C118.06 285.484 118.349 286.231 118.349 287.164C118.349 287.836 118.177 288.485 117.831 289.11C117.495 289.726 117.089 290.281 116.613 290.776C116.147 291.261 115.549 291.826 114.821 292.47L114.191 293.03H118.629V294.36H111.825V293.198L112.833 292.33ZM119.821 285.75V284.294H122.733V294.5H121.123V285.75H119.821Z" fill="#2E2E2E"/>
</svg>
