<svg width="741" height="400" viewBox="0 0 741 400" fill="none" xmlns="http://www.w3.org/2000/svg">
<path d="M26.6667 297.777H332.222V71.1107H26.6667V297.777Z" fill="#76B7CE"/>
<path d="M41.1111 297.777H315.556V91.1107H41.1111V297.777Z" fill="#95CDE5"/>
<path d="M68.8889 294.5H157.401V113.332H68.8889V294.5ZM184.822 295.555H273.333V113.333H184.822V295.555Z" fill="#BDE7FF"/>
<path d="M407.778 297.777H714.444V68.8885H407.778V297.777Z" fill="#76B7CE"/>
<path d="M423.333 297.777H697.778V88.8884H423.333V297.777Z" fill="#95CDE5"/>
<path d="M450.805 297.897H539.245V111.605H450.805V297.897ZM566.644 298.982H655.078V111.605H566.644V298.982Z" fill="#BDE7FF"/>
<path d="M130.263 229.201L132.941 228.148L130.077 217.193L121.247 213.527L120.148 216.484L127.767 219.65L130.263 229.201Z" fill="#ADADAD"/>
<path d="M126.9 218.592C126.9 219.844 127.797 220.795 128.904 220.714C130.016 220.637 130.911 219.563 130.902 218.321C130.902 217.075 130.005 216.126 128.899 216.204C127.79 216.278 126.9 217.352 126.9 218.592Z" fill="#58595B"/>
<path d="M109.58 220.869L121.599 206.945L117.212 202.138L105.183 216.059L109.58 220.869Z" fill="#047699"/>
<path d="M110 221.662L119.422 210.591L115.05 205.745L105.637 216.815L110 221.662Z" fill="#4291BC"/>
<path d="M91.3866 262.943H36.0761V255.004H91.3866V262.943Z" fill="#ADADAD"/>
<path d="M83.5401 262.943H36.0761V255.004H83.5401V262.943Z" fill="#C2C4C4"/>
<path d="M101.193 284.572H27.8378V262.065H101.193V284.572Z" fill="#004E87"/>
<path d="M88.2473 284.572H27.8378V262.065H88.2473V284.572Z" fill="#046099"/>
<path d="M124.369 251.947L123.856 230.894L139.495 231.202L159.325 252.876L124.369 251.947ZM141.325 227.485H120.984V292.205H161.673V250.716L141.325 227.485Z" fill="#DD9505"/>
<path d="M122.021 251.947L121.498 230.894L137.149 231.202L156.968 252.876L122.021 251.947ZM138.976 227.485H118.625V292.205H159.318V250.716L138.976 227.485Z" fill="#FFCA09"/>
<path d="M108.649 292.955H21.9549V281.924H108.649V292.955Z" fill="#4D4D4D"/>
<path d="M94.5255 292.955H21.9549V281.924H94.5255V292.955ZM43.8386 255.003H76.2852V228.645H43.8386V255.003Z" fill="#565656"/>
<path d="M43.8386 255.004H66.9127V228.646H43.8386V255.004Z" fill="#787A7A"/>
<path d="M116.993 203.427L95.2117 180.617L91.4567 198.139L106.72 213.771L116.993 203.427Z" fill="#FF7F00"/>
<path d="M112.036 204.514L91.1493 181.447L87.551 199.171L102.187 214.963L112.036 204.514Z" fill="#FFA522"/>
<path d="M37.8573 203.199L88.9595 197.382V181.452L37.8573 187.274V203.199Z" fill="#FF7F00"/>
<path d="M38.9162 205.592L90.0226 201.21L90.1881 193.303L38.8196 198.362L38.9162 205.592Z" fill="#FFA522"/>
<path d="M103.621 222.125L122.364 200.459L115.643 193.104L96.9062 214.771L103.621 222.125Z" fill="#4D4D4D"/>
<path d="M103.582 222.172L118.258 204.946L111.585 197.553L96.9062 214.772L103.582 222.172Z" fill="#565656"/>
<path d="M44.7958 191.83L69.1743 237.322L54.5056 241.285L38.1982 195.646L44.7958 191.83Z" fill="#E05407"/>
<path d="M40.7616 193.547L64.9156 238.364L50.9964 241.973L32.0508 197.451L40.7616 193.547Z" fill="#FF7F00"/>
<path d="M50.9964 241.973L57.7359 240.099L36.7289 195.358L32.0508 197.451L50.9964 241.973Z" fill="#FFA522"/>
<path d="M50.762 242.01L47.9259 234.777L47.9271 234.76L50.9842 241.945L50.762 242.01Z" fill="#6C6E6E"/>
<path d="M64.7108 237.982L57.476 224.558C57.6519 224.547 57.8279 224.541 58.0055 224.541C58.4939 224.541 58.9893 224.584 59.4858 224.67C60.6918 224.883 61.8051 225.353 62.8081 226.002L67.915 236.218C67.915 236.501 67.915 236.787 67.8999 237.062L64.7108 237.982Z" fill="#C94B06"/>
<path d="M57.6931 240.008L51.67 227.18C53.3037 225.642 55.325 224.693 57.476 224.558L64.7108 237.983L57.6931 240.008Z" fill="#E57200"/>
<path d="M50.9842 241.945L47.9271 234.76L47.9305 234.707C48.3576 231.626 49.7447 228.995 51.67 227.181L57.6931 240.009L50.9842 241.945Z" fill="#E5941F"/>
<path d="M51.9119 237.711C51.1492 243.24 54.454 248.394 59.2861 249.245C64.1199 250.083 68.6586 246.294 69.4202 240.769C70.1852 235.244 66.8842 230.083 62.0494 229.233C57.2116 228.393 52.6729 232.187 51.9119 237.711Z" fill="#E05407"/>
<path d="M49.6973 237.59C48.9131 243.243 52.298 248.535 57.2486 249.4C62.1998 250.27 66.8496 246.381 67.6279 240.717C68.4075 235.061 65.0262 229.775 60.0766 228.907C55.1248 228.045 50.4756 231.929 49.6973 237.59Z" fill="#FC6405"/>
<path d="M54.7249 238.685C54.365 241.285 55.95 243.719 58.259 244.118C60.5714 244.516 62.7358 242.746 63.0916 240.148C63.4498 237.54 61.87 235.114 59.5581 234.706C57.2486 234.303 55.082 236.08 54.7249 238.685Z" fill="#6D6E71"/>
<path d="M56.8614 239.056C56.6878 240.329 57.4586 241.521 58.5923 241.717C59.7231 241.92 60.7792 241.047 60.9591 239.779C61.1311 238.505 60.3579 237.308 59.2259 237.117C58.0969 236.92 57.0356 237.785 56.8614 239.056Z" fill="#EEEFEF"/>
<path d="M30.5333 195.514C30.6705 201.044 34.9199 205.406 40.0285 205.246C45.1325 205.098 49.1597 200.477 49.0254 194.933C48.8877 189.397 44.6383 185.033 39.5303 185.194C34.4291 185.353 30.3991 189.974 30.5333 195.514Z" fill="#E05407"/>
<path d="M28.7169 196.493C28.8557 201.968 32.8493 206.288 37.6403 206.143C42.4324 205.993 46.2083 201.436 46.0717 195.961C45.9399 190.472 41.9464 186.16 37.153 186.306C32.358 186.456 28.5837 191.02 28.7169 196.493Z" fill="#FC6405"/>
<path d="M33.616 196.55C33.682 199.067 35.5437 201.045 37.7826 200.981C40.0163 200.913 41.7813 198.815 41.7188 196.298C41.6569 193.775 39.7935 191.799 37.5564 191.864C35.3233 191.938 33.5581 194.036 33.616 196.55Z" fill="#6D6E71"/>
<path d="M35.6889 196.481C35.7173 197.72 36.6258 198.689 37.7253 198.657C38.8196 198.617 39.6818 197.591 39.6518 196.358C39.6223 195.135 38.7115 194.158 37.616 194.192C36.5206 194.231 35.6566 195.253 35.6889 196.481Z" fill="#EEEFEF"/>
<path d="M81.3926 187.279C80.5882 193.104 84.2554 198.574 89.5806 199.506C94.9056 200.435 99.876 196.467 100.676 190.653C101.484 184.836 97.817 179.363 92.4895 178.432C87.1627 177.502 82.1959 181.471 81.3926 187.279Z" fill="#E05407"/>
<path d="M79.2029 186.777C78.4118 192.508 81.8307 197.861 86.8463 198.738C91.8611 199.612 96.5653 195.677 97.3576 189.953C98.1486 184.223 94.7238 178.87 89.7102 177.981C84.6958 177.115 79.9904 181.049 79.2029 186.777Z" fill="#FC6405"/>
<path d="M84.293 187.887C83.9284 190.524 85.5325 192.988 87.8711 193.392C90.2108 193.806 92.4017 192.003 92.7645 189.367C93.1291 186.74 91.526 184.271 89.1881 183.861C86.8479 183.462 84.657 185.261 84.293 187.887Z" fill="#6D6E71"/>
<path d="M86.455 188.263C86.2774 189.552 87.0615 190.762 88.2096 190.96C89.3496 191.161 90.4254 190.283 90.6043 188.992C90.7801 187.697 89.9983 186.499 88.852 186.297C87.7067 186.1 86.6344 186.98 86.455 188.263Z" fill="#EEEFEF"/>
<path d="M129.256 230.069L128.492 233.143L118.578 230.617L114.77 220.947L117.327 219.531L120.618 227.873L129.256 230.069Z" fill="#ADADAD"/>
<path d="M119.71 226.81C120.821 226.733 121.715 227.682 121.724 228.924C121.724 230.168 120.826 231.238 119.717 231.322C118.618 231.394 117.712 230.448 117.712 229.195C117.712 227.952 118.61 226.883 119.71 226.81Z" fill="#58595B"/>
<path d="M126.571 212.164L113.916 227.059L110.686 223.586L123.339 208.695L126.571 212.164Z" fill="#FF7F00"/>
<path d="M126.571 212.164L122.326 217.162L119.097 213.688L123.339 208.694L126.571 212.164Z" fill="#FC6405"/>
<path d="M125.138 206.705L109.095 225.592L106.532 222.838L122.581 203.952L125.138 206.705Z" fill="#565656"/>
<path d="M125.138 206.704L118.766 214.203L116.207 211.452L122.581 203.952L125.138 206.704Z" fill="#4D4D4D"/>
<path d="M167.291 229.736L147.501 227.224V222.819L167.291 220.292V229.736Z" fill="#58595B"/>
<path d="M194.699 200.214L199.291 190.826L168.159 161.667L163.563 171.043L194.699 200.214ZM168.074 221.477L176.197 228.373L196.401 202.711L188.28 195.841L168.074 221.477Z" fill="#FF5F01"/>
<path d="M188.518 185.234C185.058 186.855 183.28 191.683 184.566 196.034C185.858 200.397 189.718 202.612 193.189 201.007C196.66 199.389 198.426 194.55 197.137 190.185C195.857 185.84 192.001 183.622 188.518 185.234Z" fill="#EEEFEF"/>
<path d="M189.671 189.106C187.902 189.929 187.001 192.389 187.656 194.604C188.305 196.814 190.266 197.946 192.046 197.133C193.801 196.305 194.708 193.843 194.051 191.638C193.397 189.421 191.437 188.293 189.671 189.106Z" fill="#6D6E71"/>
<path d="M152.556 163.832C152.556 171.689 158.091 178.051 164.916 178.051C171.75 178.051 177.283 171.689 177.283 163.832C177.283 155.985 171.75 149.623 164.916 149.623C158.091 149.623 152.556 155.985 152.556 163.832Z" fill="#FF5F01"/>
<path d="M152.556 167.439H177.283V150.35H152.556V167.439Z" fill="#353535"/>
<path d="M150.33 164.752H179.504V162.073H150.33V164.752ZM150.33 159.453H179.504V156.773H150.33V159.453Z" fill="#353535"/>
<path d="M191.859 203.18L197.084 193.371L161.768 162.85L156.552 172.662L191.859 203.18Z" fill="#FF7F00"/>
<path d="M164.104 219.262L172.282 225.98L191.963 202.144L183.784 195.435L164.104 219.262ZM149.952 163.832C149.952 171.69 155.478 178.051 162.312 178.051C169.134 178.051 174.67 171.69 174.67 163.832C174.67 155.985 169.134 149.624 162.312 149.624C155.478 149.624 149.952 155.985 149.952 163.832Z" fill="#FF7F00"/>
<path d="M149.952 167.439H174.67V150.35H149.952V167.439Z" fill="#6D6E71"/>
<path d="M147.712 164.752H176.898V162.073H147.712V164.752ZM147.712 159.453H176.898V156.773H147.712V159.453Z" fill="#58595B"/>
<path d="M150.153 143.381C150.153 149.188 153.91 153.889 158.531 153.889H189.246C193.869 153.889 197.617 149.188 197.617 143.381V136.387H150.153V143.381Z" fill="#FF5F01"/>
<path d="M138.671 143.685C138.671 149.481 142.42 154.18 147.05 154.18H177.764C182.387 154.18 186.135 149.481 186.135 143.685V136.684H138.671V143.685Z" fill="#FF7F00"/>
<path d="M143.706 142.192C143.706 146.764 146.654 150.469 150.3 150.469H174.501C178.15 150.469 181.096 146.764 181.096 142.192V136.684H143.706V142.192Z" fill="#FFA522"/>
<path d="M174.67 167.439L169.914 164.751H174.67V167.439ZM174.67 162.072H165.178L160.544 159.451H174.67V162.072Z" fill="#626365"/>
<path d="M174.67 164.752H169.914L165.178 162.073H174.67V164.752Z" fill="#4F5052"/>
<path d="M174.67 156.771H155.805L151.221 154.179H174.67V156.771Z" fill="#626365"/>
<path d="M174.67 159.451H160.544L155.805 156.771H174.67V159.451Z" fill="#4F5052"/>
<path d="M151.221 154.18H150.113L149.922 153.446L151.221 154.18Z" fill="#E57200"/>
<path d="M178.28 191.553L175.645 189.165L178.336 191.492L178.28 191.553Z" fill="#86B8CE"/>
<path d="M188.472 180.691L188.232 180.468L188.481 180.683L188.472 180.691Z" fill="#AACFE5"/>
<path d="M185.758 183.584L180.209 178.787C181.278 178.206 182.458 177.845 183.735 177.845C184.289 177.845 184.861 177.913 185.452 178.063L188.232 180.469L188.472 180.692L185.758 183.584Z" fill="#E55501"/>
<path d="M178.336 191.49L175.645 189.163L173.323 187.061C173.323 187.061 175.877 181.135 180.209 178.785L185.758 183.582L178.336 191.49Z" fill="#E57200"/>
<path d="M186.206 180.868C180.772 183.342 178.021 190.822 180.056 197.597C182.101 204.36 188.16 207.845 193.592 205.368C199.025 202.897 201.782 195.41 199.737 188.643C197.702 181.873 191.631 178.399 186.206 180.868Z" fill="#FF5F01"/>
<path d="M183.693 181.011C178.351 183.482 175.628 190.914 177.604 197.61C179.584 204.295 185.508 207.712 190.852 205.237C196.18 202.751 198.897 195.326 196.928 188.633C194.948 181.938 189.013 178.528 183.693 181.011Z" fill="#FF7F00"/>
<path d="M184.933 185.234C181.465 186.855 179.695 191.683 180.987 196.034C182.267 200.397 186.114 202.612 189.597 201.007C193.069 199.389 194.846 194.55 193.555 190.185C192.265 185.84 188.409 183.622 184.933 185.234Z" fill="#EEEFEF"/>
<path d="M186.08 189.106C184.309 189.929 183.407 192.389 184.064 194.604C184.714 196.814 186.677 197.946 188.455 197.133C190.212 196.305 191.115 193.843 190.46 191.638C189.809 189.421 187.847 188.293 186.08 189.106Z" fill="#6D6E71"/>
<path d="M159.915 216.016L170.747 215.171L170.991 234.509L159.915 234.518V216.016Z" fill="#FF7F00"/>
<path d="M168.526 215.782C164.483 217.63 162.429 223.19 163.92 228.201C165.423 233.218 169.905 235.769 173.953 233.911C177.993 232.064 180.056 226.49 178.556 221.49C177.053 216.476 172.568 213.926 168.526 215.782Z" fill="#FF7F00"/>
<path d="M169.473 218.94C166.839 220.156 165.505 223.774 166.479 227.038C167.449 230.301 170.375 231.956 173 230.743C175.636 229.544 176.969 225.927 176.003 222.654C175.027 219.392 172.099 217.733 169.473 218.94Z" fill="#EEEFEF"/>
<path d="M170.342 221.846C169.005 222.457 168.325 224.302 168.811 225.961C169.308 227.616 170.8 228.463 172.136 227.848C173.474 227.231 174.153 225.392 173.665 223.731C173.169 222.077 171.677 221.231 170.342 221.846Z" fill="#6D6E71"/>
<path d="M214.784 137.951H101.205V131.646H214.784V137.951Z" fill="#58595B"/>
<path d="M214.784 137.951H180.074V131.646H214.784V137.951Z" fill="#353535"/>
<path d="M729.142 297.75H575.144V293.133H729.142V297.75Z" fill="#2B2B2B"/>
<path d="M691.326 281.327C691.326 287.928 695.252 293.527 700.969 293.664C707.668 293.836 712.055 287.928 712.055 281.327C712.055 274.72 708.114 269.611 701.655 269.527C695.931 269.455 691.326 274.72 691.326 281.327Z" fill="#3C3C3C"/>
<path d="M690.171 281.753C690.171 288.23 694.6 293.48 700.058 293.48C705.516 293.48 709.947 288.23 709.947 281.753C709.947 275.277 705.516 270.029 700.058 270.029C694.6 270.029 690.171 275.277 690.171 281.753Z" fill="#2C2C2C"/>
<path d="M692.842 282.009C692.842 286.697 695.935 290.504 699.741 290.504C703.553 290.504 706.637 286.697 706.637 282.009C706.637 277.319 703.553 273.512 699.741 273.512C695.935 273.512 692.842 277.319 692.842 282.009Z" fill="black"/>
<path d="M699.892 273.61C696.144 273.61 693.1 277.367 693.1 281.976C693.1 286.598 696.144 290.347 699.892 290.347C703.64 290.347 706.687 286.598 706.687 281.976C706.687 277.367 703.64 273.61 699.892 273.61ZM699.892 291.727C695.467 291.727 691.869 287.356 691.869 281.976C691.869 276.598 695.467 272.226 699.892 272.226C704.316 272.226 707.914 276.598 707.914 281.976C707.914 287.356 704.316 291.727 699.892 291.727Z" fill="black"/>
<path d="M697.143 282.823L692.926 280.25L693.232 278.543L697.668 279.074L698.276 278.703L698.886 273.351L699.68 273.084V273.077L699.698 273.083L699.713 273.077V273.084L700.507 273.351L701.114 278.703L701.722 279.074L706.159 278.543L706.462 280.25L702.245 282.823L702.117 283.516L704.117 288.018L702.682 288.984L700.071 285.399H699.32L696.711 288.984L695.271 288.018L697.277 283.516L697.143 282.823Z" fill="#A5A4A7"/>
<path d="M695.717 281.977C695.717 284.722 697.525 286.953 699.762 286.953C701.988 286.953 703.805 284.722 703.805 281.977C703.805 279.228 701.988 277.002 699.762 277.002C697.525 277.002 695.717 279.228 695.717 281.977Z" fill="#E2E2E2"/>
<path d="M693.82 281.948C693.82 277.808 696.54 274.458 699.901 274.458C703.257 274.458 705.982 277.808 705.982 281.948C705.982 286.083 703.257 289.439 699.901 289.439C696.54 289.439 693.82 286.083 693.82 281.948ZM692.563 281.948C692.563 286.923 695.854 290.977 699.901 290.977C703.947 290.977 707.233 286.923 707.233 281.948C707.233 276.972 703.947 272.919 699.901 272.919C695.854 272.919 692.563 276.972 692.563 281.948Z" fill="#B2B2B3"/>
<path d="M697.713 281.998C697.713 283.371 698.626 284.494 699.741 284.494C700.861 284.494 701.765 283.371 701.765 281.998C701.765 280.619 700.861 279.506 699.741 279.506C698.626 279.506 697.713 280.619 697.713 281.998Z" fill="#515151"/>
<path d="M698.735 282.026C698.735 282.708 699.188 283.264 699.741 283.264C700.3 283.264 700.748 282.708 700.748 282.026C700.748 281.339 700.3 280.785 699.741 280.785C699.188 280.785 698.735 281.339 698.735 282.026Z" fill="black"/>
<path d="M597.419 254.763L675.974 257.42L685.958 257.432C685.958 257.432 712.778 257.484 718.089 264.488C721.452 268.928 718.791 287.8 718.791 287.8L708.779 288.02C708.779 288.02 707.81 269.103 700.996 268.493C700.996 268.493 677.61 266.893 684.464 287.554L632.562 285.667C632.562 285.667 633.652 267.162 618.784 268.11C618.784 268.11 601.336 268.382 603.044 286.487L594.843 285.795C594.843 285.795 587.162 266.964 597.419 254.763Z" fill="#C98205"/>
<path d="M706.664 264.695L718.089 264.488C718.089 264.488 716.225 258.368 686.931 257.45L675.974 257.419C675.974 257.419 707.073 262.335 706.664 264.695Z" fill="#DD9505"/>
<path d="M610.274 280.948C610.274 287.714 614.201 293.439 619.918 293.588C626.617 293.765 631.002 287.714 631.002 280.948C631.002 274.186 627.061 268.958 620.605 268.872C614.879 268.792 610.274 274.186 610.274 280.948Z" fill="#3C3C3C"/>
<path d="M609.12 281.392C609.12 288.022 613.548 293.398 619.008 293.398C624.466 293.398 628.897 288.022 628.897 281.392C628.897 274.759 624.466 269.387 619.008 269.387C613.548 269.387 609.12 274.759 609.12 281.392Z" fill="#2C2C2C"/>
<path d="M611.792 281.652C611.792 286.455 614.884 290.348 618.688 290.348C622.5 290.348 625.589 286.455 625.589 281.652C625.589 276.85 622.5 272.957 618.688 272.957C614.884 272.957 611.792 276.85 611.792 281.652Z" fill="black"/>
<path d="M618.841 273.03C615.091 273.03 612.045 276.884 612.045 281.621C612.045 286.354 615.091 290.2 618.841 290.2C622.59 290.2 625.633 286.354 625.633 281.621C625.633 276.884 622.59 273.03 618.841 273.03ZM618.841 291.582C614.416 291.582 610.819 287.116 610.819 281.621C610.819 276.123 614.416 271.652 618.841 271.652C623.266 271.652 626.861 276.123 626.861 281.621C626.861 287.116 623.266 291.582 618.841 291.582Z" fill="black"/>
<path d="M616.096 282.49L611.877 279.85L612.182 278.1L616.619 278.649L617.228 278.261L617.838 272.786L618.629 272.511H618.663L619.454 272.786L620.062 278.261L620.67 278.649L625.109 278.1L625.41 279.85L621.195 282.49L621.064 283.193L623.064 287.802L621.629 288.787L619.019 285.115H618.269L615.662 288.787L614.225 287.802L616.228 283.193L616.096 282.49Z" fill="#A5A4A7"/>
<path d="M614.663 281.62C614.663 284.433 616.472 286.709 618.71 286.709C620.94 286.709 622.755 284.433 622.755 281.62C622.755 278.804 620.94 276.516 618.71 276.516C616.472 276.516 614.663 278.804 614.663 281.62Z" fill="#E2E2E2"/>
<path d="M612.767 281.587C612.767 277.352 615.485 273.916 618.851 273.916C622.208 273.916 624.931 277.352 624.931 281.587C624.931 285.822 622.208 289.259 618.851 289.259C615.485 289.259 612.767 285.822 612.767 281.587ZM611.512 281.587C611.512 286.691 614.805 290.828 618.851 290.828C622.89 290.828 626.183 286.691 626.183 281.587C626.183 276.485 622.89 272.345 618.851 272.345C614.805 272.345 611.512 276.485 611.512 281.587Z" fill="#B2B2B3"/>
<path d="M616.665 281.638C616.665 283.043 617.573 284.191 618.688 284.191C619.813 284.191 620.713 283.043 620.713 281.638C620.713 280.229 619.813 279.08 618.688 279.08C617.573 279.08 616.665 280.229 616.665 281.638Z" fill="#515151"/>
<path d="M617.681 281.665C617.681 282.368 618.134 282.934 618.688 282.934C619.248 282.934 619.697 282.368 619.697 281.665C619.697 280.966 619.248 280.394 618.688 280.394C618.134 280.394 617.681 280.966 617.681 281.665Z" fill="black"/>
<path d="M599.289 254.762C599.289 254.762 637.437 234.078 661.837 241.649C661.837 241.649 680.189 248.615 687.159 257.791L599.289 254.762Z" fill="#DD9505"/>
<path d="M653.087 241.941L660.241 242.031C660.241 242.031 673.413 245.182 687.076 258.248L676.915 258.228C676.915 258.228 661.244 243.612 653.087 241.941Z" fill="#141414"/>
<path d="M653.087 241.941L661.582 243.151C661.582 243.151 672.685 245.927 685.924 258.213L676.53 258.207C676.53 258.207 660.969 243.524 653.087 241.941Z" fill="#353633"/>
<path d="M681.029 254C679.968 253.156 678.886 252.339 677.783 251.55L678.15 250.913C679.208 251.654 680.29 252.459 681.39 253.319L681.029 254Z" fill="#2C2C2C"/>
<path d="M679.158 257.514C677.192 257.43 675.974 257.42 675.974 257.42C675.631 257.104 675.285 256.789 674.939 256.477L677.783 251.549C678.885 252.338 679.968 253.155 681.029 253.999L679.158 257.514Z" fill="#4A4A48"/>
<path d="M675.971 250.295C669.946 246.249 665.17 244.334 662.945 243.574L663.244 242.991C666.115 244.033 670.819 246.068 676.288 249.652L675.971 250.295Z" fill="#2C2C2C"/>
<path d="M673.539 255.229C668.693 250.966 664.709 248.061 661.646 246.1L662.945 243.573C665.17 244.332 669.946 246.248 675.971 250.294L673.539 255.229Z" fill="#4A4A48"/>
<path d="M627.829 286.65L601.735 286.815L597.741 274.158C597.741 274.158 601.069 262.806 599.677 263.332C599.677 263.332 629.312 254.064 627.829 286.65ZM702.754 288.047L678.947 285.614L674.909 275.254C674.909 275.254 678.233 263.892 676.841 264.426C676.841 264.426 709.024 258.031 702.754 288.047Z" fill="#191918"/>
<path d="M707.616 264.424C702.271 257.635 675.974 257.42 675.974 257.42C661.911 244.481 654.261 242.263 654.261 242.263C629.86 234.693 588.785 254.762 588.785 254.762C578.688 266.882 586.936 284.114 586.936 284.114L598.209 284.681C595.464 266.48 609.896 266.644 609.896 266.644C624.543 265.701 623.404 285.641 623.404 285.641L678.337 286.567C675.974 268.471 690.22 267.683 690.22 267.683C708.295 266.566 703.705 286.733 703.705 286.733L709.095 287.066C709.095 287.066 710.961 268.673 707.616 264.424Z" fill="#FFCA09"/>
<path d="M600.465 280.948C600.465 287.714 604.388 293.439 610.106 293.588C616.805 293.765 621.185 287.714 621.185 280.948C621.185 274.186 617.245 268.958 610.791 268.872C605.063 268.792 600.465 274.186 600.465 280.948Z" fill="#3C3C3C"/>
<path d="M599.308 281.392C599.308 288.022 603.733 293.398 609.192 293.398C614.654 293.398 619.081 288.022 619.081 281.392C619.081 274.759 614.654 269.387 609.192 269.387C603.733 269.387 599.308 274.759 599.308 281.392Z" fill="#2C2C2C"/>
<path d="M601.981 281.652C601.981 286.455 605.069 290.348 608.875 290.348C612.685 290.348 615.774 286.455 615.774 281.652C615.774 276.85 612.685 272.957 608.875 272.957C605.069 272.957 601.981 276.85 601.981 281.652Z" fill="black"/>
<path d="M609.028 273.03C605.28 273.03 602.231 276.886 602.231 281.621C602.231 286.354 605.28 290.2 609.028 290.2C612.774 290.2 615.82 286.354 615.82 281.621C615.82 276.886 612.774 273.03 609.028 273.03ZM609.028 291.582C604.601 291.582 601.006 287.116 601.006 281.621C601.006 276.123 604.601 271.652 609.028 271.652C613.453 271.652 617.048 276.123 617.048 281.621C617.048 287.116 613.453 291.582 609.028 291.582Z" fill="black"/>
<path d="M606.28 282.49L602.062 279.85L602.363 278.1L606.803 278.649L607.413 278.261L608.022 272.786L608.813 272.511H608.848L609.64 272.786L610.25 278.261L610.857 278.649L615.293 278.1L615.598 279.85L611.38 282.49L611.251 283.193L613.253 287.802L611.819 288.787L609.207 285.115H608.453L605.844 288.787L604.409 287.802L606.406 283.193L606.28 282.49Z" fill="#A5A4A7"/>
<path d="M604.846 281.62C604.846 284.433 606.663 286.709 608.899 286.709C611.127 286.709 612.936 284.433 612.936 281.62C612.936 278.804 611.127 276.516 608.899 276.516C606.663 276.516 604.846 278.804 604.846 281.62Z" fill="#E2E2E2"/>
<path d="M602.952 281.587C602.952 277.352 605.674 273.916 609.038 273.916C612.394 273.916 615.119 277.352 615.119 281.587C615.119 285.822 612.394 289.259 609.038 289.259C605.674 289.259 602.952 285.822 602.952 281.587ZM601.701 281.587C601.701 286.691 604.992 290.828 609.038 290.828C613.075 290.828 616.368 286.691 616.368 281.587C616.368 276.485 613.075 272.345 609.038 272.345C604.992 272.345 601.701 276.485 601.701 281.587Z" fill="#B2B2B3"/>
<path d="M606.852 281.638C606.852 283.043 607.757 284.191 608.875 284.191C609.992 284.191 610.897 283.043 610.897 281.638C610.897 280.229 609.992 279.08 608.875 279.08C607.757 279.08 606.852 280.229 606.852 281.638Z" fill="#515151"/>
<path d="M607.872 281.665C607.872 282.368 608.318 282.934 608.875 282.934C609.434 282.934 609.888 282.368 609.888 281.665C609.888 280.966 609.434 280.394 608.875 280.394C608.318 280.394 607.872 280.966 607.872 281.665Z" fill="black"/>
<path d="M681.516 281.327C681.516 287.928 685.438 293.527 691.159 293.664C697.857 293.836 702.236 287.928 702.236 281.327C702.236 274.72 698.295 269.611 691.84 269.527C686.118 269.455 681.516 274.72 681.516 281.327Z" fill="#3C3C3C"/>
<path d="M680.361 281.753C680.361 288.23 684.786 293.48 690.238 293.48C695.704 293.48 700.131 288.23 700.131 281.753C700.131 275.277 695.704 270.029 690.238 270.029C684.786 270.029 680.361 275.277 680.361 281.753Z" fill="#2C2C2C"/>
<path d="M683.032 282.009C683.032 286.697 686.119 290.504 689.925 290.504C693.737 290.504 696.824 286.697 696.824 282.009C696.824 277.319 693.737 273.512 689.925 273.512C686.119 273.512 683.032 277.319 683.032 282.009Z" fill="black"/>
<path d="M690.078 273.61C686.331 273.61 683.282 277.367 683.282 281.976C683.282 286.598 686.331 290.347 690.078 290.347C693.824 290.347 696.87 286.598 696.87 281.976C696.87 277.367 693.824 273.61 690.078 273.61ZM690.078 291.727C685.655 291.727 682.054 287.356 682.054 281.976C682.054 276.598 685.655 272.226 690.078 272.226C694.498 272.226 698.097 276.598 698.097 281.976C698.097 287.356 694.498 291.727 690.078 291.727Z" fill="black"/>
<path d="M687.329 282.823L683.113 280.25L683.416 278.543L687.854 279.074L688.461 278.703L689.072 273.351L689.864 273.084V273.077L689.886 273.083L689.895 273.077V273.084L690.692 273.351L691.303 278.703L691.909 279.074L696.347 278.543L696.652 280.25L692.436 282.823L692.298 283.516L694.301 288.018L692.872 288.984L690.258 285.399H689.503L686.9 288.984L685.463 288.018L687.457 283.516L687.329 282.823Z" fill="#A5A4A7"/>
<path d="M685.895 281.977C685.895 284.722 687.716 286.953 689.95 286.953C692.178 286.953 693.986 284.722 693.986 281.977C693.986 279.228 692.178 277.002 689.95 277.002C687.716 277.002 685.895 279.228 685.895 281.977Z" fill="#E2E2E2"/>
<path d="M684.002 281.948C684.002 277.808 686.725 274.458 690.088 274.458C693.443 274.458 696.171 277.808 696.171 281.948C696.171 286.083 693.443 289.439 690.088 289.439C686.725 289.439 684.002 286.083 684.002 281.948ZM682.753 281.948C682.753 286.923 686.039 290.977 690.088 290.977C694.126 290.977 697.415 286.923 697.415 281.948C697.415 276.972 694.126 272.919 690.088 272.919C686.039 272.919 682.753 276.972 682.753 281.948Z" fill="#B2B2B3"/>
<path d="M687.903 281.998C687.903 283.371 688.805 284.494 689.925 284.494C691.046 284.494 691.95 283.371 691.95 281.998C691.95 280.619 691.046 279.506 689.925 279.506C688.805 279.506 687.903 280.619 687.903 281.998Z" fill="#515151"/>
<path d="M688.919 282.026C688.919 282.708 689.369 283.264 689.925 283.264C690.485 283.264 690.938 282.708 690.938 282.026C690.938 281.339 690.485 280.785 689.925 280.785C689.369 280.785 688.919 281.339 688.919 282.026Z" fill="black"/>
<path d="M627.172 285.295L626.75 272.799C626.645 267.195 627.332 266.921 628.485 266.789C629.692 266.648 631.141 266.536 632.763 266.444V270.467C632.417 270.48 632.089 270.493 631.783 270.504C627.841 270.659 628.651 285.018 628.651 285.018L627.172 285.295ZM675.484 279.337C675.01 270.183 670.832 269.567 669.715 269.567C669.542 269.567 669.443 269.581 669.443 269.581C669.443 269.581 667.926 269.611 665.478 269.662V266.075C667.417 266.062 668.811 266.029 669.414 265.959C672.398 265.62 682.229 264.978 684.165 264.853C674.924 265.61 675.482 279.308 675.484 279.337ZM633.166 270.453V266.421H633.177V270.453H633.166ZM633.58 270.439V266.401C639.171 266.119 646.557 266.072 653.197 266.072C654.871 266.072 656.499 266.075 658.037 266.078C659.572 266.081 661.019 266.084 662.338 266.084C663.169 266.084 663.946 266.082 664.665 266.08V269.678C656.849 269.839 641.415 270.173 633.58 270.439ZM665.066 269.67V266.078H665.075V269.668C665.072 269.668 665.068 269.67 665.066 269.67ZM684.165 264.853C684.275 264.843 684.386 264.836 684.498 264.832C684.498 264.832 684.38 264.839 684.165 264.853Z" fill="#FFD53A"/>
<path d="M711.384 271.486H709.436C709.339 270.286 709.199 269.145 709.002 268.122H711.384C712.207 268.122 712.878 268.876 712.878 269.803C712.878 270.733 712.207 271.486 711.384 271.486Z" fill="#AA710D"/>
<path d="M709.436 271.486H707.092C706.267 271.486 705.599 270.733 705.599 269.803C705.599 268.876 706.267 268.122 707.092 268.122H709.002C709.199 269.145 709.339 270.286 709.436 271.486Z" fill="#D5AA10"/>
<path d="M719.778 271.486H719.724C719.699 271.021 719.668 270.566 719.628 270.123C719.683 270.643 719.717 271.111 719.778 271.486Z" fill="#7CB3CC"/>
<path d="M719.724 271.486H717.392C716.567 271.486 715.901 270.733 715.901 269.803C715.901 268.876 716.567 268.122 717.392 268.122H719.253C719.465 268.812 719.563 269.504 719.628 270.123C719.668 270.566 719.699 271.021 719.724 271.486Z" fill="#AA710D"/>
<path d="M718.216 283.559H710.553V276.657H718.216V283.559Z" fill="#939396"/>
<path d="M716.784 283.559H710.553V276.657H716.784V283.559Z" fill="#C8C8CA"/>
<path d="M711.871 284.652H711.316V275.22H711.871V284.652ZM713.352 284.652H712.796V275.22H713.352V284.652ZM714.835 284.652H714.284V275.22H714.835V284.652ZM716.323 284.652H715.769V275.22H716.323V284.652ZM717.809 284.652H717.252V275.22H717.809V284.652ZM660.963 264.191C660.963 264.928 660.431 265.53 659.773 265.53H652.997C652.342 265.53 651.807 264.928 651.807 264.191C651.807 263.454 652.342 262.851 652.997 262.851H659.773C660.431 262.851 660.963 263.454 660.963 264.191Z" fill="#818182"/>
<path d="M660.963 264.056C660.963 264.675 660.49 265.189 659.909 265.189H653.901C653.316 265.189 652.844 264.675 652.844 264.056C652.844 263.428 653.316 262.918 653.901 262.918H659.909C660.49 262.918 660.963 263.428 660.963 264.056Z" fill="#9F9F9F"/>
<path d="M659.207 263.986C659.207 264.349 658.949 264.637 658.631 264.637H654.788C654.464 264.637 654.204 264.349 654.204 263.986C654.204 263.626 654.464 263.333 654.788 263.333H658.631C658.949 263.333 659.207 263.626 659.207 263.986Z" fill="#C8C8CA"/>
<path d="M584.541 263.111C584.809 261.984 585.185 260.927 585.597 259.981C585.157 261.017 584.811 262.062 584.541 263.111Z" fill="#A6DDF6"/>
<path d="M584.339 264.092C584.397 263.76 584.464 263.432 584.541 263.111C584.811 262.062 585.157 261.016 585.597 259.981C586.766 257.289 588.215 255.487 588.215 255.487C603.295 255.738 618.613 256.418 632.763 257.254V262.267C606.883 262.979 584.339 264.092 584.339 264.092ZM694.965 262.297C688.146 261.859 679.27 261.685 669.505 261.685C668.177 261.685 666.835 261.688 665.478 261.696V259.57C683.233 261.024 694.965 262.297 694.965 262.297ZM633.166 262.256V257.278C633.169 257.278 633.174 257.278 633.177 257.28V262.256H633.166ZM633.58 262.244V257.304C644.971 257.985 655.578 258.765 664.665 259.505V261.699C654.604 261.754 643.848 261.967 633.58 262.244ZM665.066 261.698V259.537H665.075V261.698H665.066Z" fill="#FFD53A"/>
<path d="M632.763 286.549H633.166V255.349H632.763V286.549Z" fill="#E0E0E2"/>
<path d="M633.177 286.471H633.58V255.274H633.177V286.471Z" fill="#818182"/>
<path d="M664.665 286.549H665.066V256.169H664.665V286.549Z" fill="#E0E0E2"/>
<path d="M665.075 286.477H665.478V256.094H665.075V286.477Z" fill="#818182"/>
<path d="M701.888 288.145L702.562 286.223C706.096 276.17 698.34 270.712 697.308 270.053C691.291 267.936 686.655 268.267 683.533 271.022C678.273 275.675 678.804 285.854 678.813 285.958L678.902 287.441L622.082 287.01L622.184 285.537C622.614 278.942 621.461 274.007 618.756 270.87C615.42 267.008 610.737 267.201 610.682 267.204C605.929 267.434 602.474 269.085 600.406 272.111C597.015 277.092 598.4 284.314 598.41 284.381L598.761 286.149L587.279 285.512L586.335 282.641L595.769 283.22C595.505 280.425 595.449 274.857 598.449 270.456C600.972 266.728 605.05 264.711 610.571 264.441C610.792 264.429 616.365 264.167 620.49 268.92C623.507 272.391 624.922 277.552 624.701 284.266L676.339 284.661C676.373 281.339 677.008 273.296 682.005 268.866C685.829 265.487 691.26 265.009 698.169 267.459C698.169 267.459 707.375 271.597 705.413 285.327L709.156 285.27L709.187 288.032L701.888 288.145Z" fill="#DD9505"/>
<path d="M710.471 285.583C710.471 286.132 710.079 286.576 709.59 286.576H704.148C703.659 286.576 703.265 286.132 703.265 285.583C703.265 285.034 703.659 284.592 704.148 284.592H709.59C710.079 284.592 710.471 285.034 710.471 285.583Z" fill="white"/>
<path d="M720.592 285.625C720.592 286.2 720.183 286.664 719.674 286.664H709.396C708.89 286.664 708.479 286.2 708.479 285.625C708.479 285.055 708.89 284.593 709.396 284.593H719.674C720.183 284.593 720.592 285.055 720.592 285.625Z" fill="#C8C8CA"/>
<path d="M601.905 251.794C601.905 251.794 597.465 253.713 602.258 254.674L670.428 256.43C670.428 256.43 653.56 245.409 647.702 244.609C647.702 244.609 634.393 241.411 601.905 251.794Z" fill="#191918"/>
<path d="M606.016 251.794C606.016 251.794 601.732 253.796 606.232 254.753L670.428 256.43C670.428 256.43 654.575 245.409 649.067 244.609C649.067 244.609 636.559 241.411 606.016 251.794Z" fill="#2C2C2C"/>
<path d="M633.177 255.471H633.166V255.469L633.177 255.471ZM632.763 255.461L631.347 255.424L632.763 255.459V255.461Z" fill="#FFD53A"/>
<path d="M633.166 255.473L632.763 255.462V255.461L633.166 255.471V255.473Z" fill="#E6E6E8"/>
<path d="M649.686 244.73C649.468 244.679 649.261 244.637 649.067 244.609C649.067 244.609 647.249 244.145 643.307 244.145C643.139 244.145 642.969 244.145 642.796 244.147C643.114 244.142 643.416 244.141 643.704 244.141C647.366 244.141 648.6 244.462 648.6 244.462C648.896 244.507 649.271 244.602 649.686 244.73ZM642.455 244.151L642.024 244.147C642.194 244.147 642.359 244.148 642.52 244.151H642.455Z" fill="#FFD53A"/>
<path d="M646.634 255.816L637.793 255.59L633.58 255.482L633.177 255.472L633.166 255.47L632.763 255.459L631.347 255.424L631.356 255.409L646.639 255.809L646.634 255.816ZM637.725 244.411L637.811 244.263C639.304 244.178 640.625 244.146 641.769 244.146C641.855 244.146 641.939 244.146 642.024 244.147L642.455 244.152C641.101 244.174 639.526 244.251 637.725 244.411Z" fill="#474746"/>
<path d="M646.639 255.811L631.356 255.41L637.725 244.412C639.526 244.252 641.101 244.175 642.455 244.153H642.547L642.796 244.148C642.969 244.147 643.14 244.147 643.307 244.147C647.249 244.147 649.067 244.611 649.067 244.611C649.261 244.639 649.468 244.68 649.686 244.732C650.498 244.985 651.467 245.365 652.32 245.734L646.639 255.811Z" fill="#565656"/>
<path d="M626.026 255.287L622.842 255.21L622.844 255.205L626.026 255.287Z" fill="#FFD53A"/>
<path d="M627.685 255.328L626.026 255.286L622.844 255.205L622.854 255.187L627.694 255.313L627.685 255.328ZM628.326 245.75L628.604 245.27C630.528 244.971 632.3 244.745 633.916 244.577L633.752 244.862C632.089 245.088 630.283 245.379 628.326 245.75Z" fill="#474746"/>
<path d="M627.694 255.312L622.854 255.186L628.327 245.75C630.283 245.378 632.089 245.088 633.752 244.861L627.694 255.312Z" fill="#565656"/>
<path d="M614.001 254.977L613.368 254.963L613.37 254.96L614.001 254.977Z" fill="#FFD53A"/>
<path d="M615.282 255.006L614.001 254.976L613.37 254.96L613.382 254.939L615.293 254.99L615.282 255.006ZM617.199 248.348L617.755 247.388C618.51 247.212 619.26 247.042 619.989 246.882L619.493 247.738C618.743 247.932 617.979 248.135 617.199 248.348Z" fill="#474746"/>
<path d="M615.293 254.99L613.382 254.94L617.199 248.349C617.979 248.136 618.743 247.933 619.493 247.739L615.293 254.99Z" fill="#565656"/>
<path d="M670.428 256.43L665.478 256.304V256.302L670.428 256.43ZM665.075 256.294H665.066V256.292H665.075V256.294ZM664.665 256.283L655.274 256.045L655.277 256.04L664.665 256.282V256.283Z" fill="#FFD53A"/>
<path d="M665.066 256.295L664.665 256.285V256.283L665.066 256.293V256.295Z" fill="#E6E6E8"/>
<path d="M665.478 256.305L665.075 256.294V256.293L665.478 256.303V256.305Z" fill="#9A9A9B"/>
<path d="M666.108 253.541C665.674 253.258 665.217 252.963 664.743 252.66L665.29 252.994L666.108 253.541Z" fill="#FFD53A"/>
<path d="M670.428 256.43L665.478 256.302L665.075 256.292H665.066L664.665 256.282L655.277 256.04L655.28 256.034L670.428 256.43Z" fill="#474746"/>
<path d="M670.428 256.43L655.28 256.034L658.843 249.055L664.743 252.658C665.217 252.962 665.674 253.257 666.108 253.54L670.428 256.43Z" fill="#565656"/>
<path d="M712.73 269.066C712.73 270.002 712.055 270.756 711.231 270.756H706.936C706.111 270.756 705.445 270.002 705.445 269.066C705.445 268.143 706.111 267.387 706.936 267.387H711.231C712.055 267.387 712.73 268.143 712.73 269.066Z" fill="white"/>
<path d="M711.231 267.387H708.844C709.08 268.392 709.252 269.531 709.373 270.756H711.231C712.055 270.756 712.73 270.002 712.73 269.066C712.73 268.143 712.055 267.387 711.231 267.387ZM717.318 270.584H719.702C719.572 269.759 719.572 268.487 719.173 267.214H717.318C716.493 267.214 715.819 267.97 715.819 268.898C715.819 269.829 716.493 270.584 717.318 270.584Z" fill="#C8C8CA"/>
<path d="M722.046 278.279H707.476V273.711H722.046V278.279Z" fill="#3C3C3C"/>
<path d="M722.046 278.279H709.004V273.711H722.046V278.279Z" fill="#2C2C2C"/>
<path d="M721.434 277.641H709.578V274.245H721.434V277.641Z" fill="#C8C8CA"/>
<path d="M596.932 278.332C596.932 279.054 596.52 279.635 596.012 279.635H584.182C583.677 279.635 583.267 279.054 583.267 278.332C583.267 277.621 583.677 277.037 584.182 277.037H596.012C596.52 277.037 596.932 277.621 596.932 278.332Z" fill="#E8E8EA"/>
<path d="M671.462 255.653C671.462 256.9 670.733 257.92 669.832 257.92H666.659C665.757 257.92 665.023 256.9 665.023 255.653C665.023 254.403 665.757 253.385 666.659 253.385H669.832C670.733 253.385 671.462 254.403 671.462 255.653Z" fill="#DD9505"/>
<path d="M672.391 255.653C672.391 256.9 671.666 257.92 670.765 257.92H667.585C666.684 257.92 665.957 256.9 665.957 255.653C665.957 254.403 666.684 253.385 667.585 253.385H670.765C671.666 253.385 672.391 254.403 672.391 255.653Z" fill="#DD9505"/>
<path d="M672.437 258.485C672.437 259.136 672.022 259.672 671.505 259.672C670.992 259.672 670.576 259.136 670.576 258.485V255.722C670.576 255.063 670.992 254.534 671.505 254.534C672.022 254.534 672.437 255.063 672.437 255.722V258.485Z" fill="#DD9505"/>
<path d="M26.1214 124.275C26.1214 128.013 28.4808 131.047 31.3857 131.047H564.706C567.615 131.047 569.971 128.013 569.971 124.275C569.971 124.066 569.94 123.863 569.921 123.665H26.1672C26.1556 123.863 26.1214 124.066 26.1214 124.275Z" fill="#565656"/>
<path d="M26.1214 124.275C26.1214 128.013 28.3448 131.047 31.0889 131.047H534.36C537.102 131.047 539.33 128.013 539.33 124.275C539.33 124.066 539.299 123.863 539.286 123.665H26.1672C26.1533 123.863 26.1214 124.066 26.1214 124.275Z" fill="#787A7A"/>
<path d="M281.78 252.58L282.826 250.759C283.692 250.555 284.544 250.349 285.374 250.167L284.424 251.824C283.54 252.068 282.659 252.32 281.78 252.58Z" fill="#A6DDF6"/>
<path d="M209.016 251.555H235.788V229.678H209.016V251.555Z" fill="#ADADAD"/>
<path d="M229.47 251.555H235.788V229.678H229.47V251.555Z" fill="#787A7A"/>
<path d="M241.207 294.893H205.682V250.298H241.207V294.893Z" fill="#046099"/>
<path d="M241.207 294.893H225.98V250.298H241.207V294.893Z" fill="#004E87"/>
<path d="M267.136 196.09L274.223 192.197L272.629 188.872L266.094 189.985L267.136 196.09Z" fill="#E05407"/>
<path d="M263.608 192.448C263.316 194.139 264.315 195.782 265.833 196.135C267.353 196.486 268.823 195.407 269.109 193.723C269.405 192.039 268.405 190.391 266.887 190.037C265.364 189.688 263.894 190.771 263.608 192.448Z" fill="#E05407"/>
<path d="M220.91 216.767C220.288 217.085 219.584 216.885 219.346 216.313C219.1 215.749 219.412 215.029 220.036 214.715L264.51 192.077C265.131 191.755 265.833 191.963 266.073 192.529C266.319 193.096 266.005 193.815 265.382 194.133L220.91 216.767Z" fill="#C2C4C4"/>
<path d="M266.78 195.504L273.861 191.609L272.269 188.282L265.739 189.396L266.78 195.504Z" fill="#FF7F00"/>
<path d="M263.248 191.865C262.959 193.545 263.958 195.198 265.478 195.546C266.998 195.9 268.466 194.82 268.756 193.136C269.042 191.453 268.05 189.803 266.527 189.451C265.007 189.103 263.543 190.18 263.248 191.865Z" fill="#FFA522"/>
<path d="M264.596 192.176C264.445 193.032 264.956 193.879 265.73 194.051C266.509 194.239 267.26 193.684 267.41 192.825C267.556 191.962 267.048 191.121 266.269 190.942C265.491 190.762 264.742 191.315 264.596 192.176Z" fill="#6D6E71"/>
<path d="M265.312 192.339C265.242 192.76 265.487 193.172 265.87 193.259C266.253 193.352 266.618 193.08 266.69 192.659C266.765 192.24 266.515 191.828 266.134 191.738C265.755 191.644 265.389 191.918 265.312 192.339Z" fill="#EEEFEF"/>
<path d="M287.919 217.945C288.225 219.481 286.145 221.192 283.282 221.761C280.414 222.328 277.842 221.543 277.535 220.004L269.993 182.329C269.685 180.79 271.756 179.082 274.623 178.515C277.491 177.947 280.064 178.729 280.371 180.27L287.919 217.945Z" fill="#FC6405"/>
<path d="M283.138 218.903C283.449 220.444 281.861 222.052 279.603 222.496C277.35 222.937 275.273 222.052 274.968 220.508L267.485 182.821C267.177 181.281 268.761 179.678 271.015 179.23C273.27 178.79 275.35 179.678 275.652 181.216L283.138 218.903Z" fill="#FF7F00"/>
<path d="M280.313 220.083C280.574 221.376 279.753 222.624 278.495 222.875C277.224 223.121 275.993 222.275 275.737 220.978L269.447 189.312C269.193 188.016 270.007 186.764 271.269 186.518C272.535 186.269 273.769 187.116 274.026 188.411L280.313 220.083Z" fill="#FFA522"/>
<path d="M276.817 179.038C277.436 182.553 276.258 185.775 274.187 186.237L220.8 198.101C218.729 198.563 216.55 196.085 215.929 192.571C215.316 189.054 216.491 185.834 218.565 185.372L271.944 173.504C274.023 173.047 276.199 175.524 276.817 179.038Z" fill="#FF7F00"/>
<path d="M271.666 171.906L218.282 183.769C216.406 184.189 215.401 187.649 215.842 191.776C216.632 192.445 217.48 192.75 218.303 192.563L276.909 179.537C276.088 174.863 273.741 171.444 271.666 171.906Z" fill="#FFA522"/>
<path d="M228.597 190.645L228.742 238.879L215.646 234.128L221.863 190.082L228.597 190.645Z" fill="#E05407"/>
<path d="M224.488 191.509L224.471 237.562L212.547 233.14L216.356 189.976L224.488 191.509Z" fill="#FF7F00"/>
<path d="M212.547 233.141L218.368 235.191L220.725 190.801L216.356 189.976L212.547 233.141Z" fill="#FFA522"/>
<mask id="mask0_172_2048" style="mask-type:luminance" maskUnits="userSpaceOnUse" x="212" y="233" width="14" height="5">
<path d="M225.722 237.781L224.471 237.406V237.328L225.722 237.781ZM222.28 236.75L212.519 233.824L212.595 233.158L222.28 236.75Z" fill="white"/>
</mask>
<g mask="url(#mask0_172_2048)">
<path d="M212.519 237.781H225.722V233.158H212.519V237.781Z" fill="#9B9B9B"/>
</g>
<path d="M227.984 238.461L225.722 237.782L224.471 237.329L224.476 222.848C225.234 223.189 225.954 223.658 226.617 224.258C227.462 225.027 228.141 225.962 228.655 226.999L228.354 237.793C228.236 238.011 228.116 238.242 227.984 238.461Z" fill="#C94B06"/>
<path d="M224.471 237.406L222.28 236.75L212.595 233.157V233.156L218.368 235.19L219.045 222.45C219.769 222.256 220.506 222.158 221.237 222.158C222.347 222.158 223.446 222.384 224.476 222.847L224.471 237.328V237.406Z" fill="#E57200"/>
<path d="M218.368 235.191L212.595 233.157L213.34 226.578L213.368 226.529C214.898 224.401 216.923 223.017 219.045 222.451L218.368 235.191Z" fill="#E5941F"/>
<path d="M214.655 231.279C211.724 235.196 212.125 241.006 215.558 244.258C218.989 247.507 224.148 246.956 227.082 243.043C230.012 239.122 229.609 233.306 226.175 230.063C222.747 226.817 217.59 227.355 214.655 231.279Z" fill="#E05407"/>
<path d="M212.968 229.994C209.965 234.011 210.38 239.967 213.891 243.292C217.408 246.618 222.691 246.061 225.694 242.044C228.696 238.025 228.288 232.079 224.774 228.749C221.255 225.426 215.971 225.983 212.968 229.994Z" fill="#FC6405"/>
<path d="M216.446 233.546C215.064 235.392 215.281 238.143 216.92 239.697C218.556 241.251 221.008 241.011 222.384 239.171C223.765 237.319 223.554 234.571 221.916 233.02C220.273 231.466 217.83 231.7 216.446 233.546Z" fill="#6D6E71"/>
<path d="M217.96 234.981C217.285 235.885 217.392 237.233 218.193 237.991C218.995 238.753 220.195 238.636 220.869 237.733C221.546 236.83 221.442 235.485 220.64 234.726C219.839 233.966 218.636 234.079 217.96 234.981Z" fill="#EEEFEF"/>
<path d="M265.764 177.451C264.736 183.145 268.17 188.542 273.414 189.488C278.66 190.436 283.738 186.579 284.762 180.882C285.785 175.183 282.36 169.801 277.112 168.85C271.873 167.906 266.786 171.755 265.764 177.451Z" fill="#E05407"/>
<path d="M263.59 177.697C262.549 183.535 266.051 189.049 271.423 190.021C276.793 190.993 281.997 187.049 283.052 181.208C284.095 175.374 280.591 169.855 275.217 168.881C269.842 167.913 264.639 171.857 263.59 177.697Z" fill="#FC6405"/>
<path d="M269.041 178.907C268.562 181.59 270.207 184.129 272.713 184.581C275.217 185.033 277.639 183.227 278.12 180.541C278.605 177.864 276.958 175.322 274.455 174.866C271.941 174.414 269.521 176.221 269.041 178.907Z" fill="#6D6E71"/>
<path d="M271.355 179.328C271.124 180.637 271.925 181.882 273.156 182.102C274.381 182.325 275.568 181.445 275.806 180.129C276.035 178.814 275.233 177.578 274.009 177.356C272.781 177.134 271.598 178.014 271.355 179.328Z" fill="#EEEFEF"/>
<path d="M291.082 220.462L272.581 224.098L272.024 221.293L290.526 217.65L291.082 220.462Z" fill="#565656"/>
<path d="M291.082 220.461L283.734 221.904L283.181 219.101L290.526 217.65L291.082 220.461ZM287.602 207.008L271.239 209.936L268.872 197.135L285.233 194.207L287.602 207.008Z" fill="#4D4D4D"/>
<path d="M280.061 208.385L271.201 209.939L268.872 197.135L277.735 195.583L280.061 208.385Z" fill="#565656"/>
<path d="M289.766 224.335L275.175 227.203L274.472 223.66L289.058 220.796L289.766 224.335Z" fill="#FF7F00"/>
<path d="M289.766 224.335L284.865 225.297L284.165 221.753L289.058 220.796L289.766 224.335Z" fill="#FC6405"/>
<path d="M230.56 195.932L233.006 195.388C232.973 195.421 232.939 195.455 232.905 195.487L230.56 195.932ZM220.224 183.339L220.178 183.071L226.211 182.009L220.224 183.339Z" fill="#AACFE5"/>
<path d="M228.615 196.301L228.597 190.645L227.393 190.544L234.407 188.984C234.77 190.424 234.72 191.919 234.215 193.36C233.902 194.248 233.616 194.773 233.006 195.388L230.56 195.932L228.615 196.301Z" fill="#E57200"/>
<path d="M221.734 190.988L221.543 190.953L220.224 183.338L226.211 182.008L227.508 181.778L227.799 181.95C231.394 183.551 233.695 186.163 234.407 188.982L227.393 190.542L221.863 190.08L221.734 190.988Z" fill="#E5941F"/>
<path d="M224.485 197.082L224.488 191.509L221.734 190.989L221.863 190.081L227.393 190.543L228.597 190.644L228.615 196.3L224.485 197.082Z" fill="#C94B06"/>
<path d="M223.319 197.303C223.076 197.235 222.839 197.165 222.605 197.079L221.543 190.953L221.734 190.989L224.488 191.509L224.485 197.082L223.319 197.303Z" fill="#E57200"/>
<path d="M215.867 184.929C212.835 188.981 213.254 194.987 216.799 198.345C220.344 201.703 225.676 201.141 228.711 197.084C231.742 193.033 231.319 187.03 227.777 183.673C224.227 180.311 218.895 180.874 215.867 184.929Z" fill="#E05407"/>
<path d="M214.143 184.047C211.035 188.198 211.472 194.351 215.104 197.785C218.732 201.226 224.194 200.648 227.3 196.502C230.405 192.351 229.975 186.198 226.342 182.757C222.71 179.318 217.248 179.896 214.143 184.047Z" fill="#FC6405"/>
<path d="M217.741 187.716C216.313 189.619 216.531 192.47 218.23 194.073C219.92 195.676 222.452 195.436 223.874 193.524C225.31 191.621 225.083 188.773 223.393 187.169C221.695 185.569 219.166 185.809 217.741 187.716Z" fill="#6D6E71"/>
<path d="M219.301 189.197C218.611 190.13 218.715 191.525 219.546 192.315C220.375 193.097 221.605 192.974 222.309 192.044C223.008 191.109 222.901 189.716 222.07 188.934C221.239 188.146 220.005 188.263 219.301 189.197Z" fill="#EEEFEF"/>
<path d="M304.281 227.832L263.739 235.064L263.067 231.313L303.606 224.078L304.281 227.832Z" fill="#ADADAD"/>
<path d="M304.281 227.833L293.021 229.844L292.344 226.09L303.606 224.079L304.281 227.833Z" fill="#787A7A"/>
<path d="M267.247 241.891L264.995 242.291L263.056 231.54L265.302 231.137L267.247 241.891ZM276.491 240.343L274.236 240.74L272.3 229.989L274.546 229.589L276.491 240.343Z" fill="#ADADAD"/>
<path d="M305.382 233.834L303.375 234.191L301.647 224.603L303.656 224.242L305.382 233.834ZM296.281 235.849L294.268 236.209L292.544 226.623L294.551 226.264L296.281 235.849ZM292.516 225.285L271.152 229.1L270.741 226.849L292.108 223.037L292.516 225.285Z" fill="#787A7A"/>
<path d="M292.516 225.285L283.214 226.947L282.812 224.695L292.108 223.038L292.516 225.285Z" fill="#4D4D4D"/>
<path d="M298.727 225.207L266.555 230.953L266.287 229.449L298.456 223.707L298.727 225.207Z" fill="#0181B2"/>
<path d="M289.929 226.78L266.555 230.953L266.287 229.449L289.659 225.284L289.929 226.78Z" fill="#4291BC"/>
<path d="M266.322 262.193L347.234 264.924L357.513 264.943C357.513 264.943 382.836 265.466 388.306 272.685C391.772 277.254 388.559 295.739 388.559 295.739L381.025 296.445C381.025 296.445 380.022 276.962 373.007 276.334C373.007 276.334 360.538 272.173 359.201 295.953L302.524 294.021C302.524 294.021 303.646 274.963 288.326 275.938C288.326 275.938 274.258 276.027 276.02 294.677L263.676 294.158C263.676 294.158 255.765 274.759 266.322 262.193Z" fill="#995B02"/>
<path d="M264.814 262.193L345.726 264.924L356.004 264.943C356.004 264.943 383.626 264.987 389.097 272.21C392.565 276.775 389.821 296.222 389.821 296.222L379.509 296.445C379.509 296.445 378.512 276.962 371.497 276.334C371.497 276.334 359.025 272.173 357.692 295.953L301.013 294.021C301.013 294.021 302.136 274.963 286.822 275.938C286.822 275.938 272.75 276.027 274.513 294.677L262.164 294.158C262.164 294.158 254.254 274.759 264.814 262.193Z" fill="#B26E02"/>
<path d="M256.515 262.193L337.424 264.924L347.705 264.943C347.705 264.943 371.86 265.202 377.328 272.424C380.799 276.994 379.839 295.46 379.839 295.46L373.345 296.164C373.345 296.164 381.35 279.003 362.909 277.21C362.909 277.21 348.068 276.009 349.39 295.953L292.713 294.021C292.713 294.021 293.837 274.963 278.522 275.938C278.522 275.938 263.195 276.431 267.725 294.677L255.278 293.407C255.278 293.407 245.958 274.759 256.515 262.193Z" fill="#995B02"/>
<path d="M377.328 272.424L389.097 272.21C389.097 272.21 387.177 265.9 357.006 264.957L345.726 264.923C345.726 264.923 377.755 269.993 377.328 272.424Z" fill="#DD9505"/>
<path d="M286.774 261.789C274.513 260.937 286.206 256.484 286.206 256.484C319.231 245.793 325.925 251.102 325.925 251.102C326.746 251.212 325.393 252.107 326.567 252.559C324.081 251.079 319.78 250.862 317.796 249.059L334.113 250.753C334.113 250.753 342.648 252.223 356.478 265.139L361.772 265.311C348.574 255.426 342.747 250.701 335.433 248.528C327.383 246.138 318.407 246.877 311.287 247.569C287.009 249.959 262.774 262.193 262.774 262.193L345.148 264.866C344.658 264.429 344.111 264.36 343.354 263.701L286.774 261.789Z" fill="#DD9505"/>
<path d="M344.862 264.974C345.538 265.583 346.698 265.765 346.698 265.765L357.16 265.779C356.932 265.562 356.702 265.353 356.478 265.139L344.862 264.974Z" fill="#DD9505"/>
<path d="M269.801 262.31C264.864 261.326 269.438 259.353 269.438 259.353C302.896 248.659 316.605 251.949 316.605 251.949C322.641 252.768 340.009 264.122 340.009 264.122L269.801 262.31ZM378.316 272.356C372.805 265.365 345.726 265.138 345.726 265.138C331.239 251.813 323.364 249.536 323.364 249.536C298.23 241.736 255.928 262.411 255.928 262.411C245.527 274.886 254.017 292.638 254.017 292.638L265.638 293.22C262.802 274.476 277.669 274.639 277.669 274.639C292.748 273.668 291.581 294.207 291.581 294.207L348.153 295.166C345.726 276.517 360.394 275.71 360.394 275.71C379.011 274.556 374.281 295.333 374.281 295.333L379.839 295.674C379.839 295.674 381.758 276.73 378.316 272.356Z" fill="#FFCA09"/>
<path d="M382.196 279.416H380.171C380.066 278.175 379.912 276.998 379.699 275.951H382.196C383.045 275.951 383.73 276.727 383.73 277.685C383.73 278.637 383.045 279.416 382.196 279.416Z" fill="#97610A"/>
<path d="M380.171 279.416H377.77C376.921 279.416 376.229 278.637 376.229 277.685C376.229 276.727 376.921 275.951 377.77 275.951H379.699C379.912 276.998 380.066 278.175 380.171 279.416Z" fill="#D5AA10"/>
<path d="M390.839 279.416H390.783C390.756 278.907 390.722 278.407 390.676 277.923C390.74 278.493 390.774 279.009 390.839 279.416Z" fill="#7CB3CC"/>
<path d="M390.783 279.416H388.384C387.531 279.416 386.841 278.637 386.841 277.685C386.841 276.727 387.531 275.951 388.384 275.951H390.3C390.509 276.63 390.609 277.31 390.676 277.923C390.722 278.407 390.756 278.907 390.783 279.416Z" fill="#97610A"/>
<path d="M389.23 291.848H381.331V284.743H389.23V291.848Z" fill="#939396"/>
<path d="M387.756 291.848H381.331V284.743H387.756V291.848Z" fill="#C8C8CA"/>
<path d="M382.697 292.975H382.125V283.261H382.697V292.975ZM384.222 292.975H383.651V283.261H384.222V292.975ZM385.752 292.975H385.179V283.261H385.752V292.975ZM387.282 292.975H386.706V283.261H387.282V292.975ZM388.813 292.975H388.235V283.261H388.813V292.975Z" fill="#818182"/>
<path d="M383.577 276.926C383.577 277.886 382.887 278.662 382.036 278.662H377.617C376.761 278.662 376.075 277.886 376.075 276.926C376.075 275.975 376.761 275.194 377.617 275.194H382.036C382.887 275.194 383.577 275.975 383.577 276.926Z" fill="white"/>
<path d="M382.036 275.194H379.574C379.82 276.224 379.996 277.405 380.119 278.662H382.036C382.887 278.662 383.577 277.886 383.577 276.926C383.577 275.975 382.887 275.194 382.036 275.194ZM388.306 278.482H390.764C390.629 277.641 390.629 276.331 390.221 275.024H388.306C387.45 275.024 386.765 275.797 386.765 276.748C386.765 277.71 387.45 278.482 388.306 278.482Z" fill="#C8C8CA"/>
<path d="M393.169 286.412H378.167V281.702H393.169V286.412Z" fill="#3C3C3C"/>
<path d="M393.169 286.412H379.748V281.702H393.169V286.412Z" fill="#2C2C2C"/>
<path d="M392.546 285.758H380.331V282.263H392.546V285.758Z" fill="#C8C8CA"/>
<path d="M264.318 286.475C264.318 287.208 263.89 287.807 263.37 287.807H251.186C250.66 287.807 250.238 287.208 250.238 286.475C250.238 285.731 250.66 285.134 251.186 285.134H263.37C263.89 285.134 264.318 285.731 264.318 286.475Z" fill="#E8E8EA"/>
<path d="M295.464 293.641L295.028 280.768C294.916 275.001 295.624 274.718 296.813 274.575C302.364 273.934 312.872 273.844 322.05 273.844C323.839 273.844 325.58 273.847 327.223 273.851C328.869 273.854 330.415 273.858 331.818 273.858C335.415 273.858 338.063 273.835 338.968 273.733C342.042 273.374 352.162 272.712 354.156 272.583C344.631 273.364 345.215 287.501 345.215 287.501C344.729 278.082 340.436 277.445 339.282 277.445C339.101 277.445 338.997 277.46 338.997 277.46C338.997 277.46 309.9 278.022 300.207 278.407C296.15 278.565 296.984 293.353 296.984 293.353L295.464 293.641ZM354.156 272.583C354.27 272.575 354.384 272.567 354.499 272.562L354.156 272.583Z" fill="#FFD53A"/>
<path d="M330.266 271.902C330.266 272.662 329.713 273.285 329.038 273.285H322.059C321.382 273.285 320.829 272.662 320.829 271.902C320.829 271.14 321.382 270.523 322.059 270.523H329.038C329.713 270.523 330.266 271.14 330.266 271.902Z" fill="#818182"/>
<path d="M330.266 271.763C330.266 272.406 329.781 272.932 329.177 272.932H322.992C322.39 272.932 321.902 272.406 321.902 271.763C321.902 271.121 322.39 270.594 322.992 270.594H329.177C329.781 270.594 330.266 271.121 330.266 271.763Z" fill="#9F9F9F"/>
<path d="M328.453 271.692C328.453 272.057 328.19 272.359 327.858 272.359H323.9C323.568 272.359 323.303 272.057 323.303 271.692C323.303 271.321 323.568 271.022 323.9 271.022H327.858C328.19 271.022 328.453 271.321 328.453 271.692Z" fill="#C8C8CA"/>
<path d="M251.345 271.803C252.197 266.845 255.33 262.937 255.33 262.937C255.385 262.938 255.445 262.94 255.502 262.94C253.314 265.735 252.035 268.772 251.366 271.802C251.352 271.803 251.345 271.803 251.345 271.803Z" fill="#A6DDF6"/>
<path d="M251.366 271.803C252.035 268.773 253.314 265.736 255.502 262.941C308.96 263.84 365.28 269.952 365.28 269.952C358.267 269.502 349.135 269.324 339.094 269.324C302.016 269.324 252.524 271.747 251.366 271.803Z" fill="#FFD53A"/>
<path d="M301.634 294.928H301.221V263.112H301.634V294.928Z" fill="#E0E0E2"/>
<path d="M302.059 294.854H301.643V263.033H302.059V294.854Z" fill="#818182"/>
<path d="M334.491 294.928H334.075V263.946H334.491V294.928Z" fill="#E0E0E2"/>
<path d="M334.909 294.855H334.494V263.878H334.909V294.855Z" fill="#818182"/>
<path d="M372.414 296.57L373.106 294.602C376.746 284.239 369.57 278.623 367.699 277.935C361.498 275.762 356.724 276.1 353.508 278.95C348.091 283.734 348.636 294.217 348.642 294.321L348.734 295.846L290.218 295.408L290.323 293.889C290.768 287.098 289.579 282.011 286.79 278.784C283.356 274.802 278.538 275.006 278.477 275.006C273.577 275.241 270.018 276.945 267.893 280.064C264.398 285.192 265.823 292.627 265.836 292.697L266.201 294.52L254.974 294.418L253.403 290.901L263.119 291.507C262.845 288.62 262.789 282.892 265.876 278.352C268.476 274.519 272.678 272.442 278.366 272.165C278.587 272.16 284.319 271.878 288.578 276.773C291.689 280.353 293.142 285.667 292.914 292.581L346.097 292.985C346.135 289.564 346.784 281.281 351.938 276.715C355.87 273.236 361.474 272.748 368.583 275.272C368.583 275.272 378.068 279.533 376.048 293.676L379.897 293.615L379.931 296.459L372.414 296.57ZM341.074 263.111C341.074 264.401 340.323 265.444 339.4 265.444H336.128C335.202 265.444 334.449 264.401 334.449 263.111C334.449 261.823 335.202 260.774 336.128 260.774H339.4C340.323 260.774 341.074 261.823 341.074 263.111Z" fill="#DD9505"/>
<path d="M342.031 263.11C342.031 264.401 341.286 265.443 340.356 265.443H337.079C336.158 265.443 335.405 264.401 335.405 263.11C335.405 261.823 336.158 260.774 337.079 260.774H340.356C341.286 260.774 342.031 261.823 342.031 263.11Z" fill="#B26E02"/>
<path d="M342.082 266.021C342.082 266.704 341.652 267.246 341.122 267.246C340.593 267.246 340.159 266.704 340.159 266.021V263.182C340.159 262.505 340.593 261.956 341.122 261.956C341.652 261.956 342.082 262.505 342.082 263.182V266.021Z" fill="#B26E02"/>
<path d="M381.254 293.937C381.254 294.5 380.848 294.955 380.343 294.955H374.737C374.237 294.955 373.831 294.5 373.831 293.937C373.831 293.37 374.237 292.915 374.737 292.915H380.343C380.848 292.915 381.254 293.37 381.254 293.937Z" fill="white"/>
<path d="M391.676 293.982C391.676 294.566 391.255 295.045 390.731 295.045H380.149C379.629 295.045 379.199 294.566 379.199 293.982C379.199 293.393 379.629 292.916 380.149 292.916H390.731C391.255 292.916 391.676 293.393 391.676 293.982Z" fill="#C8C8CA"/>
<path d="M428.696 205.018H412.283L425.109 168.094H441.513L428.696 205.018Z" fill="#FF7F00"/>
<path d="M429.583 205.669L423.561 206.34L437.599 171.364L443.619 170.695L429.583 205.669Z" fill="#FC6405"/>
<path d="M435.525 190.861L438.331 183.869H438.333L435.743 190.75L435.525 190.861Z" fill="#86B8CE"/>
<path d="M417.434 190.189C417.43 190.173 417.424 190.158 417.419 190.144L421.258 179.17C421.261 179.168 421.262 179.165 421.265 179.162L417.434 190.189ZM421.295 179.076C421.256 178.99 420.935 179.033 421.101 178.868L421.342 178.939L421.295 179.076Z" fill="#6AA4B9"/>
<path d="M425.08 195.223C422.72 195.223 420.575 194.475 419.061 192.932C418.293 192.143 417.763 191.208 417.434 190.189L421.265 179.161C421.296 179.122 421.304 179.094 421.295 179.075L421.342 178.939L433.18 182.374L428.185 194.818C427.132 195.086 426.087 195.223 425.08 195.223Z" fill="#E57200"/>
<path d="M428.185 194.818L433.18 182.374L438.331 183.869L435.525 190.861L434.844 191.211C432.81 193.018 430.481 194.233 428.185 194.818Z" fill="#E25A04"/>
<path d="M452.876 168.093H436.786C434.997 166.43 432.69 165.431 430.171 165.431C424.472 165.431 419.844 170.55 419.844 176.869C419.844 183.185 424.472 188.305 430.171 188.305C432.862 188.305 435.293 187.157 437.134 185.293H452.876V168.093Z" fill="#FFA522"/>
<path d="M431.105 167.107C425.828 167.107 421.557 171.501 421.557 176.92C421.557 182.338 425.828 186.73 431.105 186.73C433.597 186.73 435.853 185.744 437.556 184.153H452.113V169.392H437.229C435.573 167.965 433.432 167.107 431.105 167.107Z" fill="#FF8001"/>
<path d="M436.235 176.692C436.235 180.52 433.432 183.619 429.989 183.619C426.529 183.619 423.732 180.52 423.732 176.692C423.732 172.867 426.529 169.772 429.989 169.772C433.432 169.772 436.235 172.867 436.235 176.692Z" fill="#787A7A"/>
<path d="M433.035 176.692C433.035 178.557 431.665 180.068 429.989 180.068C428.296 180.068 426.935 178.557 426.935 176.692C426.935 174.828 428.296 173.32 429.989 173.32C431.665 173.32 433.035 174.828 433.035 176.692Z" fill="#4D4D4D"/>
<path d="M452.876 185.293H459.854V168.095H452.876V185.293Z" fill="#FF5F01"/>
<path d="M408.624 296.002H439.73V204.206H408.624V296.002Z" fill="#353535"/>
<path d="M435.287 224.583L524.064 227.531L535.347 227.55C535.347 227.55 563.13 228.114 569.137 235.913C572.937 240.846 569.408 260.82 569.408 260.82L561.139 261.574C561.139 261.574 560.041 240.535 552.345 239.849C552.345 239.849 538.667 235.363 537.194 261.044L475.01 258.967C475.01 258.967 476.238 238.372 459.437 239.428C459.437 239.428 443.996 239.523 445.93 259.672L432.383 259.112C432.383 259.112 423.705 238.159 435.287 224.583Z" fill="#995B02"/>
<path d="M433.629 224.583L522.409 227.531L533.683 227.55C533.683 227.55 563.999 227.603 570.008 235.397C573.808 240.333 570.793 261.336 570.793 261.336L559.485 261.574C559.485 261.574 558.389 240.535 550.69 239.849C550.69 239.849 537.01 235.363 535.541 261.044L473.382 260.513C473.382 260.513 474.588 238.372 457.777 239.428C457.777 239.428 442.34 239.523 444.275 259.672L430.73 259.112C430.73 259.112 422.047 238.159 433.629 224.583Z" fill="#B26E02"/>
<path d="M545.585 293.836H540.389V240.643H545.585V293.836Z" fill="#FF8001"/>
<path d="M549.404 293.836H544.7V240.643H549.404V293.836Z" fill="#FF5F01"/>
<path d="M453.648 293.836H448.447V238.208H453.648V293.836Z" fill="#FF8001"/>
<path d="M457.472 293.836H452.762V238.208H457.472V293.836Z" fill="#FF5F01"/>
<path d="M500.638 211.312H488.243V208.794H500.638V211.312Z" fill="#4D4D4D"/>
<path d="M503.651 212.436H471.314V210.753H503.651V212.436Z" fill="#0181B2"/>
<path d="M494.802 212.436H471.314V210.753H494.802V212.436Z" fill="#4291BC"/>
<path d="M408.624 296.002H428.253V204.206H408.624V296.002Z" fill="#4D4D4D"/>
<path d="M472.121 293.836H440.949V285.439H472.121V293.836Z" fill="#FF5F01"/>
<path d="M456.537 293.836H440.949V285.439H456.537V293.836Z" fill="#FF8001"/>
<path d="M559.956 294.863H528.784V286.465H559.956V294.863Z" fill="#FF5F01"/>
<path d="M544.372 294.863H528.784V286.465H544.372V294.863Z" fill="#FF8001"/>
<path d="M424.532 224.584L513.301 227.532L524.584 227.551C524.584 227.551 551.088 227.833 557.09 235.631C560.893 240.569 559.841 260.521 559.841 260.521L552.717 261.273C552.717 261.273 561.506 242.746 541.266 240.8C541.266 240.8 524.984 239.508 526.434 261.045L464.246 258.969C464.246 258.969 465.482 238.373 448.675 239.43C448.675 239.43 432.69 239.883 437.656 259.596L423.161 258.3C423.161 258.3 412.941 238.16 424.532 224.584Z" fill="#995B02"/>
<path d="M557.09 235.631L570.008 235.398C570.008 235.398 567.894 228.591 534.798 227.567L522.409 227.532C522.409 227.532 557.552 233.007 557.09 235.631Z" fill="#DD9505"/>
<path d="M435.743 224.583C435.743 224.583 478.853 201.566 506.433 209.994C506.433 209.994 527.173 217.74 535.047 227.947L435.743 224.583Z" fill="#DD9505"/>
<path d="M496.545 210.308L504.633 210.417C504.633 210.417 519.513 213.918 534.961 228.457L523.477 228.436C523.477 228.436 505.759 212.173 496.545 210.308Z" fill="#141414"/>
<path d="M496.545 210.309L506.143 211.664C506.143 211.664 518.698 214.752 533.656 228.424L523.037 228.411C523.037 228.411 505.46 212.072 496.545 210.309Z" fill="#353633"/>
<path d="M528.12 223.73C526.922 222.791 525.7 221.883 524.455 221.006L524.87 220.296C526.112 221.158 527.332 222.051 528.529 222.975L528.12 223.73Z" fill="#2C2C2C"/>
<path d="M526.005 227.635C523.785 227.543 522.409 227.531 522.409 227.531C522.017 227.177 521.63 226.829 521.246 226.488L524.455 221.005C525.643 221.842 526.867 222.747 528.12 223.73L526.005 227.635Z" fill="#4A4A48"/>
<path d="M522.408 219.611C515.599 215.111 510.199 212.98 507.684 212.134L508.023 211.484C511.275 212.644 516.586 214.911 522.766 218.896L522.408 219.611Z" fill="#2C2C2C"/>
<path d="M519.66 225.096C514.181 220.354 509.681 217.123 506.22 214.942L507.684 212.133C510.199 212.979 515.599 215.109 522.408 219.61L519.66 225.096Z" fill="#4A4A48"/>
<path d="M558.173 235.328C552.133 227.775 522.409 227.531 522.409 227.531C506.516 213.142 497.879 210.675 497.879 210.675C470.296 202.252 423.883 224.583 423.883 224.583C412.468 238.063 421.792 257.241 421.792 257.241L434.531 257.868C431.428 237.614 447.735 237.794 447.735 237.794C464.282 236.744 462.997 258.929 462.997 258.929L525.076 259.966C522.409 239.824 538.508 238.954 538.508 238.954C558.937 237.713 553.752 260.149 553.752 260.149L559.841 260.52C559.841 260.52 561.944 240.054 558.173 235.328Z" fill="#FFCA09"/>
<path d="M467.262 258.551L466.787 244.644C466.664 238.415 467.44 238.107 468.748 237.957C470.111 237.802 471.747 237.677 473.578 237.575V242.053C473.188 242.067 472.819 242.08 472.473 242.093C468.013 242.264 468.932 258.241 468.932 258.241L467.262 258.551ZM521.851 251.92C521.32 241.733 516.6 241.049 515.34 241.049C515.144 241.049 515.032 241.065 515.032 241.065C515.032 241.065 513.316 241.098 510.547 241.154V237.17C512.74 237.154 514.317 237.119 514.997 237.04C518.371 236.662 529.45 235.945 531.653 235.805C521.212 236.652 521.851 251.92 521.851 251.92ZM474.498 242.021V237.527C480.763 237.219 489.025 237.166 496.482 237.166C498.396 237.166 500.26 237.17 502.021 237.173C503.783 237.176 505.442 237.181 506.955 237.181C507.907 237.181 508.802 237.179 509.626 237.175V241.173C500.787 241.353 483.346 241.724 474.498 242.021ZM510.084 241.163V237.173H510.089V241.163H510.084ZM531.653 235.805C531.778 235.794 531.907 235.787 532.036 235.779L531.653 235.805Z" fill="#FFD53A"/>
<path d="M562.424 243.186H560.224C560.116 241.851 559.958 240.581 559.734 239.443H562.424C563.359 239.443 564.113 240.277 564.113 241.313C564.113 242.35 563.359 243.186 562.424 243.186Z" fill="#97610A"/>
<path d="M560.224 243.186H557.574C556.639 243.186 555.884 242.35 555.884 241.313C555.884 240.277 556.639 239.443 557.574 239.443H559.734C559.958 240.581 560.116 241.851 560.224 243.186Z" fill="#D5AA10"/>
<path d="M571.913 243.186H571.854C571.832 242.778 571.805 242.38 571.774 241.986C571.818 242.439 571.855 242.848 571.913 243.186Z" fill="#A0C2D5"/>
<path d="M571.854 243.186H569.214C568.288 243.186 567.522 242.35 567.522 241.313C567.522 240.277 568.288 239.443 569.214 239.443H571.318C571.595 240.332 571.697 241.223 571.774 241.986C571.805 242.38 571.832 242.778 571.854 243.186Z" fill="#97610A"/>
<path d="M570.149 256.615H561.484V248.941H570.149V256.615Z" fill="#939396"/>
<path d="M568.531 256.615H561.484V248.941H568.531V256.615Z" fill="#C8C8CA"/>
<path d="M562.98 257.834H562.353V247.339H562.98V257.834ZM564.648 257.834H564.021V247.339H564.648V257.834ZM566.334 257.834H565.704V247.339H566.334V257.834ZM568.008 257.834H567.381V247.339H568.008V257.834ZM569.685 257.834H569.057V247.339H569.685V257.834ZM505.445 235.068C505.445 235.895 504.841 236.56 504.098 236.56H496.444C495.702 236.56 495.099 235.895 495.099 235.068C495.099 234.248 495.702 233.579 496.444 233.579H504.098C504.841 233.579 505.445 234.248 505.445 235.068Z" fill="#818182"/>
<path d="M505.445 234.916C505.445 235.611 504.916 236.18 504.256 236.18H497.465C496.802 236.18 496.273 235.611 496.273 234.916C496.273 234.22 496.802 233.655 497.465 233.655H504.256C504.916 233.655 505.445 234.22 505.445 234.916Z" fill="#9F9F9F"/>
<path d="M503.464 234.842C503.464 235.244 503.17 235.561 502.807 235.561H498.463C498.1 235.561 497.805 235.244 497.805 234.842C497.805 234.441 498.1 234.115 498.463 234.115H502.807C503.17 234.115 503.464 234.441 503.464 234.842Z" fill="#C8C8CA"/>
<path d="M419.034 234.072C419.382 232.549 419.918 231.138 420.49 229.914C419.862 231.284 419.385 232.677 419.034 234.072ZM422.585 226.264C422.976 225.699 423.232 225.385 423.232 225.385C423.01 225.673 422.794 225.966 422.585 226.264Z" fill="#717171"/>
<path d="M418.853 234.961C418.907 234.66 418.966 234.364 419.034 234.072C419.385 232.677 419.862 231.284 420.49 229.914C421.087 228.641 421.787 227.42 422.585 226.263C422.792 225.969 423.009 225.675 423.234 225.385C440.275 225.665 457.586 226.42 473.578 227.352V232.93C444.33 233.722 418.853 234.961 418.853 234.961ZM543.872 232.961C536.173 232.475 526.151 232.282 515.129 232.282C513.62 232.282 512.091 232.285 510.547 232.293V229.928C530.61 231.545 543.872 232.961 543.872 232.961ZM474.498 232.905V227.406C487.369 228.164 499.358 229.032 509.626 229.854V232.297C498.256 232.358 486.1 232.595 474.498 232.905ZM510.084 232.296V229.891H510.089V232.296H510.084Z" fill="#FFD53A"/>
<path d="M473.578 259.943H474.04V225.232H473.578V259.943Z" fill="#E0E0E2"/>
<path d="M474.04 259.863H474.498V225.151H474.04V259.863Z" fill="#818182"/>
<path d="M509.626 259.943H510.084V226.145H509.626V259.943Z" fill="#E0E0E2"/>
<path d="M510.089 259.863H510.547V226.064H510.089V259.863Z" fill="#818182"/>
<path d="M551.696 261.715L552.46 259.59C556.456 248.402 548.579 242.33 546.524 241.586C539.721 239.241 534.484 239.607 530.953 242.675C525.011 247.845 525.612 259.171 525.612 259.285L525.716 260.937L461.505 260.461L461.615 258.823C462.107 251.482 460.808 245.995 457.749 242.503C453.975 238.209 448.691 238.422 448.624 238.422C443.248 238.672 439.339 240.517 437.013 243.885C433.174 249.428 434.739 257.456 434.759 257.534L435.151 259.497L422.176 258.79L421.107 255.592L431.777 256.241C431.469 253.128 431.414 246.94 434.795 242.041C437.656 237.895 442.262 235.649 448.503 235.354C448.746 235.343 455.039 235.046 459.706 240.332C463.12 244.198 464.717 249.939 464.467 257.404L522.822 257.847C522.857 254.149 523.571 245.195 529.227 240.275C533.55 236.512 539.692 235.979 547.494 238.711C547.494 238.711 557.903 243.314 555.676 258.59L559.904 258.525L559.943 261.596L551.696 261.715Z" fill="#DD9505"/>
<path d="M561.396 258.877C561.396 259.479 560.947 259.975 560.398 259.975H554.248C553.694 259.975 553.25 259.479 553.25 258.877C553.25 258.267 553.694 257.769 554.248 257.769H560.398C560.947 257.769 561.396 258.267 561.396 258.877Z" fill="white"/>
<path d="M572.83 258.919C572.83 259.558 572.365 260.076 571.792 260.076H560.183C559.607 260.076 559.142 259.558 559.142 258.919C559.142 258.282 559.607 257.77 560.183 257.77H571.792C572.365 257.77 572.83 258.282 572.83 258.919Z" fill="#C8C8CA"/>
<path d="M438.706 221.282C438.706 221.282 433.69 223.414 439.103 224.479L516.137 226.438C516.137 226.438 497.076 214.173 490.459 213.284C490.459 213.284 475.416 209.725 438.706 221.282Z" fill="#191918"/>
<path d="M443.353 221.282C443.353 221.282 438.503 223.501 443.599 224.569L516.137 226.438C516.137 226.438 498.229 214.173 492.001 213.284C492.001 213.284 477.862 209.725 443.353 221.282Z" fill="#2C2C2C"/>
<path d="M492.708 213.422C492.459 213.363 492.223 213.317 492.001 213.286C492.001 213.286 489.946 212.769 485.495 212.769H485.338C485.549 212.767 485.755 212.766 485.954 212.766C490.081 212.766 491.474 213.124 491.474 213.124C491.808 213.172 492.235 213.278 492.708 213.422ZM484.532 212.776C484.536 212.776 484.54 212.776 484.545 212.776H484.532Z" fill="#FFD53A"/>
<path d="M489.256 225.75L471.972 225.314L471.979 225.301L489.257 225.747L489.256 225.75ZM479.184 213.064L479.281 212.897C480.911 212.807 482.361 212.768 483.622 212.768C483.733 212.768 483.843 212.768 483.951 212.77C484.149 212.771 484.343 212.773 484.532 212.775C483.001 212.801 481.222 212.885 479.184 213.064Z" fill="#474746"/>
<path d="M489.257 225.746L471.979 225.3L479.184 213.063C481.222 212.884 483.001 212.8 484.532 212.775H484.545C484.575 212.775 484.604 212.776 484.634 212.776C484.875 212.772 485.109 212.769 485.337 212.767H485.494C489.946 212.767 492.001 213.284 492.001 213.284C492.223 213.315 492.459 213.361 492.708 213.42C493.623 213.7 494.715 214.124 495.673 214.533L489.257 225.746Z" fill="#565656"/>
<path d="M467.834 225.211L462.378 225.07L467.834 225.209V225.211Z" fill="#FFD53A"/>
<path d="M467.834 225.211L462.378 225.072H462.372L462.383 225.054L467.843 225.195L467.834 225.211ZM468.557 214.555L468.876 214.014C471.053 213.688 473.055 213.436 474.884 213.248L474.698 213.565C472.818 213.819 470.772 214.143 468.557 214.555Z" fill="#474746"/>
<path d="M467.843 225.193L462.383 225.053L468.557 214.554C470.772 214.142 472.818 213.817 474.698 213.564L467.843 225.193Z" fill="#565656"/>
<path d="M453.817 224.855L452.409 224.818L453.818 224.854L453.817 224.855Z" fill="#FFD53A"/>
<path d="M453.818 224.854L452.409 224.818L451.657 224.797L451.669 224.778L453.83 224.834L453.818 224.854ZM455.978 217.451L456.614 216.372C457.472 216.181 458.319 215.99 459.141 215.814L458.578 216.769C457.728 216.986 456.864 217.212 455.978 217.451Z" fill="#474746"/>
<path d="M453.83 224.834L451.669 224.778L455.978 217.45C456.864 217.212 457.728 216.985 458.578 216.769L453.83 224.834Z" fill="#565656"/>
<path d="M516.137 226.438L510.547 226.297V226.295L516.137 226.438ZM510.089 226.285H510.084V226.283H510.089V226.285ZM509.626 226.273L499.02 226.006L499.022 226.002L509.626 226.272V226.273Z" fill="#FFD53A"/>
<path d="M510.084 226.285L509.626 226.273V226.272L510.084 226.284V226.285Z" fill="#E6E6E8"/>
<path d="M510.547 226.297L510.089 226.285V226.284L510.547 226.295V226.297Z" fill="#9A9A9B"/>
<path d="M511.149 223.152C510.709 222.871 510.249 222.578 509.774 222.277L510.329 222.613L511.149 223.152Z" fill="#FFD53A"/>
<path d="M516.137 226.438L510.547 226.295L510.089 226.283H510.084L509.626 226.272L499.022 226.002L499.025 225.996L516.137 226.438Z" fill="#474746"/>
<path d="M516.137 226.438L499.025 225.996L503.048 218.227L509.774 222.276C510.249 222.577 510.709 222.87 511.149 223.152L516.137 226.438Z" fill="#565656"/>
<path d="M563.946 240.497C563.946 241.534 563.187 242.369 562.251 242.369H557.401C556.468 242.369 555.711 241.534 555.711 240.497C555.711 239.468 556.468 238.626 557.401 238.626H562.251C563.187 238.626 563.946 239.468 563.946 240.497Z" fill="white"/>
<path d="M562.251 238.626H559.556C559.822 239.741 560.019 241.012 560.153 242.369H562.251C563.187 242.369 563.946 241.534 563.946 240.497C563.946 239.468 563.187 238.626 562.251 238.626ZM569.131 242.178H571.826C571.675 241.27 571.675 239.851 571.233 238.443H569.131C568.202 238.443 567.436 239.276 567.436 240.304C567.436 241.34 568.202 242.178 569.131 242.178Z" fill="#C8C8CA"/>
<path d="M574.47 250.74H558.01V245.653H574.47V250.74Z" fill="#3C3C3C"/>
<path d="M574.47 250.74H559.742V245.653H574.47V250.74Z" fill="#2C2C2C"/>
<path d="M573.784 250.029H560.386V246.258H573.784V250.029Z" fill="#C8C8CA"/>
<path d="M433.09 250.806C433.09 251.606 432.62 252.256 432.05 252.256H418.681C418.104 252.256 417.641 251.606 417.641 250.806C417.641 250.013 418.104 249.367 418.681 249.367H432.05C432.62 249.367 433.09 250.013 433.09 250.806Z" fill="#E8E8EA"/>
<path d="M517.306 225.566C517.306 226.961 516.488 228.088 515.475 228.088H511.879C510.86 228.088 510.039 226.961 510.039 225.566C510.039 224.183 510.86 223.045 511.879 223.045H515.475C516.488 223.045 517.306 224.183 517.306 225.566Z" fill="#DD9505"/>
<path d="M518.356 225.566C518.356 226.961 517.537 228.088 516.523 228.088H512.928C511.918 228.088 511.088 226.961 511.088 225.566C511.088 224.183 511.918 223.045 512.928 223.045H516.523C517.537 223.045 518.356 224.183 518.356 225.566Z" fill="#B26E02"/>
<path d="M518.414 228.722C518.414 229.449 517.943 230.043 517.359 230.043C516.78 230.043 516.304 229.449 516.304 228.722V225.649C516.304 224.917 516.78 224.328 517.359 224.328C517.943 224.328 518.414 224.917 518.414 225.649V228.722Z" fill="#B26E02"/>
<path d="M453.639 184.785H459.06V169.162H453.639V184.785Z" fill="#E2530C"/>
<path d="M496.545 209.076H490.062V172.286H496.545V209.076Z" fill="#FC6405"/>
<path d="M490.496 209.076H481.721V172.286H490.496V209.076Z" fill="#FF7F00"/>
<path d="M454.39 183.357H487.478V170.549H454.39V183.357Z" fill="#FF7F00"/>
<path d="M469.489 185.479H492.215V168.871H469.489V185.479Z" fill="#FF7F00"/>
<path d="M492.186 190.193H480.281V175.363H492.186V190.193Z" fill="#FF7F00"/>
<path d="M497.993 189.98H492.179V168.871H497.993V189.98Z" fill="#FF5F01"/>
<path d="M503.657 210.396H476.117V207.88H503.657V210.396Z" fill="#787A7A"/>
<path d="M503.657 210.396H493.777V207.88H503.657V210.396Z" fill="#4D4D4D"/>
<mask id="mask1_172_2048" style="mask-type:luminance" maskUnits="userSpaceOnUse" x="454" y="170" width="16" height="14">
<path d="M469.489 183.357H454.39L469.489 170.654V183.357Z" fill="white"/>
</mask>
<g mask="url(#mask1_172_2048)">
<path d="M454.39 183.357H469.489V170.654H454.39V183.357Z" fill="#E57200"/>
</g>
<path d="M469.502 183.357H469.489V170.654L469.502 170.642V183.357Z" fill="#E57200"/>
<path d="M485.945 185.535H469.439V176.971H485.945V185.535Z" fill="#FFA522"/>
<path d="M487.029 190.357H480.237V177.033H487.029V190.357Z" fill="#FFA522"/>
<path d="M593.92 297.75H15.1657V293.133H593.92V297.75Z" fill="#424242"/>
</svg>
